<svg width="150" height="112" viewBox="0 0 150 112" fill="none" xmlns="http://www.w3.org/2000/svg">
<path d="M134.97 103.74H125.034V103.815H134.97V103.74Z" fill="#EBEBEB"/>
<path d="M99.366 104.557H96.759V104.632H99.366V104.557Z" fill="#EBEBEB"/>
<path d="M124.734 100.956H118.977V101.031H124.734V100.956Z" fill="#EBEBEB"/>
<path d="M28.695 101.46H15.738V101.535H28.695V101.46Z" fill="#EBEBEB"/>
<path d="M33.2669 101.46H31.3679V101.535H33.2669V101.46Z" fill="#EBEBEB"/>
<path d="M67.5449 102.727H39.4409V102.802H67.5449V102.727Z" fill="#EBEBEB"/>
<path d="M71.0999 85.5334H13.1759C12.7216 85.5334 12.2859 85.3529 11.9646 85.0316C11.6434 84.7104 11.4629 84.2747 11.4629 83.8204V2.39136C11.4668 1.93965 11.6491 1.50778 11.9699 1.18977C12.2907 0.871758 12.7242 0.693342 13.1759 0.693359H71.0999C71.5542 0.693359 71.9899 0.873836 72.3112 1.19509C72.6324 1.51634 72.8129 1.95204 72.8129 2.40636V83.8204C72.8129 84.2747 72.6324 84.7104 72.3112 85.0316C71.9899 85.3529 71.5542 85.5334 71.0999 85.5334ZM13.1759 0.75336C12.7417 0.754153 12.3255 0.926981 12.0185 1.23399C11.7115 1.54101 11.5387 1.95718 11.5379 2.39136V83.8204C11.5387 84.2545 11.7115 84.6707 12.0185 84.9777C12.3255 85.2847 12.7417 85.4576 13.1759 85.4584H71.0999C71.5341 85.4576 71.9502 85.2847 72.2573 84.9777C72.5643 84.6707 72.7371 84.2545 72.7379 83.8204V2.39136C72.7371 1.95718 72.5643 1.54101 72.2573 1.23399C71.9502 0.926981 71.5341 0.754153 71.0999 0.75336H13.1759Z" fill="#EBEBEB"/>
<path d="M135.993 85.5334H78.0631C77.609 85.5326 77.1738 85.3518 76.8527 85.0308C76.5316 84.7097 76.3509 84.2744 76.3501 83.8204V2.39136C76.3548 1.93989 76.5373 1.50848 76.858 1.19064C77.1786 0.872792 77.6116 0.694124 78.0631 0.693359H135.993C136.444 0.694921 136.876 0.874034 137.195 1.19188C137.515 1.50972 137.696 1.94069 137.7 2.39136V83.8204C137.7 84.2736 137.52 84.7084 137.2 85.0295C136.881 85.3506 136.446 85.5318 135.993 85.5334ZM78.0631 0.75336C77.6289 0.754153 77.2127 0.926981 76.9057 1.23399C76.5987 1.54101 76.4259 1.95718 76.4251 2.39136V83.8204C76.4259 84.2545 76.5987 84.6707 76.9057 84.9777C77.2127 85.2847 77.6289 85.4576 78.0631 85.4584H135.993C136.427 85.4576 136.843 85.2847 137.15 84.9777C137.457 84.6707 137.63 84.2545 137.631 83.8204V2.39136C137.63 1.95718 137.457 1.54101 137.15 1.23399C136.843 0.926981 136.427 0.754153 135.993 0.75336H78.0631Z" fill="#EBEBEB"/>
<path d="M150 98.9131H0V98.9881H150V98.9131Z" fill="#EBEBEB"/>
<path d="M21.7439 98.9404H27.3179L27.3179 68.0704H21.7439L21.7439 98.9404Z" fill="#E6E6E6"/>
<path d="M25.7939 98.9404H55.8689L55.8689 68.0704H25.7939L25.7939 98.9404Z" fill="#F5F5F5"/>
<path d="M20.439 68.7451H27.366V67.3921H20.439V68.7451Z" fill="#E0E0E0"/>
<path d="M25.2719 68.7451H56.9009V67.3921H25.2719V68.7451Z" fill="#EBEBEB"/>
<path d="M42.942 88.2212C43.0108 88.2216 43.079 88.2084 43.1426 88.1823C43.2063 88.1563 43.2642 88.1179 43.313 88.0694C43.3618 88.0209 43.4005 87.9632 43.4269 87.8997C43.4534 87.8361 43.467 87.768 43.467 87.6992V85.3472C43.467 85.2784 43.4534 85.2103 43.4269 85.1467C43.4005 85.0832 43.3618 85.0255 43.313 84.977C43.2642 84.9285 43.2063 84.8901 43.1426 84.8641C43.079 84.838 43.0108 84.8248 42.942 84.8252C42.8035 84.8252 42.6707 84.8802 42.5728 84.9781C42.475 85.076 42.42 85.2088 42.42 85.3472V87.6932C42.4192 87.7623 42.4321 87.8308 42.458 87.8948C42.4838 87.9588 42.5222 88.0171 42.5707 88.0662C42.6193 88.1153 42.6771 88.1543 42.7408 88.1809C42.8045 88.2075 42.8729 88.2212 42.942 88.2212Z" fill="#E6E6E6"/>
<path d="M39.4139 88.2212C39.5523 88.2212 39.6851 88.1662 39.783 88.0683C39.8809 87.9704 39.9359 87.8376 39.9359 87.6992V85.3472C39.9359 85.2087 39.8809 85.076 39.783 84.9781C39.6851 84.8802 39.5523 84.8252 39.4139 84.8252C39.2754 84.8252 39.1427 84.8802 39.0448 84.9781C38.9469 85.076 38.8919 85.2087 38.8919 85.3472V87.6932C38.8911 87.7622 38.904 87.8308 38.9299 87.8948C38.9558 87.9588 38.9941 88.0171 39.0426 88.0662C39.0912 88.1153 39.149 88.1543 39.2127 88.1809C39.2764 88.2075 39.3448 88.2212 39.4139 88.2212Z" fill="#E6E6E6"/>
<path d="M55.8719 74.4961V75.0211H41.4389V98.9401H40.9169V75.0211H25.7969V74.4961H55.8719Z" fill="#E0E0E0"/>
<path d="M115.677 55.5754H123.294L117.165 20.8174H109.548L115.677 55.5754Z" fill="#FAFAFA"/>
<path d="M111.243 55.5754H113.298L107.169 20.8174H105.114L111.243 55.5754Z" fill="#FAFAFA"/>
<path d="M88.9621 56.178H91.0711L84.7741 20.457H82.6621L88.9621 56.178Z" fill="#FAFAFA"/>
<path d="M93.1649 56.178H97.1429L90.8459 20.457H86.8679L93.1649 56.178Z" fill="#FAFAFA"/>
<path d="M103.818 20.2773H128.7V56.1933H103.818V20.2773ZM126.732 22.2453H105.786V54.2133H126.732V22.2453Z" fill="#E6E6E6"/>
<path d="M77.949 19.293H129.684V57.165H77.949V19.293ZM127.716 21.261H79.917V55.197H127.716V21.261Z" fill="#F5F5F5"/>
<path d="M58.044 55.5754H65.661L59.532 20.8174H51.915L58.044 55.5754Z" fill="#FAFAFA"/>
<path d="M53.6129 55.5754H55.6649L49.5359 20.8174H47.4839L53.6129 55.5754Z" fill="#FAFAFA"/>
<path d="M31.3291 56.178H33.4381L27.1411 20.457H25.0291L31.3291 56.178Z" fill="#FAFAFA"/>
<path d="M35.5321 56.178H39.5101L33.2131 20.457H29.2351L35.5321 56.178Z" fill="#FAFAFA"/>
<path d="M46.1821 20.2773H71.0671V56.1933H46.1821V20.2773ZM69.0991 22.2453H48.1531V54.2133H69.0991V22.2453Z" fill="#E6E6E6"/>
<path d="M20.3159 19.293H72.0509V57.165H20.3159V19.293ZM70.0829 21.261H22.2839V55.197H70.0829V21.261Z" fill="#F5F5F5"/>
<path d="M116.886 87.7384C116.984 84.165 116.385 80.6067 115.122 77.2624C116.142 75.3754 115.779 68.8144 113.703 69.0334C112.944 69.1114 113.211 70.8724 112.599 70.6984C111.345 70.3444 110.871 66.9694 109.449 66.4714C108.549 66.1534 109.149 68.7364 108.423 68.9494C107.697 69.1624 104.931 68.6494 104.358 69.7474C103.785 70.8454 106.422 71.0584 106.827 71.3494C107.232 71.6404 105.402 72.0874 106.272 72.7834C107.142 73.4794 109.05 71.7694 109.254 72.3274C109.458 72.8854 107.454 73.5274 108.069 74.3914C108.684 75.2554 111.498 73.6594 111.798 74.4694C112.098 75.2794 109.422 75.7654 110.475 77.0104C111.216 77.8834 113.427 77.7454 114.702 77.5594C114.786 77.5444 114.849 77.5324 114.903 77.5174C116.068 80.8388 116.578 84.3549 116.403 87.8704L116.886 87.7384Z" fill="#E6E6E6"/>
<path d="M117.663 86.154C117.296 82.9535 117.556 79.7122 118.428 76.611C117.366 74.997 117.18 69.081 119.061 69.111C119.748 69.111 119.646 70.725 120.18 70.521C121.278 70.104 121.44 67.041 122.679 66.48C123.471 66.123 123.114 68.49 123.792 68.625C124.47 68.76 126.9 68.094 127.5 69.024C128.1 69.954 125.748 70.362 125.4 70.656C125.052 70.95 126.738 71.208 126 71.901C125.262 72.594 123.426 71.208 123.3 71.721C123.174 72.234 125.013 72.666 124.524 73.482C124.035 74.298 121.389 73.092 121.182 73.845C120.975 74.598 123.417 74.823 122.568 76.023C121.968 76.863 119.976 76.923 118.818 76.845C118.756 76.8419 118.695 76.8339 118.635 76.821C117.848 79.8947 117.667 83.092 118.101 86.235L117.663 86.154Z" fill="#EBEBEB"/>
<path d="M116.892 86.1544C116.832 83.9882 117.195 81.8311 117.96 79.8034C117.342 78.6574 117.564 74.6824 118.821 74.8144C119.283 74.8624 119.121 75.9274 119.49 75.8224C120.252 75.6094 120.537 73.5634 121.401 73.2604C121.953 73.0684 121.575 74.6344 122.022 74.7604C122.469 74.8864 124.14 74.5864 124.488 75.2434C124.836 75.9004 123.237 76.0384 122.988 76.2154C122.739 76.3924 123.852 76.6624 123.324 77.0854C122.796 77.5084 121.638 76.4854 121.524 76.8064C121.41 77.1274 122.619 77.5414 122.244 78.0574C121.869 78.5734 120.165 77.6134 119.982 78.1054C119.799 78.5974 121.425 78.8914 120.783 79.6474C120.336 80.1754 118.983 80.0914 118.221 79.9804L118.101 79.9534C117.398 81.9685 117.092 84.1009 117.201 86.2324L116.892 86.1544Z" fill="#F5F5F5"/>
<path d="M120.189 98.9404H113.592L112.548 84.3574H121.23L120.189 98.9404Z" fill="#EBEBEB"/>
<path d="M73.5537 111.306C105.678 111.306 131.721 109.785 131.721 107.91C131.721 106.034 105.678 104.514 73.5537 104.514C41.429 104.514 15.3867 106.034 15.3867 107.91C15.3867 109.785 41.429 111.306 73.5537 111.306Z" fill="#F5F5F5"/>
<path d="M51.495 89.6729H39.978V91.4459H51.495V89.6729Z" fill="#717BBC"/>
<path d="M40.4491 90.6934H51.0241C51.2843 90.6934 51.5338 90.7967 51.7178 90.9807C51.9017 91.1647 52.0051 91.4142 52.0051 91.6744V108.957H39.4651V91.6774C39.4647 91.548 39.4899 91.4199 39.5392 91.3003C39.5885 91.1808 39.661 91.0721 39.7524 90.9807C39.8439 90.8892 39.9525 90.8168 40.0721 90.7675C40.1916 90.7181 40.3198 90.693 40.4491 90.6934Z" fill="#717BBC"/>
<path opacity="0.5" d="M40.4491 90.6934H51.0241C51.2843 90.6934 51.5338 90.7967 51.7178 90.9807C51.9017 91.1647 52.0051 91.4142 52.0051 91.6744V108.957H39.4651V91.6774C39.4647 91.548 39.4899 91.4199 39.5392 91.3003C39.5885 91.1808 39.661 91.0721 39.7524 90.9807C39.8439 90.8892 39.9525 90.8168 40.0721 90.7675C40.1916 90.7181 40.3198 90.693 40.4491 90.6934Z" fill="white"/>
<path d="M50.9221 87.4922H40.5481C39.95 87.4922 39.4651 87.9771 39.4651 88.5752V89.1362C39.4651 89.7343 39.95 90.2192 40.5481 90.2192H50.9221C51.5202 90.2192 52.0051 89.7343 52.0051 89.1362V88.5752C52.0051 87.9771 51.5202 87.4922 50.9221 87.4922Z" fill="#717BBC"/>
<path opacity="0.7" d="M50.9221 87.4922H40.5481C39.95 87.4922 39.4651 87.9771 39.4651 88.5752V89.1362C39.4651 89.7343 39.95 90.2192 40.5481 90.2192H50.9221C51.5202 90.2192 52.0051 89.7343 52.0051 89.1362V88.5752C52.0051 87.9771 51.5202 87.4922 50.9221 87.4922Z" fill="white"/>
<path d="M43.0891 108.961H37.2271V108.145L43.0891 107.599V108.961Z" fill="#717BBC"/>
<path opacity="0.7" d="M43.0891 108.961H37.2271V108.145L43.0891 107.599V108.961Z" fill="white"/>
<path d="M95.5648 20.7154C91.0288 19.4494 86.5018 18.1494 81.9838 16.8154C77.5838 18.1414 73.1838 19.4414 68.7838 20.7154C64.5038 19.4414 60.2328 18.1414 55.9708 16.8154C51.3228 18.1494 46.6668 19.4494 42.0028 20.7154L31.4998 63.3364C37.5618 62.0584 43.6188 60.7584 49.6708 59.4364C55.3368 60.7604 61.0098 62.0604 66.6898 63.3364C72.4898 62.0644 78.2898 60.7644 84.0898 59.4364C90.0118 60.7664 95.9408 62.0664 101.877 63.3364C107.427 62.0584 112.971 60.7584 118.509 59.4364L108 16.8154C103.862 18.1414 99.7168 19.4414 95.5648 20.7154Z" fill="#717BBC"/>
<path opacity="0.8" d="M95.5648 20.7154C91.0288 19.4494 86.5018 18.1494 81.9838 16.8154C77.5838 18.1414 73.1838 19.4414 68.7838 20.7154C64.5038 19.4414 60.2328 18.1414 55.9708 16.8154C51.3228 18.1494 46.6668 19.4494 42.0028 20.7154L31.4998 63.3364C37.5618 62.0584 43.6188 60.7584 49.6708 59.4364C55.3368 60.7604 61.0098 62.0604 66.6898 63.3364C72.4898 62.0644 78.2898 60.7644 84.0898 59.4364C90.0118 60.7664 95.9408 62.0664 101.877 63.3364C107.427 62.0584 112.971 60.7584 118.509 59.4364L108 16.8154C103.862 18.1414 99.7168 19.4414 95.5648 20.7154Z" fill="white"/>
<path d="M66.8068 60.861C72.5308 59.589 78.2498 58.289 83.9638 56.961C89.8058 58.291 95.6538 59.591 101.508 60.861C106.134 59.785 110.757 58.685 115.377 57.561C112.473 45.003 109.573 32.446 106.677 19.89C103.107 21.012 99.5278 22.112 95.9398 23.19C91.3238 21.924 86.7158 20.624 82.1158 19.29C77.6398 20.612 73.1588 21.912 68.6728 23.19C64.3128 21.916 59.9608 20.616 55.6168 19.29C51.6448 20.408 47.6678 21.508 43.6858 22.59C40.7818 35.146 37.8818 47.702 34.9858 60.258C40.0118 59.174 45.0328 58.074 50.0488 56.958C55.6228 58.28 61.2088 59.581 66.8068 60.861Z" fill="#717BBC"/>
<path opacity="0.4" d="M66.8068 60.861C72.5308 59.589 78.2498 58.289 83.9638 56.961C89.8058 58.291 95.6538 59.591 101.508 60.861C106.134 59.785 110.757 58.685 115.377 57.561C112.473 45.003 109.573 32.446 106.677 19.89C103.107 21.012 99.5278 22.112 95.9398 23.19C91.3238 21.924 86.7158 20.624 82.1158 19.29C77.6398 20.612 73.1588 21.912 68.6728 23.19C64.3128 21.916 59.9608 20.616 55.6168 19.29C51.6448 20.408 47.6678 21.508 43.6858 22.59C40.7818 35.146 37.8818 47.702 34.9858 60.258C40.0118 59.174 45.0328 58.074 50.0488 56.958C55.6228 58.28 61.2088 59.581 66.8068 60.861Z" fill="white"/>
<path d="M79.7787 49.6441C79.5537 47.2441 79.3707 45.0631 78.4287 43.8031C76.3287 41.0161 71.3037 41.6101 68.1477 42.1861C67.7967 41.5861 66.8967 39.9151 65.9097 35.8861C64.9677 32.0401 60.6117 30.1861 57.2517 29.1031C56.3037 28.8031 55.1307 28.4011 54.9357 28.1251C54.6567 26.8561 53.4357 26.7961 52.2357 26.7421C51.2727 26.6971 50.1747 26.6461 49.2987 26.0641C48.5157 25.5421 49.4157 23.0791 50.5887 20.7061L49.6017 20.9761C49.5177 21.1591 49.4307 21.3421 49.3467 21.5281C47.9517 24.6421 47.2317 26.6281 48.4017 27.3841C49.5717 28.1401 50.8647 28.1911 51.9327 28.2421C53.0007 28.2931 53.5107 28.3501 53.5767 28.6861C53.7507 29.5861 54.8637 29.9851 56.6817 30.5431C59.7807 31.4941 63.5487 32.9431 64.4997 36.3601C66.0897 42.0601 67.0707 43.4101 67.2567 43.5811L67.5357 43.8391L67.9227 43.7581C70.7457 43.2211 75.3327 42.5791 77.1597 44.6341C77.8767 45.4411 78.0597 47.6011 78.2007 49.7491C78.3597 52.4221 78.2637 55.4491 79.0767 58.1011L81.4467 57.5551C80.2677 54.8461 80.0037 52.0321 79.7787 49.6441Z" fill="#717BBC"/>
<path opacity="0.2" d="M79.7787 49.6441C79.5537 47.2441 79.3707 45.0631 78.4287 43.8031C76.3287 41.0161 71.3037 41.6101 68.1477 42.1861C67.7967 41.5861 66.8967 39.9151 65.9097 35.8861C64.9677 32.0401 60.6117 30.1861 57.2517 29.1031C56.3037 28.8031 55.1307 28.4011 54.9357 28.1251C54.6567 26.8561 53.4357 26.7961 52.2357 26.7421C51.2727 26.6971 50.1747 26.6461 49.2987 26.0641C48.5157 25.5421 49.4157 23.0791 50.5887 20.7061L49.6017 20.9761C49.5177 21.1591 49.4307 21.3421 49.3467 21.5281C47.9517 24.6421 47.2317 26.6281 48.4017 27.3841C49.5717 28.1401 50.8647 28.1911 51.9327 28.2421C53.0007 28.2931 53.5107 28.3501 53.5767 28.6861C53.7507 29.5861 54.8637 29.9851 56.6817 30.5431C59.7807 31.4941 63.5487 32.9431 64.4997 36.3601C66.0897 42.0601 67.0707 43.4101 67.2567 43.5811L67.5357 43.8391L67.9227 43.7581C70.7457 43.2211 75.3327 42.5791 77.1597 44.6341C77.8767 45.4411 78.0597 47.6011 78.2007 49.7491C78.3597 52.4221 78.2637 55.4491 79.0767 58.1011L81.4467 57.5551C80.2677 54.8461 80.0037 52.0321 79.7787 49.6441Z" fill="white"/>
<g opacity="0.5">
<path d="M84.3838 34.7158L94.3648 35.5558C94.6498 37.8238 94.7908 38.9608 95.0758 41.2288L88.3888 40.5928L88.1338 37.5448L84.5338 37.0918C84.4678 36.1438 84.4378 35.6668 84.3838 34.7158Z" fill="white"/>
<path d="M83.9998 37.9707L87.3538 38.4267L87.6088 41.7267L84.1948 41.4627L83.9998 37.9707Z" fill="white"/>
</g>
<path opacity="0.5" d="M100.2 27.9668C99.1318 28.3898 98.5948 28.5998 97.4998 29.0228L97.9648 32.0648C99.0838 31.7138 99.6388 31.5398 100.746 31.1858C100.536 29.8988 100.425 29.2538 100.2 27.9668Z" fill="white"/>
<path opacity="0.5" d="M50.2079 47.0645C48.1079 47.7215 47.0429 48.0485 44.8979 48.7025C44.5469 50.5865 44.3699 51.5315 44.0159 53.4155C46.1999 52.8695 47.2829 52.5994 49.4309 52.0534C49.7399 50.0584 49.8959 49.0595 50.2079 47.0645Z" fill="white"/>
<path d="M82.7998 33.5225C87.7018 33.9225 92.6018 34.3225 97.4998 34.7225H97.5958C101.52 33.6625 105.438 32.5835 109.35 31.4855L109.05 30.2465C105.142 31.3585 101.227 32.4465 97.3048 33.5105L91.9618 33.0755C90.4998 29.0375 89.0998 24.9835 87.7618 20.9135L86.2618 20.4875C87.5978 24.6635 88.9918 28.8185 90.4438 32.9525L82.5808 32.3075C80.4808 33.0695 79.4158 33.4535 77.2618 34.2155H68.1628C63.5988 33.4955 59.0368 32.7665 54.4768 32.0285C56.2228 28.2065 57.9068 24.3595 59.5288 20.4875L58.5478 20.1875C56.8618 24.1455 55.1138 28.0735 53.3038 31.9715C49.2358 32.5715 45.1658 33.1605 41.0938 33.7385C40.9828 34.2245 40.9258 34.4675 40.8148 34.9385C44.9608 34.3385 49.1078 33.7385 53.2558 33.1385C54.8428 36.9665 56.5978 40.7045 58.4188 44.4275L51.7738 43.8935C47.1638 45.1195 42.5458 46.3195 37.9198 47.4935C37.7458 48.2405 37.6588 48.6155 37.4878 49.3625C42.2258 48.1785 46.9568 46.9705 51.6808 45.7385L59.2408 46.3385C60.6088 50.9885 62.0968 55.6025 63.7408 60.1595L65.3218 60.5195C63.5998 55.8935 62.0428 51.1865 60.5998 46.4525L67.4188 47.0045C72.8728 48.4505 78.3398 49.8675 83.8198 51.2555C87.7078 50.0055 91.5868 48.7255 95.4568 47.4155C97.0378 49.7825 97.8568 50.9645 99.5308 53.3315C102.847 55.2515 106.188 57.1305 109.554 58.9685L112.032 58.3685C108.282 56.3185 104.555 54.2295 100.851 52.1015C99.3508 50.0015 98.6128 48.9395 97.1848 46.8305L99.3478 46.0895C103.626 45.3155 107.903 44.5325 112.179 43.7405C112.008 43.0085 111.924 42.6425 111.756 41.9105C107.38 42.7305 103.003 43.5405 98.6248 44.3405C93.6508 46.0585 88.6648 47.7365 83.6668 49.3745C80.6428 48.6025 77.6218 47.8195 74.6038 47.0255C75.7618 43.1315 76.8428 39.2165 77.8468 35.2805C79.8448 34.5935 80.8348 34.2275 82.7998 33.5225ZM73.4128 46.7075C71.1718 46.1075 70.0588 45.8075 67.8598 45.2255L59.9188 44.5745C58.0678 40.8575 56.2768 37.1225 54.6568 33.2975C59.1008 34.0095 63.5448 34.7095 67.9888 35.3975H76.6198C75.6138 39.1915 74.5398 42.9615 73.3978 46.7075H73.4128Z" fill="white"/>
<path opacity="0.1" d="M49.6649 59.4364C43.6129 60.7604 37.5559 62.0604 31.4939 63.3364L41.9939 20.7154C46.6579 19.4474 51.3139 18.1474 55.9619 16.8154L49.6649 59.4364Z" fill="black"/>
<path opacity="0.1" d="M84.0868 59.4364C78.2868 60.7664 72.4868 62.0664 66.6868 63.3364C67.3868 49.1364 68.0868 34.9294 68.7868 20.7154C73.1868 19.4414 77.5868 18.1414 81.9868 16.8154C82.6848 31.0234 83.3848 45.2304 84.0868 59.4364Z" fill="black"/>
<path opacity="0.1" d="M118.5 59.4364C112.962 60.7604 107.418 62.0604 101.868 63.3364L95.5676 20.7154C99.7196 19.4414 103.863 18.1414 107.997 16.8154L118.5 59.4364Z" fill="black"/>
<path opacity="0.1" d="M101.232 31.4643C101.232 31.7973 100.398 32.0643 99.3716 32.0643C98.3456 32.0643 97.5146 31.7973 97.5146 31.4643C97.5146 31.1313 98.3456 30.8643 99.3716 30.8643C100.398 30.8643 101.232 31.1343 101.232 31.4643Z" fill="black"/>
<path d="M99.5277 31.2634C100.467 31.2634 101.232 29.4214 101.232 28.4824C101.232 28.0302 101.052 27.5965 100.733 27.2764C100.413 26.9564 99.9799 26.7762 99.5277 26.7754H99.2277C99.0037 26.7754 98.7818 26.8196 98.5749 26.9054C98.368 26.9912 98.18 27.117 98.0217 27.2755C97.8634 27.4341 97.738 27.6223 97.6525 27.8294C97.5671 28.0365 97.5233 28.2584 97.5237 28.4824C97.5237 29.4214 98.2857 31.2634 99.2277 31.2634H99.5277ZM98.8467 28.4824C98.8693 28.3832 98.9194 28.2924 98.9914 28.2205C99.0633 28.1486 99.1541 28.0985 99.2533 28.0759C99.3524 28.0533 99.456 28.0592 99.552 28.0928C99.648 28.1265 99.7325 28.1866 99.7958 28.2662C99.8591 28.3458 99.8987 28.4417 99.9099 28.5428C99.9211 28.6439 99.9036 28.7461 99.8592 28.8377C99.8149 28.9292 99.7456 29.0064 99.6594 29.0603C99.5731 29.1142 99.4734 29.1427 99.3717 29.1424C99.2228 29.1073 99.09 29.0232 98.9947 28.9034C98.8995 28.7837 98.8473 28.6354 98.8467 28.4824Z" fill="#263238"/>
<path d="M99.2187 26.7754C98.9946 26.7754 98.7728 26.8196 98.5659 26.9054C98.3589 26.9912 98.1709 27.117 98.0127 27.2755C97.8544 27.4341 97.729 27.6223 97.6435 27.8294C97.558 28.0365 97.5143 28.2584 97.5147 28.4824C97.5147 29.4214 98.2767 31.2634 99.2187 31.2634C100.161 31.2634 100.923 29.4214 100.923 28.4824C100.923 28.2584 100.879 28.0365 100.794 27.8294C100.708 27.6223 100.583 27.4341 100.425 27.2755C100.266 27.117 100.078 26.9912 99.8714 26.9054C99.6645 26.8196 99.4427 26.7754 99.2187 26.7754ZM99.2187 29.1604C99.0838 29.1604 98.9521 29.1204 98.84 29.0454C98.728 28.9704 98.6407 28.8639 98.5892 28.7393C98.5378 28.6147 98.5244 28.4776 98.551 28.3454C98.5775 28.2132 98.6426 28.0919 98.7382 27.9968C98.8337 27.9017 98.9553 27.837 99.0876 27.8111C99.2199 27.7852 99.357 27.7991 99.4814 27.8511C99.6057 27.9031 99.7119 27.9909 99.7863 28.1032C99.8608 28.2156 99.9002 28.3476 99.8997 28.4824C99.8997 28.5717 99.882 28.6601 99.8478 28.7425C99.8135 28.825 99.7633 28.8999 99.7 28.9629C99.6367 29.0259 99.5616 29.0757 99.479 29.1096C99.3964 29.1435 99.3079 29.1608 99.2187 29.1604Z" fill="#717BBC"/>
<path opacity="0.3" d="M99.2187 26.7754C98.9946 26.7754 98.7728 26.8196 98.5659 26.9054C98.3589 26.9912 98.1709 27.117 98.0127 27.2755C97.8544 27.4341 97.729 27.6223 97.6435 27.8294C97.558 28.0365 97.5143 28.2584 97.5147 28.4824C97.5147 29.4214 98.2767 31.2634 99.2187 31.2634C100.161 31.2634 100.923 29.4214 100.923 28.4824C100.923 28.2584 100.879 28.0365 100.794 27.8294C100.708 27.6223 100.583 27.4341 100.425 27.2755C100.266 27.117 100.078 26.9912 99.8714 26.9054C99.6645 26.8196 99.4427 26.7754 99.2187 26.7754ZM99.2187 29.1604C99.0838 29.1604 98.9521 29.1204 98.84 29.0454C98.728 28.9704 98.6407 28.8639 98.5892 28.7393C98.5378 28.6147 98.5244 28.4776 98.551 28.3454C98.5775 28.2132 98.6426 28.0919 98.7382 27.9968C98.8337 27.9017 98.9553 27.837 99.0876 27.8111C99.2199 27.7852 99.357 27.7991 99.4814 27.8511C99.6057 27.9031 99.7119 27.9909 99.7863 28.1032C99.8608 28.2156 99.9002 28.3476 99.8997 28.4824C99.8997 28.5717 99.882 28.6601 99.8478 28.7425C99.8135 28.825 99.7633 28.8999 99.7 28.9629C99.6367 29.0259 99.5616 29.0757 99.479 29.1096C99.3964 29.1435 99.3079 29.1608 99.2187 29.1604Z" fill="black"/>
<path opacity="0.1" d="M87.6508 46.9535C87.6508 47.2835 86.8198 47.5535 85.7938 47.5535C84.7678 47.5535 83.9338 47.2835 83.9338 46.9535C83.9338 46.6235 84.7678 46.3535 85.7938 46.3535C86.8198 46.3535 87.6508 46.6205 87.6508 46.9535Z" fill="black"/>
<path d="M85.9467 46.7497C86.8887 46.7497 87.6507 44.9106 87.6507 43.9686C87.6507 43.5167 87.4712 43.0833 87.1516 42.7637C86.8321 42.4442 86.3986 42.2647 85.9467 42.2647H85.6467C85.4227 42.2643 85.2008 42.308 84.9937 42.3935C84.7866 42.479 84.5984 42.6044 84.4398 42.7627C84.2813 42.9209 84.1555 43.1089 84.0697 43.3159C83.9839 43.5228 83.9397 43.7446 83.9397 43.9686C83.9397 44.9106 84.7047 46.7497 85.6467 46.7497H85.9467ZM85.2687 43.9686C85.2913 43.8695 85.3415 43.7787 85.4134 43.7068C85.4853 43.6349 85.5761 43.5847 85.6753 43.5621C85.7745 43.5395 85.878 43.5454 85.974 43.5791C86.07 43.6128 86.1545 43.6729 86.2178 43.7525C86.2811 43.8321 86.3207 43.928 86.3319 44.0291C86.3431 44.1302 86.3256 44.2324 86.2812 44.3239C86.2369 44.4155 86.1677 44.4927 86.0814 44.5466C85.9951 44.6005 85.8954 44.6289 85.7937 44.6286C85.6443 44.5946 85.5109 44.5107 85.4154 44.3907C85.32 44.2708 85.2683 44.1219 85.2687 43.9686Z" fill="#263238"/>
<path d="M85.6408 42.2647C85.4168 42.2643 85.1949 42.308 84.9878 42.3935C84.7807 42.479 84.5925 42.6044 84.434 42.7627C84.2754 42.9209 84.1497 43.1089 84.0638 43.3159C83.978 43.5228 83.9338 43.7446 83.9338 43.9686C83.9338 44.9106 84.6988 46.7497 85.6408 46.7497C86.5828 46.7497 87.3448 44.9106 87.3448 43.9686C87.3448 43.7449 87.3008 43.5233 87.2151 43.3166C87.1295 43.1098 87.004 42.922 86.8457 42.7637C86.6875 42.6055 86.4997 42.48 86.2929 42.3944C86.0862 42.3087 85.8646 42.2647 85.6408 42.2647ZM85.6408 44.6647C85.506 44.6652 85.3741 44.6258 85.2617 44.5513C85.1493 44.4769 85.0615 44.3707 85.0095 44.2463C84.9575 44.122 84.9436 43.9849 84.9696 43.8526C84.9955 43.7203 85.0601 43.5987 85.1552 43.5032C85.2504 43.4076 85.3717 43.3425 85.5039 43.316C85.6361 43.2894 85.7731 43.3028 85.8977 43.3542C86.0224 43.4057 86.1289 43.4929 86.2039 43.605C86.2788 43.7171 86.3188 43.8488 86.3188 43.9836C86.3149 44.1611 86.2419 44.3301 86.1152 44.4545C85.9886 44.5789 85.8184 44.6489 85.6408 44.6496V44.6647Z" fill="#717BBC"/>
<path opacity="0.3" d="M85.6408 42.2647C85.4168 42.2643 85.1949 42.308 84.9878 42.3935C84.7807 42.479 84.5925 42.6044 84.434 42.7627C84.2754 42.9209 84.1497 43.1089 84.0638 43.3159C83.978 43.5228 83.9338 43.7446 83.9338 43.9686C83.9338 44.9106 84.6988 46.7497 85.6408 46.7497C86.5828 46.7497 87.3448 44.9106 87.3448 43.9686C87.3448 43.7449 87.3008 43.5233 87.2151 43.3166C87.1295 43.1098 87.004 42.922 86.8457 42.7637C86.6875 42.6055 86.4997 42.48 86.2929 42.3944C86.0862 42.3087 85.8646 42.2647 85.6408 42.2647ZM85.6408 44.6647C85.506 44.6652 85.3741 44.6258 85.2617 44.5513C85.1493 44.4769 85.0615 44.3707 85.0095 44.2463C84.9575 44.122 84.9436 43.9849 84.9696 43.8526C84.9955 43.7203 85.0601 43.5987 85.1552 43.5032C85.2504 43.4076 85.3717 43.3425 85.5039 43.316C85.6361 43.2894 85.7731 43.3028 85.8977 43.3542C86.0224 43.4057 86.1289 43.4929 86.2039 43.605C86.2788 43.7171 86.3188 43.8488 86.3188 43.9836C86.3149 44.1611 86.2419 44.3301 86.1152 44.4545C85.9886 44.5789 85.8184 44.6489 85.6408 44.6496V44.6647Z" fill="black"/>
<path opacity="0.1" d="M59.2439 48.393C59.2439 48.726 58.4099 48.993 57.3839 48.993C56.3579 48.993 55.5269 48.726 55.5269 48.393C55.5269 48.06 56.3579 47.793 57.3839 47.793C58.4099 47.793 59.2439 48.066 59.2439 48.393Z" fill="black"/>
<path d="M57.5396 48.195C58.4786 48.195 59.2436 46.353 59.2436 45.414C59.2436 44.9618 59.0642 44.5281 58.7447 44.2081C58.4253 43.888 57.9919 43.7078 57.5396 43.707H57.2396C57.0156 43.707 56.7938 43.7512 56.5869 43.837C56.3799 43.9228 56.1919 44.0486 56.0337 44.2072C55.8754 44.3657 55.75 44.5539 55.6645 44.761C55.579 44.9681 55.5353 45.19 55.5356 45.414C55.5356 46.353 56.2976 48.195 57.2396 48.195H57.5396ZM56.8586 45.414C56.8813 45.3149 56.9314 45.2241 57.0033 45.1522C57.0753 45.0802 57.1661 45.0301 57.2652 45.0075C57.3644 44.9849 57.4679 44.9908 57.5639 45.0245C57.6599 45.0582 57.7444 45.1183 57.8078 45.1979C57.8711 45.2775 57.9106 45.3733 57.9218 45.4744C57.9331 45.5755 57.9155 45.6777 57.8712 45.7693C57.8269 45.8609 57.7576 45.938 57.6713 45.9919C57.5851 46.0459 57.4854 46.0743 57.3836 46.074C57.2347 46.039 57.1019 45.9548 57.0067 45.8351C56.9114 45.7153 56.8593 45.567 56.8586 45.414Z" fill="#263238"/>
<path d="M57.2309 43.707C57.0068 43.707 56.785 43.7512 56.5781 43.837C56.3711 43.9228 56.1832 44.0486 56.0249 44.2072C55.8666 44.3657 55.7412 44.5539 55.6557 44.761C55.5702 44.9681 55.5265 45.19 55.5269 45.414C55.5269 46.353 56.2889 48.195 57.2309 48.195C58.1729 48.195 58.9349 46.353 58.9349 45.414C58.9353 45.19 58.8915 44.9681 58.806 44.761C58.7206 44.5539 58.5951 44.3657 58.4368 44.2072C58.2786 44.0486 58.0906 43.9228 57.8836 43.837C57.6767 43.7512 57.4549 43.707 57.2309 43.707ZM57.2309 46.107C57.0959 46.1076 56.9638 46.0681 56.8514 45.9935C56.7389 45.9189 56.6512 45.8126 56.5993 45.688C56.5474 45.5635 56.5336 45.4263 56.5598 45.2939C56.586 45.1615 56.6509 45.0399 56.7463 44.9445C56.8417 44.8491 56.9634 44.7842 57.0957 44.758C57.2281 44.7318 57.3653 44.7455 57.4899 44.7974C57.6144 44.8494 57.7207 44.9371 57.7953 45.0496C57.8699 45.162 57.9095 45.2941 57.9089 45.429C57.9049 45.6062 57.8318 45.7749 57.7051 45.8988C57.5783 46.0227 57.4081 46.0921 57.2309 46.092V46.107Z" fill="#717BBC"/>
<path opacity="0.3" d="M57.2309 43.707C57.0068 43.707 56.785 43.7512 56.5781 43.837C56.3711 43.9228 56.1832 44.0486 56.0249 44.2072C55.8666 44.3657 55.7412 44.5539 55.6557 44.761C55.5702 44.9681 55.5265 45.19 55.5269 45.414C55.5269 46.353 56.2889 48.195 57.2309 48.195C58.1729 48.195 58.9349 46.353 58.9349 45.414C58.9353 45.19 58.8915 44.9681 58.806 44.761C58.7206 44.5539 58.5951 44.3657 58.4368 44.2072C58.2786 44.0486 58.0906 43.9228 57.8836 43.837C57.6767 43.7512 57.4549 43.707 57.2309 43.707ZM57.2309 46.107C57.0959 46.1076 56.9638 46.0681 56.8514 45.9935C56.7389 45.9189 56.6512 45.8126 56.5993 45.688C56.5474 45.5635 56.5336 45.4263 56.5598 45.2939C56.586 45.1615 56.6509 45.0399 56.7463 44.9445C56.8417 44.8491 56.9634 44.7842 57.0957 44.758C57.2281 44.7318 57.3653 44.7455 57.4899 44.7974C57.6144 44.8494 57.7207 44.9371 57.7953 45.0496C57.8699 45.162 57.9095 45.2941 57.9089 45.429C57.9049 45.6062 57.8318 45.7749 57.7051 45.8988C57.5783 46.0227 57.4081 46.0921 57.2309 46.092V46.107Z" fill="black"/>
<path opacity="0.1" d="M53.1418 31.0619C53.1418 31.3949 52.3108 31.6619 51.2848 31.6619C50.2588 31.6619 49.4248 31.3949 49.4248 31.0619C49.4248 30.7289 50.2588 30.4619 51.2848 30.4619C52.3108 30.4619 53.1418 30.7319 53.1418 31.0619Z" fill="black"/>
<path d="M51.4377 30.861C52.3797 30.861 53.1417 29.019 53.1417 28.08C53.1421 27.856 53.0983 27.6341 53.0128 27.427C52.9274 27.2199 52.8019 27.0317 52.6436 26.8732C52.4854 26.7146 52.2974 26.5889 52.0904 26.503C51.8835 26.4172 51.6617 26.373 51.4377 26.373H51.1377C50.6849 26.373 50.2508 26.5529 49.9306 26.873C49.6105 27.1931 49.4307 27.6273 49.4307 28.08C49.4307 29.019 50.1957 30.861 51.1377 30.861H51.4377ZM50.7597 28.08C50.7823 27.9809 50.8324 27.8901 50.9044 27.8182C50.9763 27.7463 51.0671 27.6961 51.1662 27.6735C51.2654 27.6509 51.369 27.6568 51.4649 27.6905C51.5609 27.7242 51.6454 27.7843 51.7088 27.8639C51.7721 27.9435 51.8116 28.0394 51.8229 28.1405C51.8341 28.2416 51.8165 28.3438 51.7722 28.4353C51.7279 28.5269 51.6586 28.6041 51.5724 28.658C51.4861 28.7119 51.3864 28.7403 51.2847 28.74C51.1352 28.706 51.0018 28.6221 50.9064 28.5021C50.811 28.3822 50.7592 28.2333 50.7597 28.08Z" fill="#263238"/>
<path d="M51.1318 26.373C50.6791 26.373 50.2449 26.5529 49.9248 26.873C49.6046 27.1931 49.4248 27.6273 49.4248 28.08C49.4248 29.019 50.1898 30.861 51.1318 30.861C52.0738 30.861 52.8358 29.019 52.8358 28.08C52.8358 27.6278 52.6564 27.1941 52.3369 26.8741C52.0174 26.554 51.584 26.3738 51.1318 26.373ZM51.1318 28.773C50.9969 28.7736 50.8648 28.7341 50.7523 28.6595C50.6399 28.5849 50.5521 28.4786 50.5002 28.354C50.4483 28.2295 50.4346 28.0923 50.4608 27.9599C50.4869 27.8276 50.5519 27.7059 50.6473 27.6105C50.7427 27.5151 50.8643 27.4502 50.9967 27.424C51.1291 27.3978 51.2662 27.4115 51.3908 27.4635C51.5154 27.5154 51.6217 27.6031 51.6963 27.7156C51.7709 27.828 51.8104 27.9601 51.8098 28.095C51.8051 28.272 51.7317 28.4402 51.6052 28.5639C51.4786 28.6877 51.3088 28.7573 51.1318 28.758V28.773Z" fill="#717BBC"/>
<path opacity="0.3" d="M51.1318 26.373C50.6791 26.373 50.2449 26.5529 49.9248 26.873C49.6046 27.1931 49.4248 27.6273 49.4248 28.08C49.4248 29.019 50.1898 30.861 51.1318 30.861C52.0738 30.861 52.8358 29.019 52.8358 28.08C52.8358 27.6278 52.6564 27.1941 52.3369 26.8741C52.0174 26.554 51.584 26.3738 51.1318 26.373ZM51.1318 28.773C50.9969 28.7736 50.8648 28.7341 50.7523 28.6595C50.6399 28.5849 50.5521 28.4786 50.5002 28.354C50.4483 28.2295 50.4346 28.0923 50.4608 27.9599C50.4869 27.8276 50.5519 27.7059 50.6473 27.6105C50.7427 27.5151 50.8643 27.4502 50.9967 27.424C51.1291 27.3978 51.2662 27.4115 51.3908 27.4635C51.5154 27.5154 51.6217 27.6031 51.6963 27.7156C51.7709 27.828 51.8104 27.9601 51.8098 28.095C51.8051 28.272 51.7317 28.4402 51.6052 28.5639C51.4786 28.6877 51.3088 28.7573 51.1318 28.758V28.773Z" fill="black"/>
<path opacity="0.1" d="M82.2417 32.0609C82.2417 32.3909 81.4107 32.6609 80.3847 32.6609C79.3587 32.6609 78.5247 32.3909 78.5247 32.0609C78.5247 31.7309 79.3587 31.4609 80.3847 31.4609C81.4107 31.4609 82.2417 31.7279 82.2417 32.0609Z" fill="black"/>
<path d="M80.5378 31.8571C81.4798 31.8571 82.2418 30.0181 82.2418 29.0761C82.2422 28.8521 82.1984 28.6302 82.1129 28.4231C82.0275 28.216 81.902 28.0278 81.7437 27.8693C81.5855 27.7107 81.3975 27.585 81.1906 27.4991C80.9836 27.4133 80.7618 27.3691 80.5378 27.3691H80.2378C79.785 27.3691 79.3509 27.549 79.0307 27.8691C78.7106 28.1892 78.5308 28.6234 78.5308 29.0761C78.5308 30.0181 79.2958 31.8571 80.2378 31.8571H80.5378ZM79.8598 29.0761C79.8824 28.977 79.9325 28.8862 80.0045 28.8143C80.0764 28.7424 80.1672 28.6922 80.2663 28.6696C80.3655 28.647 80.4691 28.6529 80.565 28.6866C80.661 28.7203 80.7455 28.7804 80.8089 28.86C80.8722 28.9396 80.9117 29.0355 80.923 29.1366C80.9342 29.2376 80.9166 29.3399 80.8723 29.4314C80.828 29.523 80.7587 29.6001 80.6725 29.6541C80.5862 29.708 80.4865 29.7364 80.3848 29.7361C80.2353 29.7021 80.1019 29.6182 80.0065 29.4982C79.9111 29.3783 79.8593 29.2294 79.8598 29.0761Z" fill="#263238"/>
<path d="M80.2317 27.3691C79.7789 27.3691 79.3448 27.549 79.0246 27.8691C78.7045 28.1892 78.5247 28.6234 78.5247 29.0761C78.5247 30.0181 79.2897 31.8571 80.2317 31.8571C81.1737 31.8571 81.9357 30.0181 81.9357 29.0761C81.9357 28.6239 81.7562 28.1902 81.4367 27.8702C81.1173 27.5501 80.6839 27.3699 80.2317 27.3691ZM80.2317 29.7691C80.0967 29.7697 79.9646 29.7302 79.8522 29.6556C79.7397 29.581 79.652 29.4747 79.6001 29.3501C79.5482 29.2256 79.5344 29.0884 79.5606 28.956C79.5868 28.8236 79.6517 28.702 79.7471 28.6066C79.8425 28.5112 79.9642 28.4463 80.0965 28.4201C80.2289 28.3939 80.3661 28.4076 80.4907 28.4596C80.6152 28.5115 80.7215 28.5992 80.7961 28.7117C80.8707 28.8241 80.9103 28.9562 80.9097 29.0911C80.905 29.2681 80.8316 29.4363 80.705 29.56C80.5785 29.6838 80.4087 29.7534 80.2317 29.7541V29.7691Z" fill="#717BBC"/>
<path opacity="0.3" d="M80.2317 27.3691C79.7789 27.3691 79.3448 27.549 79.0246 27.8691C78.7045 28.1892 78.5247 28.6234 78.5247 29.0761C78.5247 30.0181 79.2897 31.8571 80.2317 31.8571C81.1737 31.8571 81.9357 30.0181 81.9357 29.0761C81.9357 28.6239 81.7562 28.1902 81.4367 27.8702C81.1173 27.5501 80.6839 27.3699 80.2317 27.3691ZM80.2317 29.7691C80.0967 29.7697 79.9646 29.7302 79.8522 29.6556C79.7397 29.581 79.652 29.4747 79.6001 29.3501C79.5482 29.2256 79.5344 29.0884 79.5606 28.956C79.5868 28.8236 79.6517 28.702 79.7471 28.6066C79.8425 28.5112 79.9642 28.4463 80.0965 28.4201C80.2289 28.3939 80.3661 28.4076 80.4907 28.4596C80.6152 28.5115 80.7215 28.5992 80.7961 28.7117C80.8707 28.8241 80.9103 28.9562 80.9097 29.0911C80.905 29.2681 80.8316 29.4363 80.705 29.56C80.5785 29.6838 80.4087 29.7534 80.2317 29.7541V29.7691Z" fill="black"/>
<path d="M100.728 79.1159C98.3512 79.4129 95.9468 79.4129 93.57 79.1159C91.17 78.8639 89.616 76.9049 90.045 75.0749C90.081 74.9339 90.096 74.8619 90.129 74.7179C90.561 72.8879 92.421 71.7839 94.314 71.9819C96.1968 72.2159 98.1012 72.2159 99.984 71.9819C101.877 71.7839 103.737 72.8819 104.166 74.7179C104.202 74.8619 104.217 74.9339 104.25 75.0749C104.682 76.8929 103.119 78.8639 100.728 79.1159Z" fill="#717BBC"/>
<path d="M97.977 78.2402L97.707 84.8222H98.787L99.057 78.2402H97.977Z" fill="#263238"/>
<path d="M93.9209 84.8222H95.0009L95.2709 78.2402H94.1909L93.9209 84.8222Z" fill="#263238"/>
<g opacity="0.6">
<path d="M97.977 78.2402L97.707 84.8222H98.787L99.057 78.2402H97.977Z" fill="white"/>
<path d="M93.9209 84.8222H95.0009L95.2709 78.2402H94.1909L93.9209 84.8222Z" fill="white"/>
</g>
<path d="M98.1781 86.8291H85.8691L84.7891 109.023H85.6771L87.2971 88.6021H91.1551L91.6801 109.023H92.3671L92.8921 88.6021H96.7501L98.3701 109.023H99.2581L98.1781 86.8291Z" fill="#263238"/>
<path opacity="0.6" d="M98.1781 86.8291H85.8691L84.7891 109.023H85.6771L87.2971 88.6021H91.1551L91.6801 109.023H92.3671L92.8921 88.6021H96.7501L98.3701 109.023H99.2581L98.1781 86.8291Z" fill="white"/>
<path opacity="0.2" d="M98.178 86.8291H85.869L85.782 88.6021H87.297H91.155H92.892H96.75H98.265L98.178 86.8291Z" fill="black"/>
<path d="M100.2 79.1159C97.8223 79.4129 95.4168 79.4129 93.039 79.1159C90.639 78.8639 89.088 76.9049 89.517 75.0749C89.55 74.9339 89.568 74.8619 89.601 74.7179C90.03 72.8879 91.89 71.7839 93.783 71.9819C95.6658 72.2159 97.5703 72.2159 99.453 71.9819C101.349 71.7839 103.209 72.8819 103.638 74.7179C103.671 74.8619 103.689 74.9339 103.722 75.0749C104.151 76.8929 102.6 78.8639 100.2 79.1159Z" fill="#717BBC"/>
<g opacity="0.5">
<path d="M100.2 79.1169C97.8223 79.4139 95.4168 79.4139 93.039 79.1169C90.639 78.8649 89.088 76.9059 89.517 75.0759C89.55 74.9349 89.568 74.8629 89.601 74.7189C90.03 72.8889 91.89 71.7849 93.783 71.9829C95.6658 72.2169 97.5703 72.2169 99.453 71.9829C101.349 71.7849 103.209 72.8829 103.638 74.7189C103.671 74.8629 103.689 74.9349 103.722 75.0759C104.151 76.8939 102.6 78.8649 100.2 79.1169Z" fill="white"/>
</g>
<g opacity="0.7">
<path d="M99.8997 75.4503C99.8997 75.5423 99.8725 75.6322 99.8214 75.7087C99.7703 75.7852 99.6976 75.8448 99.6127 75.8799C99.5277 75.9151 99.4342 75.9244 99.344 75.9064C99.2538 75.8885 99.171 75.8442 99.1059 75.7792C99.0409 75.7141 98.9966 75.6313 98.9787 75.5411C98.9607 75.4509 98.9699 75.3574 99.0051 75.2724C99.0403 75.1874 99.0999 75.1148 99.1764 75.0637C99.2529 75.0126 99.3428 74.9854 99.4347 74.9854C99.5581 74.9854 99.6763 75.0343 99.7635 75.1215C99.8507 75.2087 99.8997 75.327 99.8997 75.4503Z" fill="white"/>
<path d="M94.2839 75.4504C94.2845 75.5432 94.2575 75.6341 94.2063 75.7115C94.1551 75.7889 94.082 75.8494 93.9964 75.8852C93.9107 75.9209 93.8164 75.9305 93.7253 75.9125C93.6343 75.8945 93.5506 75.8499 93.485 75.7843C93.4193 75.7186 93.3747 75.635 93.3567 75.5439C93.3388 75.4529 93.3483 75.3585 93.3841 75.2729C93.4199 75.1872 93.4803 75.1142 93.5578 75.063C93.6352 75.0118 93.7261 74.9848 93.8189 74.9854C93.88 74.9854 93.9404 74.9974 93.9968 75.0208C94.0533 75.0441 94.1045 75.0784 94.1477 75.1216C94.1909 75.1647 94.2251 75.216 94.2485 75.2724C94.2719 75.3288 94.2839 75.3893 94.2839 75.4504Z" fill="white"/>
</g>
<path d="M99.777 87.2256H84.27C84.0757 87.226 83.8832 87.188 83.7036 87.1138C83.5239 87.0396 83.3607 86.9307 83.2233 86.7933C83.0859 86.6559 82.977 86.4927 82.9028 86.313C82.8286 86.1334 82.7906 85.9409 82.791 85.7466C82.791 85.3543 82.9468 84.9781 83.2242 84.7008C83.5016 84.4234 83.8778 84.2676 84.27 84.2676H99.777C100.169 84.2676 100.545 84.4234 100.823 84.7008C101.1 84.9781 101.256 85.3543 101.256 85.7466C101.256 85.9409 101.218 86.1334 101.144 86.313C101.07 86.4927 100.961 86.6559 100.824 86.7933C100.686 86.9307 100.523 87.0396 100.343 87.1138C100.164 87.188 99.9714 87.226 99.777 87.2256Z" fill="#717BBC"/>
<path opacity="0.5" d="M99.777 87.2256H84.27C84.0757 87.226 83.8832 87.188 83.7036 87.1138C83.5239 87.0396 83.3607 86.9307 83.2233 86.7933C83.0859 86.6559 82.977 86.4927 82.9028 86.313C82.8286 86.1334 82.7906 85.9409 82.791 85.7466C82.791 85.3543 82.9468 84.9781 83.2242 84.7008C83.5016 84.4234 83.8778 84.2676 84.27 84.2676H99.777C100.169 84.2676 100.545 84.4234 100.823 84.7008C101.1 84.9781 101.256 85.3543 101.256 85.7466C101.256 85.9409 101.218 86.1334 101.144 86.313C101.07 86.4927 100.961 86.6559 100.824 86.7933C100.686 86.9307 100.523 87.0396 100.343 87.1138C100.164 87.188 99.9714 87.226 99.777 87.2256Z" fill="white"/>
<path d="M80.5169 55.7076C80.5169 55.7076 76.8119 52.8366 80.1269 50.0076C80.1269 50.0076 83.8079 45.8436 86.0969 48.8826C86.4959 49.4106 88.2329 48.8586 88.4969 50.9826C88.7429 52.9206 90.0929 51.8826 89.9579 54.0636C89.8439 55.9176 91.2419 55.4736 91.2179 56.6286C91.1879 58.1286 87.6179 57.3936 85.8869 58.3386C83.9519 59.3976 82.2689 61.2186 81.8549 59.2386C81.6076 57.9956 81.1555 56.8023 80.5169 55.7076Z" fill="#263238"/>
<path d="M84.2999 66.0577C84.2999 66.0577 84.1829 70.8217 82.4849 71.9377C80.7869 73.0537 76.2839 65.7517 76.2839 65.7517L76.0139 62.0407L77.9039 61.3867L78.6689 64.1977L77.9939 65.5717C77.9939 65.5717 80.6639 69.2167 81.0149 68.8117C81.3659 68.4067 81.6149 65.2357 81.6149 65.2357L84.2999 66.0577Z" fill="#FF8B7B"/>
<path d="M82.7131 60.5768C81.1801 61.5758 81.3811 63.9068 80.9131 66.6698L84.6001 67.1468C84.6001 67.1468 85.4461 58.7978 82.7131 60.5768Z" fill="#717BBC"/>
<path opacity="0.1" d="M82.4699 61.9266C82.4699 61.9266 81.3329 64.1316 82.4699 68.2476C82.7743 69.2443 82.9754 70.2697 83.0699 71.3076C83.8079 70.2006 84.0989 68.2836 84.2129 67.1076L84.5819 67.1556C84.5819 67.1556 84.8969 64.0986 84.5399 62.0796L83.4479 61.4346L82.4699 61.9266Z" fill="black"/>
<path d="M70.9319 86.874L72.4229 103.173L74.4269 103.407L75.4589 87.153L70.9319 86.874Z" fill="#FF8B7B"/>
<path opacity="0.1" d="M70.9319 86.874L72.4229 103.173L74.4269 103.407L75.4589 87.153L70.9319 86.874Z" fill="black"/>
<path d="M72.4141 102.936L74.3401 102.312C74.3808 102.299 74.4248 102.3 74.465 102.314C74.5052 102.329 74.5394 102.357 74.5621 102.393L75.5551 104.073C75.578 104.108 75.5934 104.147 75.6003 104.188C75.6073 104.229 75.6056 104.271 75.5955 104.311C75.5853 104.352 75.5669 104.389 75.5413 104.422C75.5158 104.455 75.4837 104.482 75.4471 104.502C75.4286 104.514 75.4083 104.523 75.3871 104.529C74.5831 104.778 73.8541 104.967 72.8581 105.294C71.6791 105.681 72.0241 105.723 70.6471 106.194C69.8161 106.479 69.3541 105.594 69.6901 105.417C71.2441 104.685 71.5501 104.037 71.9851 103.254C72.0834 103.098 72.2364 102.985 72.4141 102.936Z" fill="#263238"/>
<path d="M76.1189 88.125L73.9739 105.846L75.5519 106.251C77.732 100.937 79.3957 95.4257 80.5199 89.793L76.1189 88.125Z" fill="#FF8B7B"/>
<path d="M73.9651 105.549L75.9031 106.149C75.9442 106.162 75.9798 106.188 76.0043 106.224C76.0288 106.259 76.0407 106.301 76.0381 106.344L75.9001 108.273C75.9003 108.316 75.8916 108.358 75.8745 108.396C75.8574 108.435 75.8323 108.47 75.8009 108.498C75.7694 108.526 75.7323 108.548 75.692 108.561C75.6517 108.574 75.6091 108.578 75.5671 108.573C75.5452 108.576 75.523 108.576 75.5011 108.573C74.6971 108.315 74.0011 108.057 72.9871 107.757C71.7871 107.403 72.0571 107.634 70.6561 107.235C69.8131 106.995 69.9451 105.993 70.3141 106.053C72.0091 106.338 72.6271 105.978 73.4311 105.582C73.5994 105.508 73.7888 105.496 73.9651 105.549Z" fill="#263238"/>
<path d="M95.196 74.6553C95.2562 75.0902 95.3806 75.5138 95.565 75.9123C96.903 79.0233 98.865 86.7123 81.933 85.0413L80.859 90.7923L70.53 87.7623C70.53 87.7623 70.116 79.7733 71.874 78.2283C74.04 76.3263 85.506 76.4013 85.506 76.4013L85.446 75.0243L95.196 74.6553Z" fill="#717BBC"/>
<path opacity="0.1" d="M76.0469 79.9929C74.0009 81.4629 73.7069 85.4289 73.8629 88.7409L75.4379 89.2029C75.4109 87.7689 75.4379 84.1239 76.3379 82.3029C77.4809 79.9869 80.7449 77.6859 84.9029 77.1699C84.8999 77.1549 79.7999 77.2929 76.0469 79.9929Z" fill="black"/>
<path d="M88.8241 75.3244C90.5791 75.3904 96.0931 75.8704 95.7901 74.4244C95.2946 72.223 94.9538 69.9895 94.7701 67.7404C94.4851 63.7204 94.7311 59.7004 93.4141 58.3774C92.0401 57.0004 83.7631 58.7884 82.7131 60.8374C81.4831 63.2374 82.7131 65.9374 83.6971 69.6394C84.2821 71.8534 84.6661 73.9144 85.0321 75.0394C85.3261 75.9574 87.8761 75.2914 88.8241 75.3244Z" fill="#263238"/>
<path opacity="0.1" d="M95.565 75.9123C95.3806 75.5138 95.2563 75.0902 95.196 74.6553L85.446 75.0243L85.503 76.3353C86.013 76.4733 86.883 76.5723 88.251 76.3353C90.528 75.9243 93.162 77.0103 95.685 76.2063L95.565 75.9123Z" fill="black"/>
<path opacity="0.6" d="M89.3999 73.0987C89.3999 73.0987 93.5309 72.4747 95.2529 71.6587C95.0639 70.5277 94.8749 69.1657 94.7759 67.7587C94.5569 64.6957 94.6469 61.6327 94.1189 59.7637L91.2569 60.3367C91.2569 60.3367 91.0319 62.3407 93.8669 69.0907L92.9999 71.1067L89.3999 73.0987Z" fill="black"/>
<path opacity="0.1" d="M92.3219 84.4867C85.9229 84.8167 82.2179 83.1787 82.2179 83.1787L81.9329 85.0417C86.8079 85.5187 90.1139 85.2247 92.3219 84.4867Z" fill="black"/>
<path d="M92.8411 64.0627C92.8411 64.0627 94.4251 67.7107 94.1551 68.2477C93.8851 68.7847 89.2291 71.8927 89.2291 71.8927C89.2291 71.8927 86.4541 70.0027 85.7161 70.8127C85.2288 71.3591 84.7892 71.9462 84.4021 72.5677L85.0021 72.8377L86.5171 72.3607C86.5171 72.3607 88.5271 73.6297 89.4031 73.0987C89.4031 73.0987 96.6031 70.6087 96.7831 68.7217C96.9631 66.8347 95.2591 62.7217 95.2591 62.7217L92.8411 64.0627Z" fill="#FF8B7B"/>
<path d="M92.3999 57.9937C91.6409 58.0267 89.4539 58.9477 92.9279 64.8937L96.0689 63.3757C96.0689 63.3757 94.4999 57.8887 92.3999 57.9937Z" fill="#717BBC"/>
<path d="M85.6769 54.9062C86.1269 56.2323 86.8949 58.0412 88.1879 58.3592C88.1879 58.3592 88.8419 59.6732 86.2199 62.9222C84.0029 61.8782 84.4709 59.5563 84.4709 59.5563C84.9389 59.2563 85.1669 58.8663 84.5099 58.1643L85.6769 54.9062Z" fill="#FF8B7B"/>
<path opacity="0.1" d="M85.164 56.3344L84.51 58.1644C84.7107 58.3496 84.8509 58.5912 84.912 58.8574C86.184 58.3984 86.112 56.0674 86.112 56.0674L85.164 56.3344Z" fill="black"/>
<path d="M86.0609 51.9668C86.6609 54.2288 86.9429 55.1708 86.1929 56.6738C85.0649 58.9358 82.1549 59.1578 80.9039 57.1178C79.7819 55.2788 79.0079 51.8738 80.9039 50.2988C81.3174 49.9456 81.8145 49.7043 82.3478 49.5978C82.8811 49.4913 83.4327 49.5232 83.9502 49.6904C84.4676 49.8577 84.9336 50.1547 85.3036 50.5532C85.6736 50.9517 85.9354 51.4384 86.0639 51.9668H86.0609Z" fill="#FF8B7B"/>
<path d="M82.5541 54.0938C82.6291 54.2708 82.5961 54.4508 82.4821 54.5018C82.3681 54.5528 82.2151 54.4448 82.1401 54.2708C82.0651 54.0968 82.1011 53.9138 82.2121 53.8658C82.3231 53.8178 82.4761 53.9438 82.5541 54.0938Z" fill="#263238"/>
<path d="M80.5828 54.9488C80.6548 55.1258 80.6218 55.3058 80.5108 55.3538C80.3998 55.4018 80.2409 55.2998 80.1659 55.1258C80.0909 54.9518 80.1269 54.7688 80.2409 54.7208C80.3549 54.6728 80.5078 54.7748 80.5828 54.9488Z" fill="#263238"/>
<path d="M80.295 54.708L79.824 54.765C79.824 54.765 80.178 54.993 80.295 54.708Z" fill="#263238"/>
<path d="M81.3271 54.9932C81.3395 55.459 81.288 55.9243 81.1741 56.3762C81.2906 56.4011 81.411 56.4009 81.5274 56.3756C81.6439 56.3502 81.7535 56.3003 81.8491 56.2292L81.3271 54.9932Z" fill="#FF5652"/>
<path d="M83.1 56.5203C83.0212 56.571 82.9379 56.6141 82.851 56.6493C82.8445 56.6523 82.8375 56.654 82.8304 56.6542C82.8232 56.6545 82.8161 56.6533 82.8094 56.6508C82.8027 56.6483 82.7966 56.6445 82.7913 56.6396C82.7861 56.6347 82.7819 56.6288 82.779 56.6223C82.7762 56.6154 82.7748 56.608 82.7749 56.6006C82.775 56.5932 82.7767 56.5858 82.7798 56.5791C82.7829 56.5723 82.7874 56.5663 82.7929 56.5613C82.7985 56.5564 82.805 56.5526 82.812 56.5503C83.0318 56.4632 83.2279 56.3254 83.3843 56.1482C83.5407 55.9709 83.653 55.7592 83.712 55.5303C83.7149 55.5156 83.7235 55.5027 83.7358 55.4943C83.7482 55.4859 83.7633 55.4826 83.778 55.4853C83.7852 55.4864 83.792 55.4889 83.7982 55.4927C83.8043 55.4964 83.8096 55.5014 83.8138 55.5073C83.818 55.5131 83.821 55.5198 83.8226 55.5268C83.8242 55.5339 83.8243 55.5412 83.823 55.5483C83.7737 55.7504 83.6843 55.9407 83.5601 56.1076C83.436 56.2746 83.2795 56.4149 83.1 56.5203Z" fill="#263238"/>
<path d="M83.181 53.3737C83.1617 53.3874 83.1386 53.3947 83.115 53.3947C83.0913 53.3947 83.0683 53.3874 83.049 53.3737C82.8965 53.2751 82.7253 53.2093 82.5461 53.1804C82.3669 53.1515 82.1837 53.1601 82.008 53.2057C81.9793 53.2131 81.949 53.2091 81.9232 53.1946C81.8975 53.18 81.8784 53.156 81.87 53.1277C81.8659 53.1139 81.8646 53.0994 81.8661 53.0851C81.8677 53.0708 81.8721 53.057 81.8791 53.0444C81.8861 53.0318 81.8955 53.0208 81.9068 53.0119C81.9181 53.003 81.9311 52.9965 81.945 52.9927C82.1558 52.937 82.3762 52.9274 82.5911 52.9647C82.8059 53.002 83.0102 53.0852 83.19 53.2087C83.2 53.2187 83.208 53.2306 83.2135 53.2438C83.2189 53.2569 83.2217 53.271 83.2217 53.2852C83.2217 53.2994 83.2189 53.3135 83.2135 53.3266C83.208 53.3397 83.2 53.3516 83.19 53.3617C83.1875 53.3661 83.1845 53.3701 83.181 53.3737Z" fill="#263238"/>
<path d="M79.602 54.2883C79.5847 54.2986 79.565 54.304 79.545 54.304C79.5249 54.304 79.5052 54.2986 79.488 54.2883C79.4749 54.2817 79.4633 54.2725 79.4539 54.2612C79.4445 54.25 79.4375 54.237 79.4333 54.2229C79.4291 54.2089 79.4277 54.1942 79.4294 54.1796C79.4311 54.1651 79.4357 54.151 79.443 54.1383C79.5209 53.9778 79.6372 53.8391 79.7817 53.7344C79.9261 53.6297 80.0942 53.5624 80.271 53.5383C80.285 53.5362 80.2993 53.5369 80.313 53.5405C80.3268 53.5441 80.3396 53.5504 80.3508 53.5591C80.3621 53.5678 80.3714 53.5787 80.3783 53.5911C80.3852 53.6035 80.3895 53.6172 80.391 53.6313C80.3935 53.6603 80.3845 53.6891 80.366 53.7115C80.3475 53.734 80.3209 53.7482 80.292 53.7513C80.1543 53.7772 80.0245 53.8349 79.9131 53.9198C79.8016 54.0047 79.7115 54.1144 79.65 54.2403C79.6388 54.2605 79.6221 54.2771 79.602 54.2883Z" fill="#263238"/>
<path d="M82.2779 53.8838L81.8069 53.9378C81.8069 53.9378 82.1519 54.1658 82.2779 53.8838Z" fill="#263238"/>
<path d="M87.2219 53.4753C87.2109 53.9181 87.0255 54.3386 86.7059 54.6453C86.2769 55.0473 85.806 54.7293 85.68 54.1803C85.584 53.6853 85.68 52.8813 86.226 52.6803C86.3464 52.6391 86.4753 52.629 86.6007 52.6509C86.726 52.6729 86.8439 52.7261 86.9432 52.8057C87.0425 52.8852 87.1201 52.9886 87.1689 53.1062C87.2176 53.2238 87.2359 53.3518 87.2219 53.4783V53.4753Z" fill="#FF8B7B"/>
<path d="M80.721 50.8776C80.738 51.2556 80.8843 51.6163 81.1356 51.8992C81.3868 52.1821 81.7276 52.3701 82.101 52.4316C83.466 52.7016 83.46 54.1596 84.429 54.1956C85.398 54.2316 85.104 55.3326 85.872 55.1316C86.64 54.9306 86.226 53.8176 86.64 53.3916C87.225 52.7916 86.097 50.1816 84.726 49.6416C83.355 49.1016 80.451 49.1226 80.721 50.8776Z" fill="#263238"/>
<path d="M80.9041 50.586C80.9041 50.586 79.8271 51.522 80.0581 52.638C80.2891 53.754 79.4851 53.937 79.7581 55.005C80.0311 56.073 80.8231 56.205 80.9071 57.105C80.9911 58.005 81.8551 58.224 81.5071 58.719C81.1591 59.214 80.5381 58.089 80.4931 57.219C80.4481 56.349 79.3891 56.301 79.2541 55.152C79.1191 54.003 79.7281 53.463 79.5541 52.452C79.3801 51.441 79.2541 49.998 81.1771 50.088C83.1001 50.178 80.9041 50.586 80.9041 50.586Z" fill="#263238"/>
<path d="M80.841 49.8154C80.841 49.8154 79.608 52.0144 80.841 52.9084C82.074 53.8024 80.313 51.7774 80.841 49.8154Z" fill="#263238"/>
<path d="M80.484 50.0557C80.484 50.0557 78.171 50.2627 78.111 51.9967C78.051 53.7307 78.567 50.7247 80.484 50.0557Z" fill="#263238"/>
<path d="M77.0999 62.1244C77.0939 62.3009 77.1227 62.4769 77.1848 62.6423C77.2468 62.8076 77.3409 62.9591 77.4615 63.0881C77.5821 63.2171 77.727 63.3211 77.8879 63.3941C78.0487 63.467 78.2224 63.5076 78.3989 63.5134H78.4679C78.5969 64.1134 79.1279 64.1704 79.7609 64.1704H80.0339C80.7659 64.1704 81.3569 63.9634 81.3569 63.2314V60.9034C81.3569 60.8037 81.3175 60.708 81.2472 60.6372C81.177 60.5664 81.0816 60.5262 80.9819 60.5254H78.8129C78.7132 60.5262 78.6178 60.5664 78.5475 60.6372C78.4773 60.708 78.4379 60.8037 78.4379 60.9034V61.0534H78.3989C77.6039 61.0474 77.0999 61.4434 77.0999 62.1244ZM77.5799 62.1784C77.5799 61.7344 77.9009 61.4764 78.4259 61.4764V63.0934C78.1959 63.084 77.9789 62.9842 77.8222 62.8156C77.6654 62.6471 77.5816 62.4234 77.5889 62.1934L77.5799 62.1784Z" fill="#717BBC"/>
<path opacity="0.2" d="M77.0999 62.1244C77.0939 62.3009 77.1227 62.4769 77.1848 62.6423C77.2468 62.8076 77.3409 62.9591 77.4615 63.0881C77.5821 63.2171 77.727 63.3211 77.8879 63.3941C78.0487 63.467 78.2224 63.5076 78.3989 63.5134H78.4679C78.5969 64.1134 79.1279 64.1704 79.7609 64.1704H80.0339C80.7659 64.1704 81.3569 63.9634 81.3569 63.2314V60.9034C81.3569 60.8037 81.3175 60.708 81.2472 60.6372C81.177 60.5664 81.0816 60.5262 80.9819 60.5254H78.8129C78.7132 60.5262 78.6178 60.5664 78.5475 60.6372C78.4773 60.708 78.4379 60.8037 78.4379 60.9034V61.0534H78.3989C77.6039 61.0474 77.0999 61.4434 77.0999 62.1244ZM77.5799 62.1784C77.5799 61.7344 77.9009 61.4764 78.4259 61.4764V63.0934C78.1959 63.084 77.9789 62.9842 77.8222 62.8156C77.6654 62.6471 77.5816 62.4234 77.5889 62.1934L77.5799 62.1784Z" fill="black"/>
<path opacity="0.1" d="M78.4349 63.0937V63.2377C78.4357 63.3325 78.4457 63.4269 78.4649 63.5197H78.3959C78.2844 63.5201 78.1733 63.505 78.0659 63.4747V63.0127C78.1813 63.0669 78.3074 63.0945 78.4349 63.0937Z" fill="black"/>
<path opacity="0.1" d="M78.4078 61.0469H78.4468V61.4729C78.3262 61.4723 78.206 61.4885 78.0898 61.5209V61.0709C78.195 61.0542 78.3014 61.0462 78.4078 61.0469Z" fill="black"/>
<path opacity="0.1" d="M78.4349 63.0937V63.2377C78.4357 63.3325 78.4457 63.4269 78.4649 63.5197H78.3959C78.2844 63.5201 78.1733 63.505 78.0659 63.4747V63.0127C78.1813 63.0669 78.3074 63.0945 78.4349 63.0937Z" fill="black"/>
<path opacity="0.1" d="M78.4078 61.0469H78.4468V61.4729C78.3262 61.4723 78.206 61.4885 78.0898 61.5209V61.0709C78.195 61.0542 78.3014 61.0462 78.4078 61.0469Z" fill="black"/>
<path d="M76.269 65.7517L75.999 62.0407L77.889 61.3867L78.654 64.2007L77.979 65.5717L76.269 65.7517Z" fill="#FF8B7B"/>
<path d="M60.06 66.3596C60.06 66.3596 58.347 68.3126 57.789 66.0326C57.231 63.7526 56.7 61.7666 56.7 61.7666C56.7 61.7666 65.964 64.4306 60.06 66.3596Z" fill="#717BBC"/>
<path opacity="0.3" d="M60.06 66.3596C60.06 66.3596 58.347 68.3126 57.789 66.0326C57.231 63.7526 56.7 61.7666 56.7 61.7666C56.7 61.7666 65.964 64.4306 60.06 66.3596Z" fill="black"/>
<path d="M60.2998 69.3082C60.2998 69.3082 60.8998 64.7212 58.3828 63.2002C58.3828 63.2002 60.5458 65.2162 59.8828 69.2512L60.2998 69.3082Z" fill="#717BBC"/>
<path opacity="0.5" d="M60.2998 69.3082C60.2998 69.3082 60.8998 64.7212 58.3828 63.2002C58.3828 63.2002 60.5458 65.2162 59.8828 69.2512L60.2998 69.3082Z" fill="white"/>
<path d="M61.3589 66.5941C61.3589 66.5941 59.3789 64.6711 61.6409 63.5941C63.9029 62.5171 66.3329 64.5931 66.3329 64.5931C66.3329 64.5931 61.5149 69.9691 61.3589 66.5941Z" fill="#717BBC"/>
<path d="M60.5608 69.0928C60.5608 69.0928 60.5998 64.7398 63.8998 64.5928C63.8998 64.5928 61.1308 65.1688 60.8608 69.0928H60.5608Z" fill="#717BBC"/>
<path opacity="0.5" d="M60.5608 69.0928C60.5608 69.0928 60.5998 64.7398 63.8998 64.5928C63.8998 64.5928 61.1308 65.1688 60.8608 69.0928H60.5608Z" fill="white"/>
<path d="M58.7668 67.1729C58.7668 67.1729 60.2278 65.3729 58.2688 64.9409C56.3098 64.5089 54.6208 67.1729 54.6208 67.1729C54.6208 67.1729 59.5348 69.2399 58.7668 67.1729Z" fill="#717BBC"/>
<path opacity="0.2" d="M58.7668 67.1729C58.7668 67.1729 60.2278 65.3729 58.2688 64.9409C56.3098 64.5089 54.6208 67.1729 54.6208 67.1729C54.6208 67.1729 59.5348 69.2399 58.7668 67.1729Z" fill="white"/>
<path d="M59.7839 69.0926C59.7839 69.0926 58.9739 64.4006 55.7009 66.5606C55.7009 66.5606 58.5359 65.1776 59.3789 69.0926H59.7839Z" fill="#717BBC"/>
<path opacity="0.5" d="M59.7839 69.0926C59.7839 69.0926 58.9739 64.4006 55.7009 66.5606C55.7009 66.5606 58.5359 65.1776 59.3789 69.0926H59.7839Z" fill="white"/>
<path d="M63.0239 68.7803H57.4949L57.6329 69.9023H57.9929L58.4399 73.5743H62.0789L62.5289 69.9023H62.8859L63.0239 68.7803Z" fill="#263238"/>
<path opacity="0.4" d="M62.4328 70.6882L62.5228 69.9502H57.9988L58.0888 70.6882H62.4328Z" fill="black"/>
<path d="M99.2789 76.2471H98.3699H85.6739H84.7649L81.7949 109.022H82.7039H83.0519H83.9609L87.5189 78.0021H96.5249L100.083 109.022H100.992H101.34H102.249L99.2789 76.2471Z" fill="#263238"/>
<path opacity="0.2" d="M99.2789 76.2471H98.3699H85.6739H84.7649L81.7949 109.022H82.7039H83.0519H83.9609L87.5189 78.0021H96.5249L100.083 109.022H100.992H101.34H102.249L99.2789 76.2471Z" fill="white"/>
<path opacity="0.1" d="M87.5189 78.0021H97.4309L100.992 109.022H102.249L99.2789 76.2471H85.6739L82.7039 109.022H83.9609L87.5189 78.0021Z" fill="white"/>
<path d="M64.9139 76.2471H64.0049H51.3089H50.3999L47.4299 109.022H48.3389H48.6869H49.5959L53.1539 78.0021H62.1599L65.7179 109.022H66.6269H66.9749H67.8839L64.9139 76.2471Z" fill="#263238"/>
<path opacity="0.2" d="M64.9139 76.2471H64.0049H51.3089H50.3999L47.4299 109.022H48.3389H48.6869H49.5959L53.1539 78.0021H62.1599L65.7179 109.022H66.6269H66.9749H67.8839L64.9139 76.2471Z" fill="white"/>
<path opacity="0.1" d="M53.1539 78.0021H63.0659L66.6269 109.022H67.8839L64.9139 76.2471H51.3089L48.3389 109.022H49.5959L53.1539 78.0021Z" fill="white"/>
<path d="M103.158 73.6855H46.3499V75.0206H103.158V73.6855Z" fill="#717BBC"/>
<path opacity="0.5" d="M103.158 73.6855H46.3499V75.0206H103.158V73.6855Z" fill="white"/>
<path opacity="0.2" d="M103.158 73.6855H82.4309V75.0206H103.158V73.6855Z" fill="black"/>
<path d="M102.078 74.9482H47.4299V76.2832H102.078V74.9482Z" fill="#717BBC"/>
<path opacity="0.2" d="M102.078 74.9482H47.4299V76.2832H102.078V74.9482Z" fill="white"/>
<path opacity="0.2" d="M102.078 74.9482H82.4309V76.2832H102.078V74.9482Z" fill="black"/>
<path d="M86.4929 72.8457H69.2669C69.1555 72.8457 69.0487 72.8899 68.9699 72.9687C68.8912 73.0475 68.8469 73.1543 68.8469 73.2657C68.8469 73.3771 68.8912 73.4839 68.9699 73.5627C69.0487 73.6415 69.1555 73.6857 69.2669 73.6857H86.4929C86.6043 73.6857 86.7111 73.6415 86.7899 73.5627C86.8687 73.4839 86.9129 73.3771 86.9129 73.2657C86.9129 73.1543 86.8687 73.0475 86.7899 72.9687C86.7111 72.8899 86.6043 72.8457 86.4929 72.8457Z" fill="#1A2E35"/>
<path opacity="0.3" d="M86.4929 72.8457H69.2669C69.1555 72.8457 69.0487 72.8899 68.9699 72.9687C68.8912 73.0475 68.8469 73.1543 68.8469 73.2657C68.8469 73.3771 68.8912 73.4839 68.9699 73.5627C69.0487 73.6415 69.1555 73.6857 69.2669 73.6857H86.4929C86.6043 73.6857 86.7111 73.6415 86.7899 73.5627C86.8687 73.4839 86.9129 73.3771 86.9129 73.2657C86.9129 73.1543 86.8687 73.0475 86.7899 72.9687C86.7111 72.8899 86.6043 72.8457 86.4929 72.8457Z" fill="white"/>
<path d="M69.4948 73.4272H76.6288C76.6604 73.4271 76.6915 73.4194 76.7196 73.4048C76.7476 73.3902 76.7717 73.3691 76.79 73.3433C76.8082 73.3174 76.8199 73.2876 76.8242 73.2563C76.8286 73.2249 76.8253 73.193 76.8148 73.1632L73.9408 64.9522C73.9021 64.8415 73.8299 64.7456 73.7342 64.6779C73.6385 64.6101 73.524 64.5739 73.4068 64.5742H66.2758C66.2439 64.5739 66.2124 64.5812 66.184 64.5956C66.1555 64.61 66.131 64.631 66.1124 64.657C66.0939 64.6829 66.0819 64.7129 66.0774 64.7444C66.0729 64.776 66.0761 64.8082 66.0868 64.8382L68.9638 73.0492C69.0015 73.1599 69.0731 73.256 69.1683 73.3238C69.2636 73.3917 69.3778 73.4278 69.4948 73.4272Z" fill="#1A2E35"/>
<path opacity="0.5" d="M69.4948 73.4272H76.6288C76.6604 73.4271 76.6915 73.4194 76.7196 73.4048C76.7476 73.3902 76.7717 73.3691 76.79 73.3433C76.8082 73.3174 76.8199 73.2876 76.8242 73.2563C76.8286 73.2249 76.8253 73.193 76.8148 73.1632L73.9408 64.9522C73.9021 64.8415 73.8299 64.7456 73.7342 64.6779C73.6385 64.6101 73.524 64.5739 73.4068 64.5742H66.2758C66.2439 64.5739 66.2124 64.5812 66.184 64.5956C66.1555 64.61 66.131 64.631 66.1124 64.657C66.0939 64.6829 66.0819 64.7129 66.0774 64.7444C66.0729 64.776 66.0761 64.8082 66.0868 64.8382L68.9638 73.0492C69.0015 73.1599 69.0731 73.256 69.1683 73.3238C69.2636 73.3917 69.3778 73.4278 69.4948 73.4272Z" fill="white"/>
<path d="M69.2428 73.4272H76.3738C76.4057 73.4276 76.4372 73.4203 76.4656 73.4059C76.494 73.3915 76.5186 73.3704 76.5371 73.3445C76.5557 73.3186 76.5677 73.2886 76.5722 73.257C76.5767 73.2254 76.5734 73.1933 76.5628 73.1632L73.6858 64.9522C73.6481 64.8415 73.5765 64.7455 73.4812 64.6776C73.386 64.6098 73.2718 64.5736 73.1548 64.5742H66.0208C65.9892 64.5743 65.9581 64.582 65.93 64.5966C65.902 64.6112 65.8778 64.6323 65.8596 64.6582C65.8414 64.684 65.8297 64.7139 65.8253 64.7452C65.821 64.7765 65.8243 64.8084 65.8348 64.8382L68.6998 73.0492C68.739 73.1614 68.8126 73.2583 68.9101 73.3262C69.0076 73.3941 69.124 73.4294 69.2428 73.4272Z" fill="#1A2E35"/>
<path opacity="0.7" d="M69.2428 73.4272H76.3738C76.4057 73.4276 76.4372 73.4203 76.4656 73.4059C76.494 73.3915 76.5186 73.3704 76.5371 73.3445C76.5557 73.3186 76.5677 73.2886 76.5722 73.257C76.5767 73.2254 76.5734 73.1933 76.5628 73.1632L73.6858 64.9522C73.6481 64.8415 73.5765 64.7455 73.4812 64.6776C73.386 64.6098 73.2718 64.5736 73.1548 64.5742H66.0208C65.9892 64.5743 65.9581 64.582 65.93 64.5966C65.902 64.6112 65.8778 64.6323 65.8596 64.6582C65.8414 64.684 65.8297 64.7139 65.8253 64.7452C65.821 64.7765 65.8243 64.8084 65.8348 64.8382L68.6998 73.0492C68.739 73.1614 68.8126 73.2583 68.9101 73.3262C69.0076 73.3941 69.124 73.4294 69.2428 73.4272Z" fill="white"/>
<path d="M71.6757 68.9999C71.7687 69.3899 71.6277 69.7049 71.3757 69.7049C71.1237 69.7049 70.8237 69.3899 70.7307 68.9999C70.6377 68.6099 70.7817 68.2979 71.0457 68.2979C71.3097 68.2979 71.5857 68.6129 71.6757 68.9999Z" fill="white"/>
<path opacity="0.2" d="M77.3009 73.6857C77.1895 73.6857 77.0826 73.6415 77.0039 73.5627C76.9251 73.4839 76.8809 73.3771 76.8809 73.2657C76.8809 73.1543 76.9251 73.0475 77.0039 72.9687C77.0826 72.8899 77.1895 72.8457 77.3009 72.8457H86.4929C86.6043 72.8457 86.7111 72.8899 86.7898 72.9687C86.8686 73.0475 86.9129 73.1543 86.9129 73.2657C86.9129 73.3771 86.8686 73.4839 86.7898 73.5627C86.7111 73.6415 86.6043 73.6857 86.4929 73.6857H77.3009Z" fill="white"/>
</svg>
