<svg width="40" height="40" viewBox="0 0 40 40" fill="none" xmlns="http://www.w3.org/2000/svg">
<circle cx="20" cy="20" r="20" fill="white"/>
<path d="M14 16C14 14.4087 14.6321 12.8826 15.7574 11.7574C16.8826 10.6321 18.4087 10 20 10C21.5913 10 23.1174 10.6321 24.2426 11.7574C25.3679 12.8826 26 14.4087 26 16V18.917C26 19.62 26.228 20.304 26.65 20.867L28.7 23.6C28.8671 23.8229 28.9689 24.0878 28.9939 24.3653C29.019 24.6427 28.9662 24.9217 28.8416 25.1708C28.7171 25.42 28.5256 25.6295 28.2886 25.776C28.0516 25.9224 27.7786 26 27.5 26H12.5C12.2214 26 11.9484 25.9224 11.7114 25.776C11.4744 25.6295 11.2829 25.42 11.1584 25.1708C11.0338 24.9217 10.981 24.6427 11.0061 24.3653C11.0311 24.0878 11.1329 23.8229 11.3 23.6L13.35 20.867C13.7719 20.3044 14 19.6202 14 18.917V16ZM20 29.5C19.2462 29.4999 18.5126 29.2565 17.9081 28.8061C17.3037 28.3557 16.8607 27.7223 16.645 27H23.355C23.1393 27.7223 22.6963 28.3557 22.0919 28.8061C21.4874 29.2565 20.7538 29.4999 20 29.5Z" fill="#475467"/>
<circle cx="28" cy="13" r="5" fill="#D92D20"/>
</svg>
