<svg width="40" height="40" viewBox="0 0 40 40" fill="none" xmlns="http://www.w3.org/2000/svg">
<rect width="40" height="40" rx="5" fill="#EAECF0"/>
<path d="M11.017 26H8.38068L12.3977 14.3636H15.5682L19.5795 26H16.9432L14.0284 17.0227H13.9375L11.017 26ZM10.8523 21.4261H17.0795V23.3466H10.8523V21.4261ZM25.1051 26H20.9801V14.3636H25.1392C26.3097 14.3636 27.3172 14.5966 28.1619 15.0625C29.0066 15.5246 29.6563 16.1894 30.1108 17.0568C30.5691 17.9242 30.7983 18.9621 30.7983 20.1705C30.7983 21.3826 30.5691 22.4242 30.1108 23.2955C29.6563 24.1667 29.0028 24.8352 28.1506 25.3011C27.3021 25.767 26.2869 26 25.1051 26ZM23.4403 23.892H25.0028C25.7301 23.892 26.3419 23.7633 26.8381 23.5057C27.3381 23.2443 27.7131 22.8409 27.9631 22.2955C28.2169 21.7462 28.3438 21.0379 28.3438 20.1705C28.3438 19.3106 28.2169 18.608 27.9631 18.0625C27.7131 17.517 27.34 17.1155 26.8438 16.858C26.3475 16.6004 25.7358 16.4716 25.0085 16.4716H23.4403V23.892Z" fill="#344054"/>
</svg>
