<svg width="150" height="112" viewBox="0 0 150 112" fill="none" xmlns="http://www.w3.org/2000/svg">
<path d="M134.97 103.74H125.034V103.815H134.97V103.74Z" fill="#EBEBEB"/>
<path d="M99.3658 104.557H96.7588V104.632H99.3658V104.557Z" fill="#EBEBEB"/>
<path d="M124.734 100.956H118.977V101.031H124.734V100.956Z" fill="#EBEBEB"/>
<path d="M28.6953 101.46H15.7383V101.535H28.6953V101.46Z" fill="#EBEBEB"/>
<path d="M33.2672 101.46H31.3682V101.535H33.2672V101.46Z" fill="#EBEBEB"/>
<path d="M67.5449 102.727H39.4409V102.802H67.5449V102.727Z" fill="#EBEBEB"/>
<path d="M71.1001 85.5334H13.1761C12.7218 85.5334 12.2861 85.3529 11.9649 85.0316C11.6436 84.7104 11.4631 84.2747 11.4631 83.8204V2.39136C11.4671 1.93965 11.6493 1.50778 11.9701 1.18977C12.291 0.871758 12.7244 0.693342 13.1761 0.693359H71.1001C71.5544 0.693359 71.9902 0.873836 72.3114 1.19509C72.6327 1.51634 72.8131 1.95204 72.8131 2.40636V83.8204C72.8131 84.2747 72.6327 84.7104 72.3114 85.0316C71.9902 85.3529 71.5544 85.5334 71.1001 85.5334ZM13.1761 0.75336C12.742 0.754153 12.3258 0.926981 12.0188 1.23399C11.7118 1.54101 11.5389 1.95718 11.5381 2.39136V83.8204C11.5389 84.2546 11.7118 84.6707 12.0188 84.9777C12.3258 85.2847 12.742 85.4576 13.1761 85.4584H71.1001C71.5343 85.4576 71.9505 85.2847 72.2575 84.9777C72.5645 84.6707 72.7373 84.2546 72.7381 83.8204V2.39136C72.7373 1.95718 72.5645 1.54101 72.2575 1.23399C71.9505 0.926981 71.5343 0.754153 71.1001 0.75336H13.1761Z" fill="#EBEBEB"/>
<path d="M135.993 85.5334H78.0629C77.6088 85.5326 77.1735 85.3518 76.8525 85.0308C76.5314 84.7097 76.3506 84.2744 76.3499 83.8204V2.39136C76.3546 1.93989 76.5371 1.50848 76.8577 1.19064C77.1784 0.872792 77.6114 0.694124 78.0629 0.693359H135.993C136.444 0.694921 136.875 0.874034 137.195 1.19188C137.515 1.50972 137.696 1.94069 137.7 2.39136V83.8204C137.7 84.2736 137.52 84.7084 137.2 85.0295C136.88 85.3506 136.446 85.5318 135.993 85.5334ZM78.0629 0.75336C77.6287 0.754153 77.2125 0.926981 76.9055 1.23399C76.5985 1.54101 76.4256 1.95718 76.4249 2.39136V83.8204C76.4256 84.2546 76.5985 84.6707 76.9055 84.9777C77.2125 85.2847 77.6287 85.4576 78.0629 85.4584H135.993C136.427 85.4576 136.843 85.2847 137.15 84.9777C137.457 84.6707 137.63 84.2546 137.631 83.8204V2.39136C137.63 1.95718 137.457 1.54101 137.15 1.23399C136.843 0.926981 136.427 0.754153 135.993 0.75336H78.0629Z" fill="#EBEBEB"/>
<path d="M150 98.9141H0V98.9891H150V98.9141Z" fill="#EBEBEB"/>
<path d="M128.634 26.4482V28.2482C129.765 28.3457 130.838 28.7958 131.7 29.5352L132.981 28.2542C131.774 27.1834 130.244 26.5476 128.634 26.4482Z" fill="#F0F0F0"/>
<path d="M127.758 39.0666C126.476 38.9626 125.273 38.4061 124.363 37.4965C123.454 36.587 122.897 35.3836 122.793 34.1016H120.993C121.096 35.8648 121.841 37.5293 123.087 38.7806C124.334 40.032 125.995 40.7837 127.758 40.8936V39.0666Z" fill="#E6E6E6"/>
<path d="M122.793 33.228C122.897 31.9458 123.454 30.7424 124.363 29.8325C125.273 28.9225 126.476 28.3652 127.758 28.26V26.46C125.995 26.568 124.333 27.3171 123.085 28.566C121.836 29.8149 121.088 31.4774 120.981 33.24L122.793 33.228Z" fill="#EBEBEB"/>
<path d="M133.608 28.8732L132.327 30.1542C132.974 30.914 133.398 31.8377 133.553 32.8234C133.709 33.8091 133.589 34.8185 133.207 35.7404C132.825 36.6622 132.196 37.4607 131.389 38.0477C130.582 38.6348 129.628 38.9876 128.634 39.0672V40.8672C129.985 40.7846 131.286 40.324 132.389 39.5379C133.491 38.7518 134.351 37.6718 134.869 36.4209C135.388 35.1701 135.544 33.7988 135.321 32.4632C135.098 31.1277 134.505 29.8817 133.608 28.8672V28.8732Z" fill="#E0E0E0"/>
<path d="M73.7611 30.3184H75.0931C75.3119 30.3184 75.5218 30.4053 75.6765 30.56C75.8312 30.7147 75.9181 30.9246 75.9181 31.1434V69.8704H72.9331V31.1434C72.9331 31.0348 72.9545 30.9272 72.9962 30.827C73.0378 30.7267 73.0989 30.6356 73.1758 30.5589C73.2527 30.4823 73.344 30.4216 73.4445 30.3803C73.5449 30.339 73.6525 30.318 73.7611 30.3184Z" fill="#E6E6E6"/>
<path d="M74.6791 30.3184H73.8571C73.6126 30.3184 73.378 30.4153 73.2048 30.5879C73.0316 30.7606 72.9339 30.9948 72.9331 31.2394V69.8704H73.7551V31.2394C73.7559 30.9948 73.8536 30.7606 74.0268 30.5879C74.2 30.4153 74.4346 30.3184 74.6791 30.3184Z" fill="#F0F0F0"/>
<path d="M76.7852 67.3174H72.0872V98.9884H76.7852V67.3174Z" fill="#EBEBEB"/>
<path d="M70.4163 97.707H78.4563C78.7602 97.707 79.0517 97.8278 79.2666 98.0427C79.4815 98.2576 79.6023 98.5491 79.6023 98.853V98.985H69.2703V98.853C69.2703 98.5491 69.391 98.2576 69.6059 98.0427C69.8208 97.8278 70.1123 97.707 70.4163 97.707Z" fill="#E6E6E6"/>
<path d="M118.926 83.3445H126.501C127.154 83.3437 127.78 83.0839 128.242 82.6222C128.704 82.1605 128.963 81.5345 128.964 80.8815V69.8055C128.964 69.6861 128.917 69.5717 128.832 69.4873C128.748 69.4029 128.634 69.3555 128.514 69.3555C128.395 69.3555 128.28 69.4029 128.196 69.4873C128.112 69.5717 128.064 69.6861 128.064 69.8055V80.8815C128.064 81.296 127.9 81.6936 127.606 81.9867C127.313 82.2798 126.916 82.4445 126.501 82.4445H118.926V83.3445Z" fill="#E0E0E0"/>
<path d="M116.76 93.9575V83.6435L116.16 83.4545C115.828 83.35 115.538 83.1424 115.332 82.8619C115.126 82.5814 115.014 82.2426 115.014 81.8945H120.729C120.729 82.2427 120.618 82.5818 120.411 82.8623C120.205 83.1429 119.915 83.3504 119.583 83.4545L118.983 83.6435V93.9575L123.726 96.0935V96.9935L117.867 94.9445L112.008 96.9935V96.0935L116.76 93.9575Z" fill="#E0E0E0"/>
<path d="M110.4 82.4432H125.343C125.556 82.4432 125.767 82.4012 125.964 82.3197C126.161 82.2381 126.34 82.1185 126.491 81.9678C126.641 81.8171 126.761 81.6382 126.842 81.4413C126.924 81.2444 126.966 81.0333 126.966 80.8202C126.965 80.3903 126.794 79.9782 126.49 79.6745C126.185 79.3708 125.773 79.2002 125.343 79.2002H110.4C109.97 79.2002 109.558 79.3709 109.255 79.6747C108.951 79.9785 108.78 80.3905 108.78 80.8202C108.78 81.0332 108.821 81.2442 108.902 81.4411C108.984 81.638 109.103 81.8169 109.253 81.9677C109.404 82.1184 109.583 82.238 109.779 82.3196C109.976 82.4012 110.187 82.4432 110.4 82.4432Z" fill="#F0F0F0"/>
<path d="M127.974 73.7016L128.781 62.1696C128.81 61.7417 128.669 61.3194 128.388 60.9955C128.107 60.6715 127.709 60.4723 127.281 60.4416C126.852 60.4111 126.429 60.5519 126.105 60.8332C125.78 61.1145 125.58 61.5132 125.55 61.9416L124.743 73.4736C124.713 73.9019 124.854 74.3244 125.135 74.6488C125.416 74.9733 125.815 75.1731 126.243 75.2046C126.671 75.2343 127.094 75.0927 127.419 74.811C127.743 74.5292 127.943 74.1303 127.974 73.7016Z" fill="#EBEBEB"/>
<path d="M122.7 97.6276C122.7 97.8305 122.76 98.0288 122.873 98.1976C122.985 98.3663 123.146 98.4978 123.333 98.5755C123.521 98.6531 123.727 98.6734 123.926 98.6339C124.125 98.5943 124.308 98.4965 124.451 98.3531C124.595 98.2096 124.692 98.0268 124.732 97.8277C124.772 97.6287 124.751 97.4224 124.674 97.2349C124.596 97.0474 124.464 96.8872 124.296 96.7745C124.127 96.6617 123.929 96.6016 123.726 96.6016C123.591 96.6016 123.458 96.6281 123.333 96.6797C123.209 96.7312 123.095 96.8068 123 96.9021C122.905 96.9973 122.829 97.1104 122.778 97.2349C122.726 97.3594 122.7 97.4928 122.7 97.6276Z" fill="#E0E0E0"/>
<path d="M110.982 97.6276C110.982 97.8305 111.042 98.0288 111.155 98.1976C111.267 98.3663 111.428 98.4978 111.615 98.5755C111.803 98.6531 112.009 98.6734 112.208 98.6339C112.407 98.5943 112.59 98.4965 112.733 98.3531C112.877 98.2096 112.974 98.0268 113.014 97.8277C113.054 97.6287 113.033 97.4224 112.956 97.2349C112.878 97.0474 112.746 96.8872 112.578 96.7745C112.409 96.6617 112.211 96.6016 112.008 96.6016C111.736 96.6016 111.475 96.7097 111.282 96.9021C111.09 97.0945 110.982 97.3554 110.982 97.6276Z" fill="#E0E0E0"/>
<path d="M30.1108 83.3445H22.5358C21.8823 83.3445 21.2555 83.0851 20.7932 82.6233C20.3308 82.1614 20.0706 81.535 20.0698 80.8815V69.8055C20.0698 69.6861 20.1172 69.5717 20.2016 69.4873C20.286 69.4029 20.4005 69.3555 20.5198 69.3555C20.6392 69.3555 20.7536 69.4029 20.838 69.4873C20.9224 69.5717 20.9698 69.6861 20.9698 69.8055V80.8815C20.9706 81.2963 21.136 81.6938 21.4296 81.9869C21.7231 82.2799 22.121 82.4445 22.5358 82.4445H30.1108V83.3445Z" fill="#E0E0E0"/>
<path d="M32.277 93.9575V83.6435L32.877 83.4545C33.2087 83.3499 33.4984 83.1422 33.7039 82.8616C33.9095 82.5811 34.0202 82.2423 34.02 81.8945H28.32C28.3205 82.2426 28.4319 82.5814 28.6379 82.8619C28.844 83.1424 29.1341 83.35 29.466 83.4545L30.066 83.6435V93.9575L25.311 96.0935V96.9935L31.17 94.9445L37.029 96.9935V96.0935L32.277 93.9575Z" fill="#E0E0E0"/>
<path d="M38.6403 82.4432H23.7003C23.2704 82.4424 22.8584 82.2711 22.5546 81.9668C22.2509 81.6625 22.0803 81.2501 22.0803 80.8202C22.0803 80.3905 22.251 79.9785 22.5548 79.6747C22.8586 79.3709 23.2707 79.2002 23.7003 79.2002H38.6403C39.0703 79.2002 39.4826 79.3708 39.7869 79.6745C40.0912 79.9782 40.2625 80.3903 40.2633 80.8202C40.2633 81.2506 40.0923 81.6635 39.788 81.9678C39.4836 82.2722 39.0708 82.4432 38.6403 82.4432Z" fill="#F0F0F0"/>
<path d="M21.0602 73.7016L20.2532 62.1696C20.2235 61.7417 20.3647 61.3194 20.6459 60.9955C20.9271 60.6715 21.3253 60.4723 21.7532 60.4416C22.1816 60.4111 22.6046 60.5519 22.9292 60.8332C23.2538 61.1145 23.4534 61.5132 23.4842 61.9416L24.3002 73.4766C24.3299 73.9048 24.1887 74.3274 23.9076 74.6518C23.6265 74.9763 23.2283 75.1761 22.8002 75.2076C22.5869 75.2235 22.3726 75.1972 22.1696 75.13C21.9666 75.0629 21.7788 74.9562 21.6171 74.8163C21.4554 74.6763 21.323 74.5058 21.2274 74.3145C21.1318 74.1232 21.075 73.9149 21.0602 73.7016Z" fill="#EBEBEB"/>
<path d="M26.334 97.6276C26.334 97.8306 26.2737 98.0291 26.1609 98.1979C26.048 98.3667 25.8876 98.4982 25.6999 98.5757C25.5123 98.6533 25.3058 98.6735 25.1067 98.6336C24.9076 98.5938 24.7248 98.4958 24.5814 98.352C24.4381 98.2082 24.3406 98.0251 24.3013 97.8259C24.2621 97.6267 24.2828 97.4203 24.3609 97.2329C24.4391 97.0454 24.571 96.8854 24.7402 96.773C24.9093 96.6606 25.1079 96.601 25.311 96.6016C25.4456 96.6016 25.5788 96.6281 25.7032 96.6797C25.8275 96.7313 25.9404 96.8069 26.0354 96.9023C26.1304 96.9976 26.2057 97.1107 26.257 97.2352C26.3082 97.3596 26.3344 97.493 26.334 97.6276Z" fill="#E0E0E0"/>
<path d="M38.052 97.6276C38.052 97.8306 37.9917 98.0291 37.8789 98.1979C37.766 98.3667 37.6056 98.4982 37.4179 98.5757C37.2303 98.6533 37.0238 98.6735 36.8247 98.6336C36.6256 98.5938 36.4428 98.4958 36.2994 98.352C36.1561 98.2082 36.0586 98.0251 36.0194 97.8259C35.9801 97.6267 36.0008 97.4203 36.079 97.2329C36.1571 97.0454 36.2891 96.8854 36.4582 96.773C36.6273 96.6606 36.826 96.601 37.029 96.6016C37.1636 96.6016 37.2969 96.6281 37.4212 96.6797C37.5455 96.7313 37.6584 96.8069 37.7534 96.9023C37.8485 96.9976 37.9238 97.1107 37.975 97.2352C38.0262 97.3596 38.0524 97.493 38.052 97.6276Z" fill="#E0E0E0"/>
<path d="M62.3038 98.9885H56.4538L55.8538 87.8945H62.9038L62.3038 98.9885Z" fill="#EBEBEB"/>
<path d="M57.8041 98.9884H55.4041V98.4934L57.8041 98.1934V98.9884Z" fill="#E0E0E0"/>
<path d="M56.7448 86.9941H62.0128C62.2515 86.9941 62.4804 87.089 62.6492 87.2577C62.818 87.4265 62.9128 87.6554 62.9128 87.8941H55.8508C55.8508 87.6554 55.9457 87.4265 56.1144 87.2577C56.2832 87.089 56.5121 86.9941 56.7508 86.9941H56.7448Z" fill="#E0E0E0"/>
<path d="M50.304 70.2161H40.938V69.0941L50.304 68.4941V70.2161Z" fill="#E0E0E0"/>
<path d="M64.1516 71.3594H36.4526V75.1934H64.1516V71.3594Z" fill="#F0F0F0"/>
<path d="M69.8941 70.2148H30.8101V72.5008H69.8941V70.2148Z" fill="#FAFAFA"/>
<path d="M66.2641 98.989H68.0281L64.9741 72.502H62.9041L66.2641 98.989Z" fill="#E6E6E6"/>
<path d="M37.8003 72.502H35.7303L32.6733 98.989H34.4403L37.8003 72.502Z" fill="#E6E6E6"/>
<path d="M59.7871 69.6442C58.9871 65.6722 58.1871 61.6982 57.3871 57.7222C57.2731 57.1552 56.4031 57.3952 56.5171 57.9622L58.8001 69.3142H53.8501C53.7308 69.3142 53.6163 69.3616 53.532 69.446C53.4476 69.5304 53.4001 69.6449 53.4001 69.7642C53.4001 69.8835 53.4476 69.998 53.532 70.0824C53.6163 70.1668 53.7308 70.2142 53.8501 70.2142H59.3491C59.4184 70.2137 59.4867 70.1973 59.5488 70.1665C59.6108 70.1356 59.665 70.091 59.7072 70.0361C59.7494 69.9811 59.7786 69.9173 59.7924 69.8494C59.8063 69.7815 59.8045 69.7113 59.7871 69.6442Z" fill="#E0E0E0"/>
<path d="M54.1831 66.4463L55.7251 44.4023C56.2946 44.8087 56.7501 45.3546 57.048 45.9876C57.3458 46.6206 57.476 47.3195 57.4261 48.0173L56.3731 63.0923C56.3262 63.7922 56.1001 64.4683 55.7166 65.0556C55.3331 65.643 54.805 66.1219 54.1831 66.4463Z" fill="#FAFAFA"/>
<path d="M66.1978 63.8076H63.6898C63.2093 63.8076 62.8198 64.1971 62.8198 64.6776V69.3456C62.8198 69.8261 63.2093 70.2156 63.6898 70.2156H66.1978C66.6783 70.2156 67.0678 69.8261 67.0678 69.3456V64.6776C67.0678 64.1971 66.6783 63.8076 66.1978 63.8076Z" fill="#F5F5F5"/>
<path d="M64.5003 61.4229C63.8373 61.4229 63.3003 61.5879 63.3003 61.7889C63.3003 61.9899 63.8403 61.7169 64.5003 61.7169C64.5852 61.7123 64.6704 61.7123 64.7553 61.7169V63.1689H65.1333V61.7739C65.4753 61.8369 65.7033 61.9059 65.7033 61.7739C65.7003 61.5939 65.1633 61.4229 64.5003 61.4229Z" fill="#E0E0E0"/>
<path d="M65.6223 62.7119H64.2693V64.0649H65.6223V62.7119Z" fill="#F0F0F0"/>
<path d="M84.8852 75.1953H112.584V71.3613H84.8852V75.1953Z" fill="#F0F0F0"/>
<path d="M79.1428 72.5039H118.227V70.2179H79.1428V72.5039Z" fill="#FAFAFA"/>
<path d="M82.7729 98.989H81.0059L84.0599 72.502H86.1299L82.7729 98.989Z" fill="#E6E6E6"/>
<path d="M111.237 72.502H113.307L116.361 98.989H114.594L111.237 72.502Z" fill="#E6E6E6"/>
<path d="M104.589 70.2161H113.952V69.0941L104.589 68.4941V70.2161Z" fill="#263238"/>
<path opacity="0.6" d="M104.589 70.2161H113.952V69.0941L104.589 68.4941V70.2161Z" fill="white"/>
<path d="M85.752 50.0938V70.2147H87.054L87.354 68.4298C87.4085 68.1137 87.573 67.8272 87.8184 67.6208C88.0638 67.4143 88.3743 67.3013 88.695 67.3017H100.8C101.121 67.3013 101.431 67.4143 101.677 67.6208C101.922 67.8272 102.086 68.1137 102.141 68.4298L102.441 70.2147H103.74V50.0938H85.752Z" fill="#FAFAFA"/>
<path d="M91.5753 69.6442C92.3753 65.6722 93.1753 61.6982 93.9753 57.7222C94.0893 57.1552 94.9563 57.3952 94.8423 57.9622L92.5563 69.3142H97.5003C97.6196 69.3142 97.7341 69.3616 97.8185 69.446C97.9029 69.5304 97.9503 69.6449 97.9503 69.7642C97.9503 69.8835 97.9029 69.998 97.8185 70.0824C97.7341 70.1668 97.6196 70.2142 97.5003 70.2142H92.0073C91.9385 70.2128 91.8709 70.1958 91.8096 70.1645C91.7484 70.1333 91.6949 70.0886 91.6534 70.0337C91.6118 69.9789 91.5832 69.9154 91.5697 69.8479C91.5562 69.7805 91.5581 69.7108 91.5753 69.6442Z" fill="#E0E0E0"/>
<path d="M97.1759 66.4463L95.6339 44.4023C95.0651 44.8093 94.6101 45.3553 94.3123 45.9881C94.0145 46.621 93.8839 47.3196 93.9329 48.0173L94.9859 63.0923C95.0335 63.7921 95.2598 64.4679 95.6432 65.0552C96.0267 65.6424 96.5544 66.1214 97.1759 66.4463Z" fill="#E0E0E0"/>
<path d="M73.6471 6.64844H71.8381V16.0924L73.6471 16.0864V6.64844Z" fill="#EBEBEB"/>
<path d="M68.313 8.60666V16.0797C68.3793 16.0917 68.4466 16.0978 68.514 16.0977H70.122V8.59766L68.313 8.60666Z" fill="#E6E6E6"/>
<path d="M79.158 5.66797V16.078H80.772C80.8373 16.0767 80.9025 16.0707 80.967 16.06V5.66797H79.158Z" fill="#F0F0F0"/>
<path d="M77.3517 10.5332H75.5427V16.0832L77.3517 16.0802V10.5332Z" fill="#E0E0E0"/>
<path d="M21.5457 26.3828V33.5498L24.2037 40.2068C25.6817 39.5334 26.8905 38.3826 27.6358 36.9393C28.381 35.4961 28.6195 33.8443 28.3128 32.2492C28.0061 30.6541 27.1721 29.2085 25.9448 28.1445C24.7174 27.0806 23.1681 26.4601 21.5457 26.3828Z" fill="#E0E0E0"/>
<path d="M20.9188 33.4598V26.3828C19.1165 26.4684 17.4164 27.2442 16.1708 28.5496C14.9252 29.8549 14.2298 31.5896 14.2288 33.3938C14.2288 33.4818 14.2288 33.5688 14.2288 33.6548C14.2288 33.7448 14.2288 33.8318 14.2288 33.9218C14.2278 35.0412 14.4947 36.1446 15.0071 37.1399C15.5195 38.1351 16.2626 38.9933 17.1744 39.6428C18.0861 40.2923 19.14 40.7143 20.248 40.8735C21.356 41.0326 22.4861 40.9244 23.5438 40.5578L20.9188 33.4598Z" fill="#F0F0F0"/>
<path d="M73.5537 111.307C105.678 111.307 131.721 109.786 131.721 107.911C131.721 106.035 105.678 104.515 73.5537 104.515C41.429 104.515 15.3867 106.035 15.3867 107.911C15.3867 109.786 41.429 111.307 73.5537 111.307Z" fill="#F5F5F5"/>
<path d="M67.4041 106.329L73.0201 100.713L78.6361 106.329C78.7812 106.474 78.9775 106.554 79.1821 106.554C79.3349 106.555 79.4842 106.51 79.6113 106.425C79.7384 106.34 79.8375 106.22 79.896 106.079C79.9545 105.937 79.9698 105.782 79.9399 105.632C79.91 105.483 79.8363 105.345 79.7281 105.237L73.0201 98.5293L66.3001 105.237C66.192 105.345 66.1183 105.483 66.0884 105.632C66.0585 105.782 66.0738 105.937 66.1323 106.079C66.1908 106.22 66.2898 106.34 66.4169 106.425C66.544 106.51 66.6934 106.555 66.8461 106.554C66.9495 106.556 67.0521 106.537 67.1479 106.498C67.2437 106.46 67.3308 106.402 67.4041 106.329Z" fill="#407BFF"/>
<path opacity="0.2" d="M73.2089 98.7207H72.8309L71.1089 100.44V102.543H71.1899L73.0199 100.713L74.8499 102.543H74.9309V100.44L73.2089 98.7207Z" fill="black"/>
<path d="M71.8713 81.2041H74.1693V105.654C74.1693 105.893 74.0745 106.122 73.9057 106.291C73.7369 106.459 73.508 106.554 73.2693 106.554H72.7713C72.5326 106.554 72.3037 106.459 72.1349 106.291C71.9662 106.122 71.8713 105.893 71.8713 105.654V81.2041Z" fill="#407BFF"/>
<path opacity="0.2" d="M74.1693 81.2041H71.8713V90.2131H74.1693V81.2041Z" fill="black"/>
<path d="M113.922 86.9817H32.118C31.3104 86.9801 30.5363 86.6584 29.9656 86.087C29.3948 85.5157 29.0738 84.7413 29.073 83.9337V20.4717H116.973V83.9337C116.972 84.7423 116.65 85.5176 116.078 86.0891C115.506 86.6607 114.731 86.9817 113.922 86.9817ZM30.102 21.5007V83.9337C30.102 84.4686 30.3143 84.9817 30.6923 85.3603C31.0703 85.7388 31.583 85.9519 32.118 85.9527H113.922C114.457 85.9519 114.97 85.7388 115.348 85.3603C115.726 84.9817 115.938 84.4686 115.938 83.9337V21.5007H30.102Z" fill="#407BFF"/>
<g opacity="0.8">
<path d="M113.923 86.9836H32.119C31.3114 86.9821 30.5373 86.6603 29.9665 86.089C29.3957 85.5176 29.0748 84.7433 29.074 83.9356V20.4736H116.974V83.9356C116.973 84.7443 116.651 85.5196 116.079 86.0911C115.507 86.6626 114.732 86.9836 113.923 86.9836ZM30.103 21.5026V83.9356C30.103 84.4706 30.3153 84.9837 30.6933 85.3622C31.0713 85.7408 31.584 85.9539 32.119 85.9546H113.923C114.458 85.9539 114.971 85.7408 115.349 85.3622C115.727 84.9837 115.939 84.4706 115.939 83.9356V21.5026H30.103Z" fill="white"/>
</g>
<path d="M30.1021 21.502V83.935C30.1021 84.4699 30.3144 84.983 30.6923 85.3615C31.0703 85.7401 31.5831 85.9532 32.1181 85.954H113.922C114.457 85.9532 114.97 85.7401 115.348 85.3615C115.726 84.983 115.938 84.4699 115.938 83.935V21.502H30.1021Z" fill="white"/>
<path d="M118.953 19.8301H27.0874V22.1461H118.953V19.8301Z" fill="#407BFF"/>
<path opacity="0.5" d="M118.953 19.8301H27.0874V20.9881H118.953V19.8301Z" fill="white"/>
<path d="M38.262 74.8835C38.262 74.8835 89.457 73.9295 105.225 29.3135L104.682 74.9855L38.262 74.8835Z" fill="#407BFF"/>
<g opacity="0.7">
<path d="M38.262 74.8835C38.262 74.8835 89.457 73.9295 105.225 29.3135L104.682 74.9855L38.262 74.8835Z" fill="white"/>
</g>
<path d="M38.6582 75.1401C38.5786 75.1421 38.5015 75.1124 38.4439 75.0576C38.3862 75.0027 38.3527 74.9272 38.3507 74.8476C38.3487 74.768 38.3784 74.691 38.4332 74.6333C38.4881 74.5756 38.5636 74.5421 38.6432 74.5401C41.1272 74.4231 54.2162 73.5261 68.3102 67.3821C86.3102 59.5281 98.5862 46.6821 104.766 29.1921C104.797 29.1237 104.853 29.0694 104.922 29.0398C104.991 29.0103 105.068 29.0077 105.139 29.0326C105.21 29.0574 105.269 29.1079 105.304 29.1741C105.34 29.2403 105.349 29.3174 105.33 29.3901C101.925 39.0351 96.5792 47.3901 89.4302 54.2391C83.6162 59.8161 76.5872 64.4211 68.5382 67.9311C54.3482 74.1201 41.1602 75.0231 38.6612 75.1311L38.6582 75.1401Z" fill="#407BFF"/>
<path d="M41.3283 77.9504C41.2488 77.9504 41.1724 77.9188 41.1162 77.8626C41.0599 77.8063 41.0283 77.73 41.0283 77.6504V75.1574C41.0283 75.0779 41.0599 75.0016 41.1162 74.9453C41.1724 74.889 41.2488 74.8574 41.3283 74.8574C41.4079 74.8574 41.4842 74.889 41.5405 74.9453C41.5967 75.0016 41.6283 75.0779 41.6283 75.1574V77.6504C41.6283 77.73 41.5967 77.8063 41.5405 77.8626C41.4842 77.9188 41.4079 77.9504 41.3283 77.9504Z" fill="#407BFF"/>
<path d="M51.7412 77.9621C51.6616 77.9621 51.5853 77.9305 51.529 77.8743C51.4728 77.818 51.4412 77.7417 51.4412 77.6621V75.1691C51.4412 75.0896 51.4728 75.0133 51.529 74.957C51.5853 74.9008 51.6616 74.8691 51.7412 74.8691C51.8207 74.8691 51.897 74.9008 51.9533 74.957C52.0096 75.0133 52.0412 75.0896 52.0412 75.1691V77.6621C52.0412 77.7417 52.0096 77.818 51.9533 77.8743C51.897 77.9305 51.8207 77.9621 51.7412 77.9621Z" fill="#407BFF"/>
<path d="M62.154 77.97C62.0744 77.97 61.9981 77.9384 61.9419 77.8821C61.8856 77.8258 61.854 77.7495 61.854 77.67V75.177C61.854 75.0974 61.8856 75.0211 61.9419 74.9648C61.9981 74.9086 62.0744 74.877 62.154 74.877C62.2336 74.877 62.3099 74.9086 62.3661 74.9648C62.4224 75.0211 62.454 75.0974 62.454 75.177V77.67C62.454 77.7495 62.4224 77.8258 62.3661 77.8821C62.3099 77.9384 62.2336 77.97 62.154 77.97Z" fill="#407BFF"/>
<path d="M72.5676 77.9797C72.488 77.9797 72.4117 77.9481 72.3554 77.8919C72.2992 77.8356 72.2676 77.7593 72.2676 77.6797V75.1867C72.2676 75.1072 72.2992 75.0309 72.3554 74.9746C72.4117 74.9183 72.488 74.8867 72.5676 74.8867C72.6471 74.8867 72.7234 74.9183 72.7797 74.9746C72.836 75.0309 72.8676 75.1072 72.8676 75.1867V77.6797C72.8676 77.7593 72.836 77.8356 72.7797 77.8919C72.7234 77.9481 72.6471 77.9797 72.5676 77.9797Z" fill="#407BFF"/>
<path d="M82.9804 77.9884C82.9009 77.9884 82.8245 77.9568 82.7683 77.9006C82.712 77.8443 82.6804 77.768 82.6804 77.6884V75.1984C82.6804 75.1189 82.712 75.0426 82.7683 74.9863C82.8245 74.93 82.9009 74.8984 82.9804 74.8984C83.06 74.8984 83.1363 74.93 83.1925 74.9863C83.2488 75.0426 83.2804 75.1189 83.2804 75.1984V77.6884C83.2804 77.768 83.2488 77.8443 83.1925 77.9006C83.1363 77.9568 83.06 77.9884 82.9804 77.9884Z" fill="#407BFF"/>
<path d="M93.3903 77.9992C93.3108 77.9992 93.2345 77.9676 93.1782 77.9114C93.1219 77.8551 93.0903 77.7788 93.0903 77.6992V75.2063C93.0903 75.1267 93.1219 75.0504 93.1782 74.9941C93.2345 74.9379 93.3108 74.9062 93.3903 74.9062C93.4699 74.9062 93.5462 74.9379 93.6025 74.9941C93.6587 75.0504 93.6903 75.1267 93.6903 75.2063V77.6992C93.6903 77.7788 93.6587 77.8551 93.6025 77.9114C93.5462 77.9676 93.4699 77.9992 93.3903 77.9992Z" fill="#407BFF"/>
<path d="M103.8 78.01C103.721 78.01 103.644 77.9784 103.588 77.9221C103.532 77.8659 103.5 77.7896 103.5 77.71V75.217C103.5 75.1374 103.532 75.0611 103.588 75.0049C103.644 74.9486 103.721 74.917 103.8 74.917C103.88 74.917 103.956 74.9486 104.012 75.0049C104.069 75.0611 104.1 75.1374 104.1 75.217V77.71C104.1 77.7896 104.069 77.8659 104.012 77.9221C103.956 77.9784 103.88 78.01 103.8 78.01Z" fill="#407BFF"/>
<path d="M38.4001 32.0883H37.0561C36.9765 32.0883 36.9002 32.0567 36.844 32.0004C36.7877 31.9442 36.7561 31.8678 36.7561 31.7883C36.7561 31.7087 36.7877 31.6324 36.844 31.5761C36.9002 31.5199 36.9765 31.4883 37.0561 31.4883H38.4001C38.4797 31.4883 38.556 31.5199 38.6122 31.5761C38.6685 31.6324 38.7001 31.7087 38.7001 31.7883C38.7001 31.8678 38.6685 31.9442 38.6122 32.0004C38.556 32.0567 38.4797 32.0883 38.4001 32.0883Z" fill="#407BFF"/>
<path d="M38.4001 38.6195H37.0561C36.9765 38.6195 36.9002 38.5879 36.844 38.5317C36.7877 38.4754 36.7561 38.3991 36.7561 38.3195C36.7561 38.24 36.7877 38.1637 36.844 38.1074C36.9002 38.0511 36.9765 38.0195 37.0561 38.0195H38.4001C38.4797 38.0195 38.556 38.0511 38.6122 38.1074C38.6685 38.1637 38.7001 38.24 38.7001 38.3195C38.7001 38.3991 38.6685 38.4754 38.6122 38.5317C38.556 38.5879 38.4797 38.6195 38.4001 38.6195Z" fill="#407BFF"/>
<path d="M38.4001 45.1537H37.0561C36.9765 45.1537 36.9002 45.1221 36.844 45.0658C36.7877 45.0096 36.7561 44.9333 36.7561 44.8537C36.7561 44.7741 36.7877 44.6978 36.844 44.6416C36.9002 44.5853 36.9765 44.5537 37.0561 44.5537H38.4001C38.4797 44.5537 38.556 44.5853 38.6122 44.6416C38.6685 44.6978 38.7001 44.7741 38.7001 44.8537C38.7001 44.9333 38.6685 45.0096 38.6122 45.0658C38.556 45.1221 38.4797 45.1537 38.4001 45.1537Z" fill="#407BFF"/>
<path d="M38.4001 51.6928H37.0561C36.9765 51.6928 36.9002 51.6612 36.844 51.6049C36.7877 51.5486 36.7561 51.4723 36.7561 51.3928C36.7561 51.3132 36.7877 51.2369 36.844 51.1806C36.9002 51.1244 36.9765 51.0928 37.0561 51.0928H38.4001C38.4797 51.0928 38.556 51.1244 38.6122 51.1806C38.6685 51.2369 38.7001 51.3132 38.7001 51.3928C38.7001 51.4723 38.6685 51.5486 38.6122 51.6049C38.556 51.6612 38.4797 51.6928 38.4001 51.6928Z" fill="#407BFF"/>
<path d="M38.4001 58.2191H37.0561C36.9765 58.2191 36.9002 58.1875 36.844 58.1313C36.7877 58.075 36.7561 57.9987 36.7561 57.9191C36.7561 57.8396 36.7877 57.7633 36.844 57.707C36.9002 57.6507 36.9765 57.6191 37.0561 57.6191H38.4001C38.4797 57.6191 38.556 57.6507 38.6122 57.707C38.6685 57.7633 38.7001 57.8396 38.7001 57.9191C38.7001 57.9987 38.6685 58.075 38.6122 58.1313C38.556 58.1875 38.4797 58.2191 38.4001 58.2191Z" fill="#407BFF"/>
<path d="M38.4001 64.7523H37.0561C36.9765 64.7523 36.9002 64.7207 36.844 64.6645C36.7877 64.6082 36.7561 64.5319 36.7561 64.4523C36.7561 64.3728 36.7877 64.2965 36.844 64.2402C36.9002 64.184 36.9765 64.1523 37.0561 64.1523H38.4001C38.4797 64.1523 38.556 64.184 38.6122 64.2402C38.6685 64.2965 38.7001 64.3728 38.7001 64.4523C38.7001 64.5319 38.6685 64.6082 38.6122 64.6645C38.556 64.7207 38.4797 64.7523 38.4001 64.7523Z" fill="#407BFF"/>
<path d="M38.4001 71.2836H37.0561C36.9765 71.2836 36.9002 71.252 36.844 71.1957C36.7877 71.1395 36.7561 71.0632 36.7561 70.9836C36.7561 70.904 36.7877 70.8277 36.844 70.7715C36.9002 70.7152 36.9765 70.6836 37.0561 70.6836H38.4001C38.4797 70.6836 38.556 70.7152 38.6122 70.7715C38.6685 70.8277 38.7001 70.904 38.7001 70.9836C38.7001 71.0632 38.6685 71.1395 38.6122 71.1957C38.556 71.252 38.4797 71.2836 38.4001 71.2836Z" fill="#407BFF"/>
<path d="M107.22 75.4562H38.6579C38.5783 75.4562 38.502 75.4246 38.4458 75.3683C38.3895 75.3121 38.3579 75.2358 38.3579 75.1562V29.2082C38.3579 29.1286 38.3895 29.0523 38.4458 28.9961C38.502 28.9398 38.5783 28.9082 38.6579 28.9082C38.7375 28.9082 38.8138 28.9398 38.87 28.9961C38.9263 29.0523 38.9579 29.1286 38.9579 29.2082V74.8562H107.22C107.299 74.8562 107.376 74.8878 107.432 74.9441C107.488 75.0003 107.52 75.0766 107.52 75.1562C107.52 75.2358 107.488 75.3121 107.432 75.3683C107.376 75.4246 107.299 75.4562 107.22 75.4562Z" fill="#407BFF"/>
<path d="M57 30.3672V31.1322L54.6 36.5172H53.4L55.71 31.3332H53.292V32.3802H52.23V30.3672H57Z" fill="#407BFF"/>
<path d="M57.54 33.4404C57.54 31.4184 58.647 30.2754 60.108 30.2754C61.569 30.2754 62.682 31.4184 62.682 33.4404C62.682 35.4624 61.575 36.6024 60.108 36.6024C58.641 36.6024 57.54 35.4624 57.54 33.4404ZM61.53 33.4404C61.53 31.9554 60.951 31.2684 60.108 31.2684C59.265 31.2684 58.692 31.9554 58.692 33.4404C58.692 34.9254 59.271 35.6094 60.108 35.6094C60.945 35.6094 61.53 34.9254 61.53 33.4404Z" fill="#407BFF"/>
<path d="M63.3606 31.9927C63.3606 30.9817 63.9606 30.3037 64.8276 30.3037C65.6946 30.3037 66.3036 30.9727 66.3036 31.9927C66.3036 33.0127 65.7036 33.6787 64.8276 33.6787C63.9516 33.6787 63.3606 33.0037 63.3606 31.9927ZM65.5836 31.9927C65.5836 31.3057 65.3016 30.9187 64.8276 30.9187C64.3536 30.9187 64.0716 31.3147 64.0716 31.9927C64.0716 32.6707 64.3716 33.0637 64.8276 33.0637C65.2836 33.0637 65.5836 32.6767 65.5836 31.9927ZM68.5176 30.3667H69.3786L65.1786 36.5167H64.3176L68.5176 30.3667ZM67.3926 34.8937C67.3926 33.8827 67.9926 33.2077 68.8596 33.2077C69.7266 33.2077 70.3356 33.8827 70.3356 34.8937C70.3356 35.9047 69.7356 36.5827 68.8596 36.5827C67.9836 36.5827 67.3926 35.9017 67.3926 34.8937ZM69.6156 34.8937C69.6156 34.2187 69.3156 33.8227 68.8596 33.8227C68.4036 33.8227 68.1006 34.2067 68.1006 34.8937C68.1006 35.5807 68.4006 35.9677 68.8566 35.9677C69.3126 35.9677 69.6156 35.5687 69.6156 34.8937Z" fill="#407BFF"/>
<path d="M68.4693 38.167H54.5913V39.133H68.4693V38.167Z" fill="#407BFF"/>
<path d="M68.4689 40.4922H52.2659V41.4582H68.4689V40.4922Z" fill="#407BFF"/>
<path d="M68.4689 42.7559H52.2659V43.7219H68.4689V42.7559Z" fill="#407BFF"/>
<path d="M64.8899 45.0215H52.2659V45.9875H64.8899V45.0215Z" fill="#407BFF"/>
<path d="M119.193 81.074C119.193 81.074 121.377 85.778 121.512 95.894H122.997C122.997 95.894 121.767 80.648 118.941 79.556C117.432 78.995 119.193 81.074 119.193 81.074Z" fill="#407BFF"/>
<g opacity="0.1">
<path d="M119.193 81.075C119.193 81.075 121.377 85.779 121.512 95.895H122.997C122.997 95.895 121.767 80.649 118.941 79.557C117.432 78.996 119.193 81.075 119.193 81.075Z" fill="black"/>
</g>
<path d="M118.323 79.5647C118.623 78.6647 118.776 78.6797 119.313 78.0887C118.515 77.9567 117.546 77.5517 116.241 78.0707C115.095 78.6107 114.666 79.8707 114.888 81.1007C114.898 81.1455 114.897 81.1918 114.887 81.2363C114.876 81.2809 114.856 81.3226 114.828 81.3587C114.796 81.3982 114.756 81.4295 114.709 81.4501C114.663 81.4708 114.613 81.4802 114.562 81.4776C114.511 81.4749 114.462 81.4603 114.418 81.435C114.374 81.4096 114.337 81.3742 114.309 81.3317C114.059 80.9249 113.915 80.4617 113.89 79.9847C113.866 79.5077 113.961 79.0321 114.168 78.6017C113.145 78.9257 111.966 79.4597 111.336 80.3297C110.646 81.2807 110.877 83.5217 111.684 84.4577C111.718 84.4977 111.736 84.5481 111.736 84.6002C111.736 84.6523 111.718 84.7028 111.684 84.7427C111.666 84.7679 111.642 84.7888 111.615 84.8041C111.587 84.8194 111.557 84.8288 111.526 84.8316C111.495 84.8345 111.464 84.8307 111.434 84.8205C111.404 84.8104 111.377 84.7941 111.354 84.7727C110.947 84.4573 110.614 84.0557 110.379 83.5967C110.133 83.0627 110.022 82.4327 110.337 81.9377C109.035 82.1357 107.937 84.8897 108.069 84.8597C108.252 85.8347 109.131 86.7227 109.569 87.1157C109.645 87.1834 109.694 87.2751 109.709 87.3752C109.725 87.4753 109.705 87.5776 109.653 87.6647C109.621 87.7191 109.577 87.7659 109.525 87.802C109.473 87.838 109.414 87.8624 109.352 87.8735C109.289 87.8846 109.225 87.8821 109.164 87.8663C109.103 87.8505 109.046 87.8216 108.996 87.7817C108.528 87.4007 107.82 86.7527 107.622 86.2007C107.19 86.5007 107.205 87.2357 107.214 87.7637C107.238 89.4497 108.507 90.6707 109.506 91.9067C110.8 92.3811 112.201 92.485 113.55 92.2067C114.531 91.9764 115.385 91.3754 115.932 90.5297V90.5087C115.014 90.3077 114 90.0467 113.064 89.8337C112.977 89.8149 112.901 89.764 112.85 89.6912C112.798 89.6183 112.777 89.5289 112.788 89.4407C112.802 89.3497 112.851 89.2676 112.925 89.2117C112.998 89.1558 113.09 89.1303 113.181 89.1407C114.414 89.2877 115.371 89.5667 116.637 89.6987C117.321 89.0987 118.419 86.8607 118.218 86.9207C117.135 86.8547 115.296 86.9807 114.273 86.5307C114.203 86.4963 114.148 86.4356 114.122 86.3615C114.096 86.2875 114.099 86.206 114.132 86.1347C114.162 86.0827 114.206 86.0406 114.259 86.0139C114.313 85.9871 114.373 85.977 114.432 85.9847C115.816 86.2587 117.238 86.2892 118.632 86.0747C119.457 84.9557 120.051 84.0917 120.147 83.2577L116.88 82.9577C116.811 82.9536 116.746 82.9239 116.697 82.8744C116.649 82.8249 116.621 82.759 116.618 82.6897C116.615 82.6205 116.639 82.5527 116.683 82.4996C116.728 82.4465 116.791 82.412 116.859 82.4027H116.877C118.209 82.2467 119.772 82.7237 120.84 81.9647C120.84 81.9647 122.253 80.5937 121.779 79.7927C120.666 80.4077 118.2 79.9697 118.323 79.5647Z" fill="#407BFF"/>
<path d="M123.856 81.4975C122.873 83.2392 122.147 85.1135 121.699 87.0625C120.199 93.8155 120.238 95.8075 120.238 95.8075L118.984 95.8495C118.984 95.8495 121.426 82.9195 123.439 81.1015C125.452 79.2835 123.856 81.4975 123.856 81.4975Z" fill="#407BFF"/>
<path opacity="0.4" d="M123.856 81.4975C122.873 83.2392 122.147 85.1135 121.699 87.0625C120.199 93.8155 120.238 95.8075 120.238 95.8075L118.984 95.8495C118.984 95.8495 121.426 82.9195 123.439 81.1015C125.452 79.2835 123.856 81.4975 123.856 81.4975Z" fill="black"/>
<path d="M124.323 80.0836C123.87 79.7266 123.795 79.7836 123.315 79.6426C123.705 79.3426 124.101 78.8686 124.974 78.7426C125.338 78.7172 125.701 78.8108 126.007 79.0094C126.313 79.208 126.547 79.5008 126.672 79.8436C126.683 79.8687 126.699 79.8913 126.719 79.9099C126.739 79.9285 126.763 79.9427 126.789 79.9516C126.817 79.9629 126.848 79.9675 126.878 79.965C126.909 79.9625 126.938 79.9531 126.964 79.9374C126.99 79.9217 127.012 79.9003 127.029 79.8746C127.045 79.849 127.056 79.8199 127.059 79.7896C127.061 79.5097 126.989 79.2342 126.85 78.9912C126.71 78.7483 126.509 78.5466 126.267 78.4066C126.924 78.2716 127.734 78.1936 128.367 78.4366C129.045 78.7066 129.633 79.8736 129.495 80.5696C129.489 80.5993 129.495 80.6302 129.51 80.6562C129.526 80.6822 129.55 80.7016 129.579 80.7106C129.615 80.7245 129.655 80.7238 129.69 80.7086C129.725 80.6935 129.753 80.6651 129.768 80.6296C129.889 80.3596 129.943 80.064 129.924 79.7686C129.919 79.5985 129.869 79.4327 129.78 79.2875C129.691 79.1423 129.566 79.0228 129.417 78.9406C130.185 78.6646 131.661 79.6996 131.577 79.7236C131.79 80.2576 131.595 80.9476 131.481 81.2656C131.461 81.323 131.463 81.386 131.488 81.4416C131.512 81.4973 131.557 81.5417 131.613 81.5656C131.647 81.5838 131.684 81.5949 131.723 81.5981C131.761 81.6013 131.8 81.5965 131.837 81.5842C131.873 81.5718 131.907 81.552 131.935 81.5261C131.964 81.5003 131.987 81.4688 132.003 81.4336C132.18 81.0687 132.263 80.6657 132.246 80.2606C132.576 80.2846 132.801 80.6476 132.966 80.9086C133.488 81.7456 133.191 82.7086 133.044 83.6086C132.474 84.2254 131.749 84.6781 130.944 84.9196C130.338 85.088 129.691 85.0392 129.117 84.7816C129.549 84.4186 130.017 83.9956 130.458 83.6206C130.478 83.6044 130.494 83.5844 130.506 83.5617C130.518 83.539 130.525 83.5141 130.527 83.4886C130.529 83.4631 130.526 83.4374 130.518 83.4132C130.509 83.3889 130.496 83.3666 130.479 83.3476C130.441 83.3081 130.39 83.283 130.335 83.2765C130.281 83.2699 130.226 83.2823 130.179 83.3116C129.558 83.7406 129.129 84.1546 128.484 84.5836C127.917 84.4846 126.612 83.7046 126.741 83.6836C127.308 83.3386 128.343 82.8706 128.757 82.3516C128.771 82.3336 128.781 82.3127 128.786 82.2904C128.791 82.2681 128.791 82.245 128.786 82.2227C128.781 82.2004 128.772 82.1794 128.758 82.1612C128.744 82.1431 128.726 82.1282 128.706 82.1176C128.673 82.0983 128.635 82.0895 128.597 82.0921C128.559 82.0948 128.523 82.1089 128.493 82.1326C127.817 82.6733 127.057 83.099 126.243 83.3926C125.439 83.0926 124.842 82.8256 124.524 82.4446L126.195 81.3466C126.213 81.3358 126.229 81.3214 126.242 81.3044C126.255 81.2874 126.264 81.268 126.269 81.2474C126.275 81.2268 126.276 81.2053 126.273 81.1843C126.27 81.1632 126.263 81.1429 126.252 81.1246C126.241 81.1063 126.227 81.0903 126.21 81.0775C126.193 81.0647 126.173 81.0554 126.153 81.0501C126.132 81.0448 126.111 81.0437 126.09 81.0467C126.069 81.0497 126.048 81.0568 126.03 81.0676C125.256 81.3676 124.56 82.0636 123.741 81.9976C123.741 81.9976 122.541 81.7336 122.541 81.2026C123.321 81.1756 124.524 80.2426 124.323 80.0836Z" fill="#407BFF"/>
<path opacity="0.2" d="M124.323 80.0836C123.87 79.7266 123.795 79.7836 123.315 79.6426C123.705 79.3426 124.101 78.8686 124.974 78.7426C125.338 78.7172 125.701 78.8108 126.007 79.0094C126.313 79.208 126.547 79.5008 126.672 79.8436C126.683 79.8687 126.699 79.8913 126.719 79.9099C126.739 79.9285 126.763 79.9427 126.789 79.9516C126.817 79.9629 126.848 79.9675 126.878 79.965C126.909 79.9625 126.938 79.9531 126.964 79.9374C126.99 79.9217 127.012 79.9003 127.029 79.8746C127.045 79.849 127.056 79.8199 127.059 79.7896C127.061 79.5097 126.989 79.2342 126.85 78.9912C126.71 78.7483 126.509 78.5466 126.267 78.4066C126.924 78.2716 127.734 78.1936 128.367 78.4366C129.045 78.7066 129.633 79.8736 129.495 80.5696C129.489 80.5993 129.495 80.6302 129.51 80.6562C129.526 80.6822 129.55 80.7016 129.579 80.7106C129.615 80.7245 129.655 80.7238 129.69 80.7086C129.725 80.6935 129.753 80.6651 129.768 80.6296C129.889 80.3596 129.943 80.064 129.924 79.7686C129.919 79.5985 129.869 79.4327 129.78 79.2875C129.691 79.1423 129.566 79.0228 129.417 78.9406C130.185 78.6646 131.661 79.6996 131.577 79.7236C131.79 80.2576 131.595 80.9476 131.481 81.2656C131.461 81.323 131.463 81.386 131.488 81.4416C131.512 81.4973 131.557 81.5417 131.613 81.5656C131.647 81.5838 131.684 81.5949 131.723 81.5981C131.761 81.6013 131.8 81.5965 131.837 81.5842C131.873 81.5718 131.907 81.552 131.935 81.5261C131.964 81.5003 131.987 81.4688 132.003 81.4336C132.18 81.0687 132.263 80.6657 132.246 80.2606C132.576 80.2846 132.801 80.6476 132.966 80.9086C133.488 81.7456 133.191 82.7086 133.044 83.6086C132.474 84.2254 131.749 84.6781 130.944 84.9196C130.338 85.088 129.691 85.0392 129.117 84.7816C129.549 84.4186 130.017 83.9956 130.458 83.6206C130.478 83.6044 130.494 83.5844 130.506 83.5617C130.518 83.539 130.525 83.5141 130.527 83.4886C130.529 83.4631 130.526 83.4374 130.518 83.4132C130.509 83.3889 130.496 83.3666 130.479 83.3476C130.441 83.3081 130.39 83.283 130.335 83.2765C130.281 83.2699 130.226 83.2823 130.179 83.3116C129.558 83.7406 129.129 84.1546 128.484 84.5836C127.917 84.4846 126.612 83.7046 126.741 83.6836C127.308 83.3386 128.343 82.8706 128.757 82.3516C128.771 82.3336 128.781 82.3127 128.786 82.2904C128.791 82.2681 128.791 82.245 128.786 82.2227C128.781 82.2004 128.772 82.1794 128.758 82.1612C128.744 82.1431 128.726 82.1282 128.706 82.1176C128.673 82.0983 128.635 82.0895 128.597 82.0921C128.559 82.0948 128.523 82.1089 128.493 82.1326C127.817 82.6733 127.057 83.099 126.243 83.3926C125.439 83.0926 124.842 82.8256 124.524 82.4446L126.195 81.3466C126.213 81.3358 126.229 81.3214 126.242 81.3044C126.255 81.2874 126.264 81.268 126.269 81.2474C126.275 81.2268 126.276 81.2053 126.273 81.1843C126.27 81.1632 126.263 81.1429 126.252 81.1246C126.241 81.1063 126.227 81.0903 126.21 81.0775C126.193 81.0647 126.173 81.0554 126.153 81.0501C126.132 81.0448 126.111 81.0437 126.09 81.0467C126.069 81.0497 126.048 81.0568 126.03 81.0676C125.256 81.3676 124.56 82.0636 123.741 81.9976C123.741 81.9976 122.541 81.7336 122.541 81.2026C123.321 81.1756 124.524 80.2426 124.323 80.0836Z" fill="white"/>
<path d="M122.778 83.7709C122.778 83.7709 120.33 87.3379 119.67 90.6949C119.01 94.0519 118.956 95.4949 118.956 95.4949L117.471 95.5099C117.471 95.5099 120.099 85.3099 122.358 83.2939C124.617 81.2779 122.778 83.7709 122.778 83.7709Z" fill="#407BFF"/>
<path opacity="0.2" d="M122.778 83.7709C122.778 83.7709 120.33 87.3379 119.67 90.6949C119.01 94.0519 118.956 95.4949 118.956 95.4949L117.471 95.5099C117.471 95.5099 120.099 85.3099 122.358 83.2939C124.617 81.2779 122.778 83.7709 122.778 83.7709Z" fill="black"/>
<path d="M122.874 83.456C122.724 82.682 122.598 82.682 122.223 82.139C122.889 82.118 123.723 81.89 124.74 82.457C125.619 83.024 125.835 84.095 125.517 85.085C125.505 85.1211 125.501 85.1594 125.505 85.1971C125.51 85.2349 125.522 85.2713 125.541 85.304C125.563 85.3395 125.593 85.3694 125.628 85.3911C125.664 85.4129 125.704 85.4259 125.746 85.4291C125.787 85.4323 125.829 85.4257 125.867 85.4096C125.906 85.3936 125.94 85.3688 125.967 85.337C126.216 85.0316 126.384 84.6685 126.456 84.2811C126.528 83.8936 126.501 83.4944 126.378 83.12C127.179 83.498 128.088 84.059 128.508 84.839C128.97 85.694 128.538 87.503 127.776 88.181C127.744 88.2089 127.722 88.2473 127.715 88.2895C127.708 88.3317 127.716 88.375 127.737 88.412C127.75 88.4341 127.767 88.4534 127.787 88.4686C127.807 88.4839 127.831 88.4948 127.855 88.5007C127.88 88.5066 127.906 88.5074 127.931 88.503C127.956 88.4985 127.98 88.489 128.001 88.475C128.37 88.2609 128.686 87.9679 128.928 87.617C129.073 87.4271 129.169 87.204 129.207 86.9678C129.245 86.7316 129.223 86.4898 129.144 86.264C130.185 86.564 130.791 88.94 130.683 88.901C130.425 89.678 129.612 90.311 129.207 90.584C129.138 90.6314 129.088 90.7014 129.065 90.7819C129.042 90.8623 129.048 90.9483 129.081 91.025C129.102 91.073 129.132 91.116 129.171 91.151C129.21 91.1861 129.256 91.2123 129.306 91.228C129.356 91.2436 129.408 91.2483 129.46 91.2418C129.512 91.2352 129.562 91.2176 129.606 91.19C130.029 90.929 130.68 90.476 130.902 90.044C131.223 90.344 131.13 90.944 131.067 91.367C130.863 92.744 129.693 93.608 128.742 94.511C127.631 94.7577 126.473 94.6881 125.4 94.31C124.622 94.0163 123.989 93.4323 123.633 92.681V92.66C124.407 92.594 125.265 92.495 126.054 92.42C126.128 92.4119 126.196 92.3767 126.245 92.3213C126.295 92.2659 126.322 92.1942 126.321 92.12C126.321 92.0405 126.289 91.9642 126.233 91.9079C126.177 91.8516 126.101 91.82 126.021 91.82C124.995 91.805 124.182 91.931 123.132 91.901C122.637 91.328 121.98 89.384 122.136 89.453C123.036 89.519 124.536 89.822 125.409 89.564C125.439 89.5548 125.467 89.5397 125.492 89.5196C125.516 89.4995 125.536 89.4748 125.551 89.447C125.566 89.4191 125.575 89.3886 125.578 89.3572C125.581 89.3258 125.577 89.2942 125.568 89.264C125.551 89.2162 125.519 89.1751 125.477 89.1469C125.435 89.1188 125.385 89.1051 125.334 89.108C124.171 89.1813 123.003 89.0524 121.884 88.727C121.329 87.722 120.936 86.951 120.948 86.255L123.648 86.354C123.703 86.3544 123.756 86.3352 123.798 86.2998C123.84 86.2644 123.868 86.2152 123.877 86.161C123.887 86.1068 123.876 86.0512 123.848 86.0041C123.819 85.957 123.775 85.9215 123.723 85.904C122.649 85.628 121.323 85.853 120.528 85.112C120.528 85.112 119.517 83.84 119.994 83.234C120.864 83.891 122.943 83.795 122.874 83.456Z" fill="#407BFF"/>
<path opacity="0.1" d="M122.874 83.456C122.724 82.682 122.598 82.682 122.223 82.139C122.889 82.118 123.723 81.89 124.74 82.457C125.619 83.024 125.835 84.095 125.517 85.085C125.505 85.1211 125.501 85.1594 125.505 85.1971C125.51 85.2349 125.522 85.2713 125.541 85.304C125.563 85.3395 125.593 85.3694 125.628 85.3911C125.664 85.4129 125.704 85.4259 125.746 85.4291C125.787 85.4323 125.829 85.4257 125.867 85.4096C125.906 85.3936 125.94 85.3688 125.967 85.337C126.216 85.0316 126.384 84.6685 126.456 84.2811C126.528 83.8936 126.501 83.4944 126.378 83.12C127.179 83.498 128.088 84.059 128.508 84.839C128.97 85.694 128.538 87.503 127.776 88.181C127.744 88.2089 127.722 88.2473 127.715 88.2895C127.708 88.3317 127.716 88.375 127.737 88.412C127.75 88.4341 127.767 88.4534 127.787 88.4686C127.807 88.4839 127.831 88.4948 127.855 88.5007C127.88 88.5066 127.906 88.5074 127.931 88.503C127.956 88.4985 127.98 88.489 128.001 88.475C128.37 88.2609 128.686 87.9679 128.928 87.617C129.073 87.4271 129.169 87.204 129.207 86.9678C129.245 86.7316 129.223 86.4898 129.144 86.264C130.185 86.564 130.791 88.94 130.683 88.901C130.425 89.678 129.612 90.311 129.207 90.584C129.138 90.6314 129.088 90.7014 129.065 90.7819C129.042 90.8623 129.048 90.9483 129.081 91.025C129.102 91.073 129.132 91.116 129.171 91.151C129.21 91.1861 129.256 91.2123 129.306 91.228C129.356 91.2436 129.408 91.2483 129.46 91.2418C129.512 91.2352 129.562 91.2176 129.606 91.19C130.029 90.929 130.68 90.476 130.902 90.044C131.223 90.344 131.13 90.944 131.067 91.367C130.863 92.744 129.693 93.608 128.742 94.511C127.631 94.7577 126.473 94.6881 125.4 94.31C124.622 94.0163 123.989 93.4323 123.633 92.681V92.66C124.407 92.594 125.265 92.495 126.054 92.42C126.128 92.4119 126.196 92.3767 126.245 92.3213C126.295 92.2659 126.322 92.1942 126.321 92.12C126.321 92.0405 126.289 91.9642 126.233 91.9079C126.177 91.8516 126.101 91.82 126.021 91.82C124.995 91.805 124.182 91.931 123.132 91.901C122.637 91.328 121.98 89.384 122.136 89.453C123.036 89.519 124.536 89.822 125.409 89.564C125.439 89.5548 125.467 89.5397 125.492 89.5196C125.516 89.4995 125.536 89.4748 125.551 89.447C125.566 89.4191 125.575 89.3886 125.578 89.3572C125.581 89.3258 125.577 89.2942 125.568 89.264C125.551 89.2162 125.519 89.1751 125.477 89.1469C125.435 89.1188 125.385 89.1051 125.334 89.108C124.171 89.1813 123.003 89.0524 121.884 88.727C121.329 87.722 120.936 86.951 120.948 86.255L123.648 86.354C123.703 86.3544 123.756 86.3352 123.798 86.2998C123.84 86.2644 123.868 86.2152 123.877 86.161C123.887 86.1068 123.876 86.0512 123.848 86.0041C123.819 85.957 123.775 85.9215 123.723 85.904C122.649 85.628 121.323 85.853 120.528 85.112C120.528 85.112 119.517 83.84 119.994 83.234C120.864 83.891 122.943 83.795 122.874 83.456Z" fill="black"/>
<path d="M117.949 106.594H123.097C123.983 106.594 124.842 106.292 125.534 105.738C126.225 105.184 126.707 104.411 126.901 103.546L128.842 94.8672H112.201L114.142 103.546C114.335 104.411 114.818 105.185 115.51 105.739C116.202 106.293 117.062 106.594 117.949 106.594Z" fill="#407BFF"/>
<g opacity="0.3">
<path d="M117.949 106.594H123.097C123.983 106.594 124.842 106.292 125.534 105.738C126.225 105.184 126.707 104.411 126.901 103.546L128.842 94.8672H112.201L114.142 103.546C114.336 104.411 114.818 105.185 115.51 105.739C116.202 106.293 117.062 106.594 117.949 106.594Z" fill="black"/>
</g>
<path opacity="0.1" d="M118.323 79.5647C118.623 78.6647 118.776 78.6797 119.313 78.0887C118.515 77.9567 117.546 77.5517 116.241 78.0707C115.095 78.6107 114.666 79.8707 114.888 81.1007C114.898 81.1455 114.897 81.1918 114.887 81.2363C114.876 81.2809 114.856 81.3226 114.828 81.3587C114.796 81.3982 114.756 81.4295 114.709 81.4501C114.663 81.4708 114.613 81.4802 114.562 81.4776C114.511 81.4749 114.462 81.4603 114.418 81.435C114.374 81.4096 114.337 81.3742 114.309 81.3317C114.059 80.9249 113.915 80.4617 113.89 79.9847C113.866 79.5077 113.961 79.0321 114.168 78.6017C113.145 78.9257 111.966 79.4597 111.336 80.3297C110.646 81.2807 110.877 83.5217 111.684 84.4577C111.718 84.4977 111.736 84.5481 111.736 84.6002C111.736 84.6523 111.718 84.7028 111.684 84.7427C111.666 84.7679 111.642 84.7888 111.615 84.8041C111.587 84.8194 111.557 84.8288 111.526 84.8316C111.495 84.8345 111.464 84.8307 111.434 84.8205C111.404 84.8104 111.377 84.7941 111.354 84.7727C110.947 84.4573 110.614 84.0557 110.379 83.5967C110.133 83.0627 110.022 82.4327 110.337 81.9377C109.035 82.1357 107.937 84.8897 108.069 84.8597C108.252 85.8347 109.131 86.7227 109.569 87.1157C109.645 87.1834 109.694 87.2751 109.709 87.3752C109.725 87.4753 109.705 87.5776 109.653 87.6647C109.621 87.7191 109.577 87.7659 109.525 87.802C109.473 87.838 109.414 87.8624 109.352 87.8735C109.289 87.8846 109.225 87.8821 109.164 87.8663C109.103 87.8505 109.046 87.8216 108.996 87.7817C108.528 87.4007 107.82 86.7527 107.622 86.2007C107.19 86.5007 107.205 87.2357 107.214 87.7637C107.238 89.4497 108.507 90.6707 109.506 91.9067C110.8 92.3811 112.201 92.485 113.55 92.2067C114.531 91.9764 115.385 91.3754 115.932 90.5297V90.5087C115.014 90.3077 114 90.0467 113.064 89.8337C112.977 89.8149 112.901 89.764 112.85 89.6912C112.798 89.6183 112.777 89.5289 112.788 89.4407C112.802 89.3497 112.851 89.2676 112.925 89.2117C112.998 89.1558 113.09 89.1303 113.181 89.1407C114.414 89.2877 115.371 89.5667 116.637 89.6987C117.321 89.0987 118.419 86.8607 118.218 86.9207C117.135 86.8547 115.296 86.9807 114.273 86.5307C114.203 86.4963 114.148 86.4356 114.122 86.3615C114.096 86.2875 114.099 86.206 114.132 86.1347C114.162 86.0827 114.206 86.0406 114.259 86.0139C114.313 85.9871 114.373 85.977 114.432 85.9847C115.816 86.2587 117.238 86.2892 118.632 86.0747C119.457 84.9557 120.051 84.0917 120.147 83.2577L116.88 82.9577C116.811 82.9536 116.746 82.9239 116.697 82.8744C116.649 82.8249 116.621 82.759 116.618 82.6897C116.615 82.6205 116.639 82.5527 116.683 82.4996C116.728 82.4465 116.791 82.412 116.859 82.4027H116.877C118.209 82.2467 119.772 82.7237 120.84 81.9647C120.84 81.9647 122.253 80.5937 121.779 79.7927C120.666 80.4077 118.2 79.9697 118.323 79.5647Z" fill="white"/>
<path d="M109.248 52.7588C109.095 52.8728 108.984 52.9568 108.849 53.0588C108.714 53.1608 108.594 53.2358 108.465 53.3228C108.207 53.4938 107.943 53.6528 107.676 53.8118C107.135 54.1292 106.578 54.4157 106.005 54.6698C105.407 54.9375 104.788 55.1552 104.154 55.3208C103.815 55.4113 103.47 55.4794 103.122 55.5248C102.945 55.5458 102.759 55.5548 102.57 55.5698H102.27H102.084L101.886 55.5548C101.426 55.4998 100.981 55.3583 100.575 55.1378C100.243 54.9608 99.9308 54.7507 99.6417 54.5108C99.1373 54.087 98.6788 53.6114 98.2737 53.0918C97.5207 52.1246 96.8871 51.0699 96.3867 49.9508L97.7697 49.0898C98.4911 49.9048 99.2573 50.679 100.065 51.4088C100.431 51.7434 100.827 52.0446 101.247 52.3088C101.416 52.4143 101.596 52.5018 101.784 52.5698C101.891 52.6127 102.007 52.6321 102.123 52.6268H102.153L102.294 52.6058C102.393 52.5878 102.492 52.5698 102.594 52.5398C102.801 52.4888 103.017 52.4228 103.236 52.3478C103.7 52.175 104.154 51.9747 104.595 51.7478C105.051 51.5108 105.51 51.2588 105.96 50.9828C106.179 50.8568 106.407 50.7038 106.632 50.5628L106.962 50.3468L107.862 49.7468L109.248 52.7588Z" fill="#407BFF"/>
<path opacity="0.2" d="M109.248 52.7588C109.095 52.8728 108.984 52.9568 108.849 53.0588C108.714 53.1608 108.594 53.2358 108.465 53.3228C108.207 53.4938 107.943 53.6528 107.676 53.8118C107.135 54.1292 106.578 54.4157 106.005 54.6698C105.407 54.9375 104.788 55.1552 104.154 55.3208C103.815 55.4113 103.47 55.4794 103.122 55.5248C102.945 55.5458 102.759 55.5548 102.57 55.5698H102.27H102.084L101.886 55.5548C101.426 55.4998 100.981 55.3583 100.575 55.1378C100.243 54.9608 99.9308 54.7507 99.6417 54.5108C99.1373 54.087 98.6788 53.6114 98.2737 53.0918C97.5207 52.1246 96.8871 51.0699 96.3867 49.9508L97.7697 49.0898C98.4911 49.9048 99.2573 50.679 100.065 51.4088C100.431 51.7434 100.827 52.0446 101.247 52.3088C101.416 52.4143 101.596 52.5018 101.784 52.5698C101.891 52.6127 102.007 52.6321 102.123 52.6268H102.153L102.294 52.6058C102.393 52.5878 102.492 52.5698 102.594 52.5398C102.801 52.4888 103.017 52.4228 103.236 52.3478C103.7 52.175 104.154 51.9747 104.595 51.7478C105.051 51.5108 105.51 51.2588 105.96 50.9828C106.179 50.8568 106.407 50.7038 106.632 50.5628L106.962 50.3468L107.862 49.7468L109.248 52.7588Z" fill="black"/>
<path d="M97.014 50.0679L95.718 49.4469L96.762 47.8359C96.762 47.8359 97.857 48.7359 97.962 49.6569L97.014 50.0679Z" fill="#FF8B7B"/>
<path d="M94.314 48.4003L95.19 47.4043L96.765 47.8393L95.718 49.4473L94.314 48.4003Z" fill="#FF8B7B"/>
<path d="M121.686 107.218C121.824 106.887 122.019 106.582 122.262 106.318C122.262 106.318 123.237 104.641 122.484 101.728L123.825 100.549C124.191 100.552 124.541 100.696 124.803 100.951C124.974 101.139 125.13 101.339 125.271 101.551C125.763 102.394 126.84 104.329 126.84 104.329L126.639 104.44C126.285 103.867 125.898 103.315 125.481 102.787C125.04 102.292 125.049 103.174 125.211 103.921C125.373 104.668 124.893 105.85 123.615 106.621C122.136 107.545 121.479 107.836 121.686 107.218Z" fill="#263238"/>
<path d="M124.143 103.229C124.143 103.724 124.476 104.597 124.035 105.248C123.839 105.549 123.577 105.801 123.271 105.988C122.964 106.174 122.619 106.289 122.262 106.325C122.262 106.325 123.024 105.02 122.682 102.71C122.632 102.382 122.566 102.056 122.484 101.735C122.484 101.735 123.648 100.874 124.182 100.754L124.464 101.522C124.418 102.031 124.317 102.534 124.164 103.022C124.143 103.089 124.136 103.159 124.143 103.229Z" fill="#FF8B7B"/>
<path d="M124.464 101.522C124.418 102.031 124.317 102.534 124.164 103.022C124.14 103.088 124.13 103.158 124.134 103.229L123.036 103.694L122.673 102.71L121.383 99.2027L123.306 98.3867L124.173 100.754L124.464 101.522Z" fill="#FF8B7B"/>
<path opacity="0.2" d="M123.315 98.3896L121.392 99.2026L122.049 100.985H122.073C122.429 101.001 122.783 100.942 123.113 100.81C123.443 100.678 123.742 100.477 123.987 100.22L123.315 98.3896Z" fill="black"/>
<path d="M107.04 106.12C107.334 105.926 107.658 105.782 108 105.694C108 105.694 109.725 104.809 110.658 101.947L112.458 101.584C112.615 101.661 112.755 101.769 112.869 101.903C112.983 102.036 113.069 102.191 113.121 102.358C113.136 102.672 113.13 102.987 113.103 103.3C113.073 104.281 112.911 106.822 112.911 106.822H112.68C112.696 106.041 112.672 105.26 112.608 104.482C112.503 103.828 112.035 104.572 111.768 105.292C111.501 106.012 110.463 106.741 108.966 106.708C107.229 106.633 106.524 106.522 107.04 106.12Z" fill="#263238"/>
<path d="M112.179 102.995C111.976 103.348 111.713 103.662 111.402 103.925C111.042 104.198 110.922 105.365 110.082 105.725C109.755 105.875 109.398 105.95 109.038 105.945C108.677 105.94 108.323 105.854 108 105.695C108 105.695 109.299 105.029 110.256 102.977C110.475 102.502 110.538 101.969 110.436 101.456L109.8 98.1229L111.984 97.8379L112.536 101.816C112.574 102.24 112.446 102.663 112.179 102.995Z" fill="#FF8B7B"/>
<path opacity="0.2" d="M109.614 96.8594L110.118 99.7874L110.307 99.8324C110.632 99.9061 110.968 99.9095 111.295 99.8422C111.621 99.7749 111.928 99.6386 112.197 99.4424L111.825 96.6074L109.614 96.8594Z" fill="black"/>
<path d="M116.898 51.1847C116.897 51.1015 116.891 51.0183 116.88 50.9357C116.841 50.5798 116.731 50.2352 116.558 49.9217C116.385 49.6083 116.152 49.3321 115.872 49.1091C115.591 48.886 115.27 48.7206 114.926 48.6222C114.581 48.5238 114.221 48.4944 113.865 48.5357H113.817C113.634 48.5567 113.445 48.5837 113.259 48.6107C111.99 48.7773 110.733 49.0339 109.5 49.3787C109.29 49.4357 109.074 49.5047 108.864 49.5737C108.579 49.6697 108.294 49.7687 108.024 49.8737C107.407 50.1005 106.893 50.5427 106.576 51.1187C106.259 51.6948 106.16 52.366 106.299 53.0087C106.724 55.3516 107.481 57.6216 108.549 59.7497C108.903 60.4517 108.957 61.8737 109.257 62.7497L117.525 61.0757V61.0907C117.135 58.4867 116.967 54.0677 116.898 51.1847Z" fill="#263238"/>
<path d="M109.263 62.7318C109.263 62.7318 108.804 73.2918 108.393 81.3978C108.069 87.8448 109.326 98.8578 109.326 98.8578C110.467 99.1486 111.677 98.9806 112.695 98.3898C112.743 98.9088 113.193 88.2499 112.695 82.1119C115.017 73.1329 118.422 64.6458 115.908 61.3398L109.263 62.7318Z" fill="#263238"/>
<path opacity="0.3" d="M113.196 68.9291L116.607 66.9941C116.145 70.1951 114.894 74.2181 113.679 78.5111C112.731 75.0941 112.29 71.5331 113.196 68.9291Z" fill="black"/>
<path d="M110.745 62.9888C110.745 62.9888 113.007 71.1698 114.465 79.0088C115.098 84.6428 121.161 100.045 121.161 100.045L122.205 99.8468C122.701 99.7509 123.16 99.5193 123.531 99.1778L123.882 98.8568C123.882 98.8568 122.082 87.6938 120.345 83.3468C120.387 74.2628 120.555 64.4738 117.141 61.4258L110.745 62.9888Z" fill="#263238"/>
<path d="M113.439 48.5468C113.439 48.5468 112.572 58.2158 114.765 70.7798C118.365 70.5638 120.588 69.5648 120.588 69.5648C120.588 69.5648 119.85 62.7518 117.63 59.2778C117.249 56.8418 117.591 51.6458 117.363 49.7498C117.322 49.4174 117.171 49.1079 116.936 48.8697C116.7 48.6315 116.393 48.4779 116.061 48.4328C115.185 48.3697 114.306 48.408 113.439 48.5468Z" fill="#407BFF"/>
<path opacity="0.1" d="M113.439 48.5468C113.439 48.5468 112.572 58.2158 114.765 70.7798C118.365 70.5638 120.588 69.5648 120.588 69.5648C120.588 69.5648 119.85 62.7518 117.63 59.2778C117.249 56.8418 117.591 51.6458 117.363 49.7498C117.322 49.4174 117.171 49.1079 116.936 48.8697C116.7 48.6315 116.393 48.4779 116.061 48.4328C115.185 48.3697 114.306 48.408 113.439 48.5468Z" fill="black"/>
<path d="M109.467 49.2471C109.467 49.2471 108.996 53.8281 111.942 71.0181C110.775 71.6361 108.282 71.4231 108.282 71.4231C108.282 71.4231 108.324 65.6991 108.714 61.1271C108.903 58.9041 107.292 58.5741 106.383 56.1171C105.936 53.2731 106.206 50.9601 106.608 50.6331C107.259 50.1081 108.327 49.3911 109.467 49.2471Z" fill="#407BFF"/>
<path opacity="0.1" d="M109.467 49.2471C109.467 49.2471 108.996 53.8281 111.942 71.0181C110.775 71.6361 108.282 71.4231 108.282 71.4231C108.282 71.4231 108.324 65.6991 108.714 61.1271C108.903 58.9041 107.292 58.5741 106.383 56.1171C105.936 53.2731 106.206 50.9601 106.608 50.6331C107.259 50.1081 108.327 49.3911 109.467 49.2471Z" fill="black"/>
<path opacity="0.7" d="M113.4 48.5205C113.4 48.5205 113.232 52.4775 113.292 55.3725C113.592 53.3235 114.318 51.3645 114.297 50.7165C114.088 50.6054 113.888 50.4791 113.697 50.3385C113.928 50.1496 114.18 49.9876 114.447 49.8555C114.483 49.3703 114.49 48.8834 114.468 48.3975C113.889 48.4485 113.4 48.5205 113.4 48.5205Z" fill="white"/>
<path opacity="0.7" d="M109.5 49.2109C109.441 51.5001 109.541 53.7907 109.8 56.0659C109.161 54.2389 108.336 52.4929 108.411 51.8059C108.744 51.5269 109.038 51.2059 109.038 51.2059C108.826 51.0736 108.592 50.9792 108.348 50.9269C108.357 50.4161 108.396 49.9062 108.465 49.3999C109.032 49.2949 109.5 49.2109 109.5 49.2109Z" fill="white"/>
<path d="M116.4 49.9293C116.129 50.4073 116.053 50.9713 116.188 51.5039C116.322 52.0365 116.657 52.4966 117.123 52.7883H117.141C117.741 53.1573 118.311 53.5293 118.869 53.9103C119.427 54.2913 119.973 54.6873 120.468 55.0803C120.7 55.2685 120.923 55.4687 121.134 55.6803C121.218 55.7621 121.298 55.8482 121.374 55.9383C121.437 56.0103 121.467 56.0643 121.458 56.0283L121.38 55.6173C121.41 55.8772 121.356 56.1399 121.227 56.3673C121.04 56.7613 120.811 57.1336 120.543 57.4773C120.249 57.8698 119.934 58.2454 119.598 58.6023C119.265 58.9743 118.89 59.3463 118.548 59.6913L119.433 61.0563C119.952 60.8162 120.454 60.5385 120.933 60.2253C121.424 59.9097 121.891 59.5567 122.328 59.1693C122.809 58.7516 123.235 58.2737 123.594 57.7473C123.826 57.3978 124.011 57.0197 124.146 56.6223C124.273 56.2416 124.334 55.8417 124.326 55.4403V55.2753L124.254 55.0623C124.165 54.8006 124.046 54.55 123.9 54.3153C123.747 54.073 123.577 53.8424 123.39 53.6253C123.117 53.3071 122.825 53.0065 122.514 52.7253C121.949 52.206 121.355 51.7192 120.735 51.2673C120.135 50.8203 119.52 50.4033 118.902 50.0043C118.284 49.6053 117.666 49.2273 117 48.8613L116.4 49.9293Z" fill="#407BFF"/>
<path d="M119.583 59.7312C118.93 59.5086 118.219 59.5278 117.579 59.7852L118.335 62.0742L119.514 61.0512L119.583 59.7312Z" fill="#FF8B7B"/>
<path d="M118.335 62.0742L117.579 59.7852L116.418 61.0662L117.396 62.6472L118.335 62.0742Z" fill="#FF8B7B"/>
<path d="M108.381 48.3186C107.905 45.4968 108.304 42.5971 109.524 40.0086C110.952 37.0086 116.913 39.1086 116.013 44.1426C115.482 47.1096 114.213 46.6056 116.454 48.5886C117.747 49.7286 113.934 50.0256 113.619 49.2636C113.619 49.2636 112.257 49.3926 111.312 48.6276C111.3 48.6276 108.621 49.8726 108.381 48.3186Z" fill="#263238"/>
<path d="M110.7 51.3064C111.999 51.5164 112.833 49.8544 113.16 49.0324H113.013C112.641 47.9974 112.905 46.3144 113.148 45.3184L110.748 47.2054C110.895 47.9734 110.919 48.7714 110.208 49.1974C110.064 49.2214 109.908 49.2514 109.779 49.2814C109.62 50.0434 109.605 51.1324 110.7 51.3064Z" fill="#FF8B7B"/>
<path opacity="0.2" d="M112.116 46.0918L110.7 47.2078C110.748 47.4311 110.778 47.6578 110.79 47.8858C111.312 47.8318 112.113 47.3998 112.191 46.8568C112.211 46.5994 112.185 46.3404 112.116 46.0918Z" fill="black"/>
<path d="M114.423 43.5491C113.658 45.4391 113.376 46.2491 112.071 46.9211C110.106 47.9231 107.949 46.5731 108.132 44.4911C108.297 42.6161 109.518 39.8381 111.663 39.6911C112.136 39.6586 112.61 39.7477 113.039 39.9499C113.469 40.1521 113.839 40.4606 114.116 40.8462C114.392 41.2319 114.566 41.6818 114.619 42.1533C114.673 42.6247 114.605 43.1021 114.423 43.5401V43.5491Z" fill="#FF8B7B"/>
<path d="M109.92 42.9424C109.66 43.2551 109.357 43.5297 109.02 43.7584C109.08 43.844 109.157 43.9153 109.247 43.9672C109.338 44.0191 109.438 44.0502 109.542 44.0584L109.92 42.9424Z" fill="#D85B5B"/>
<path d="M111.9 42.6662C111.914 42.6708 111.929 42.6708 111.942 42.6662C111.952 42.6623 111.961 42.6564 111.969 42.6489C111.976 42.6415 111.982 42.6325 111.986 42.6227C111.99 42.6129 111.992 42.6024 111.991 42.5918C111.991 42.5812 111.989 42.5708 111.984 42.5612C111.926 42.4209 111.836 42.2964 111.72 42.1983C111.604 42.1002 111.466 42.0312 111.318 41.9972C111.297 41.9936 111.275 41.9987 111.257 42.0114C111.239 42.0241 111.227 42.0432 111.224 42.0647C111.22 42.0862 111.225 42.1082 111.238 42.1259C111.251 42.1437 111.27 42.1556 111.291 42.1592C111.413 42.1889 111.526 42.2471 111.621 42.329C111.716 42.4109 111.79 42.5141 111.837 42.6302C111.844 42.6407 111.854 42.6494 111.865 42.6557C111.875 42.6619 111.888 42.6655 111.9 42.6662Z" fill="#263238"/>
<path d="M108.951 41.4932C108.965 41.4963 108.979 41.4963 108.993 41.4932C109.108 41.4439 109.232 41.4223 109.357 41.4301C109.481 41.4379 109.602 41.475 109.71 41.5382C109.719 41.5446 109.728 41.5492 109.739 41.5518C109.749 41.5543 109.76 41.5548 109.771 41.5531C109.781 41.5514 109.791 41.5477 109.801 41.542C109.81 41.5364 109.818 41.529 109.824 41.5202C109.836 41.5022 109.84 41.4803 109.836 41.459C109.832 41.4378 109.82 41.4189 109.803 41.4062C109.673 41.3271 109.526 41.28 109.374 41.2691C109.222 41.2581 109.07 41.2835 108.93 41.3432C108.92 41.3466 108.911 41.3519 108.903 41.3589C108.895 41.3659 108.889 41.3745 108.884 41.384C108.88 41.3935 108.877 41.4039 108.877 41.4144C108.876 41.4249 108.878 41.4354 108.882 41.4452C108.887 41.4597 108.897 41.4724 108.909 41.4819C108.921 41.4915 108.936 41.4975 108.951 41.4992V41.4932Z" fill="#263238"/>
<path d="M111.117 43.0537C111.066 43.2097 110.94 43.3087 110.835 43.2757C110.73 43.2427 110.691 43.0867 110.748 42.9277C110.805 42.7687 110.925 42.6727 111.027 42.7057C111.129 42.7387 111.171 42.8947 111.117 43.0537Z" fill="#263238"/>
<path d="M109.341 42.4597C109.287 42.6157 109.161 42.7147 109.059 42.6817C108.957 42.6487 108.915 42.4927 108.969 42.3367C109.023 42.1807 109.146 42.0787 109.248 42.1147C109.35 42.1507 109.395 42.3007 109.341 42.4597Z" fill="#263238"/>
<path d="M109.29 42.1344L108.951 41.9004C108.951 41.9004 109.047 42.2604 109.29 42.1344Z" fill="#263238"/>
<path d="M111.069 42.7301L110.727 42.4961C110.727 42.4961 110.823 42.8561 111.069 42.7301Z" fill="#263238"/>
<path d="M110.715 45.1802C110.818 45.1522 110.918 45.1161 111.015 45.0722C111.029 45.0657 111.039 45.0544 111.045 45.0405C111.05 45.0267 111.051 45.0112 111.045 44.9972C111.039 44.9838 111.027 44.9733 111.014 44.9677C111 44.9622 110.984 44.962 110.97 44.9672C110.75 45.0707 110.508 45.121 110.265 45.1143C110.022 45.1075 109.784 45.0438 109.569 44.9282C109.563 44.9239 109.556 44.9208 109.548 44.9192C109.541 44.9177 109.533 44.9175 109.526 44.9189C109.518 44.9203 109.511 44.9232 109.505 44.9274C109.498 44.9315 109.493 44.9369 109.488 44.9432C109.484 44.9495 109.481 44.9566 109.479 44.9641C109.478 44.9716 109.478 44.9793 109.479 44.9868C109.48 44.9943 109.483 45.0015 109.487 45.0079C109.492 45.0144 109.497 45.0199 109.503 45.0242C109.872 45.2297 110.306 45.2856 110.715 45.1802Z" fill="#263238"/>
<path d="M110.973 40.2928C110.973 40.2928 110.316 40.8358 110.706 41.3608C111.096 41.8858 112.305 41.6608 112.536 42.6658C112.767 43.6708 112.329 44.4478 113.058 44.7658C113.787 45.0838 114.486 44.0878 114.486 44.0878C114.486 44.0878 115.635 41.7478 114.216 40.4878C112.797 39.2278 111.147 38.7868 110.16 39.3568C109.173 39.9268 108.621 40.3378 108.987 40.5838C109.353 40.8298 109.923 41.0068 110.169 40.7608C110.386 40.5304 110.665 40.3679 110.973 40.2928Z" fill="#263238"/>
<path d="M114.369 45.2256C114.14 45.5433 113.795 45.7587 113.409 45.8256C112.893 45.9096 112.692 45.4356 112.881 44.9766C113.052 44.5686 113.526 44.0256 114.024 44.1486C114.196 44.1975 114.341 44.3124 114.428 44.4681C114.515 44.6238 114.537 44.8077 114.489 44.9796C114.468 45.0695 114.427 45.1535 114.369 45.2256Z" fill="#FF8B7B"/>
<path d="M109.47 49.3142C109.65 49.2047 109.859 49.1524 110.07 49.1642C110.07 49.1642 109.488 51.0122 110.814 51.1172C112.14 51.2222 113.139 48.9542 113.139 48.9542C113.23 48.9197 113.327 48.9067 113.424 48.916C113.521 48.9254 113.614 48.9569 113.697 49.0082C113.697 49.0082 112.647 51.6362 110.82 51.5612C108.993 51.4862 109.47 49.3142 109.47 49.3142Z" fill="#407BFF"/>
<path opacity="0.7" d="M109.47 49.3142C109.65 49.2047 109.859 49.1524 110.07 49.1642C110.07 49.1642 109.488 51.0122 110.814 51.1172C112.14 51.2222 113.139 48.9542 113.139 48.9542C113.23 48.9197 113.327 48.9067 113.424 48.916C113.521 48.9254 113.614 48.9569 113.697 49.0082C113.697 49.0082 112.647 51.6362 110.82 51.5612C108.993 51.4862 109.47 49.3142 109.47 49.3142Z" fill="white"/>
<path d="M113.277 43.6265L112.002 43.1315C111.96 42.7715 111.504 42.5945 111.309 42.5165C111.114 42.4385 110.619 42.2495 110.349 42.5315L109.905 42.3605C109.905 41.9705 109.41 41.7785 109.206 41.7005C109.002 41.6225 108.342 41.3645 108.132 41.9045C108.068 42.128 108.09 42.3673 108.193 42.5756C108.296 42.7839 108.473 42.9461 108.69 43.0306C108.907 43.1151 109.147 43.1156 109.364 43.0322C109.581 42.9487 109.759 42.7873 109.863 42.5795C109.874 42.5513 109.883 42.5222 109.89 42.4925L110.271 42.6395C110.256 42.6653 110.243 42.6924 110.232 42.7205C110.168 42.944 110.19 43.1833 110.293 43.3916C110.396 43.5999 110.573 43.7621 110.79 43.8466C111.007 43.9311 111.247 43.9316 111.464 43.8482C111.681 43.7647 111.859 43.6033 111.963 43.3955C111.98 43.3541 111.992 43.3108 111.999 43.2665L113.229 43.7465C113.398 43.8112 113.54 43.9333 113.628 44.0915L113.739 44.0285C113.636 43.8454 113.473 43.7035 113.277 43.6265ZM108.741 42.9005C108.55 42.8385 108.392 42.704 108.3 42.526C108.208 42.348 108.189 42.1409 108.249 41.9495C108.363 41.6495 108.636 41.6165 109.149 41.8205C109.662 42.0245 109.848 42.2375 109.734 42.5315C109.649 42.7098 109.497 42.8479 109.312 42.9168C109.127 42.9856 108.922 42.9798 108.741 42.9005ZM110.841 43.7165C110.651 43.6552 110.492 43.5212 110.4 43.3437C110.308 43.1662 110.29 42.9595 110.349 42.7685C110.466 42.4685 110.736 42.4325 111.249 42.6365C111.762 42.8405 111.948 43.0535 111.834 43.3475C111.749 43.5263 111.598 43.665 111.413 43.7339C111.227 43.8028 111.022 43.7966 110.841 43.7165Z" fill="#263238"/>
<path d="M38.7001 45.7637C38.7001 45.7637 36.2731 45.9437 34.9501 48.7247C33.6271 51.5057 32.7241 56.7287 35.8501 56.8667C38.9761 57.0047 38.6941 56.2397 38.6941 56.2397V54.8477L36.6871 54.2477C36.5871 54.2175 36.4943 54.1674 36.4142 54.1004C36.3341 54.0334 36.2684 53.9509 36.2211 53.8578C36.1737 53.7648 36.1456 53.6631 36.1386 53.5589C36.1316 53.4548 36.1457 53.3502 36.1801 53.2517L37.2361 50.2517L38.7001 45.7637Z" fill="#407BFF"/>
<path opacity="0.2" d="M38.7001 45.7637C38.7001 45.7637 36.2731 45.9437 34.9501 48.7247C33.6271 51.5057 32.7241 56.7287 35.8501 56.8667C38.9761 57.0047 38.6941 56.2397 38.6941 56.2397V54.8477L36.6871 54.2477C36.5871 54.2175 36.4943 54.1674 36.4142 54.1004C36.3341 54.0334 36.2684 53.9509 36.2211 53.8578C36.1737 53.7648 36.1456 53.6631 36.1386 53.5589C36.1316 53.4548 36.1457 53.3502 36.1801 53.2517L37.2361 50.2517L38.7001 45.7637Z" fill="black"/>
<path d="M45.0211 38.5547C45.1231 38.5367 45.2281 38.6447 45.2611 38.7977C45.2941 38.9507 45.2371 39.0977 45.1351 39.0977C45.0331 39.0977 44.9281 39.0107 44.8951 38.8577C44.8621 38.7047 44.9191 38.5727 45.0211 38.5547Z" fill="#263238"/>
<path d="M45.3152 40.5921C45.4484 40.5965 45.5809 40.572 45.7037 40.5202C45.8264 40.4684 45.9365 40.3906 46.0262 40.2921C45.6396 39.9486 45.3015 39.5539 45.0212 39.1191L45.3152 40.5921Z" fill="#EC837E"/>
<path d="M44.223 38.1096C44.2979 38.0202 44.393 37.9498 44.5004 37.9045C44.6079 37.8591 44.7246 37.8399 44.841 37.8486C44.8507 37.8518 44.8612 37.8518 44.871 37.8486C44.8956 37.8486 44.9193 37.8388 44.9367 37.8213C44.9542 37.8039 44.964 37.7802 44.964 37.7556C44.9644 37.7433 44.9623 37.731 44.9577 37.7195C44.9532 37.708 44.9464 37.6976 44.9377 37.6889C44.9289 37.6802 44.9185 37.6733 44.907 37.6688C44.8956 37.6643 44.8833 37.6622 44.871 37.6626C44.7259 37.6453 44.5788 37.6636 44.4424 37.7158C44.306 37.7681 44.1843 37.8528 44.088 37.9626C44.0726 37.98 44.0641 38.0024 44.064 38.0256C44.0647 38.0503 44.0746 38.0739 44.0918 38.0916C44.109 38.1094 44.1323 38.1201 44.157 38.1216C44.1797 38.1247 44.2028 38.1205 44.223 38.1096Z" fill="#263238"/>
<path d="M43.5842 43.3517C43.3022 44.4647 43.2842 45.8447 44.5052 46.2227C44.5052 46.2227 46.0232 47.4947 43.1012 47.4947C40.4492 47.4947 40.0562 46.0457 40.0562 46.0457C41.0582 45.0887 40.8872 43.1117 40.6082 41.6807L43.5842 43.3517Z" fill="#FFC2BC"/>
<path d="M38.9729 45.801C38.9729 45.801 39.4529 44.529 40.1069 44.151C40.7609 43.773 43.5089 44.337 43.9349 44.526C44.3609 44.715 44.7509 45.726 44.7509 45.726L38.9729 45.801Z" fill="#407BFF"/>
<path opacity="0.2" d="M38.9729 45.801C38.9729 45.801 39.4529 44.529 40.1069 44.151C40.7609 43.773 43.5089 44.337 43.9349 44.526C44.3609 44.715 44.7509 45.726 44.7509 45.726L38.9729 45.801Z" fill="black"/>
<path d="M43.1576 104.773C43.1482 104.772 43.1396 104.767 43.1328 104.761C43.126 104.754 43.1215 104.746 43.1198 104.737C43.1182 104.727 43.1195 104.718 43.1236 104.709C43.1276 104.701 43.1343 104.694 43.1426 104.689C43.1786 104.671 43.8626 104.284 44.1866 104.371C44.2175 104.378 44.2466 104.392 44.2724 104.41C44.2981 104.429 44.3199 104.452 44.3366 104.479C44.3569 104.509 44.3679 104.544 44.3679 104.58C44.3679 104.616 44.3569 104.651 44.3366 104.68C44.2556 104.794 44.0366 104.83 43.7606 104.83C43.5583 104.828 43.3567 104.808 43.1576 104.773ZM44.0576 104.446C43.7879 104.479 43.527 104.563 43.2896 104.695C43.6526 104.746 44.1476 104.743 44.2376 104.617C44.2586 104.599 44.2676 104.572 44.2376 104.515C44.2281 104.499 44.2152 104.484 44.1996 104.474C44.184 104.463 44.1663 104.455 44.1476 104.452C44.1179 104.446 44.0873 104.446 44.0576 104.452V104.446Z" fill="#407BFF"/>
<path d="M43.1401 104.765C43.1284 104.754 43.121 104.739 43.1191 104.723C43.1323 104.445 43.2379 104.18 43.4191 103.97C43.4548 103.939 43.4964 103.916 43.5413 103.902C43.5862 103.888 43.6334 103.884 43.6801 103.889C43.8091 103.904 43.8541 103.97 43.8541 104.021C43.8901 104.249 43.4221 104.663 43.1851 104.771H43.1671C43.1578 104.771 43.1486 104.769 43.1401 104.765ZM43.6561 103.979C43.6254 103.978 43.595 103.984 43.5666 103.996C43.5382 104.008 43.5126 104.026 43.4911 104.048C43.3445 104.216 43.2534 104.426 43.2301 104.648C43.4731 104.501 43.7881 104.168 43.7671 104.048C43.7671 104.048 43.7671 103.997 43.6771 103.997H43.6501L43.6561 103.979Z" fill="#407BFF"/>
<path d="M41.2201 100.198H43.1731L42.9781 104.722H41.0251L41.2201 100.198Z" fill="#FFC2BC"/>
<path d="M43.4372 104.651C44.7572 105.464 45.1652 105.5 46.6922 105.851C47.0282 105.923 46.8062 106.733 46.0052 106.733C44.6792 106.733 44.5412 106.673 43.4102 106.673C42.4412 106.673 41.3312 106.715 40.5602 106.73C40.5373 106.734 40.514 106.734 40.4912 106.73C40.4184 106.713 40.3553 106.668 40.316 106.604C40.2766 106.541 40.2641 106.464 40.2812 106.391L40.6652 104.657C40.6739 104.619 40.6953 104.585 40.7257 104.561C40.7562 104.536 40.7941 104.523 40.8332 104.522H42.9662C43.132 104.521 43.295 104.566 43.4372 104.651Z" fill="#263238"/>
<path d="M45.8099 45.7696C43.8685 45.6253 41.9209 45.5802 39.9749 45.6346C39.4649 45.6706 38.9579 45.7216 38.4539 45.7846C38.2022 45.8167 37.9596 45.8992 37.7406 46.0273C37.5216 46.1554 37.3307 46.3264 37.1794 46.5301C37.0281 46.7338 36.9196 46.9659 36.8602 47.2126C36.8008 47.4593 36.7919 47.7154 36.8339 47.9656C37.9919 54.9076 37.4099 61.7176 37.2509 63.0856L47.6879 62.9866C48.7799 54.3946 48.4889 50.0626 48.0689 47.9596C47.9591 47.4085 47.6842 46.9038 47.2807 46.5126C46.8772 46.1214 46.3642 45.8623 45.8099 45.7696Z" fill="#407BFF"/>
<path opacity="0.1" d="M45.8099 45.7696C43.8685 45.6253 41.9209 45.5802 39.9749 45.6346C39.4649 45.6706 38.9579 45.7216 38.4539 45.7846C38.2022 45.8167 37.9596 45.8992 37.7406 46.0273C37.5216 46.1554 37.3307 46.3264 37.1794 46.5301C37.0281 46.7338 36.9196 46.9659 36.8602 47.2126C36.8008 47.4593 36.7919 47.7154 36.8339 47.9656C37.9919 54.9076 37.4099 61.7176 37.2509 63.0856L47.6879 62.9866C48.7799 54.3946 48.4889 50.0626 48.0689 47.9596C47.9591 47.4085 47.6842 46.9038 47.2807 46.5126C46.8772 46.1214 46.3642 45.8623 45.8099 45.7696Z" fill="black"/>
<path opacity="0.2" d="M41.2172 100.201L41.1182 102.532H43.0742L43.1732 100.201H41.2172Z" fill="black"/>
<path d="M39.6271 38.3777C39.7601 37.6885 40.1611 37.0803 40.7421 36.6865C41.3232 36.2928 42.0367 36.1458 42.7261 36.2777C44.7361 36.6557 45.5671 39.4157 45.5071 41.2037C45.4471 43.1867 43.2721 44.5307 41.5351 43.3607C40.3801 42.5807 40.1791 41.4617 39.6781 39.5897C39.5688 39.1949 39.5513 38.7803 39.6271 38.3777Z" fill="#FFC2BC"/>
<path d="M37.404 62.3633C37.404 62.3633 35.403 68.7743 33.855 75.2993C31.836 83.7923 26.97 101.192 26.97 101.192L30.414 101.951C30.414 101.951 37.518 81.7193 39.384 75.6203C41.091 70.0523 44.145 62.3693 44.145 62.3693L37.404 62.3633Z" fill="#263238"/>
<path opacity="0.3" d="M41.5617 69.4937C38.4897 77.8487 37.8387 80.3567 37.7937 80.5187C38.1657 75.4337 39.6957 69.7607 41.5617 69.4937C41.6997 69.4727 41.4357 69.4547 41.5617 69.4937Z" fill="black"/>
<path d="M40.9796 62.3633C40.9796 62.3633 40.7516 69.4703 40.6076 76.1033C40.4726 82.1903 40.6076 102.083 40.6076 102.083H43.9076C43.9076 102.083 46.4486 81.7883 47.1206 75.5993C47.7716 69.6533 47.8406 62.3633 47.8406 62.3633H40.9796Z" fill="#263238"/>
<path d="M40.1191 100.912L40.2301 102.136H44.2531C44.2531 102.136 44.4541 100.762 44.4391 100.762L40.1191 100.912Z" fill="#407BFF"/>
<path d="M26.8739 104.754C26.8706 104.762 26.8648 104.77 26.8573 104.775C26.8498 104.78 26.841 104.783 26.8319 104.783C26.8228 104.783 26.8139 104.78 26.8064 104.775C26.7989 104.77 26.7931 104.762 26.7899 104.754C26.7719 104.721 26.3879 104.034 26.4899 103.71C26.5054 103.649 26.5441 103.596 26.5979 103.563C26.6279 103.542 26.6634 103.531 26.6999 103.531C26.7363 103.531 26.7719 103.542 26.8019 103.563C26.9129 103.647 26.9459 103.878 26.9459 104.139C26.9392 104.346 26.9152 104.551 26.8739 104.754ZM26.5559 103.839C26.5833 104.108 26.6639 104.369 26.7929 104.607C26.8469 104.244 26.8469 103.752 26.7209 103.659C26.7209 103.638 26.6789 103.629 26.6189 103.659C26.602 103.669 26.5876 103.682 26.5767 103.698C26.5658 103.714 26.5587 103.733 26.5559 103.752C26.5499 103.781 26.5499 103.81 26.5559 103.839Z" fill="#407BFF"/>
<path d="M26.8711 104.772C26.8663 104.778 26.8599 104.783 26.8525 104.786C26.8451 104.789 26.837 104.791 26.8291 104.79C26.5527 104.775 26.2889 104.67 26.0791 104.49C26.049 104.454 26.0266 104.412 26.0132 104.367C25.9998 104.322 25.9957 104.275 26.0011 104.229C26.0011 104.103 26.0791 104.061 26.1331 104.061C26.3551 104.025 26.7721 104.496 26.8771 104.73V104.748C26.8775 104.756 26.8754 104.764 26.8711 104.772ZM26.1001 104.259C26.1035 104.318 26.1267 104.375 26.1661 104.421C26.3346 104.567 26.5441 104.658 26.7661 104.682C26.6221 104.439 26.2921 104.121 26.1661 104.142C26.1661 104.142 26.1151 104.142 26.1151 104.232V104.259H26.1001Z" fill="#407BFF"/>
<path d="M27.726 101.002L29.631 101.146L28.752 104.887L26.844 104.752L27.726 101.002Z" fill="#FFC2BC"/>
<path opacity="0.2" d="M27.7495 100.898L27.3625 102.545L29.2675 102.68L29.6575 101.03L27.7495 100.898Z" fill="black"/>
<path d="M26.3999 104.493C25.8869 105.093 25.6139 105.414 24.1229 105.885C23.7929 105.987 24.0869 106.785 24.8879 106.704C26.2079 106.587 25.4879 106.59 26.6039 106.488C27.5669 106.404 28.6769 106.35 29.4449 106.296C29.4708 106.299 29.497 106.299 29.5229 106.296C29.5921 106.269 29.649 106.218 29.6828 106.152C29.7166 106.087 29.7248 106.01 29.7059 105.939L29.1689 104.241C29.1573 104.204 29.1334 104.172 29.1012 104.151C29.0689 104.13 29.0303 104.12 28.9919 104.124L26.8679 104.313C26.6943 104.309 26.5261 104.374 26.3999 104.493Z" fill="#263238"/>
<path d="M26.5588 100.547L26.5378 101.792L30.6808 102.236C30.6808 102.236 31.0348 100.892 31.0198 100.892L26.5588 100.547Z" fill="#407BFF"/>
<path d="M40.2722 35.8758C41.2622 35.4948 41.4092 35.4048 41.9882 34.5138C42.3092 34.0158 42.2642 33.5808 43.2392 33.4218C43.7589 33.3333 44.2933 33.4289 44.7502 33.6921C45.207 33.9553 45.5577 34.3696 45.7418 34.8637C45.926 35.3578 45.9319 35.9006 45.7588 36.3986C45.5856 36.8966 45.2441 37.3186 44.7932 37.5918C44.2832 37.9068 45.0392 37.1448 44.4932 37.3758C43.9472 37.6068 44.0612 37.3428 44.0282 37.9428C44.0012 38.4018 44.2802 38.8158 44.4602 39.2418C44.6402 39.6678 44.6822 40.2408 44.3072 40.5108C44.4122 40.1598 43.5572 41.1108 43.5902 41.4828C43.6802 42.4968 42.7802 43.4268 41.7752 43.5648C39.5612 43.8648 38.1062 41.2968 37.4672 39.5298C36.6002 37.1778 37.9352 36.7728 40.2722 35.8758Z" fill="#263238"/>
<path d="M43.8902 38.7677C44.4452 38.9357 44.7272 39.7607 44.7482 40.2827C44.7662 40.8587 44.3792 41.2187 43.8812 40.8287C43.5054 40.5274 43.2387 40.1111 43.1222 39.6437C42.9932 39.0917 43.3352 38.5967 43.8902 38.7677Z" fill="#FFC2BC"/>
<path opacity="0.1" d="M45.8366 45.9276C46.4082 45.897 46.9743 46.0523 47.4502 46.3703C47.9261 46.6883 48.2862 47.1519 48.4766 47.6916C49.0316 49.1016 50.1356 52.2336 50.6996 53.8476C50.7293 53.9336 50.7835 54.0089 50.8555 54.0644C50.9275 54.1198 51.0142 54.1529 51.1049 54.1596C51.1955 54.1663 51.2862 54.1463 51.3656 54.1021C51.445 54.0578 51.5097 53.9913 51.5516 53.9106L52.3046 52.4916C52.3046 52.4916 53.4176 52.7016 53.8346 53.6736C54.2516 54.6456 51.7346 57.2976 50.4266 57.2916C48.9566 57.2916 47.0486 53.6916 46.5266 52.0506C45.894 50.0754 45.6594 47.9942 45.8366 45.9276Z" fill="white"/>
<path d="M52.3052 52.9507L53.1662 51.4897C53.1662 51.4897 52.6802 50.5897 52.9982 49.9897C53.3162 49.3897 53.6312 49.8757 53.9402 49.6897C54.2492 49.5037 54.9422 48.2347 55.2752 48.8737C55.6082 49.5127 56.0222 50.6167 54.3062 51.9217L53.3792 54.2497L52.3052 52.9507Z" fill="#FFC2BC"/>
<path d="M52.4339 52.337C52.8106 52.4175 53.1578 52.6 53.4377 52.8645C53.7176 53.1291 53.9194 53.4655 54.0209 53.837V53.867C54.0449 54.002 54.2129 55.001 54.0209 55.019C53.8289 55.037 53.5529 54.08 51.9749 53.249C51.9522 53.2371 51.9321 53.2207 51.9159 53.2008C51.8996 53.181 51.8875 53.1581 51.8802 53.1335C51.8729 53.1089 51.8706 53.0831 51.8735 53.0576C51.8764 53.0321 51.8844 53.0074 51.8969 52.985L52.2359 52.427C52.255 52.3928 52.2845 52.3656 52.3201 52.3494C52.3558 52.3332 52.3956 52.3289 52.4339 52.337Z" fill="#407BFF"/>
<path d="M52.4339 52.337C52.8106 52.4175 53.1578 52.6 53.4377 52.8645C53.7176 53.1291 53.9194 53.4655 54.0209 53.837V53.867C54.0449 54.002 54.2129 55.001 54.0209 55.019C53.8289 55.037 53.5529 54.08 51.9749 53.249C51.9522 53.2371 51.9321 53.2207 51.9159 53.2008C51.8996 53.181 51.8875 53.1581 51.8802 53.1335C51.8729 53.1089 51.8706 53.0831 51.8735 53.0576C51.8764 53.0321 51.8844 53.0074 51.8969 52.985L52.2359 52.427C52.255 52.3928 52.2845 52.3656 52.3201 52.3494C52.3558 52.3332 52.3956 52.3289 52.4339 52.337Z" fill="#407BFF"/>
<path d="M45.8366 45.9276C46.4082 45.897 46.9743 46.0523 47.4502 46.3703C47.9261 46.6883 48.2862 47.1519 48.4766 47.6916C49.0316 49.1016 50.1356 52.2336 50.6996 53.8476C50.7293 53.9336 50.7835 54.0089 50.8555 54.0644C50.9275 54.1198 51.0142 54.1529 51.1049 54.1596C51.1955 54.1663 51.2862 54.1463 51.3656 54.1021C51.445 54.0578 51.5097 53.9913 51.5516 53.9106L52.3046 52.4916C52.3046 52.4916 53.4176 52.7016 53.8346 53.6736C54.2516 54.6456 51.7346 57.2976 50.4266 57.2916C48.9566 57.2916 47.0486 53.6916 46.5266 52.0506C45.894 50.0754 45.6594 47.9942 45.8366 45.9276Z" fill="#407BFF"/>
<path opacity="0.1" d="M45.8366 45.9276C46.4082 45.897 46.9743 46.0523 47.4502 46.3703C47.9261 46.6883 48.2862 47.1519 48.4766 47.6916C49.0316 49.1016 50.1356 52.2336 50.6996 53.8476C50.7293 53.9336 50.7835 54.0089 50.8555 54.0644C50.9275 54.1198 51.0142 54.1529 51.1049 54.1596C51.1955 54.1663 51.2862 54.1463 51.3656 54.1021C51.445 54.0578 51.5097 53.9913 51.5516 53.9106L52.3046 52.4916C52.3046 52.4916 53.4176 52.7016 53.8346 53.6736C54.2516 54.6456 51.7346 57.2976 50.4266 57.2916C48.9566 57.2916 47.0486 53.6916 46.5266 52.0506C45.894 50.0754 45.6594 47.9942 45.8366 45.9276Z" fill="white"/>
</svg>
