<svg
        width="20"
        height="20"
        viewBox="0 0 20 20"
        fill="none"
        xmlns="http://www.w3.org/2000/svg"
      >
        <g clip-path="url(#clip0_5466_12770)">
          <path
            d="M19.1667 3.33301V8.33301H14.1667"
            stroke="#667085"
            stroke-width="2"
            stroke-linecap="round"
            stroke-linejoin="round"
          />
          <path
            d="M0.833344 16.667V11.667H5.83334"
            stroke="#667085"
            stroke-width="2"
            stroke-linecap="round"
            stroke-linejoin="round"
          />
          <path
            d="M2.92501 7.49998C3.34765 6.30564 4.06595 5.23782 5.0129 4.39616C5.95984 3.55451 7.10457 2.96645 8.34025 2.68686C9.57593 2.40727 10.8623 2.44527 12.0793 2.79729C13.2964 3.14932 14.4044 3.80391 15.3 4.69998L19.1667 8.33331M0.833344 11.6666L4.70001 15.3C5.59563 16.1961 6.70365 16.8506 7.92068 17.2027C9.13772 17.5547 10.4241 17.5927 11.6598 17.3131C12.8955 17.0335 14.0402 16.4455 14.9871 15.6038C15.9341 14.7621 16.6524 13.6943 17.075 12.5"
            stroke="#667085"
            stroke-width="1.5"
            stroke-linecap="round"
            stroke-linejoin="round"
          />
        </g>
        <defs>
          <clipPath id="clip0_5466_12770">
            <rect width="20" height="20" fill="white" />
          </clipPath>
        </defs>
      </svg>