<svg width="150" height="112" viewBox="0 0 150 112" fill="none" xmlns="http://www.w3.org/2000/svg">
<path d="M150 98.2207H0V98.2957H150V98.2207Z" fill="#EBEBEB"/>
<path d="M134.971 103.046H125.035V103.121H134.971V103.046Z" fill="#EBEBEB"/>
<path d="M99.3658 103.863H96.7588V103.938H99.3658V103.863Z" fill="#EBEBEB"/>
<path d="M124.735 100.263H118.978V100.338H124.735V100.263Z" fill="#EBEBEB"/>
<path d="M28.6953 100.767H15.7383V100.842H28.6953V100.767Z" fill="#EBEBEB"/>
<path d="M33.2672 100.767H31.3682V100.842H33.2672V100.767Z" fill="#EBEBEB"/>
<path d="M67.5449 102.032H39.4409V102.107H67.5449V102.032Z" fill="#EBEBEB"/>
<path d="M71.0994 84.84H13.1724C12.7186 84.8392 12.2837 84.6584 11.9631 84.3372C11.6425 84.016 11.4624 83.5808 11.4624 83.127V1.698C11.4664 1.24681 11.6482 0.815394 11.9683 0.497465C12.2885 0.179537 12.7212 0.000772916 13.1724 0H71.0994C71.5537 0 71.9894 0.180476 72.3107 0.501726C72.6319 0.822976 72.8124 1.25868 72.8124 1.713V83.127C72.8124 83.5813 72.6319 84.017 72.3107 84.3383C71.9894 84.6595 71.5537 84.84 71.0994 84.84ZM13.1724 0.0600002C12.7385 0.0607949 12.3226 0.23372 12.0161 0.540818C11.7096 0.847916 11.5374 1.26409 11.5374 1.698V83.127C11.5374 83.5609 11.7096 83.9771 12.0161 84.2842C12.3226 84.5913 12.7385 84.7642 13.1724 84.765H71.0994C71.5336 84.7642 71.9498 84.5914 72.2568 84.2844C72.5638 83.9773 72.7366 83.5612 72.7374 83.127V1.698C72.7366 1.26382 72.5638 0.847648 72.2568 0.540635C71.9498 0.233622 71.5336 0.0607933 71.0994 0.0600002H13.1724Z" fill="#EBEBEB"/>
<path d="M135.994 84.84H78.0636C77.6095 84.8392 77.1743 84.6585 76.8532 84.3374C76.5321 84.0163 76.3514 83.5811 76.3506 83.127V1.698C76.3553 1.24653 76.5378 0.815123 76.8584 0.497278C77.1791 0.179433 77.6121 0.000764487 78.0636 0H135.994C136.444 0.00156135 136.876 0.180675 137.196 0.498518C137.515 0.816362 137.697 1.24733 137.701 1.698V83.127C137.701 83.5803 137.521 84.0151 137.201 84.3362C136.881 84.6572 136.447 84.8384 135.994 84.84ZM78.0636 0.0600002C77.6294 0.0607933 77.2132 0.233622 76.9062 0.540635C76.5992 0.847648 76.4264 1.26382 76.4256 1.698V83.127C76.4264 83.5612 76.5992 83.9773 76.9062 84.2844C77.2132 84.5914 77.6294 84.7642 78.0636 84.765H135.994C136.428 84.7642 136.844 84.5914 137.151 84.2844C137.458 83.9773 137.631 83.5612 137.632 83.127V1.698C137.631 1.26382 137.458 0.847648 137.151 0.540635C136.844 0.233622 136.428 0.0607933 135.994 0.0600002H78.0636Z" fill="#EBEBEB"/>
<path d="M67.5269 17.7029L70.6259 17.2499L67.5269 16.7969L68.2919 15.5849L67.0799 16.3499L66.6269 13.2539L66.1739 16.3499L64.9619 15.5849L65.7299 16.7969L62.6309 17.2499L65.7299 17.7029L64.9619 18.9149L66.1739 18.1469L66.6269 21.2459L67.0799 18.1469L68.2919 18.9149L67.5269 17.7029Z" fill="#F5F5F5"/>
<path d="M98.6797 25.9735L101.776 25.5205L98.6797 25.0675L99.4447 23.8555L98.2327 24.6205L97.7797 21.5215L97.3267 24.6205L96.1147 23.8555L96.8827 25.0675L93.7837 25.5205L96.8827 25.9735L96.1147 27.1855L97.3267 26.4175L97.7797 29.5165L98.2327 26.4175L99.4447 27.1855L98.6797 25.9735Z" fill="#F5F5F5"/>
<path d="M55.1093 39.4149L58.2083 38.9619L55.1093 38.5059L55.8773 37.2969L54.6653 38.0619L54.2123 34.9629L53.7593 38.0619L52.5473 37.2969L53.3153 38.5059L50.2163 38.9619L53.3153 39.4149L52.5473 40.6269L53.7593 39.8589L54.2123 42.9579L54.6653 39.8589L55.8773 40.6269L55.1093 39.4149Z" fill="#F5F5F5"/>
<path d="M28.9165 39.4149L32.0125 38.9619L28.9165 38.5059L29.6815 37.2969L28.4695 38.0619L28.0165 34.9629L27.5635 38.0619L26.3515 37.2969L27.1195 38.5059L24.0205 38.9619L27.1195 39.4149L26.3515 40.6269L27.5635 39.8589L28.0165 42.9579L28.4695 39.8589L29.6815 40.6269L28.9165 39.4149Z" fill="#F5F5F5"/>
<path d="M43.7554 57.8602L46.8544 57.4072L43.7554 56.9512L44.5234 55.7422L43.3114 56.5072L42.8584 53.4082L42.4024 56.5072L41.1934 55.7422L41.9584 56.9512L38.8594 57.4072L41.9584 57.8602L41.1934 59.0722L42.4024 58.3042L42.8584 61.4032L43.3114 58.3042L44.5234 59.0722L43.7554 57.8602Z" fill="#F5F5F5"/>
<path d="M104.628 47.9285L107.727 47.4755L104.628 47.0225L105.396 45.8105L104.184 46.5785L103.731 43.4795L103.278 46.5785L102.066 45.8105L102.831 47.0225L99.7354 47.4755L102.831 47.9285L102.066 49.1405L103.278 48.3755L103.731 51.4745L104.184 48.3755L105.396 49.1405L104.628 47.9285Z" fill="#F5F5F5"/>
<path d="M126.485 75.3856L129.581 74.9296L126.485 74.4766L127.25 73.2676L126.038 74.0326L125.585 70.9336L125.132 74.0326L123.92 73.2676L124.688 74.4766L121.589 74.9296L124.688 75.3856L123.92 76.5946L125.132 75.8296L125.585 78.9286L126.038 75.8296L127.25 76.5946L126.485 75.3856Z" fill="#F5F5F5"/>
<path d="M100.632 74.4334L103.731 73.9805L100.632 73.5244L101.4 72.3154L100.188 73.0805L99.7353 69.9814L99.2793 73.0805L98.0703 72.3154L98.8353 73.5244L95.7363 73.9805L98.8353 74.4334L98.0703 75.6454L99.2793 74.8774L99.7353 77.9765L100.188 74.8774L101.4 75.6454L100.632 74.4334Z" fill="#F5F5F5"/>
<path d="M43.7554 80.8875L46.8544 80.4315L43.7554 79.9785L44.5234 78.7665L43.3114 79.5345L42.8584 76.4355L42.4024 79.5345L41.1934 78.7665L41.9584 79.9785L38.8594 80.4315L41.9584 80.8875L41.1934 82.0965L42.4024 81.3315L42.8584 84.4305L43.3114 81.3315L44.5234 82.0965L43.7554 80.8875Z" fill="#F5F5F5"/>
<path d="M77.4263 66.8045L80.5253 66.3515L77.4263 65.8985L78.1943 64.6865L76.9823 65.4515L76.5293 62.3555L76.0763 65.4515L74.8643 64.6865L75.6293 65.8985L72.5303 66.3515L75.6293 66.8045L74.8643 68.0165L76.0763 67.2485L76.5293 70.3475L76.9823 67.2485L78.1943 68.0165L77.4263 66.8045Z" fill="#F5F5F5"/>
<path d="M59.8467 100.174L62.9457 99.7206L59.8467 99.2676L60.6117 98.0556L59.3997 98.8206L58.9467 95.7246L58.4937 98.8206L57.2817 98.0556L58.0497 99.2676L54.9507 99.7206L58.0497 100.174L57.2817 101.386L58.4937 100.618L58.9467 103.717L59.3997 100.618L60.6117 101.386L59.8467 100.174Z" fill="#F5F5F5"/>
<path d="M94.3203 98.1521L97.4193 97.6991L94.3203 97.2461L95.0853 96.0341L93.8763 96.8021L93.4203 93.7031L92.9673 96.8021L91.7553 96.0341L92.5233 97.2461L89.4243 97.6991L92.5233 98.1521L91.7553 99.3641L92.9673 98.5961L93.4203 101.695L93.8763 98.5961L95.0853 99.3641L94.3203 98.1521Z" fill="#F5F5F5"/>
<path d="M94.7097 42.2139C92.8677 39.4869 92.0786 35.2089 90.3896 33.5139C91.6973 32.5101 93.0849 31.6151 94.5387 30.8379C95.5737 33.8169 96.1887 38.4399 98.8587 39.5379C97.551 40.5417 96.1634 41.4367 94.7097 42.2139Z" fill="#EBEBEB"/>
<path d="M97.8306 40.0476C97.5726 39.8766 97.6386 39.5406 97.9536 39.3306C96.1056 37.8456 95.4426 34.3896 94.6056 31.8036C94.5374 31.8346 94.4634 31.8505 94.3885 31.8503C94.3136 31.8501 94.2397 31.8337 94.1717 31.8024C94.1037 31.7711 94.0432 31.7256 93.9943 31.6688C93.9455 31.6121 93.9094 31.5455 93.8886 31.4736C93.0113 31.9597 92.1601 32.4914 91.3386 33.0666C91.4024 33.2179 91.407 33.3877 91.3514 33.5422C91.2958 33.6967 91.1841 33.8247 91.0386 33.9006C92.2896 35.6676 93.0516 38.9286 94.4196 41.3646C94.5732 41.3075 94.7413 41.3021 94.8984 41.3492C95.0554 41.3963 95.1927 41.4934 95.2896 41.6256C96.1636 41.1444 97.0118 40.6177 97.8306 40.0476ZM93.3306 37.0206C93.0576 36.2916 93.3096 35.4996 93.8676 35.2416C94.4256 34.9836 95.0676 35.4126 95.3226 36.1596C95.5776 36.9066 95.3796 37.6806 94.8246 37.9266C94.2696 38.1726 93.6006 37.7556 93.3396 37.0206H93.3306Z" fill="#E0E0E0"/>
<path d="M52.8147 33.2648C50.1777 34.6868 46.1787 34.8638 44.5107 36.2798C43.6738 34.8611 42.9438 33.382 42.3267 31.8548C45.1437 31.2548 49.4487 31.2968 50.6307 28.8398C51.4699 30.2573 52.2 31.7366 52.8147 33.2648Z" fill="#EBEBEB"/>
<path d="M51.0334 29.9143C50.8594 30.1453 50.5504 30.0343 50.3794 29.6953C48.8794 31.2943 45.6544 31.4653 43.2094 31.9243C43.2359 31.99 43.2477 32.0607 43.2438 32.1314C43.24 32.2021 43.2206 32.2711 43.1871 32.3335C43.1536 32.3959 43.1068 32.4502 43.05 32.4925C42.9932 32.5348 42.9278 32.5641 42.8584 32.5783C43.2154 33.4303 43.6384 34.3273 44.1544 35.2783C44.3854 35.1613 44.7244 35.3443 44.9044 35.6863C46.6174 34.7113 49.6744 34.4173 52.0174 33.4183C51.9713 33.2687 51.9757 33.108 52.03 32.9611C52.0842 32.8142 52.1852 32.6892 52.3174 32.6053C51.9634 31.7563 51.5464 30.8623 51.0364 29.9053L51.0334 29.9143ZM47.9374 33.9013C47.6215 33.9866 47.2855 33.9553 46.9908 33.8132C46.696 33.6711 46.4623 33.4276 46.3324 33.1273C46.1314 32.5273 46.5724 31.9843 47.2774 31.8343C47.9824 31.6843 48.6844 31.9873 48.8734 32.5633C49.0624 33.1393 48.6304 33.7273 47.9374 33.9013Z" fill="#E0E0E0"/>
<path d="M78.9871 29.2755C76.7461 27.2805 75.2101 23.5755 73.3081 22.5045C74.354 21.2316 75.4942 20.0392 76.7191 18.9375C78.2461 21.3795 79.6831 25.4385 82.3951 25.7055C81.3502 26.9792 80.211 28.1726 78.9871 29.2755Z" fill="#EBEBEB"/>
<path d="M81.5222 26.4494C81.2492 26.3654 81.2462 26.0384 81.5072 25.7624C79.5002 24.9014 78.2252 21.9284 76.9562 19.8014C76.9036 19.8492 76.8411 19.8848 76.7732 19.9056C76.7052 19.9264 76.6334 19.9318 76.5631 19.9215C76.4928 19.9111 76.4256 19.8853 76.3665 19.8459C76.3074 19.8064 76.2577 19.7543 76.2212 19.6934C75.5432 20.3234 74.8442 21.0254 74.1212 21.8414C74.3102 22.0184 74.2532 22.3994 73.9922 22.6844C75.4922 23.9624 76.8182 26.7344 78.5612 28.5914C78.6861 28.4972 78.8383 28.4462 78.9947 28.4462C79.1511 28.4462 79.3033 28.4972 79.4282 28.5914C80.1032 27.9674 80.7992 27.2684 81.5282 26.4614L81.5222 26.4494ZM76.7222 24.9014C76.5336 24.6337 76.4479 24.307 76.481 23.9812C76.5141 23.6555 76.6636 23.3526 76.9022 23.1284C77.3822 22.7414 78.0542 22.9634 78.4412 23.5754C78.8282 24.1874 78.7772 24.9494 78.3002 25.3244C77.8232 25.6994 77.1212 25.5014 76.7312 24.9014H76.7222Z" fill="#E0E0E0"/>
<path d="M86.019 60.5604C84.996 57.7434 85.404 53.7624 84.249 51.9054C85.7744 51.2873 87.3437 50.7839 88.944 50.3994C89.127 53.2734 88.455 57.5274 90.714 59.0574C89.189 59.6756 87.6195 60.178 86.019 60.5604Z" fill="#EBEBEB"/>
<path d="M89.592 59.2872C89.391 59.0802 89.547 58.7952 89.892 58.6872C88.53 56.9712 88.833 53.7522 88.737 51.2682C88.6678 51.2856 88.5956 51.2874 88.5255 51.2736C88.4555 51.2597 88.3894 51.2305 88.3321 51.188C88.2747 51.1456 88.2274 51.0909 88.1937 51.028C88.16 50.9651 88.1406 50.8955 88.137 50.8242C87.237 51.0552 86.292 51.3402 85.266 51.7092C85.347 51.9552 85.116 52.2642 84.75 52.3902C85.464 54.2292 85.308 57.2982 85.95 59.7582C86.1046 59.7365 86.2621 59.7651 86.3992 59.8396C86.5364 59.9141 86.6461 60.0307 86.712 60.1722C87.612 59.9442 88.551 59.6622 89.574 59.2962L89.592 59.2872ZM86.118 55.6452C86.0782 55.3204 86.1575 54.9922 86.3412 54.7213C86.5249 54.4505 86.8005 54.2554 87.117 54.1722C87.717 54.0582 88.209 54.5742 88.257 55.2942C88.305 56.0142 87.9 56.6622 87.303 56.7672C86.706 56.8722 86.172 56.3562 86.118 55.6452Z" fill="#E0E0E0"/>
<path d="M125.868 49.0831C123.627 47.0881 122.091 43.3831 120.189 42.3121C121.236 41.0399 122.376 39.8476 123.6 38.7451C125.13 41.1871 126.567 45.2461 129.279 45.5131C128.233 46.787 127.093 47.9803 125.868 49.0831Z" fill="#EBEBEB"/>
<path d="M128.4 46.2602C128.124 46.1732 128.124 45.8462 128.385 45.5702C126.372 44.7002 125.1 41.7362 123.837 39.6002C123.785 39.6481 123.722 39.6837 123.654 39.7044C123.586 39.7252 123.514 39.7306 123.444 39.7203C123.374 39.71 123.306 39.6841 123.247 39.6447C123.188 39.6052 123.139 39.5532 123.102 39.4922C122.424 40.1222 121.725 40.8242 121.002 41.6402C121.191 41.8172 121.134 42.1982 120.873 42.4832C122.373 43.7612 123.699 46.5332 125.442 48.3902C125.567 48.2965 125.719 48.2458 125.876 48.2458C126.032 48.2458 126.184 48.2965 126.309 48.3902C126.984 47.7662 127.68 47.0672 128.409 46.2602H128.4ZM123.6 44.7002C123.411 44.4332 123.325 44.1069 123.358 43.7814C123.391 43.456 123.541 43.1536 123.78 42.9302C124.257 42.5402 124.932 42.7622 125.316 43.3742C125.7 43.9862 125.655 44.7482 125.178 45.1232C124.701 45.4982 124.002 45.3002 123.6 44.7002Z" fill="#E0E0E0"/>
<path d="M124.092 44.5113L123.963 44.6103L123.888 44.4933L124.014 44.3943C123.935 44.2644 123.89 44.117 123.882 43.9653L124.038 43.9383C124.042 44.0644 124.076 44.1877 124.137 44.2983L124.362 44.1243C124.293 43.9383 124.224 43.7313 124.383 43.6083C124.497 43.5183 124.668 43.5513 124.827 43.7673L124.956 43.6683L125.031 43.7883L124.905 43.8843C124.967 43.9926 125.008 44.1117 125.025 44.2353L124.872 44.2623C124.857 44.1642 124.827 44.069 124.782 43.9803L124.554 44.1573C124.626 44.3433 124.701 44.5503 124.554 44.6703C124.407 44.7903 124.254 44.7273 124.092 44.5113ZM124.5 44.0163L124.704 43.8633C124.626 43.7673 124.557 43.7553 124.506 43.7943C124.455 43.8333 124.467 43.9173 124.5 44.0163ZM124.41 44.4903C124.467 44.4483 124.452 44.3643 124.41 44.2623L124.209 44.4183C124.296 44.5143 124.362 44.5293 124.41 44.4903Z" fill="#E0E0E0"/>
<path d="M72.7256 43.1668C70.7126 45.7618 68.8736 48.5398 68.0606 51.5068C66.7046 50.9458 65.3126 50.3818 63.9536 49.7248C65.0186 46.6378 66.8576 43.9288 68.6186 41.3848C69.9746 41.9458 71.3666 42.5098 72.7256 43.1668Z" fill="#EBEBEB"/>
<path d="M69.2483 41.9005C69.1473 42.0363 69.005 42.1357 68.8428 42.1838C68.6805 42.2319 68.507 42.2262 68.3483 42.1675C66.8963 44.2885 65.4443 46.5265 64.4663 49.0075C64.6141 49.0867 64.7287 49.216 64.7898 49.3721C64.8508 49.5283 64.8542 49.701 64.7993 49.8595C65.6483 50.2495 66.5063 50.6125 67.3553 50.9665C67.3765 50.8926 67.4134 50.8242 67.4633 50.7658C67.5133 50.7074 67.5752 50.6604 67.6449 50.6279C67.7145 50.5955 67.7904 50.5784 67.8672 50.5778C67.9441 50.5772 68.0201 50.5931 68.0903 50.6245C68.9153 48.2095 70.3643 45.9295 71.9723 43.7725C71.9023 43.7415 71.8406 43.6945 71.7921 43.6353C71.7436 43.5761 71.7096 43.5063 71.693 43.4316C71.6764 43.3569 71.6775 43.2793 71.6963 43.2051C71.7151 43.131 71.7511 43.0622 71.8013 43.0045C70.9493 42.6145 70.0943 42.2515 69.2453 41.8975L69.2483 41.9005ZM68.9993 46.7995C68.8394 47.0948 68.5765 47.3209 68.2606 47.4349C67.9447 47.5489 67.5979 47.5427 67.2863 47.4175C67.1412 47.3478 67.0123 47.2484 66.9083 47.1255C66.8043 47.0027 66.7274 46.8592 66.6826 46.7046C66.6379 46.5499 66.6263 46.3876 66.6486 46.2282C66.671 46.0687 66.7268 45.9158 66.8123 45.7795C66.9838 45.4844 67.2562 45.2612 67.5792 45.1509C67.9022 45.0407 68.2542 45.0508 68.5703 45.1795C68.7151 45.2471 68.8433 45.3458 68.9458 45.4684C69.0483 45.591 69.1226 45.7347 69.1635 45.8892C69.2044 46.0437 69.2109 46.2053 69.1825 46.3626C69.1542 46.5198 69.0916 46.669 68.9993 46.7995Z" fill="#E0E0E0"/>
<path d="M68.5407 46.4501L68.7027 46.5251L68.6337 46.6451L68.4717 46.5701C68.3933 46.6979 68.2812 46.8017 68.1477 46.8701L68.0367 46.7351C68.149 46.6793 68.245 46.5956 68.3157 46.4921L68.0157 46.3571C67.8837 46.5011 67.7307 46.6571 67.5297 46.5611C67.3827 46.4921 67.3137 46.3211 67.4247 46.0811L67.2627 46.0061L67.3317 45.8861L67.4937 45.9611C67.5605 45.8566 67.6509 45.7692 67.7577 45.7061L67.8687 45.8321C67.7837 45.8846 67.7094 45.9528 67.6497 46.0331L67.9497 46.1681C68.0847 46.0241 68.2497 45.8681 68.4447 45.9641C68.5917 46.0391 68.6547 46.1981 68.5407 46.4501ZM67.8507 46.2821L67.5927 46.1621C67.5477 46.2731 67.5747 46.3421 67.6377 46.3721C67.7007 46.4021 67.7757 46.3571 67.8507 46.2821ZM68.3457 46.1651C68.2737 46.1321 68.2017 46.1801 68.1267 46.2581L68.3847 46.3751C68.4297 46.2611 68.3997 46.1981 68.3457 46.1651Z" fill="#E0E0E0"/>
<path d="M123.879 58.5506C121.863 61.1456 120.027 63.9236 119.214 66.8906C117.858 66.3296 116.466 65.7656 115.107 65.1086C116.172 62.0216 118.011 59.3126 119.769 56.7686C121.128 57.3296 122.52 57.8996 123.879 58.5506Z" fill="#EBEBEB"/>
<path d="M120.402 57.2812C120.302 57.418 120.16 57.5183 119.997 57.567C119.835 57.6157 119.661 57.6102 119.502 57.5512C118.05 59.6692 116.598 61.9103 115.62 64.3913C115.769 64.469 115.884 64.5975 115.946 64.7533C116.008 64.9091 116.011 65.082 115.956 65.2402C116.805 65.6332 117.663 65.9933 118.512 66.3503C118.533 66.2761 118.569 66.2073 118.619 66.1487C118.669 66.09 118.731 66.0428 118.801 66.0103C118.871 65.9778 118.947 65.9608 119.024 65.9604C119.101 65.9601 119.177 65.9764 119.247 66.0082C120.072 63.6082 121.521 61.3132 123.129 59.1562C123.059 59.1253 122.997 59.0783 122.949 59.0191C122.9 58.9599 122.866 58.8901 122.85 58.8154C122.833 58.7407 122.834 58.6631 122.853 58.5889C122.872 58.5147 122.908 58.446 122.958 58.3883C122.109 58.0013 121.254 57.6382 120.405 57.2842L120.402 57.2812ZM120.138 62.1892C119.978 62.4846 119.715 62.7107 119.399 62.8247C119.084 62.9387 118.737 62.9324 118.425 62.8072C118.28 62.738 118.15 62.6387 118.046 62.5159C117.942 62.3931 117.865 62.2496 117.82 62.0948C117.775 61.94 117.764 61.7775 117.786 61.618C117.809 61.4584 117.865 61.3055 117.951 61.1692C118.127 60.8811 118.399 60.6652 118.72 60.5607C119.041 60.4561 119.389 60.4698 119.7 60.5992C119.841 60.6667 119.966 60.7637 120.066 60.8836C120.167 61.0035 120.24 61.1436 120.282 61.2944C120.323 61.4451 120.332 61.603 120.307 61.7574C120.282 61.9118 120.225 62.0591 120.138 62.1892Z" fill="#E0E0E0"/>
<path d="M119.7 61.8339L119.862 61.9089C119.838 61.9479 119.814 61.9869 119.793 62.0289L119.631 61.9539C119.55 62.0807 119.438 62.1841 119.304 62.2539L119.196 62.1189C119.308 62.0622 119.404 61.9787 119.475 61.8759L119.175 61.7409C119.043 61.8849 118.89 62.0409 118.689 61.9449C118.542 61.8759 118.473 61.7049 118.584 61.4649L118.422 61.3899C118.443 61.3479 118.467 61.3089 118.491 61.2699L118.653 61.3449C118.72 61.2395 118.81 61.1512 118.917 61.0869L119.025 61.2159C118.942 61.2693 118.869 61.3374 118.809 61.4169L119.109 61.5519C119.244 61.4079 119.409 61.2519 119.604 61.3479C119.745 61.4229 119.805 61.5909 119.7 61.8339ZM119.01 61.6659L118.752 61.5459C118.707 61.6569 118.734 61.7259 118.797 61.7559C118.86 61.7859 118.929 61.7409 119.004 61.6659H119.01ZM119.505 61.5489C119.433 61.5159 119.361 61.5639 119.286 61.6389L119.541 61.7589C119.583 61.6449 119.562 61.5759 119.499 61.5489H119.505Z" fill="#E0E0E0"/>
<path d="M110.946 23.5979C110.787 20.3249 107.859 18.0719 107.7 14.7989L111.9 13.2539C112.062 16.5269 114.987 18.7799 115.149 22.0499L110.946 23.5979Z" fill="#EBEBEB"/>
<path d="M114.326 22.0941C114.309 21.9231 114.346 21.7511 114.433 21.6028C114.52 21.4544 114.652 21.3376 114.809 21.2691C114.302 18.7221 112.274 16.7391 111.773 14.1921C111.704 14.2228 111.628 14.2361 111.552 14.2309C111.476 14.2258 111.402 14.2023 111.337 14.1625C111.273 14.1226 111.218 14.0677 111.179 14.0023C111.14 13.937 111.118 13.8631 111.113 13.7871L108.503 14.7501C108.521 14.9207 108.484 15.0926 108.398 15.2408C108.312 15.3891 108.18 15.5061 108.023 15.5751C108.524 18.1221 110.552 20.1081 111.059 22.6551C111.129 22.6244 111.204 22.611 111.28 22.6159C111.356 22.6209 111.429 22.6442 111.493 22.6837C111.558 22.7233 111.612 22.7779 111.651 22.8429C111.69 22.908 111.712 22.9815 111.716 23.0571L114.323 22.0941H114.326ZM110.291 18.7941C110.21 18.6597 110.16 18.5087 110.145 18.3523C110.13 18.1959 110.151 18.0382 110.205 17.8908C110.26 17.7435 110.347 17.6103 110.46 17.5013C110.573 17.3922 110.709 17.3101 110.858 17.2611C111.185 17.1541 111.538 17.1625 111.859 17.2848C112.18 17.4072 112.45 17.636 112.622 17.9331C112.705 18.0671 112.755 18.218 112.771 18.3744C112.786 18.5308 112.766 18.6887 112.712 18.8362C112.657 18.9837 112.57 19.117 112.457 19.2261C112.344 19.3352 112.208 19.4172 112.058 19.4661C111.73 19.5728 111.375 19.563 111.053 19.4384C110.731 19.3138 110.462 19.082 110.291 18.7821V18.7941Z" fill="#E0E0E0"/>
<path d="M110.905 18.6992L110.731 18.7622L110.665 18.6452L110.836 18.5792C110.767 18.457 110.742 18.3155 110.764 18.1772H110.956C110.936 18.2912 110.952 18.4084 111.001 18.5132L111.301 18.3992C111.253 18.2222 111.214 18.0272 111.427 17.9492C111.523 17.9219 111.625 17.9285 111.717 17.9678C111.809 18.0071 111.884 18.0768 111.931 18.1652L112.105 18.1022L112.174 18.2222L112 18.2852C112.052 18.3869 112.077 18.5008 112.072 18.6152H111.901C111.905 18.5237 111.889 18.4324 111.853 18.3482L111.553 18.4652C111.601 18.6422 111.646 18.8372 111.43 18.9152C111.331 18.9487 111.223 18.9452 111.127 18.9055C111.03 18.8658 110.951 18.7925 110.905 18.6992ZM111.505 18.3362L111.778 18.2342C111.703 18.1382 111.625 18.1142 111.556 18.1382C111.487 18.1622 111.478 18.2432 111.499 18.3362H111.505ZM111.298 18.7382C111.373 18.7112 111.373 18.6332 111.352 18.5372L111.079 18.6362C111.148 18.7382 111.226 18.7622 111.301 18.7382H111.298Z" fill="#E0E0E0"/>
<path d="M25.9292 62.3635C25.7672 59.0995 22.8422 56.8375 22.6802 53.5645L26.8802 52.0195C27.0422 55.2925 29.9672 57.5425 30.1292 60.8155L25.9292 62.3635Z" fill="#EBEBEB"/>
<path d="M29.3099 60.8597C29.2923 60.6891 29.3292 60.5173 29.4155 60.369C29.5017 60.2208 29.6329 60.1037 29.7899 60.0347C29.2859 57.4877 27.2579 55.5047 26.7539 52.9547C26.6845 52.9861 26.6085 53 26.5325 52.9953C26.4565 52.9907 26.3828 52.9675 26.3178 52.9279C26.2528 52.8883 26.1984 52.8334 26.1594 52.7681C26.1204 52.7027 26.0979 52.6288 26.0939 52.5527L23.4839 53.5157C23.5016 53.6864 23.4646 53.8582 23.3783 54.0064C23.2921 54.1547 23.161 54.2718 23.0039 54.3407C23.5079 56.8877 25.5359 58.8737 26.0399 61.4207C26.1093 61.3894 26.1853 61.3755 26.2613 61.3801C26.3373 61.3848 26.411 61.408 26.476 61.4476C26.541 61.4872 26.5954 61.542 26.6344 61.6074C26.6734 61.6728 26.6959 61.7467 26.6999 61.8227L29.3099 60.8597ZM25.2719 57.5597C25.1905 57.4254 25.1404 57.2744 25.1255 57.118C25.1105 56.9616 25.131 56.8038 25.1855 56.6564C25.24 56.5091 25.3271 56.3759 25.4402 56.2669C25.5534 56.1579 25.6896 56.0758 25.8389 56.0267C26.165 55.9205 26.5177 55.9293 26.8381 56.0516C27.1586 56.1739 27.4274 56.4023 27.5999 56.6987C27.682 56.8328 27.7326 56.9836 27.7481 57.14C27.7635 57.2964 27.7434 57.4543 27.6891 57.6018C27.6348 57.7493 27.5479 57.8826 27.4348 57.9917C27.3216 58.1008 27.1853 58.1829 27.0359 58.2317C26.708 58.3377 26.3537 58.3275 26.0325 58.2029C25.7112 58.0784 25.4427 57.847 25.2719 57.5477V57.5597Z" fill="#E0E0E0"/>
<path d="M25.8836 57.4654L25.7096 57.5284L25.6436 57.4084L25.8146 57.3454C25.7487 57.2224 25.7245 57.0813 25.7456 56.9434H25.9376C25.9163 57.0573 25.9321 57.1751 25.9826 57.2794L26.2826 57.1654C26.2316 56.9884 26.1926 56.7934 26.4086 56.7154C26.5046 56.6875 26.6073 56.6938 26.6992 56.7332C26.7911 56.7726 26.8665 56.8426 26.9126 56.9314L27.0866 56.8684L27.1526 56.9884L26.9816 57.0514C27.0356 57.1525 27.0596 57.2671 27.0506 57.3814H26.8616C26.8661 57.2899 26.8497 57.1986 26.8136 57.1144L26.5136 57.2314C26.5646 57.4054 26.6066 57.6034 26.3936 57.6814C26.2967 57.7102 26.1928 57.7045 26.0997 57.665C26.0067 57.6256 25.9302 57.555 25.8836 57.4654ZM26.4836 57.1024L26.7596 57.0004C26.7378 56.9619 26.704 56.9316 26.6633 56.9142C26.6227 56.8969 26.5774 56.8934 26.5346 56.9044C26.4566 56.9314 26.4566 57.0004 26.4776 57.1024H26.4836ZM26.2766 57.5044C26.3546 57.4774 26.3546 57.3994 26.3306 57.3004L26.0576 57.4024C26.1296 57.5044 26.2046 57.5284 26.2706 57.5044H26.2766Z" fill="#E0E0E0"/>
<path d="M36.6456 23.5317C35.5026 26.6877 31.5456 26.6247 30.2436 29.3007C29.0256 28.2297 27.8436 27.2007 26.6646 26.2827C27.8046 23.1267 31.7646 23.1897 33.0666 20.5137C34.2816 21.5997 35.4816 22.6047 36.6456 23.5317Z" fill="#EBEBEB"/>
<path d="M33.6486 21.3164C33.4956 21.5984 33.1176 21.5954 32.8416 21.3494C31.4196 23.2034 28.5336 23.5094 27.2256 25.6754C27.3532 25.7886 27.4411 25.9398 27.4762 26.1067C27.5113 26.2736 27.4918 26.4474 27.4206 26.6024C28.1546 27.2024 28.9006 27.8364 29.6586 28.5044C29.8116 28.2254 30.1896 28.2254 30.4626 28.4714C31.8846 26.6174 34.7706 26.3114 36.0816 24.1454C35.9538 24.033 35.8657 23.8823 35.8306 23.7158C35.7954 23.5493 35.8151 23.3758 35.8866 23.2214C35.1486 22.6214 34.4016 21.9874 33.6456 21.3194L33.6486 21.3164ZM32.5836 25.8164C32.0076 26.1164 31.0836 25.9484 30.5286 25.4354C29.9736 24.9224 29.9286 24.2354 30.5286 23.9354C31.1286 23.6354 32.0286 23.8034 32.5866 24.3194C33.1446 24.8354 33.1566 25.5194 32.5836 25.8224V25.8164Z" fill="#E0E0E0"/>
<path d="M32.2091 25.3221C32.2631 25.3701 32.3141 25.4151 32.3621 25.4631L32.2511 25.5231L32.0981 25.3851C31.9576 25.4468 31.8038 25.4716 31.6511 25.4571L31.5731 25.2981C31.7014 25.3129 31.8313 25.2954 31.9511 25.2471L31.6781 24.9981C31.5796 25.0386 31.4721 25.0522 31.3667 25.0374C31.2613 25.0226 31.1616 24.9801 31.0781 24.9141C31.0413 24.8903 31.0117 24.8571 30.9923 24.8179C30.9728 24.7787 30.9644 24.7349 30.9677 24.6913C30.9711 24.6477 30.9862 24.6057 31.0115 24.57C31.0367 24.5342 31.0711 24.5059 31.1111 24.4881L30.9551 24.3471L31.0661 24.2871L31.2191 24.4251C31.3333 24.375 31.4574 24.3514 31.5821 24.3561L31.6631 24.5121C31.561 24.5103 31.4595 24.5266 31.3631 24.5601L31.6421 24.8151C31.7398 24.7719 31.8476 24.7566 31.9535 24.7709C32.0594 24.7852 32.1593 24.8286 32.2421 24.8961C32.278 24.9205 32.3068 24.9539 32.3256 24.993C32.3444 25.0321 32.3526 25.0754 32.3492 25.1187C32.3459 25.1619 32.3312 25.2035 32.3065 25.2393C32.2819 25.275 32.2483 25.3036 32.2091 25.3221ZM31.5011 24.8481L31.2551 24.6231C31.2389 24.6331 31.2256 24.647 31.2164 24.6635C31.2072 24.68 31.2023 24.6987 31.2023 24.7176C31.2023 24.7366 31.2072 24.7552 31.2164 24.7717C31.2256 24.7883 31.2389 24.8022 31.2551 24.8121C31.2911 24.8353 31.3317 24.8506 31.3742 24.8568C31.4166 24.863 31.4599 24.86 31.5011 24.8481ZM32.0711 25.0011C32.0328 24.9752 31.9891 24.9584 31.9433 24.9522C31.8975 24.9459 31.8509 24.9504 31.8071 24.9651L32.0501 25.1871C32.1461 25.1211 32.1431 25.0551 32.0831 25.0011H32.0711Z" fill="#E0E0E0"/>
<path d="M39.7203 68.1655C38.5803 71.3215 34.6203 71.2585 33.3183 73.9345C32.1183 72.8635 30.9183 71.8345 29.7393 70.9165C30.8823 67.7605 34.8393 67.8235 36.1413 65.1475C37.3593 66.2185 38.5563 67.2385 39.7203 68.1655Z" fill="#EBEBEB"/>
<path d="M36.7233 65.9502C36.5703 66.2292 36.1953 66.2292 35.9193 65.9832C34.4973 67.8372 31.6113 68.1432 30.3003 70.3092C30.4289 70.4217 30.5176 70.5727 30.5533 70.7398C30.589 70.9069 30.5697 71.081 30.4983 71.2362C31.2333 71.8362 31.9803 72.4782 32.7363 73.1382C32.8863 72.8592 33.2643 72.8592 33.5403 73.1052C34.9593 71.2512 37.8483 70.9422 39.1563 68.7792C39.0285 68.6668 38.9404 68.5161 38.9053 68.3496C38.8701 68.1831 38.8898 68.0096 38.9613 67.8552C38.2273 67.2552 37.4813 66.6212 36.7233 65.9532V65.9502ZM35.6583 70.4502C35.0853 70.7502 34.1583 70.5822 33.6063 70.0692C33.0543 69.5562 33.0063 68.8692 33.6063 68.5692C34.2063 68.2692 35.1063 68.4372 35.6613 68.9532C36.2163 69.4692 36.2313 70.1532 35.6583 70.4562V70.4502Z" fill="#E0E0E0"/>
<path d="M35.2853 69.9559L35.4382 70.0969C35.3992 70.1149 35.3632 70.1359 35.3272 70.1569L35.1742 70.0159C35.0332 70.0791 34.8782 70.105 34.7242 70.0909C34.7002 70.0369 34.6732 69.9859 34.6492 69.9319C34.7775 69.9464 34.9074 69.9289 35.0272 69.8809L34.7512 69.6319C34.6525 69.672 34.5449 69.685 34.4395 69.6698C34.334 69.6545 34.2345 69.6114 34.1512 69.5449C34.1153 69.5209 34.0863 69.4878 34.0674 69.4489C34.0485 69.41 34.0403 69.3668 34.0436 69.3237C34.047 69.2806 34.0618 69.2392 34.0865 69.2037C34.1112 69.1682 34.145 69.14 34.1842 69.1219L34.0312 68.9809L34.1422 68.9209L34.2952 69.0589C34.4086 69.0092 34.5315 68.9846 34.6552 68.9869C34.6822 69.0409 34.7123 69.0919 34.7393 69.1429C34.637 69.1418 34.5354 69.159 34.4393 69.1939L34.7152 69.4459C34.8137 69.4054 34.9212 69.3918 35.0266 69.4066C35.1321 69.4214 35.2317 69.4639 35.3152 69.5299C35.3513 69.554 35.3803 69.5872 35.3993 69.6261C35.4184 69.6651 35.4268 69.7084 35.4238 69.7516C35.4207 69.7948 35.4063 69.8365 35.382 69.8724C35.3577 69.9083 35.3243 69.9371 35.2853 69.9559ZM34.5862 69.4789L34.3433 69.2569C34.2593 69.3229 34.2683 69.3889 34.3433 69.4459C34.3791 69.4682 34.4193 69.4827 34.4612 69.4884C34.5031 69.494 34.5457 69.4908 34.5862 69.4789ZM35.1562 69.6349C35.1186 69.6076 35.0748 69.59 35.0288 69.5837C34.9827 69.5775 34.9358 69.5827 34.8922 69.5989L35.1352 69.8209C35.2192 69.7549 35.2162 69.6889 35.1562 69.6349Z" fill="#E0E0E0"/>
<path d="M93.8587 36.9611L93.7087 37.0241C93.6937 36.9761 93.6757 36.9281 93.6577 36.8771L93.8047 36.8141C93.7521 36.6588 93.7367 36.4934 93.7597 36.3311L93.9217 36.3521C93.9016 36.4855 93.9108 36.6216 93.9487 36.7511L94.2097 36.6371C94.1767 36.4241 94.1497 36.1901 94.3357 36.1121C94.4707 36.0521 94.6357 36.1361 94.7497 36.4121L94.8967 36.3461L94.9507 36.4931L94.8037 36.5561C94.8452 36.6848 94.8615 36.8202 94.8517 36.9551L94.6927 36.9371C94.6989 36.83 94.6878 36.7226 94.6597 36.6191L94.3957 36.7331C94.4287 36.9461 94.4617 37.1831 94.2787 37.2611C94.1437 37.3151 93.9787 37.2311 93.8587 36.9611ZM94.3717 36.5711L94.6057 36.4691C94.5457 36.3491 94.4797 36.3131 94.4227 36.3401C94.3657 36.3671 94.3567 36.4571 94.3717 36.5711ZM94.1827 37.0331C94.2487 37.0061 94.2517 36.9131 94.2337 36.7961L94.0027 36.8981C94.0627 37.0211 94.1287 37.0571 94.1827 37.0331Z" fill="#E0E0E0"/>
<path d="M47.9134 33.3694C47.9314 33.4174 47.9464 33.4714 47.9644 33.5224L47.8264 33.5524C47.8084 33.5014 47.7934 33.4504 47.7784 33.3994C47.6288 33.4296 47.4739 33.4214 47.3284 33.3754C47.3284 33.3244 47.3494 33.2734 47.3584 33.2194C47.478 33.26 47.6056 33.2713 47.7304 33.2524C47.7004 33.1624 47.6704 33.0694 47.6434 32.9794C47.4424 32.9794 47.2264 32.9794 47.1634 32.7844C47.1214 32.6434 47.2084 32.4844 47.4634 32.4214C47.4484 32.3704 47.4304 32.3194 47.4154 32.2654L47.5534 32.2354C47.5534 32.2864 47.5864 32.3374 47.6014 32.3884C47.7232 32.3642 47.8486 32.3642 47.9704 32.3884C47.9704 32.4394 47.9704 32.4904 47.9464 32.5414C47.8471 32.5246 47.7457 32.5246 47.6464 32.5414C47.6734 32.6344 47.7034 32.7244 47.7334 32.8174C47.9314 32.8174 48.1534 32.8174 48.2104 33.0034C48.2614 33.1384 48.1714 33.3004 47.9134 33.3694ZM47.5894 32.8144C47.5654 32.7334 47.5384 32.6494 47.5144 32.5714C47.3974 32.6104 47.3614 32.6704 47.3824 32.7304C47.4034 32.7904 47.4844 32.8114 47.5894 32.8144ZM48.0064 33.0604C47.9854 32.9914 47.8984 32.9794 47.7904 32.9764C47.8174 33.0574 47.8414 33.1384 47.8684 33.2194C48.0004 33.1774 48.0244 33.1174 48.0004 33.0604H48.0064Z" fill="#E0E0E0"/>
<path d="M77.211 24.7008L77.082 24.7998L77.007 24.6828L77.133 24.5838C77.0543 24.4539 77.0089 24.3065 77.001 24.1548L77.157 24.1278C77.1613 24.2539 77.1952 24.3772 77.256 24.4878L77.484 24.3138C77.412 24.1278 77.343 23.9208 77.502 23.7978C77.661 23.6748 77.802 23.7408 77.946 23.9568L78.075 23.8578L78.15 23.9778L78.024 24.0738C78.086 24.1821 78.1267 24.3012 78.144 24.4248L77.991 24.4518C77.976 24.3536 77.9457 24.2585 77.901 24.1698L77.673 24.3468C77.745 24.5328 77.82 24.7398 77.673 24.8598C77.526 24.9798 77.373 24.9168 77.211 24.7008ZM77.619 24.2058L77.823 24.0528C77.745 23.9568 77.676 23.9448 77.625 23.9808C77.574 24.0168 77.586 24.1068 77.619 24.2058ZM77.532 24.6798C77.586 24.6378 77.571 24.5538 77.532 24.4518L77.331 24.6048C77.415 24.7038 77.481 24.7188 77.532 24.6798Z" fill="#E0E0E0"/>
<path d="M86.6317 55.6974L86.4727 55.7244C86.4727 55.6764 86.4727 55.6284 86.4727 55.5834L86.6317 55.5564C86.625 55.4042 86.6559 55.2527 86.7217 55.1154L86.8717 55.1694C86.8144 55.2807 86.7846 55.4041 86.7847 55.5294L87.0697 55.4844C87.0937 55.2864 87.1327 55.0734 87.3307 55.0404C87.4747 55.0164 87.6067 55.1244 87.6457 55.3914L87.8047 55.3674V55.5084L87.6487 55.5324C87.653 55.6571 87.6326 55.7815 87.5887 55.8984L87.4387 55.8504C87.475 55.7545 87.4943 55.6529 87.4957 55.5504L87.2107 55.5984C87.1837 55.7964 87.1537 56.0124 86.9557 56.0454C86.8087 56.0724 86.6737 55.9644 86.6317 55.6974ZM87.2317 55.4574L87.4837 55.4154C87.4597 55.2954 87.4057 55.2534 87.3427 55.2624C87.2797 55.2714 87.2467 55.3524 87.2287 55.4574H87.2317ZM86.9317 55.8324C87.0007 55.8324 87.0277 55.7394 87.0457 55.6314L86.7937 55.6704C86.8117 55.7994 86.8627 55.8414 86.9227 55.8324H86.9317Z" fill="#E0E0E0"/>
<path d="M74.9995 111.769C107.124 111.769 133.167 110.248 133.167 108.373C133.167 106.497 107.124 104.977 74.9995 104.977C42.8748 104.977 16.8325 106.497 16.8325 108.373C16.8325 110.248 42.8748 111.769 74.9995 111.769Z" fill="#F5F5F5"/>
<path d="M51.5759 20.823C48.7049 19.215 46.0769 15.747 43.8149 15C44.53 13.5157 45.3679 12.0937 46.3199 10.749C48.5819 12.942 51.2099 16.797 54.0809 16.569C53.364 18.0533 52.5262 19.4761 51.5759 20.823Z" fill="#32D583"/>
<path opacity="0.5" d="M51.5759 20.823C48.7049 19.215 46.0769 15.747 43.8149 15C44.53 13.5157 45.3679 12.0937 46.3199 10.749C48.5819 12.942 51.2099 16.797 54.0809 16.569C53.364 18.0533 52.5262 19.4761 51.5759 20.823Z" fill="white"/>
<path opacity="0.2" d="M53.3994 17.4883C53.0994 17.4523 53.0004 17.1223 53.1864 16.7923C50.8704 16.2943 48.7224 13.4923 46.8144 11.5693C46.7677 11.628 46.7087 11.6759 46.6417 11.7097C46.5747 11.7434 46.5011 11.7622 46.4261 11.7648C46.3511 11.7673 46.2765 11.7536 46.2073 11.7245C46.1381 11.6954 46.076 11.6517 46.0254 11.5963C45.4607 12.426 44.939 13.2841 44.4624 14.1673C44.5874 14.2736 44.6678 14.423 44.6878 14.5858C44.7078 14.7486 44.6659 14.913 44.5704 15.0463C46.4814 16.0663 48.6264 18.6463 50.9454 20.1973C51.0569 20.0754 51.2056 19.9937 51.3684 19.9649C51.5311 19.9362 51.6988 19.962 51.8454 20.0383C52.4085 19.2144 52.9292 18.3623 53.4054 17.4853L53.3994 17.4883ZM48.0174 16.8013C47.4474 16.2703 47.3154 15.4513 47.6994 14.9713C48.0834 14.4913 48.8424 14.5873 49.4124 15.1363C49.9824 15.6853 50.1444 16.4683 49.7604 16.9363C49.3764 17.4043 48.5994 17.3383 48.0174 16.8013Z" fill="black"/>
<g opacity="0.2">
<path d="M48.454 16.5017L48.352 16.6247L48.238 16.5197C48.274 16.4777 48.307 16.4357 48.343 16.3967C48.2256 16.2809 48.1372 16.1391 48.085 15.9827L48.241 15.9287C48.2809 16.0584 48.3496 16.1773 48.442 16.2767L48.625 16.0547C48.499 15.8807 48.37 15.6827 48.499 15.5297C48.628 15.3767 48.778 15.4187 49.003 15.6077C49.039 15.5687 49.072 15.5267 49.108 15.4847L49.219 15.5927L49.117 15.7157C49.2114 15.8105 49.2867 15.9225 49.339 16.0457L49.189 16.1057C49.147 16.0061 49.0893 15.9139 49.018 15.8327L48.832 16.0547C48.958 16.2287 49.093 16.4267 48.964 16.5797C48.835 16.7327 48.685 16.6997 48.454 16.5017ZM48.754 15.9227L48.916 15.7277C48.811 15.6467 48.736 15.6467 48.697 15.6947C48.658 15.7427 48.676 15.8387 48.739 15.9347L48.754 15.9227ZM48.796 16.4207C48.841 16.3667 48.796 16.2857 48.733 16.1867L48.571 16.3817C48.667 16.4777 48.739 16.4807 48.781 16.4327L48.796 16.4207Z" fill="black"/>
</g>
<path d="M76.1993 33.52C73.5593 34.942 69.5633 35.122 67.8953 36.535C67.0583 35.1142 66.3302 33.6319 65.7173 32.101C68.5343 31.501 72.8393 31.54 74.0213 29.083C74.8578 30.5051 75.5859 31.9883 76.1993 33.52Z" fill="#32D583"/>
<path opacity="0.5" d="M76.1993 33.52C73.5593 34.942 69.5633 35.122 67.8953 36.535C67.0583 35.1142 66.3302 33.6319 65.7173 32.101C68.5343 31.501 72.8393 31.54 74.0213 29.083C74.8578 30.5051 75.5859 31.9883 76.1993 33.52Z" fill="white"/>
<path opacity="0.2" d="M74.4211 30.1721C74.2471 30.4001 73.9411 30.2891 73.7701 29.9531C72.2701 31.5491 69.0421 31.7231 66.6001 32.1791C66.6266 32.2452 66.6382 32.3163 66.6342 32.3874C66.6302 32.4585 66.6106 32.5278 66.5768 32.5905C66.543 32.6531 66.4959 32.7076 66.4388 32.7501C66.3816 32.7925 66.3158 32.8219 66.2461 32.8361C66.6061 33.6881 67.0261 34.5821 67.5421 35.5361C67.7761 35.4191 68.1151 35.6021 68.2921 35.9471C70.0081 34.9721 73.0651 34.6781 75.4051 33.6791C75.3608 33.5289 75.3661 33.3685 75.4201 33.2215C75.4742 33.0745 75.5741 32.9489 75.7051 32.8631C75.3481 32.0141 74.9311 31.1231 74.4211 30.1631V30.1721ZM71.3251 34.1411C71.0096 34.2282 70.6732 34.1977 70.3786 34.0554C70.0839 33.913 69.8509 33.6684 69.7231 33.3671C69.5221 32.7851 69.9601 32.2271 70.6681 32.0741C71.3761 31.9211 72.0721 32.2301 72.2611 32.8061C72.4501 33.3821 72.0211 33.9821 71.3251 34.1411Z" fill="black"/>
<g opacity="0.2">
<path d="M71.3038 33.6242C71.3218 33.6752 71.3368 33.7262 71.3518 33.7772L71.2138 33.8102C71.2138 33.7592 71.1808 33.7082 71.1658 33.6572C71.0161 33.6856 70.8617 33.6773 70.7158 33.6332C70.7158 33.5792 70.7368 33.5282 70.7488 33.4772C70.8673 33.5181 70.9942 33.5284 71.1178 33.5072C71.0908 33.4172 71.0608 33.3272 71.0308 33.2342C70.8328 33.2342 70.6138 33.2342 70.5538 33.0392C70.5088 32.9012 70.5958 32.7542 70.8538 32.6762C70.8358 32.6252 70.8208 32.5742 70.8028 32.5232L70.9438 32.4932C70.9438 32.5442 70.9738 32.5952 70.9918 32.6462C71.1135 32.6207 71.2391 32.6207 71.3608 32.6462L71.3338 32.7992C71.2345 32.7824 71.1331 32.7824 71.0338 32.7992C71.0638 32.8892 71.0938 32.9822 71.1208 33.0752C71.3218 33.0752 71.5408 33.0752 71.6008 33.2612C71.6518 33.3932 71.5618 33.5432 71.3038 33.6242ZM70.9798 33.0692C70.9528 32.9882 70.9288 32.9072 70.9018 32.8262C70.7878 32.8682 70.7518 32.9282 70.7698 32.9882C70.7878 33.0482 70.8748 33.0662 70.9798 33.0692ZM71.3938 33.3152C71.3728 33.2492 71.2888 33.2342 71.1808 33.2342C71.2048 33.3152 71.2318 33.3962 71.2558 33.4742C71.3758 33.4322 71.3998 33.3752 71.3998 33.3152H71.3938Z" fill="black"/>
</g>
<path d="M97.7783 14.6164C94.6643 15.6664 91.6013 16.9654 89.2823 18.9904C88.4603 17.7724 87.6143 16.5334 86.8433 15.2344C89.4383 13.2514 92.4653 12.0004 95.3393 10.8604C96.1613 12.0784 97.0073 13.3174 97.7783 14.6164Z" fill="#32D583"/>
<path opacity="0.5" d="M97.7783 14.6164C94.6643 15.6664 91.6013 16.9654 89.2823 18.9904C88.4603 17.7724 87.6143 16.5334 86.8433 15.2344C89.4383 13.2514 92.4653 12.0004 95.3393 10.8604C96.1613 12.0784 97.0073 13.3174 97.7783 14.6164Z" fill="white"/>
<path opacity="0.2" d="M95.5805 11.6373C95.4213 11.6959 95.2472 11.7009 95.0848 11.6517C94.9223 11.6024 94.7804 11.5015 94.6805 11.3643C92.2985 12.3273 89.8505 13.3923 87.6665 14.9193C87.748 15.0671 87.7737 15.2392 87.739 15.4043C87.7043 15.5695 87.6115 15.7167 87.4775 15.8193C87.9695 16.6143 88.4825 17.3883 88.9955 18.1533C89.054 18.1031 89.1225 18.0662 89.1965 18.0451C89.2705 18.0239 89.3482 18.019 89.4243 18.0307C89.5004 18.0424 89.573 18.0704 89.6373 18.1128C89.7015 18.1552 89.7559 18.2109 89.7965 18.2763C91.8185 16.7163 94.2965 15.6183 96.8165 14.7093C96.7753 14.6445 96.7498 14.571 96.7423 14.4946C96.7347 14.4183 96.7452 14.3412 96.773 14.2696C96.8007 14.198 96.8449 14.134 96.902 14.0827C96.9591 14.0314 97.0274 13.9942 97.1015 13.9743C96.6095 13.1823 96.0935 12.4083 95.5835 11.6433L95.5805 11.6373ZM92.6525 15.5823C92.3559 15.7402 92.0116 15.7835 91.6852 15.7038C91.3587 15.6241 91.073 15.4271 90.8825 15.1503C90.7997 15.0122 90.7471 14.8582 90.7281 14.6983C90.7092 14.5384 90.7243 14.3764 90.7724 14.2227C90.8206 14.0691 90.9008 13.9275 91.0077 13.8071C91.1146 13.6867 91.2457 13.5903 91.3925 13.5243C91.7001 13.3727 92.0523 13.3381 92.3835 13.4269C92.7146 13.5158 93.0022 13.7221 93.1925 14.0073C93.273 14.1435 93.323 14.2956 93.339 14.453C93.3551 14.6105 93.3368 14.7695 93.2855 14.9192C93.2342 15.0689 93.151 15.2057 93.0417 15.3201C92.9325 15.4346 92.7997 15.524 92.6525 15.5823Z" fill="black"/>
<g opacity="0.2">
<path d="M92.478 15.044L92.571 15.197L92.445 15.257L92.352 15.107C92.2144 15.1711 92.0621 15.197 91.911 15.182C91.911 15.125 91.911 15.065 91.896 15.008C92.0201 15.024 92.1462 15.0074 92.262 14.96C92.208 14.867 92.151 14.777 92.094 14.687C91.902 14.735 91.692 14.777 91.578 14.588C91.491 14.45 91.53 14.27 91.755 14.132L91.659 13.976L91.785 13.916L91.878 14.066C91.9915 14.0172 92.1146 13.9947 92.238 14C92.238 14.054 92.253 14.111 92.262 14.168C92.1601 14.1642 92.0583 14.1795 91.962 14.213L92.13 14.489C92.322 14.444 92.538 14.402 92.655 14.591C92.745 14.729 92.7 14.903 92.478 15.044ZM91.995 14.522L91.845 14.279C91.746 14.348 91.731 14.42 91.767 14.48C91.803 14.54 91.89 14.543 91.995 14.522ZM92.472 14.696C92.43 14.63 92.343 14.633 92.238 14.654L92.385 14.894C92.487 14.825 92.508 14.756 92.472 14.702V14.696Z" fill="black"/>
</g>
<path d="M42.9544 46.6005C40.6864 44.2365 36.9994 44.4585 34.7314 42.1005C35.4454 40.7965 36.1604 39.4915 36.8764 38.1855C39.1444 40.5495 42.8314 40.3305 45.0994 42.6855C44.3854 43.9915 43.6704 45.2965 42.9544 46.6005Z" fill="#32D583"/>
<path opacity="0.5" d="M42.9544 46.6005C40.6864 44.2365 36.9994 44.4585 34.7314 42.1005C35.4454 40.7965 36.1604 39.4915 36.8764 38.1855C39.1444 40.5495 42.8314 40.3305 45.0994 42.6855C44.3854 43.9915 43.6704 45.2965 42.9544 46.6005Z" fill="white"/>
<path opacity="0.2" d="M44.5201 43.2489C44.394 43.132 44.3085 42.9779 44.2761 42.8089C44.2437 42.64 44.2662 42.4652 44.3401 42.3099C42.2881 40.7199 39.4561 40.5549 37.4041 38.9619C37.372 39.0309 37.3235 39.0909 37.2629 39.1369C37.2023 39.1829 37.1314 39.2134 37.0563 39.2258C36.9813 39.2382 36.9043 39.2322 36.8322 39.2081C36.76 39.1841 36.6948 39.1428 36.6421 39.0879L35.3071 41.5299C35.4321 41.647 35.5166 41.8007 35.5485 41.969C35.5803 42.1373 35.5578 42.3113 35.4841 42.4659C37.5361 44.0589 40.3681 44.2239 42.4201 45.8169C42.452 45.7478 42.5002 45.6874 42.5607 45.6411C42.6212 45.5948 42.692 45.564 42.7671 45.5513C42.8422 45.5386 42.9192 45.5444 42.9915 45.5682C43.0639 45.592 43.1293 45.6331 43.1821 45.6879L44.5171 43.2489H44.5201ZM39.3001 43.3989C39.1506 43.3506 39.0139 43.2693 38.9001 43.161C38.7863 43.0527 38.6983 42.9201 38.6427 42.7732C38.5871 42.6262 38.5652 42.4686 38.5788 42.3121C38.5924 42.1556 38.641 42.0041 38.7211 41.8689C38.898 41.5729 39.1714 41.3468 39.4955 41.2288C39.8195 41.1107 40.1743 41.108 40.5001 41.2209C40.6497 41.2681 40.7867 41.3485 40.9009 41.4561C41.0151 41.5637 41.1034 41.6957 41.1594 41.8423C41.2154 41.9888 41.2375 42.1461 41.2241 42.3024C41.2107 42.4587 41.1622 42.61 41.0821 42.7449C40.9061 43.0427 40.6325 43.2705 40.3077 43.3896C39.983 43.5088 39.627 43.5121 39.3001 43.3989Z" fill="black"/>
<g opacity="0.2">
<path d="M39.7048 42.9347C39.6778 42.9887 39.6478 43.0427 39.6178 43.0967L39.4888 43.0487L39.5758 42.8897C39.4447 42.8403 39.3331 42.7498 39.2578 42.6317L39.4078 42.5117C39.4684 42.6098 39.5573 42.6872 39.6628 42.7337C39.7138 42.6377 39.7678 42.5417 39.8218 42.4337C39.6688 42.3317 39.5218 42.2117 39.6208 42.0107C39.675 41.9267 39.7568 41.8642 39.8521 41.8341C39.9474 41.804 40.0502 41.8081 40.1428 41.8457L40.2328 41.6807L40.3618 41.7287L40.2718 41.8877C40.3791 41.9291 40.4727 41.9998 40.5418 42.0917L40.3978 42.2117C40.3408 42.1411 40.2691 42.0838 40.1878 42.0437L40.0288 42.3437C40.1818 42.4457 40.3288 42.5657 40.2328 42.7667C40.1777 42.8512 40.095 42.9142 39.9988 42.9448C39.9025 42.9754 39.7987 42.9718 39.7048 42.9347ZM39.9148 42.2717L40.0558 42.0137C39.9358 41.9897 39.8608 42.0137 39.8278 42.0887C39.7948 42.1637 39.8398 42.2117 39.9148 42.2717ZM40.0258 42.7097C40.0648 42.6377 40.0258 42.5807 39.9328 42.5207L39.7918 42.7757C39.9148 42.8027 39.9898 42.7697 40.0258 42.7097Z" fill="black"/>
</g>
<path d="M117.158 34.5715C115.016 37.1575 111.326 35.7715 109.184 37.8385C108.401 36.4195 107.618 35.0545 106.835 33.7885C108.977 31.2025 112.667 32.5885 114.809 30.5215C115.592 31.9405 116.375 33.2995 117.158 34.5715Z" fill="#32D583"/>
<path opacity="0.5" d="M117.158 34.5715C115.016 37.1575 111.326 35.7715 109.184 37.8385C108.401 36.4195 107.618 35.0545 106.835 33.7885C108.977 31.2025 112.667 32.5885 114.809 30.5215C115.592 31.9405 116.375 33.2995 117.158 34.5715Z" fill="white"/>
<path opacity="0.2" d="M115.086 31.4735C114.849 31.6865 114.486 31.5575 114.318 31.2305C112.353 32.4965 109.533 31.8095 107.571 33.4055C107.653 33.5552 107.684 33.7272 107.661 33.8962C107.638 34.0652 107.561 34.2223 107.442 34.3445C107.928 35.1635 108.417 36.0155 108.906 36.8915C109.143 36.6785 109.506 36.8075 109.674 37.1315C111.636 35.8655 114.456 36.5525 116.421 34.9595C116.339 34.8104 116.307 34.6387 116.33 34.47C116.353 34.3013 116.43 34.1447 116.55 34.0235C116.061 33.2075 115.572 32.3525 115.086 31.4765V31.4735ZM112.563 35.3555C111.921 35.4425 111.12 34.9775 110.763 34.3025C110.406 33.6275 110.619 32.9705 111.258 32.8805C111.897 32.7905 112.704 33.2615 113.058 33.9365C113.412 34.6115 113.205 35.2655 112.563 35.3555Z" fill="black"/>
<g opacity="0.2">
<path d="M112.38 34.7574L112.476 34.9404L112.353 34.9584L112.254 34.7754C112.101 34.7882 111.947 34.7603 111.807 34.6944L111.789 34.5174C111.905 34.575 112.033 34.6028 112.161 34.5984L111.99 34.2714C111.885 34.2748 111.781 34.2505 111.689 34.201C111.596 34.1515 111.518 34.0785 111.462 33.9894C111.437 33.9547 111.421 33.9138 111.416 33.8708C111.411 33.8278 111.418 33.7843 111.436 33.7449C111.454 33.7054 111.482 33.6714 111.517 33.6464C111.552 33.6214 111.593 33.6062 111.636 33.6024L111.537 33.4164L111.663 33.3984L111.759 33.5814C111.884 33.5726 112.009 33.591 112.125 33.6354C112.125 33.6954 112.14 33.7524 112.149 33.8094C112.054 33.7735 111.952 33.7562 111.849 33.7584L112.026 34.0884C112.131 34.0848 112.235 34.1086 112.328 34.1576C112.42 34.2065 112.498 34.2789 112.554 34.3674C112.58 34.4024 112.596 34.4436 112.601 34.4867C112.605 34.5298 112.598 34.5733 112.581 34.6129C112.563 34.6525 112.535 34.6867 112.5 34.7121C112.465 34.7375 112.424 34.7531 112.38 34.7574ZM111.9 34.0734L111.744 33.7734C111.645 33.8094 111.63 33.8754 111.669 33.9474C111.695 33.9858 111.729 34.0174 111.769 34.0394C111.809 34.0614 111.855 34.0731 111.9 34.0734ZM112.386 34.4094C112.359 34.372 112.324 34.3415 112.282 34.3201C112.241 34.2988 112.196 34.2872 112.149 34.2864L112.302 34.5864C112.389 34.5444 112.407 34.4814 112.371 34.4094H112.386Z" fill="black"/>
</g>
<path d="M104.1 54.7555C95.5362 71.2718 84.1763 86.1801 70.5243 98.8195L49.5513 82.8355C63.2128 70.1989 74.581 55.2903 83.1513 38.7715L104.1 54.7555Z" fill="#32D583"/>
<path opacity="0.2" d="M104.1 54.7555C103.396 56.1175 102.67 57.4675 101.922 58.8055C93.6426 73.7229 83.0444 87.2294 70.5243 98.8195L49.5513 82.8355C63.2128 70.1989 74.581 55.2903 83.1513 38.7715L104.1 54.7555Z" fill="white"/>
<path opacity="0.2" d="M86.4297 43.0407C86.2299 43.4447 85.9416 43.7984 85.5864 44.0757C85.2311 44.353 84.8179 44.5467 84.3775 44.6424C83.9371 44.7381 83.4808 44.7334 83.0424 44.6285C82.6041 44.5236 82.1951 44.3213 81.8457 44.0367C74.4096 57.3417 65.1231 69.5242 54.2637 80.2197C54.633 80.479 54.9386 80.8188 55.1575 81.2134C55.3764 81.608 55.5029 82.0472 55.5274 82.4978C55.552 82.9483 55.474 83.3986 55.2992 83.8147C55.1245 84.2308 54.8576 84.6017 54.5187 84.8997L67.5897 94.8627C68.3245 94.1932 69.2662 93.7954 70.2584 93.7354C71.2507 93.6753 72.2335 93.9567 73.0437 94.5327C83.9039 83.838 93.1906 71.6554 100.626 58.3497C99.0507 57.1497 98.5677 54.7677 99.5007 53.0037L99.5157 52.9767L86.4417 43.0137L86.4297 43.0407ZM84.0297 74.6997C81.5607 77.9307 76.8057 78.4497 73.5867 75.9957C70.3677 73.5417 69.8877 69.0357 72.3597 65.7957C74.8317 62.5557 79.3107 61.8357 82.5357 64.2957C85.7607 66.7557 86.5167 71.4687 84.0417 74.6997H84.0297Z" fill="black"/>
<g opacity="0.2">
<path d="M81.7869 72.002L82.6539 72.662L82.1679 73.298L81.3009 72.635C80.6739 73.361 79.8549 73.901 79.2009 74.033L78.6909 73.094C79.3786 72.9079 79.9983 72.5278 80.4759 71.999L78.9279 70.82C78.0639 71.522 77.0649 72.224 75.9909 71.402C75.2019 70.802 74.9649 69.713 75.7749 68.417L74.9019 67.751C75.0639 67.541 75.2259 67.328 75.3849 67.115L76.2429 67.769C76.6877 67.231 77.2572 66.8098 77.9019 66.542L78.4449 67.46C77.9292 67.6769 77.4644 67.9987 77.0799 68.405L78.6399 69.605C79.5039 68.9 80.4759 68.156 81.5499 68.975C82.3359 69.566 82.5879 70.676 81.7869 72.002ZM78.0009 70.109L76.6239 69.059C76.2879 69.674 76.3839 70.118 76.7259 70.376C77.0679 70.634 77.5179 70.457 78.0009 70.109ZM80.8809 70.022C80.5029 69.722 80.0679 69.941 79.5819 70.322L80.9499 71.366C81.3009 70.718 81.2079 70.277 80.8749 70.022H80.8809Z" fill="black"/>
</g>
<path opacity="0.2" d="M101.931 58.7988C93.6488 73.719 83.0475 87.2276 70.5237 98.8188C70.5237 98.8188 61.6377 85.2618 57.9507 82.7418C57.9507 82.7418 86.5767 72.1188 101.931 58.7988Z" fill="black"/>
<path d="M124.129 76.8217C110.177 89.1325 94.1989 98.9343 76.9025 105.793L63.1025 83.3167C80.3984 76.4591 96.3756 66.6572 110.326 54.3457C114.93 61.8397 119.531 69.3317 124.129 76.8217Z" fill="#32D583"/>
<path opacity="0.3" d="M124.128 76.8216C110.177 89.1324 94.1986 98.9342 76.9023 105.793L70.9413 96.0786C68.3413 91.8286 65.7323 87.5756 63.1143 83.3196C80.4101 76.462 96.3873 66.6601 110.337 54.3486C114.933 61.8406 119.53 69.3316 124.128 76.8216Z" fill="white"/>
<path opacity="0.2" d="M111.867 59.5128C111.537 59.8208 111.142 60.0498 110.711 60.1828C110.279 60.3157 109.824 60.3491 109.378 60.2804C108.932 60.2116 108.507 60.0426 108.136 59.7859C107.765 59.5293 107.457 59.1918 107.235 58.7988C95.497 68.5229 82.4389 76.5327 68.451 82.5888C68.7021 82.9638 68.8647 83.3909 68.9265 83.838C68.9883 84.285 68.9478 84.7402 68.808 85.1693C68.6681 85.5983 68.4326 85.99 68.1192 86.3148C67.8059 86.6395 67.4228 86.8888 66.999 87.0438L75.6 101.042C76.527 100.683 77.5489 100.652 78.4958 100.954C79.4427 101.257 80.2576 101.874 80.805 102.704C94.7941 96.65 107.853 88.64 119.589 78.9138C118.551 77.2278 118.962 74.8308 120.468 73.5138L120.492 73.4928L111.9 59.4918L111.867 59.5128ZM98.217 88.1748C94.746 90.2988 90.117 89.0748 88.017 85.6158C85.917 82.1568 87.081 77.7888 90.552 75.6678C94.023 73.5468 98.463 74.4678 100.584 77.9388C102.705 81.4098 101.7 86.0568 98.217 88.1748Z" fill="black"/>
<g opacity="0.2">
<path d="M97.089 84.8376L97.659 85.7676L96.975 86.1846C96.789 85.8846 96.6 85.5846 96.411 85.2666C95.565 85.7136 94.611 85.9236 93.942 85.8096C93.897 85.4556 93.852 85.1016 93.804 84.7476C94.5121 84.8217 95.2265 84.6905 95.862 84.3696C95.524 83.8176 95.186 83.2656 94.848 82.7136C93.786 83.0556 92.604 83.3466 91.896 82.1946C91.377 81.3486 91.548 80.2476 92.772 79.3326L92.199 78.3966L92.88 77.9766L93.444 78.8976C94.0528 78.5567 94.7355 78.3693 95.433 78.3516C95.493 78.7026 95.55 79.0536 95.61 79.4016C95.0502 79.4207 94.5 79.5534 93.993 79.7916L95.019 81.4656C96.081 81.1206 97.254 80.7786 97.959 81.9276C98.478 82.7736 98.31 83.8986 97.089 84.8376ZM94.233 81.7116C93.931 81.2196 93.631 80.7276 93.333 80.2356C92.796 80.6886 92.733 81.1356 92.952 81.5016C93.171 81.8676 93.663 81.8646 94.233 81.7116ZM96.948 82.6716C96.699 82.2636 96.219 82.3026 95.634 82.4676L96.534 83.9346C97.086 83.4696 97.167 83.0256 96.948 82.6716Z" fill="black"/>
</g>
<path opacity="0.2" d="M124.127 76.8223C110.176 89.133 94.1978 98.9348 76.9014 105.793L70.9404 96.0793L69.8994 81.0283C69.8994 81.0283 102.989 83.4163 124.127 76.8223Z" fill="black"/>
<path d="M128.129 105.951C110.019 110.218 91.3066 111.317 72.8213 109.2C72.3093 100.426 71.7953 91.651 71.2793 82.875C89.7685 84.9966 108.486 83.8973 126.599 79.626C127.105 88.402 127.615 97.177 128.129 105.951Z" fill="#32D583"/>
<path opacity="0.4" d="M128.129 105.951C110.019 110.218 91.3066 111.317 72.8213 109.2C72.3093 100.426 71.7953 91.651 71.2793 82.875C89.7685 84.9966 108.486 83.8973 126.599 79.626C127.105 88.402 127.615 97.177 128.129 105.951Z" fill="white"/>
<path opacity="0.2" d="M125.496 84.9013C125.059 85.0127 124.603 85.0244 124.161 84.9354C123.72 84.8464 123.304 84.6591 122.944 84.3873C122.585 84.1155 122.291 83.7663 122.085 83.3655C121.879 82.9647 121.766 82.5227 121.755 82.0723C106.817 85.1023 91.524 85.9962 76.3347 84.7273C76.3786 85.1764 76.32 85.6296 76.1633 86.0529C76.0066 86.4761 75.7559 86.8582 75.4301 87.1704C75.1043 87.4827 74.7118 87.7169 74.2824 87.8554C73.8529 87.994 73.3975 88.0332 72.9507 87.9703C73.2727 93.4403 73.5927 98.9103 73.9107 104.38C74.8975 104.5 75.8134 104.955 76.5056 105.669C77.1978 106.382 77.6245 107.311 77.7147 108.301C92.904 109.57 108.197 108.676 123.135 105.646C123.018 103.669 124.512 101.746 126.459 101.308H126.489L125.526 84.9013H125.496ZM99.9297 103.726C95.8677 103.957 92.3757 100.69 92.1297 96.6493C91.8837 92.6083 95.0007 89.3083 99.0627 89.0773C103.125 88.8463 106.596 91.7773 106.833 95.8183C107.07 99.8593 103.989 103.501 99.9297 103.726Z" fill="black"/>
<g opacity="0.2">
<path d="M100.499 100.249L100.562 101.335L99.7644 101.383L99.7014 100.306C98.8384 100.33 97.9885 100.09 97.2654 99.6186C97.3944 99.2856 97.5204 98.9526 97.6464 98.6196C98.2361 99.0177 98.9271 99.2394 99.6384 99.2586C99.6024 98.6106 99.5644 97.9636 99.5244 97.3176C98.4294 97.1166 97.2474 96.8166 97.1694 95.4666C97.1124 94.4766 97.7844 93.5886 99.2934 93.3666L99.2304 92.2716L100.028 92.2236L100.091 93.3006C100.789 93.2843 101.48 93.442 102.101 93.7596L101.759 94.7676C101.258 94.5192 100.71 94.3762 100.151 94.3476L100.268 96.3096C101.363 96.5046 102.56 96.7566 102.641 98.1096C102.71 99.0846 102.032 99.9996 100.499 100.249ZM99.4584 96.1416C99.4224 95.5676 99.3884 94.9926 99.3564 94.4166C98.6694 94.5606 98.3993 94.9236 98.4233 95.3526C98.4473 95.7816 98.8944 96.0006 99.4704 96.1416H99.4584ZM101.399 98.2716C101.372 97.7976 100.931 97.6026 100.337 97.4736L100.436 99.1926C101.153 99.0396 101.435 98.7006 101.399 98.2716Z" fill="black"/>
</g>
<path d="M85.0327 105.979C85.1107 106.877 85.2037 107.79 85.3117 108.718H22.2217C24.1957 92.0408 22.2217 84.8108 22.2217 84.8108C43.3057 83.2238 85.3117 84.8108 85.3117 84.8108C85.3117 84.8108 84.0427 92.8448 84.8977 104.35C84.9377 104.884 84.9827 105.427 85.0327 105.979Z" fill="#32D583"/>
<path opacity="0.2" d="M85.3117 84.8108C82.5487 86.1008 69.0337 86.2838 61.2577 85.8008C53.4817 85.3178 43.3057 86.7908 43.3057 86.7908C37.4137 84.7568 22.2217 84.8108 22.2217 84.8108C43.3057 83.2238 85.3117 84.8108 85.3117 84.8108Z" fill="white"/>
<path opacity="0.2" d="M22.2217 108.717C24.1957 92.0402 22.2217 84.8102 22.2217 84.8102C22.2217 84.8102 34.7287 84.5372 43.3057 86.7902C43.3057 86.7902 43.6057 89.3342 43.3057 90.6422C43.3057 90.6422 53.6227 88.9682 62.8057 89.1902C62.8057 89.1902 48.5917 90.8252 43.3057 92.0402C43.3057 92.0402 34.8037 90.7142 29.4247 90.6422C29.4247 90.6422 40.6087 92.0972 43.3057 92.9672C43.3057 92.9672 46.5037 92.3852 48.1777 92.3852C48.1777 92.3852 44.1727 93.1142 43.3057 93.7652V98.3732C43.3057 98.3732 34.3777 98.5502 29.8987 97.9112C32.0257 98.2442 40.6987 99.5792 43.3057 99.5792C43.3057 99.5792 53.1577 99.2162 58.8787 99.5792C58.8787 99.5792 45.8437 100.329 43.3057 100.935H32.1157L43.3057 101.874V102.807H48.1057L43.3057 103.635C43.3057 103.635 29.4247 102.753 25.4317 103.635C25.4317 103.635 41.8147 104.379 43.2877 104.958L43.3057 106.338C43.3057 106.338 61.6777 103.911 77.9257 105.999C77.9257 105.999 54.1987 105.057 43.3057 107.697C43.3057 107.697 77.3887 106.956 85.3057 108.717H22.2217Z" fill="black"/>
<path d="M22.5903 86.7891L20.9253 87.3711C20.9253 87.3711 30.9543 87.7161 37.4253 88.7061C37.4193 88.7061 27.4503 86.9331 22.5903 86.7891Z" fill="#32D583"/>
<path opacity="0.2" d="M44.7656 88.7081L47.3036 89.191C47.3036 89.191 59.1206 87.9071 73.0886 87.7511C73.0886 87.7511 52.9136 86.7731 44.7656 88.7081Z" fill="white"/>
<path opacity="0.2" d="M52.7725 91.423C52.7725 91.423 59.8585 89.491 66.0715 89.587C72.2845 89.683 84.1105 88.708 84.1105 88.708L84.5755 89.587C84.5755 89.587 75.3025 90.13 67.6495 90.067C62.66 90.0765 57.6814 90.5303 52.7725 91.423Z" fill="white"/>
<path opacity="0.2" d="M45.7412 94.3117C45.7412 94.3117 54.1892 92.5117 62.4722 92.6767C70.7552 92.8417 81.1862 93.4897 81.1862 93.4897C81.1862 93.4897 58.5482 93.4897 52.7732 94.6897L45.7412 94.3117Z" fill="white"/>
<path d="M60.3545 91.6948C60.3545 91.6948 67.6295 91.0948 73.9085 91.4218C80.1875 91.7488 86.7815 92.0428 86.7815 92.0428L84.5765 92.6668C84.5765 92.6668 69.4595 91.1518 60.3545 91.6948Z" fill="#32D583"/>
<path opacity="0.2" d="M60.3545 91.6948C60.3545 91.6948 67.6295 91.0948 73.9085 91.4218C80.1875 91.7488 86.7815 92.0428 86.7815 92.0428L84.5765 92.6668C84.5765 92.6668 69.4595 91.1518 60.3545 91.6948Z" fill="black"/>
<path opacity="0.2" d="M46.0137 95.8393C46.0137 95.8393 58.6137 95.6833 64.6827 95.3803C70.7517 95.0773 78.8907 96.7603 78.8907 96.7603C78.8907 96.7603 68.8497 96.5473 65.7417 97.0393L46.0137 95.8393Z" fill="black"/>
<path opacity="0.2" d="M44.7656 97.7451L52.7726 97.0371L69.8306 97.7451L52.5536 98.4531L44.7656 97.7451Z" fill="white"/>
<path opacity="0.2" d="M50.7539 101.505C50.7539 101.505 62.3969 100.419 66.9329 100.362C71.4689 100.305 83.6759 99.4893 83.6759 99.4893L82.3199 101.289C82.3199 101.289 59.3669 100.8 50.7539 101.505Z" fill="white"/>
<path d="M80.2764 95.3805L84.5754 95.7855L85.7454 95.3805C83.9263 95.2104 82.0954 95.2104 80.2764 95.3805Z" fill="#32D583"/>
<path d="M85.1191 86.3027L86.7811 86.5697L84.9961 87.5027L74.4961 87.2807C74.4961 87.2807 82.3681 87.1757 85.1191 86.3027Z" fill="#32D583"/>
<path opacity="0.2" d="M80.2764 95.3805L84.5754 95.7855L85.7454 95.3805C83.9263 95.2104 82.0954 95.2104 80.2764 95.3805Z" fill="white"/>
<path opacity="0.2" d="M85.1191 86.3027L86.7811 86.5697L84.9961 87.5027L74.4961 87.2807C74.4961 87.2807 82.3681 87.1757 85.1191 86.3027Z" fill="black"/>
<path opacity="0.2" d="M85.0317 105.978C82.2117 105.795 62.4507 103.311 62.4507 103.311C63.7677 103.158 81.0177 104.178 84.8967 104.349C84.9367 104.883 84.9817 105.426 85.0317 105.978Z" fill="black"/>
<path d="M55.2773 102.972C55.2773 102.972 73.7543 102.924 79.0403 103.305C84.3263 103.686 84.8004 102.972 84.8004 102.972L87.4343 104.241C87.4343 104.241 87.5694 105.501 80.6363 104.622C73.7033 103.743 55.2773 102.972 55.2773 102.972Z" fill="#32D583"/>
<path d="M40.1822 93.6816C40.1822 93.6816 29.3612 91.9656 23.0522 92.4036C24.0005 92.6191 24.8838 93.0572 25.6292 93.6816H40.1822Z" fill="#32D583"/>
<path d="M23.0402 98.3736C23.2862 98.3466 31.1402 99.3816 34.1402 99.4896L21.9302 99.9816L23.0402 98.3736Z" fill="#32D583"/>
<path d="M22.5963 105.158L34.4583 105.578L20.9253 106.58L22.5963 105.158Z" fill="#32D583"/>
<path d="M44.2086 84.0006C44.2086 84.0006 61.0566 86.8806 70.8276 75.3516L89.2356 80.0766C89.2356 80.0766 85.8486 87.1026 60.4086 86.1696C34.9686 85.2366 44.2086 84.0006 44.2086 84.0006Z" fill="#32D583"/>
<path opacity="0.5" d="M44.2086 84.0006C44.2086 84.0006 61.0566 86.8806 70.8276 75.3516L89.2356 80.0766C89.2356 80.0766 85.8486 87.1026 60.4086 86.1696C34.9686 85.2366 44.2086 84.0006 44.2086 84.0006Z" fill="white"/>
<path opacity="0.2" d="M53.8286 84.6222C53.8286 84.6222 64.1276 84.0792 69.9506 77.4912C70.4851 77.6566 71.0569 77.6576 71.5919 77.4939C72.1268 77.3302 72.6002 77.0094 72.9506 76.5732L86.3876 80.1342C86.3876 80.1342 84.9416 80.6412 85.4486 82.3152C85.4366 82.3152 67.7996 89.4612 53.8286 84.6222Z" fill="black"/>
<path d="M69.2011 51.2071L69.5161 49.5361C69.5161 49.5361 68.8651 48.9181 68.9401 48.3361C69.0151 47.7541 71.9131 46.8361 72.4261 46.7851C72.9391 46.7341 72.7441 48.8341 72.5881 49.2151C72.4321 49.5961 70.6921 50.0551 70.6921 50.0551L70.4731 51.8161L69.2011 51.2071Z" fill="#EBB376"/>
<path d="M35.7904 59.4213L34.6414 58.1673C34.6414 58.1673 34.8664 57.3003 34.5004 56.8563C34.1344 56.4123 31.1794 57.1413 30.7234 57.3783C30.2674 57.6153 31.5334 59.2863 31.8694 59.5263C32.2054 59.7663 33.9214 59.2263 33.9214 59.2263L35.0374 60.6093L35.7904 59.4213Z" fill="#EBB376"/>
<path d="M58.6406 56.7275C61.8716 56.5475 64.7996 57.2225 66.3026 56.7275C67.8056 56.2325 69.2636 49.9805 69.2636 49.9805L70.8446 50.5145C70.8446 50.5145 70.2446 57.0215 67.6466 58.7645C65.0486 60.5075 59.0276 60.4925 59.0276 60.4925L58.6406 56.7275Z" fill="#32D583"/>
<path opacity="0.7" d="M70.8446 50.5145C70.8446 50.5145 70.2446 57.0215 67.6466 58.7645C66.1466 59.7545 63.5756 60.1775 61.6226 60.3605C60.1436 60.4955 59.0276 60.4925 59.0276 60.4925L58.8476 58.7345L58.6406 56.7275C61.8716 56.5475 64.7996 57.2225 66.3026 56.7275C67.8056 56.2325 69.2636 49.9805 69.2636 49.9805L70.8446 50.5145Z" fill="white"/>
<path opacity="0.2" d="M61.6236 60.3604C60.1446 60.4954 59.0286 60.4924 59.0286 60.4924L58.8486 58.7344C59.8543 59.1252 60.7911 59.6741 61.6236 60.3604Z" fill="black"/>
<path d="M79.2963 107.266L81.3873 106.693L81.0123 101.587L78.9243 102.163L79.2963 107.266Z" fill="#B97964"/>
<path d="M81.5161 106.412L79.0861 106.58C79.0452 106.582 79.0066 106.599 78.9786 106.629C78.9505 106.659 78.9353 106.698 78.9361 106.739L78.9511 108.668C78.958 108.769 79.0044 108.863 79.0802 108.93C79.1561 108.997 79.2552 109.031 79.3561 109.025C80.2021 108.953 80.6041 108.875 81.6721 108.794C82.625 108.762 83.5744 108.662 84.5131 108.494C85.4131 108.287 85.1731 107.417 84.7771 107.426C83.7541 107.371 82.7629 107.052 81.9001 106.499C81.785 106.429 81.6501 106.399 81.5161 106.412Z" fill="#263238"/>
<path d="M82.3074 106.728C82.1126 106.737 81.9175 106.725 81.7254 106.692C81.7156 106.691 81.7065 106.687 81.6991 106.681C81.6916 106.674 81.6862 106.666 81.6834 106.656C81.6819 106.647 81.6825 106.637 81.6851 106.628C81.6877 106.618 81.6922 106.61 81.6984 106.602C81.7644 106.548 82.3494 106.089 82.6224 106.173C82.6532 106.183 82.6809 106.201 82.703 106.224C82.725 106.248 82.7407 106.277 82.7484 106.308C82.7693 106.355 82.7765 106.406 82.7691 106.457C82.7617 106.507 82.7399 106.555 82.7064 106.593C82.5941 106.685 82.4523 106.733 82.3074 106.728ZM82.5924 106.278C82.4484 106.233 82.1004 106.44 81.8604 106.617C82.2534 106.665 82.5354 106.635 82.6314 106.527C82.6507 106.501 82.663 106.471 82.6672 106.439C82.6714 106.407 82.6673 106.374 82.6554 106.344C82.6505 106.329 82.6423 106.316 82.6314 106.304C82.6205 106.293 82.6072 106.284 82.5924 106.278Z" fill="#263238"/>
<path d="M81.7346 106.691C81.7313 106.692 81.7277 106.693 81.7241 106.693C81.7205 106.693 81.7169 106.692 81.7136 106.691C81.7064 106.687 81.7001 106.682 81.6949 106.676C81.6898 106.67 81.6859 106.662 81.6836 106.655C81.6836 106.634 81.5906 106.01 81.7916 105.782C81.8183 105.753 81.851 105.731 81.8873 105.716C81.9235 105.702 81.9626 105.695 82.0016 105.698C82.0447 105.696 82.0871 105.709 82.1222 105.734C82.1574 105.759 82.1835 105.795 82.1966 105.836C82.2596 106.07 81.9686 106.544 81.7646 106.685C81.7603 106.688 81.7554 106.69 81.7503 106.691C81.7451 106.692 81.7397 106.692 81.7346 106.691ZM81.9746 105.809C81.9542 105.81 81.9343 105.815 81.9162 105.824C81.898 105.833 81.8821 105.847 81.8696 105.863C81.7641 106.077 81.7315 106.321 81.7766 106.556C81.9639 106.376 82.0782 106.134 82.0976 105.875C82.0976 105.845 82.0706 105.812 81.9986 105.809H81.9746Z" fill="#263238"/>
<path opacity="0.2" d="M78.9243 102.163L81.0153 101.59L81.2283 104.509L79.1253 104.977L78.9243 102.163Z" fill="black"/>
<path d="M76.5607 107.191L74.5837 108.094L74.0827 105.97L73.4077 103.114L75.3757 102.211L76.0537 105.064L76.5607 107.191Z" fill="#B97964"/>
<path opacity="0.2" d="M76.0537 105.064L74.0827 105.97L73.4077 103.114L75.3757 102.211L76.0537 105.064Z" fill="black"/>
<path d="M76.6413 106.897L74.2713 107.452C74.2316 107.459 74.1964 107.482 74.1734 107.515C74.1503 107.548 74.1413 107.589 74.1483 107.629L74.4723 109.534C74.482 109.583 74.5014 109.631 74.5295 109.673C74.5576 109.715 74.5938 109.751 74.6359 109.779C74.6781 109.807 74.7254 109.826 74.7751 109.835C74.8248 109.845 74.8758 109.844 74.9253 109.834C75.7503 109.627 76.1253 109.486 77.1753 109.234C78.1117 109.056 79.034 108.811 79.9353 108.502C80.7783 108.157 80.4153 107.335 80.0283 107.407C79.1103 107.572 77.7363 107.272 77.0283 106.945C76.9083 106.886 76.7721 106.869 76.6413 106.897Z" fill="#263238"/>
<path d="M77.4752 107.083C77.2837 107.122 77.0886 107.141 76.8932 107.137C76.8833 107.139 76.8733 107.137 76.8646 107.132C76.8559 107.127 76.8491 107.12 76.8452 107.11C76.8407 107.102 76.8384 107.093 76.8384 107.083C76.8384 107.074 76.8407 107.065 76.8452 107.056C76.9022 106.993 77.4032 106.456 77.6882 106.483C77.7198 106.489 77.7495 106.502 77.7747 106.522C77.7999 106.542 77.8196 106.568 77.8322 106.597C77.8619 106.642 77.8777 106.694 77.8777 106.747C77.8777 106.801 77.8619 106.853 77.8322 106.897C77.7382 106.999 77.6121 107.064 77.4752 107.083ZM77.6852 106.594C77.5322 106.57 77.2232 106.831 77.0132 107.044C77.4092 107.029 77.6852 106.954 77.7602 106.834C77.7771 106.806 77.7861 106.774 77.7861 106.741C77.7861 106.709 77.7771 106.676 77.7602 106.648C77.7548 106.634 77.7455 106.621 77.7333 106.612C77.7211 106.602 77.7065 106.596 77.6912 106.594H77.6852Z" fill="#263238"/>
<path d="M76.9017 107.135C76.8989 107.136 76.8958 107.137 76.8927 107.137C76.8896 107.137 76.8865 107.136 76.8837 107.135C76.8756 107.132 76.8682 107.128 76.862 107.122C76.8557 107.116 76.8509 107.109 76.8477 107.102C76.8477 107.084 76.6497 106.478 76.8147 106.223C76.8361 106.19 76.8644 106.163 76.8976 106.143C76.9308 106.122 76.968 106.11 77.0067 106.106C77.0496 106.097 77.0942 106.103 77.1334 106.122C77.1726 106.142 77.204 106.174 77.2227 106.214C77.3217 106.433 77.1117 106.949 76.9227 107.114C76.9216 107.119 76.9191 107.124 76.9153 107.127C76.9116 107.131 76.9069 107.134 76.9017 107.135ZM76.9977 106.235C76.9581 106.245 76.9238 106.269 76.9017 106.304C76.833 106.534 76.8393 106.779 76.9197 107.006C77.0762 106.799 77.1519 106.541 77.1327 106.283C77.1327 106.253 77.0937 106.223 77.0217 106.232L76.9977 106.235Z" fill="#263238"/>
<path d="M61.9116 78.1947L61.2726 71.1387L49.4916 71.4147C49.4916 71.4147 48.0966 81.2457 49.1106 83.0517C50.9106 86.2767 62.7966 84.4467 65.5746 84.7197C66.7086 85.3197 72.7746 105.441 72.7746 105.441L76.1736 104.07C76.1736 104.07 72.5196 87.0927 71.6736 83.8947C70.5306 79.4487 65.8146 79.5267 61.9116 78.1947Z" fill="#263238"/>
<path d="M81.4356 103.723L78.4356 103.999C78.4356 103.999 74.7606 85.2821 74.4756 85.2011C73.9656 85.0541 72.4746 84.8861 71.6736 84.6761C66.1116 83.2301 52.4136 80.5691 52.4136 80.5691L57.4656 75.7031C57.4656 75.7031 80.3676 78.4511 80.8656 83.8271C81.1206 86.4011 81.4356 103.723 81.4356 103.723Z" fill="#263238"/>
<path opacity="0.2" d="M73.6677 85.2151C73.1547 85.0681 72.4677 84.8881 71.6727 84.6781C71.8947 84.7951 71.2527 81.8821 70.6107 81.1291C69.3357 79.6291 64.2177 78.8131 62.3847 78.5191C60.8487 78.2731 55.7007 77.8201 55.7007 77.8201C55.7007 77.8201 64.7907 77.0341 71.6397 78.9151C75.0267 79.8451 74.4237 83.1511 73.6677 85.2151Z" fill="black"/>
<path d="M47.9194 58.4387C47.9194 58.4387 52.2664 56.1317 58.6414 56.7257C58.6414 56.7257 60.8524 62.3477 61.2724 71.1257L49.4194 71.9477C49.4194 71.9477 49.6324 64.4237 47.9194 58.4387Z" fill="#32D583"/>
<path opacity="0.7" d="M49.4194 71.9597C49.4498 69.9111 49.3737 67.8624 49.1914 65.8217C49.0864 64.6217 48.9364 63.3587 48.7204 62.0717C48.522 60.8466 48.2545 59.6337 47.9194 58.4387C47.9194 58.4387 52.2664 56.1317 58.6414 56.7257C58.6414 56.7257 60.8524 62.3477 61.2724 71.1257L49.4194 71.9597Z" fill="white"/>
<path opacity="0.2" d="M49.2005 65.8241C49.0955 64.6241 48.9455 63.3611 48.7295 62.0741C48.94 61.8602 49.1936 61.6935 49.4735 61.5851L49.4885 61.4531C49.4795 61.5971 50.1005 63.8141 49.2005 65.8241Z" fill="black"/>
<path d="M51.2036 57.6234C52.2896 58.6104 54.9476 58.2444 54.9476 58.2444C54.9476 58.2444 56.6066 57.7914 56.2586 57.2724C55.2806 57.1104 54.8096 56.6544 54.6116 56.0724C54.5065 55.7093 54.4729 55.3293 54.5126 54.9534C54.5126 54.7494 54.5606 54.5394 54.5966 54.3324L51.2996 51.8994C51.7406 53.5044 52.2686 56.4594 51.2036 57.6234Z" fill="#EBB376"/>
<path opacity="0.2" d="M52.0679 53.4463C52.1999 55.4173 53.8199 55.9633 54.6119 56.0743C54.5068 55.7112 54.4732 55.3312 54.5129 54.9553L52.0679 53.4463Z" fill="black"/>
<path d="M54.1532 45.1395C55.3742 45.4695 56.3912 48.2865 55.4762 50.1495C54.5612 52.0125 51.8042 46.8015 51.8042 46.8015C51.8042 46.8015 53.3642 44.9295 54.1532 45.1395Z" fill="#263238"/>
<path d="M56.6996 51.5992C56.7056 51.7131 56.7056 51.8273 56.6996 51.9412C56.6786 52.7542 56.3507 53.5291 55.7816 54.1102C55.2731 54.6399 54.5853 54.9608 53.8526 55.0102C53.3314 55.036 52.813 54.9199 52.3526 54.6742C50.8946 53.9332 50.5016 52.6492 49.6526 50.5312C49.4412 50.0384 49.3606 49.4993 49.4187 48.9661C49.4768 48.433 49.6716 47.9239 49.9842 47.4882C50.2968 47.0524 50.7167 46.7048 51.2031 46.479C51.6895 46.2532 52.226 46.1568 52.7606 46.1992C55.1606 46.3762 56.5136 49.4992 56.6996 51.5992Z" fill="#EBB376"/>
<path d="M53.1354 50.0361C53.1804 50.2131 53.3304 50.3361 53.4354 50.2851C53.5404 50.2341 53.5974 50.0721 53.5404 49.8981C53.4834 49.7241 53.3394 49.5981 53.2404 49.6491C53.1414 49.7001 53.0784 49.8561 53.1354 50.0361Z" fill="#263238"/>
<path d="M55.1253 49.3842C55.1703 49.5612 55.3233 49.6692 55.4253 49.6332C55.5273 49.5972 55.5873 49.4202 55.5303 49.2432C55.4733 49.0662 55.3323 48.9582 55.2303 48.9942C55.1283 49.0302 55.0713 49.2162 55.1253 49.3842Z" fill="#263238"/>
<path d="M54.5215 49.6758C54.9083 50.1447 55.3575 50.5585 55.8565 50.9058C55.764 51.0321 55.6448 51.1366 55.5074 51.2118C55.37 51.287 55.2178 51.331 55.0615 51.3408L54.5215 49.6758Z" fill="#D58745"/>
<path d="M55.5837 48.2986C55.5692 48.3126 55.5515 48.3229 55.5322 48.3286C55.5129 48.3344 55.4925 48.3354 55.4727 48.3316C55.3414 48.2958 55.2035 48.2912 55.0701 48.3183C54.9367 48.3454 54.8116 48.4034 54.7047 48.4876C54.684 48.5075 54.6563 48.5184 54.6276 48.5178C54.5989 48.5173 54.5716 48.5053 54.5517 48.4846C54.5318 48.4639 54.5209 48.4362 54.5215 48.4075C54.5221 48.3788 54.534 48.3515 54.5547 48.3316C54.6879 48.2222 54.8453 48.1461 55.0138 48.1096C55.1823 48.0731 55.3571 48.0772 55.5237 48.1216C55.5377 48.1245 55.5511 48.1301 55.5629 48.1382C55.5748 48.1462 55.5849 48.1565 55.5927 48.1685C55.6005 48.1806 55.6059 48.194 55.6084 48.2081C55.611 48.2222 55.6108 48.2366 55.6077 48.2506C55.6015 48.2675 55.5935 48.2836 55.5837 48.2986Z" fill="#263238"/>
<path d="M52.4787 49.3725C52.4584 49.38 52.436 49.38 52.4157 49.3725C52.3911 49.358 52.3732 49.3345 52.3659 49.307C52.3586 49.2794 52.3625 49.2501 52.3767 49.2254C52.4642 49.0761 52.586 48.9497 52.7321 48.8569C52.8782 48.764 53.0443 48.7073 53.2167 48.6914C53.2309 48.691 53.245 48.6934 53.2582 48.6985C53.2715 48.7036 53.2836 48.7112 53.2939 48.7209C53.3042 48.7307 53.3125 48.7424 53.3183 48.7553C53.3241 48.7683 53.3273 48.7823 53.3277 48.7964C53.3277 48.8249 53.3169 48.8522 53.2973 48.8729C53.2778 48.8935 53.2511 48.9059 53.2227 48.9074C53.0869 48.9238 52.9568 48.9717 52.8427 49.0472C52.7286 49.1227 52.6338 49.2238 52.5657 49.3424C52.5541 49.3532 52.5403 49.3615 52.5253 49.3666C52.5104 49.3718 52.4945 49.3738 52.4787 49.3725Z" fill="#263238"/>
<path d="M50.3552 47.291L50.8262 48.191C50.6986 48.329 50.6278 48.5101 50.6278 48.698C50.6278 48.886 50.6986 49.067 50.8262 49.205C51.4262 49.877 51.4502 51.269 51.0302 51.989C51.0302 51.989 50.8832 51.656 50.6252 51.845C50.3672 52.034 51.1292 53.783 52.0142 54.416C52.0142 54.416 50.8712 53.975 49.6772 52.292C48.5732 50.738 47.9672 49.319 48.0662 48.515L50.3552 47.291Z" fill="#263238"/>
<path d="M49.2966 52.5927C49.6959 53.0033 50.2419 53.2385 50.8146 53.2467C51.5766 53.2467 51.7566 52.5237 51.3786 51.9087C51.0396 51.3657 50.2326 50.6907 49.5516 50.9877C48.8706 51.2847 48.8106 52.0827 49.2966 52.5927Z" fill="#EBB376"/>
<path d="M55.2966 52.0943C55.1584 52.3966 55.0421 52.7084 54.9486 53.0273L54.7746 53.0063C53.9886 52.9013 53.6556 52.5923 53.5296 52.2803C53.4711 52.1275 53.4495 51.9631 53.4666 51.8003C53.4727 51.7068 53.493 51.6148 53.5266 51.5273C53.9828 51.8092 54.4945 51.9893 55.0266 52.0553C55.2006 52.0853 55.2966 52.0943 55.2966 52.0943Z" fill="#263238"/>
<path d="M55.0283 52.0553L54.9173 52.3283C54.1763 52.2263 53.6663 52.0553 53.4653 51.8003C53.4714 51.7068 53.4916 51.6148 53.5253 51.5273C53.9824 51.8096 54.4951 51.9898 55.0283 52.0553Z" fill="white"/>
<path d="M54.7733 53.0063C53.9873 52.9013 53.6543 52.5923 53.5283 52.2803C53.8276 52.3301 54.1159 52.4316 54.3803 52.5803C54.5522 52.6782 54.6895 52.8271 54.7733 53.0063Z" fill="#DE5753"/>
<path d="M52.3617 47.4479C52.3617 47.4479 52.1517 46.0139 53.0577 46.2929C53.9637 46.5719 54.0267 46.0259 53.7567 44.9189C53.4867 43.8119 50.8887 43.4189 49.4187 45.2339C47.9487 47.0489 47.4357 48.5699 48.1467 49.3739C48.8577 50.1779 51.5667 47.8049 51.5667 47.8049C51.6406 47.3996 51.8126 47.0185 52.0677 46.6949C52.0843 46.9705 52.1872 47.2339 52.3617 47.4479Z" fill="#263238"/>
<path d="M53.7627 58.131L55.1997 59.4C55.1997 59.4 55.9887 64.74 57.9267 67.074H59.1267L59.3637 66.246C57.5609 64.2333 56.2668 61.8178 55.5897 59.202V57.501L53.7627 58.131Z" fill="#263238"/>
<path d="M51.5699 56.4702L54.5219 57.5772L54.7739 56.0742L56.3069 56.6292L56.6999 58.5282L54.6119 58.0122L53.5769 59.3982L50.5679 57.4512L51.5699 56.4702Z" fill="#32D583"/>
<path opacity="0.5" d="M51.5699 56.4702L54.5219 57.5772L54.7739 56.0742L56.3069 56.6292L56.6999 58.5282L54.6119 58.0122L53.5769 59.3982L50.5679 57.4512L51.5699 56.4702Z" fill="white"/>
<path d="M49.251 71.7634L61.41 70.6084L61.437 72.0844L49.257 73.0804L49.251 71.7634Z" fill="black"/>
<path d="M58.8362 70.9104C58.7813 70.861 58.7166 70.8236 58.6463 70.8009C58.5759 70.7781 58.5016 70.7705 58.4282 70.7784L57.3512 70.8894C57.2181 70.9029 57.0949 70.9659 57.006 71.0659C56.9171 71.1659 56.869 71.2957 56.8712 71.4294V72.1194C56.8743 72.2613 56.9335 72.3962 57.0358 72.4946C57.1381 72.593 57.2752 72.6469 57.4172 72.6444H57.4622L58.5392 72.5304C58.672 72.5169 58.7949 72.4538 58.8833 72.3537C58.9717 72.2536 59.0191 72.1239 59.0162 71.9904V71.3034C59.0158 71.2289 58.9995 71.1553 58.9685 71.0876C58.9375 71.0198 58.8923 70.9594 58.8362 70.9104ZM58.5212 72.2544L57.4472 72.3684C57.4103 72.3735 57.3729 72.3708 57.3372 72.3604C57.3015 72.35 57.2684 72.3321 57.2401 72.3081C57.2118 72.284 57.1889 72.2542 57.1728 72.2207C57.1568 72.1871 57.1481 72.1506 57.1472 72.1134V71.4264C57.1461 71.3611 57.1695 71.2978 57.2128 71.2489C57.2561 71.2 57.3162 71.1692 57.3812 71.1624L58.4552 71.0514H58.4792C58.5474 71.0514 58.6129 71.0781 58.6616 71.1258C58.7104 71.1734 58.7386 71.2383 58.7402 71.3064V71.3994H58.6982L58.3982 71.4264C58.3741 71.4286 58.3508 71.4355 58.3294 71.4467C58.308 71.4579 58.2891 71.4732 58.2736 71.4917C58.2581 71.5102 58.2465 71.5316 58.2393 71.5546C58.2321 71.5777 58.2295 71.6019 58.2317 71.6259C58.2338 71.65 58.2407 71.6733 58.2519 71.6947C58.2631 71.7161 58.2784 71.735 58.2969 71.7505C58.3155 71.766 58.3368 71.7776 58.3599 71.7848C58.3829 71.792 58.4071 71.7946 58.4312 71.7924L58.7312 71.7624H58.7462V71.9994C58.746 72.062 58.723 72.1224 58.6816 72.1693C58.6402 72.2162 58.5832 72.2464 58.5212 72.2544Z" fill="white"/>
<path d="M47.9184 58.4414C45.8904 59.6414 42.9624 63.5924 41.9334 63.5114C40.9044 63.4304 35.3544 58.5014 35.3544 58.5014L34.0884 59.8724C34.0884 59.8724 39.2154 65.9954 41.6034 66.4574C43.9914 66.9194 49.2504 62.4914 49.2504 62.4914C49.5478 61.7284 49.5478 60.8814 49.2504 60.1184C48.9807 59.4407 48.5174 58.8575 47.9184 58.4414Z" fill="#32D583"/>
<path opacity="0.7" d="M47.9184 58.4414C45.8904 59.6414 42.9624 63.5924 41.9334 63.5114C40.9044 63.4304 35.3544 58.5014 35.3544 58.5014L34.0884 59.8724C34.0884 59.8724 39.2154 65.9954 41.6034 66.4574C43.9914 66.9194 49.2504 62.4914 49.2504 62.4914C49.5478 61.7284 49.5478 60.8814 49.2504 60.1184C48.9807 59.4407 48.5174 58.8575 47.9184 58.4414Z" fill="white"/>
<path d="M66.4837 86.3274C66.4837 86.3274 26.2207 86.6064 23.7217 80.9514L41.6527 79.6494C45.2112 81.1422 48.8533 82.4274 52.5607 83.4984C56.7007 84.7074 61.6087 85.8534 66.4837 86.3274Z" fill="#32D583"/>
<path opacity="0.2" d="M66.4825 86.3272C66.4825 86.3272 65.2195 86.3272 63.1195 86.3272C54.5065 85.7272 44.4505 81.4492 44.4505 81.4492C40.8205 82.2472 38.3245 80.8162 38.3245 80.8162L28.5385 81.3772C28.5912 81.6182 28.5889 81.8679 28.5318 82.1079C28.4746 82.3478 28.3641 82.5718 28.2085 82.7632C33.2815 84.1882 38.7505 85.0552 43.2085 85.5802C33.7915 84.8752 24.8545 83.5312 23.7085 80.9602L41.6395 79.6582C41.6395 79.6582 54.1645 85.1272 66.4825 86.3272Z" fill="white"/>
<path opacity="0.2" d="M66.4837 86.3291C66.4837 86.3291 26.2207 86.6081 23.7217 80.9531C23.7217 80.9531 37.3267 86.8301 52.5607 83.5001C56.7007 84.7091 61.6087 85.8551 66.4837 86.3291Z" fill="black"/>
</svg>
