<svg fill="none" xmlns="http://www.w3.org/2000/svg" viewBox="0 0 40 40"> <rect width="40" height="40" rx="10" fill="#FFFAEB"/> <path d="M31.7187 12.5C31.3371 12.5001 30.9613 12.5934 30.6239 12.7717C30.2866 12.9501 29.9979 13.2081 29.7829 13.5234C29.5679 13.8386 29.4332 14.2017 29.3903 14.5808C29.3475 14.96 29.398 15.3439 29.5373 15.6992L24.6054 20.6311C24.0556 20.4146 23.4443 20.4146 22.8945 20.6311L19.3689 17.1055C19.5085 16.7501 19.5592 16.366 19.5165 15.9866C19.4739 15.6072 19.3392 15.244 19.1242 14.9285C18.9092 14.613 18.6203 14.3548 18.2828 14.1764C17.9453 13.998 17.5692 13.9047 17.1874 13.9047C16.8057 13.9047 16.4296 13.998 16.0921 14.1764C15.7546 14.3548 15.4657 14.613 15.2507 14.9285C15.0357 15.244 14.901 15.6072 14.8584 15.9866C14.8157 16.366 14.8664 16.7501 15.006 17.1055L9.13667 22.9748C8.63541 22.7782 8.08174 22.7601 7.56874 22.9237C7.05575 23.0873 6.61472 23.4225 6.31981 23.873C6.0249 24.3235 5.89411 24.8618 5.94941 25.3974C6.00471 25.933 6.24275 26.4332 6.62348 26.814C7.00422 27.1947 7.50444 27.4327 8.04004 27.488C8.57563 27.5433 9.11394 27.4125 9.56444 27.1176C10.0149 26.8227 10.3502 26.3817 10.5137 25.8687C10.6773 25.3557 10.6593 24.802 10.4626 24.3008L16.332 18.4314C16.8818 18.6479 17.4931 18.6479 18.0429 18.4314L21.5685 21.957C21.4289 22.3124 21.3782 22.6965 21.4209 23.0759C21.4635 23.4553 21.5982 23.8185 21.8132 24.134C22.0282 24.4495 22.3171 24.7077 22.6546 24.8861C22.9921 25.0645 23.3682 25.1578 23.7499 25.1578C24.1317 25.1578 24.5078 25.0645 24.8453 24.8861C25.1828 24.7077 25.4717 24.4495 25.6867 24.134C25.9017 23.8185 26.0364 23.4553 26.079 23.0759C26.1217 22.6965 26.071 22.3124 25.9314 21.957L30.8632 17.0252C31.1842 17.1513 31.529 17.205 31.873 17.1825C32.2171 17.16 32.552 17.0619 32.8538 16.8952C33.1556 16.7284 33.4169 16.4971 33.619 16.2178C33.8211 15.9384 33.9591 15.6179 34.0232 15.2791C34.0872 14.9403 34.0758 14.5915 33.9895 14.2577C33.9033 13.9238 33.7445 13.6131 33.5244 13.3477C33.3043 13.0823 33.0284 12.8687 32.7162 12.7222C32.4041 12.5756 32.0635 12.4998 31.7187 12.5Z" fill="url(#paint0_linear_2177_21319)"/> <defs> <linearGradient id="paint0_linear_2177_21319" x1="7.64168" y1="13.5465" x2="19.172" y2="35.5522" gradientUnits="userSpaceOnUse"> <stop stop-color="#FFB13C"/> <stop offset="1" stop-color="#E48F0F"/> </linearGradient> </defs> </svg>