<svg viewBox="0 0 1440 65" fill="none" xmlns="http://www.w3.org/2000/svg">
<g clip-path="url(#clip0_10534_32974)">
<rect width="1440" height="65" fill="#00A2E0"/>
<path d="M254.512 0H0V347H1440V315.77C1287.63 254.551 1244.09 315.77 1116.84 265.949C988.897 215.86 967.731 232.921 914.233 205.161C813.803 153.048 717.771 201.26 650.898 183.91C597.399 170.03 547.535 115.245 520.744 91.1825C420.606 -19.8575 311.442 5.06569 254.512 0Z" fill="url(#paint0_linear_10534_32974)"/>
<path d="M1258.36 105H1440V-14.207H412.313L318 -18C426.744 3.03091 517.954 -2.66888 591.183 22.0969C700.13 58.9427 749.358 24.9834 787.538 34.5199C859.212 52.4224 927.747 35.8599 975.473 41.8203C1013.65 46.5885 1049.24 65.4093 1068.36 73.6755C1139.83 111.822 1217.73 103.26 1258.36 105Z" fill="url(#paint1_linear_10534_32974)"/>
<ellipse cx="138.5" cy="61" rx="125.5" ry="96" fill="url(#paint2_linear_10534_32974)"/>
<g filter="url(#filter0_d_10534_32974)">
<ellipse cx="137.5" cy="50" rx="81.5" ry="68" fill="url(#paint3_linear_10534_32974)"/>
<path d="M137.5 118.5C182.699 118.5 219.5 87.9125 219.5 50C219.5 12.0875 182.699 -18.5 137.5 -18.5C92.3013 -18.5 55.5 12.0875 55.5 50C55.5 87.9125 92.3013 118.5 137.5 118.5Z" stroke="url(#paint4_linear_10534_32974)"/>
</g>
<g filter="url(#filter1_d_10534_32974)">
<ellipse cx="374.5" cy="54" rx="22.5" ry="20" fill="url(#paint5_linear_10534_32974)"/>
<path d="M374.5 74.5C387.146 74.5 397.5 65.3756 397.5 54C397.5 42.6244 387.146 33.5 374.5 33.5C361.854 33.5 351.5 42.6244 351.5 54C351.5 65.3756 361.854 74.5 374.5 74.5Z" stroke="url(#paint6_linear_10534_32974)"/>
</g>
<g filter="url(#filter2_d_10534_32974)">
<ellipse cx="1225.5" cy="79" rx="25.5" ry="26" fill="url(#paint7_linear_10534_32974)"/>
<path d="M1225.5 105.5C1239.87 105.5 1251.5 93.6263 1251.5 79C1251.5 64.3737 1239.87 52.5 1225.5 52.5C1211.13 52.5 1199.5 64.3737 1199.5 79C1199.5 93.6263 1211.13 105.5 1225.5 105.5Z" stroke="url(#paint8_linear_10534_32974)"/>
</g>
<g filter="url(#filter3_d_10534_32974)">
<path d="M1048.12 64.096L1103.69 90.3749L1054.99 125.181L1048.12 64.096Z" fill="#7FF2A5" fill-opacity="0.3"/>
</g>
<rect x="1414.83" y="52.4751" width="41" height="39" transform="rotate(-49.403 1414.83 52.4751)" stroke="#7FF2A5" stroke-opacity="0.5" stroke-width="11"/>
</g>
<defs>
<filter id="filter0_d_10534_32974" x="23" y="-51" width="293" height="266" filterUnits="userSpaceOnUse" color-interpolation-filters="sRGB">
<feFlood flood-opacity="0" result="BackgroundImageFix"/>
<feColorMatrix in="SourceAlpha" type="matrix" values="0 0 0 0 0 0 0 0 0 0 0 0 0 0 0 0 0 0 127 0" result="hardAlpha"/>
<feOffset dx="32" dy="32"/>
<feGaussianBlur stdDeviation="32"/>
<feComposite in2="hardAlpha" operator="out"/>
<feColorMatrix type="matrix" values="0 0 0 0 0.203922 0 0 0 0 0.25098 0 0 0 0 0.329412 0 0 0 0.08 0"/>
<feBlend mode="normal" in2="BackgroundImageFix" result="effect1_dropShadow_10534_32974"/>
<feBlend mode="normal" in="SourceGraphic" in2="effect1_dropShadow_10534_32974" result="shape"/>
</filter>
<filter id="filter1_d_10534_32974" x="319" y="1" width="175" height="170" filterUnits="userSpaceOnUse" color-interpolation-filters="sRGB">
<feFlood flood-opacity="0" result="BackgroundImageFix"/>
<feColorMatrix in="SourceAlpha" type="matrix" values="0 0 0 0 0 0 0 0 0 0 0 0 0 0 0 0 0 0 127 0" result="hardAlpha"/>
<feOffset dx="32" dy="32"/>
<feGaussianBlur stdDeviation="32"/>
<feComposite in2="hardAlpha" operator="out"/>
<feColorMatrix type="matrix" values="0 0 0 0 0.203922 0 0 0 0 0.25098 0 0 0 0 0.329412 0 0 0 0.08 0"/>
<feBlend mode="normal" in2="BackgroundImageFix" result="effect1_dropShadow_10534_32974"/>
<feBlend mode="normal" in="SourceGraphic" in2="effect1_dropShadow_10534_32974" result="shape"/>
</filter>
<filter id="filter2_d_10534_32974" x="1167" y="20" width="181" height="182" filterUnits="userSpaceOnUse" color-interpolation-filters="sRGB">
<feFlood flood-opacity="0" result="BackgroundImageFix"/>
<feColorMatrix in="SourceAlpha" type="matrix" values="0 0 0 0 0 0 0 0 0 0 0 0 0 0 0 0 0 0 127 0" result="hardAlpha"/>
<feOffset dx="32" dy="32"/>
<feGaussianBlur stdDeviation="32"/>
<feComposite in2="hardAlpha" operator="out"/>
<feColorMatrix type="matrix" values="0 0 0 0 0.203922 0 0 0 0 0.25098 0 0 0 0 0.329412 0 0 0 0.08 0"/>
<feBlend mode="normal" in2="BackgroundImageFix" result="effect1_dropShadow_10534_32974"/>
<feBlend mode="normal" in="SourceGraphic" in2="effect1_dropShadow_10534_32974" result="shape"/>
</filter>
<filter id="filter3_d_10534_32974" x="996.117" y="44.0957" width="159.57" height="165.086" filterUnits="userSpaceOnUse" color-interpolation-filters="sRGB">
<feFlood flood-opacity="0" result="BackgroundImageFix"/>
<feColorMatrix in="SourceAlpha" type="matrix" values="0 0 0 0 0 0 0 0 0 0 0 0 0 0 0 0 0 0 127 0" result="hardAlpha"/>
<feMorphology radius="12" operator="erode" in="SourceAlpha" result="effect1_dropShadow_10534_32974"/>
<feOffset dy="32"/>
<feGaussianBlur stdDeviation="32"/>
<feColorMatrix type="matrix" values="0 0 0 0 0.0625882 0 0 0 0 0.0926346 0 0 0 0 0.15702 0 0 0 0.14 0"/>
<feBlend mode="normal" in2="BackgroundImageFix" result="effect1_dropShadow_10534_32974"/>
<feBlend mode="normal" in="SourceGraphic" in2="effect1_dropShadow_10534_32974" result="shape"/>
</filter>
<linearGradient id="paint0_linear_10534_32974" x1="0" y1="0" x2="21.5314" y2="419.76" gradientUnits="userSpaceOnUse">
<stop stop-color="#00A2E0"/>
<stop offset="1" stop-color="#30728C"/>
</linearGradient>
<linearGradient id="paint1_linear_10534_32974" x1="1440" y1="105" x2="1436.43" y2="-39.494" gradientUnits="userSpaceOnUse">
<stop stop-color="#00B8FF"/>
<stop offset="1" stop-color="#30728C"/>
</linearGradient>
<linearGradient id="paint2_linear_10534_32974" x1="13" y1="-35" x2="49.9387" y2="191.855" gradientUnits="userSpaceOnUse">
<stop stop-color="#00A2E0"/>
<stop offset="1" stop-color="#30728C"/>
</linearGradient>
<linearGradient id="paint3_linear_10534_32974" x1="56" y1="-18" x2="84.4001" y2="141.906" gradientUnits="userSpaceOnUse">
<stop stop-color="#00A2E0"/>
<stop offset="1" stop-color="#30728C"/>
</linearGradient>
<linearGradient id="paint4_linear_10534_32974" x1="56" y1="-18" x2="84.4001" y2="141.906" gradientUnits="userSpaceOnUse">
<stop stop-color="#00A2E0"/>
<stop offset="1" stop-color="#30728C"/>
</linearGradient>
<linearGradient id="paint5_linear_10534_32974" x1="352" y1="34" x2="360.862" y2="80.8377" gradientUnits="userSpaceOnUse">
<stop stop-color="#00A2E0"/>
<stop offset="1" stop-color="#30728C"/>
</linearGradient>
<linearGradient id="paint6_linear_10534_32974" x1="352" y1="34" x2="360.862" y2="80.8377" gradientUnits="userSpaceOnUse">
<stop stop-color="#00A2E0"/>
<stop offset="1" stop-color="#30728C"/>
</linearGradient>
<linearGradient id="paint7_linear_10534_32974" x1="1200" y1="53" x2="1213.07" y2="113.232" gradientUnits="userSpaceOnUse">
<stop stop-color="#00A2E0"/>
<stop offset="1" stop-color="#30728C"/>
</linearGradient>
<linearGradient id="paint8_linear_10534_32974" x1="1200" y1="53" x2="1213.07" y2="113.232" gradientUnits="userSpaceOnUse">
<stop stop-color="#00A2E0"/>
<stop offset="1" stop-color="#30728C"/>
</linearGradient>
<clipPath id="clip0_10534_32974">
<rect width="1440" height="65" fill="white"/>
</clipPath>
</defs>
</svg>
