<svg width="272" height="48" viewBox="0 0 272 48" fill="none" xmlns="http://www.w3.org/2000/svg">
<path d="M39 13.5H88.3738" stroke="#475467"/>
<line x1="111" y1="13.5" x2="164" y2="13.5" stroke="#475467"/>
<line x1="187" y1="13.5029" x2="236" y2="13.4975" stroke="#475467"/>
<circle cx="28" cy="12" r="11.5" fill="#21A14B" stroke="#21A14B"/>
<path d="M32 9L26.5 14.5L24 12" stroke="white" stroke-width="2" stroke-linecap="round" stroke-linejoin="round"/>
<path d="M1.69602 39H0.298295L3.43892 30.2727H4.96023L8.10085 39H6.70312L4.2358 31.858H4.16761L1.69602 39ZM1.9304 35.5824H6.46449V36.6903H1.9304V35.5824ZM9.36115 39V30.2727H10.6353V33.5156H10.712C10.7859 33.3793 10.8924 33.2216 11.0316 33.0426C11.1708 32.8636 11.364 32.7074 11.6112 32.5739C11.8583 32.4375 12.185 32.3693 12.5913 32.3693C13.1197 32.3693 13.5913 32.5028 14.006 32.7699C14.4208 33.0369 14.7461 33.4219 14.9819 33.9247C15.2205 34.4276 15.3398 35.0327 15.3398 35.7401C15.3398 36.4474 15.2219 37.054 14.9862 37.5597C14.7504 38.0625 14.4265 38.4503 14.0146 38.723C13.6026 38.9929 13.1325 39.1278 12.604 39.1278C12.2063 39.1278 11.881 39.0611 11.6282 38.9276C11.3782 38.794 11.1822 38.6378 11.0401 38.4588C10.8981 38.2798 10.7887 38.1207 10.712 37.9815H10.6055V39H9.36115ZM10.6097 35.7273C10.6097 36.1875 10.6765 36.5909 10.81 36.9375C10.9435 37.2841 11.1367 37.5554 11.3896 37.7514C11.6424 37.9446 11.9521 38.0412 12.3185 38.0412C12.6992 38.0412 13.0174 37.9403 13.2731 37.7386C13.5288 37.5341 13.7219 37.2571 13.8526 36.9077C13.9862 36.5582 14.0529 36.1648 14.0529 35.7273C14.0529 35.2955 13.9876 34.9077 13.8569 34.5639C13.729 34.2202 13.5359 33.9489 13.2773 33.75C13.0217 33.5511 12.7021 33.4517 12.3185 33.4517C11.9492 33.4517 11.6367 33.5469 11.381 33.7372C11.1282 33.9276 10.9364 34.1932 10.8058 34.5341C10.6751 34.875 10.6097 35.2727 10.6097 35.7273ZM19.5277 39.1321C18.9141 39.1321 18.3786 38.9915 17.9212 38.7102C17.4638 38.429 17.1087 38.0355 16.8558 37.5298C16.603 37.0241 16.4766 36.4332 16.4766 35.7571C16.4766 35.0781 16.603 34.4844 16.8558 33.9759C17.1087 33.4673 17.4638 33.0724 17.9212 32.7912C18.3786 32.5099 18.9141 32.3693 19.5277 32.3693C20.1413 32.3693 20.6768 32.5099 21.1342 32.7912C21.5916 33.0724 21.9467 33.4673 22.1996 33.9759C22.4524 34.4844 22.5788 35.0781 22.5788 35.7571C22.5788 36.4332 22.4524 37.0241 22.1996 37.5298C21.9467 38.0355 21.5916 38.429 21.1342 38.7102C20.6768 38.9915 20.1413 39.1321 19.5277 39.1321ZM19.532 38.0625C19.9297 38.0625 20.2592 37.9574 20.5206 37.7472C20.782 37.5369 20.9751 37.2571 21.1001 36.9077C21.228 36.5582 21.2919 36.1733 21.2919 35.7528C21.2919 35.3352 21.228 34.9517 21.1001 34.6023C20.9751 34.25 20.782 33.9673 20.5206 33.7543C20.2592 33.5412 19.9297 33.4347 19.532 33.4347C19.1314 33.4347 18.799 33.5412 18.5348 33.7543C18.2734 33.9673 18.0788 34.25 17.951 34.6023C17.826 34.9517 17.7635 35.3352 17.7635 35.7528C17.7635 36.1733 17.826 36.5582 17.951 36.9077C18.0788 37.2571 18.2734 37.5369 18.5348 37.7472C18.799 37.9574 19.1314 38.0625 19.532 38.0625ZM28.1474 36.2855V32.4545H29.4258V39H28.1729V37.8665H28.1048C27.9542 38.2159 27.7127 38.5071 27.3803 38.7401C27.0508 38.9702 26.6403 39.0852 26.1488 39.0852C25.7283 39.0852 25.3562 38.9929 25.0323 38.8082C24.7113 38.6207 24.4585 38.3438 24.2738 37.9773C24.092 37.6108 24.0011 37.1577 24.0011 36.6179V32.4545H25.2752V36.4645C25.2752 36.9105 25.3988 37.2656 25.646 37.5298C25.8931 37.794 26.2141 37.9261 26.609 37.9261C26.8477 37.9261 27.0849 37.8665 27.3207 37.7472C27.5593 37.6278 27.7567 37.4474 27.913 37.206C28.0721 36.9645 28.1502 36.6577 28.1474 36.2855ZM34.1932 32.4545V33.4773H30.6179V32.4545H34.1932ZM31.5767 30.8864H32.8509V37.0781C32.8509 37.3253 32.8878 37.5114 32.9616 37.6364C33.0355 37.7585 33.1307 37.8423 33.2472 37.8878C33.3665 37.9304 33.4957 37.9517 33.6349 37.9517C33.7372 37.9517 33.8267 37.9446 33.9034 37.9304C33.9801 37.9162 34.0398 37.9048 34.0824 37.8963L34.3125 38.9489C34.2386 38.9773 34.1335 39.0057 33.9972 39.0341C33.8608 39.0653 33.6903 39.0824 33.4858 39.0852C33.1506 39.0909 32.8381 39.0312 32.5483 38.9062C32.2585 38.7812 32.0241 38.5881 31.8452 38.3267C31.6662 38.0653 31.5767 37.7372 31.5767 37.3423V30.8864ZM38.7784 39V32.4545H40.0014V33.5199H40.0824C40.2188 33.1591 40.4418 32.8778 40.7514 32.6761C41.0611 32.4716 41.4318 32.3693 41.8636 32.3693C42.3011 32.3693 42.6676 32.4716 42.9631 32.6761C43.2614 32.8807 43.4815 33.1619 43.6236 33.5199H43.6918C43.848 33.1705 44.0966 32.892 44.4375 32.6847C44.7784 32.4744 45.1847 32.3693 45.6562 32.3693C46.25 32.3693 46.7344 32.5554 47.1094 32.9276C47.4872 33.2997 47.6761 33.8608 47.6761 34.6108V39H46.402V34.7301C46.402 34.2869 46.2813 33.9659 46.0398 33.767C45.7983 33.5682 45.5099 33.4688 45.1747 33.4688C44.7599 33.4688 44.4375 33.5966 44.2074 33.8523C43.9773 34.1051 43.8622 34.4304 43.8622 34.8281V39H42.5923V34.6491C42.5923 34.294 42.4815 34.0085 42.2599 33.7926C42.0384 33.5767 41.75 33.4688 41.3949 33.4688C41.1534 33.4688 40.9304 33.5327 40.7259 33.6605C40.5241 33.7855 40.3608 33.9602 40.2358 34.1847C40.1136 34.4091 40.0526 34.669 40.0526 34.9645V39H38.7784ZM52.2049 39.1321C51.56 39.1321 51.0046 38.9943 50.5387 38.7188C50.0756 38.4403 49.7177 38.0497 49.4648 37.5469C49.2148 37.0412 49.0898 36.4489 49.0898 35.7699C49.0898 35.0994 49.2148 34.5085 49.4648 33.9972C49.7177 33.4858 50.07 33.0866 50.5217 32.7997C50.9762 32.5128 51.5075 32.3693 52.1154 32.3693C52.4847 32.3693 52.8427 32.4304 53.1893 32.5526C53.5359 32.6747 53.8469 32.8665 54.1225 33.1278C54.3981 33.3892 54.6154 33.7287 54.7745 34.1463C54.9336 34.5611 55.0131 35.0653 55.0131 35.6591V36.1108H49.81V35.1562H53.7646C53.7646 34.821 53.6964 34.5241 53.56 34.2656C53.4237 34.0043 53.2319 33.7983 52.9847 33.6477C52.7404 33.4972 52.4535 33.4219 52.1239 33.4219C51.766 33.4219 51.4535 33.5099 51.1864 33.6861C50.9222 33.8594 50.7177 34.0866 50.5728 34.3679C50.4308 34.6463 50.3597 34.9489 50.3597 35.2756V36.0213C50.3597 36.4588 50.4364 36.831 50.5898 37.1378C50.7461 37.4446 50.9634 37.679 51.2418 37.8409C51.5202 38 51.8455 38.0795 52.2177 38.0795C52.4592 38.0795 52.6793 38.0455 52.8782 37.9773C53.0771 37.9062 53.2489 37.8011 53.3938 37.6619C53.5387 37.5227 53.6495 37.3509 53.7262 37.1463L54.9322 37.3636C54.8356 37.7187 54.6623 38.0298 54.4123 38.2969C54.1651 38.5611 53.854 38.767 53.479 38.9148C53.1069 39.0597 52.6822 39.1321 52.2049 39.1321Z" fill="#21A14B"/>
<circle cx="100" cy="12" r="12" fill="#0388BC"/>
<path d="M96.7756 16V14.858L99.8054 11.8878C100.095 11.5952 100.337 11.3352 100.53 11.108C100.723 10.8807 100.868 10.6605 100.964 10.4474C101.061 10.2344 101.109 10.0071 101.109 9.76562C101.109 9.49006 101.047 9.25426 100.922 9.05824C100.797 8.85938 100.625 8.70597 100.406 8.59801C100.188 8.49006 99.9389 8.43608 99.6605 8.43608C99.3736 8.43608 99.1222 8.49574 98.9062 8.61506C98.6903 8.73153 98.5227 8.89773 98.4034 9.11364C98.2869 9.32955 98.2287 9.58665 98.2287 9.88494H96.7244C96.7244 9.33097 96.8509 8.84943 97.1037 8.44034C97.3565 8.03125 97.7045 7.71449 98.1477 7.49006C98.5938 7.26562 99.1051 7.15341 99.6818 7.15341C100.267 7.15341 100.781 7.26278 101.224 7.48153C101.668 7.70028 102.011 8 102.256 8.38068C102.503 8.76136 102.626 9.19602 102.626 9.68466C102.626 10.0114 102.564 10.3324 102.439 10.6477C102.314 10.9631 102.094 11.3125 101.778 11.696C101.466 12.0795 101.027 12.544 100.462 13.0895L98.9574 14.6193V14.679H102.759V16H96.7756Z" fill="white"/>
<path d="M90.7188 32.5653C90.6733 32.1619 90.4858 31.8494 90.1562 31.6278C89.8267 31.4034 89.4119 31.2912 88.9119 31.2912C88.554 31.2912 88.2443 31.348 87.983 31.4616C87.7216 31.5724 87.5185 31.7259 87.3736 31.9219C87.2315 32.1151 87.1605 32.3352 87.1605 32.5824C87.1605 32.7898 87.2088 32.9687 87.3054 33.1193C87.4048 33.2699 87.5341 33.3963 87.6932 33.4986C87.8551 33.598 88.0284 33.6818 88.2131 33.75C88.3977 33.8153 88.5753 33.8693 88.7457 33.9119L89.598 34.1335C89.8764 34.2017 90.1619 34.294 90.4545 34.4105C90.7472 34.527 91.0185 34.6804 91.2685 34.8707C91.5185 35.0611 91.7202 35.2969 91.8736 35.5781C92.0298 35.8594 92.108 36.196 92.108 36.5881C92.108 37.0824 91.9801 37.5213 91.7244 37.9048C91.4716 38.2884 91.1037 38.5909 90.6207 38.8125C90.1406 39.0341 89.5597 39.1449 88.8778 39.1449C88.2244 39.1449 87.6591 39.0412 87.1818 38.8338C86.7045 38.6264 86.331 38.3324 86.0611 37.9517C85.7912 37.5682 85.642 37.1136 85.6136 36.5881H86.9347C86.9602 36.9034 87.0625 37.1662 87.2415 37.3764C87.4233 37.5838 87.6548 37.7386 87.9361 37.8409C88.2202 37.9403 88.5312 37.9901 88.8693 37.9901C89.2415 37.9901 89.5724 37.9318 89.8622 37.8153C90.1548 37.696 90.3849 37.5312 90.5526 37.321C90.7202 37.108 90.804 36.8594 90.804 36.5753C90.804 36.3168 90.7301 36.1051 90.5824 35.9403C90.4375 35.7756 90.2401 35.6392 89.9901 35.5312C89.7429 35.4233 89.4631 35.3281 89.1506 35.2457L88.1193 34.9645C87.4205 34.7741 86.8665 34.4943 86.4574 34.125C86.0511 33.7557 85.848 33.267 85.848 32.6591C85.848 32.1562 85.9844 31.7173 86.2571 31.3423C86.5298 30.9673 86.8991 30.6761 87.3651 30.4688C87.831 30.2585 88.3565 30.1534 88.9418 30.1534C89.5327 30.1534 90.054 30.2571 90.5057 30.4645C90.9602 30.6719 91.3182 30.9574 91.5795 31.321C91.8409 31.6818 91.9773 32.0966 91.9886 32.5653H90.7188ZM94.7511 36.7798L94.7425 35.2244H94.9641L97.5721 32.4545H99.0977L96.1232 35.608H95.9229L94.7511 36.7798ZM93.5792 39V30.2727H94.8533V39H93.5792ZM97.7127 39L95.369 35.8892L96.2468 34.9986L99.2766 39H97.7127ZM100.259 39V32.4545H101.533V39H100.259ZM100.902 31.4446C100.681 31.4446 100.49 31.3707 100.331 31.223C100.175 31.0724 100.097 30.8935 100.097 30.6861C100.097 30.4759 100.175 30.2969 100.331 30.1491C100.49 29.9986 100.681 29.9233 100.902 29.9233C101.124 29.9233 101.313 29.9986 101.469 30.1491C101.628 30.2969 101.708 30.4759 101.708 30.6861C101.708 30.8935 101.628 31.0724 101.469 31.223C101.313 31.3707 101.124 31.4446 100.902 31.4446ZM104.521 30.2727V39H103.247V30.2727H104.521ZM107.51 30.2727V39H106.235V30.2727H107.51ZM114.129 34.0526L112.974 34.2571C112.925 34.1094 112.849 33.9687 112.744 33.8352C112.641 33.7017 112.502 33.5923 112.326 33.5071C112.15 33.4219 111.93 33.3793 111.665 33.3793C111.305 33.3793 111.004 33.4602 110.762 33.6222C110.521 33.7812 110.4 33.9872 110.4 34.2401C110.4 34.4588 110.481 34.6349 110.643 34.7685C110.805 34.902 111.066 35.0114 111.427 35.0966L112.467 35.3352C113.069 35.4744 113.518 35.6889 113.813 35.9787C114.109 36.2685 114.256 36.6449 114.256 37.108C114.256 37.5 114.143 37.8494 113.915 38.1562C113.691 38.4602 113.377 38.6989 112.974 38.8722C112.573 39.0455 112.109 39.1321 111.58 39.1321C110.847 39.1321 110.249 38.9759 109.786 38.6634C109.323 38.348 109.039 37.9006 108.934 37.321L110.165 37.1335C110.242 37.4545 110.4 37.6974 110.638 37.8622C110.877 38.0241 111.188 38.1051 111.572 38.1051C111.989 38.1051 112.323 38.0185 112.573 37.8452C112.823 37.669 112.948 37.4545 112.948 37.2017C112.948 36.9972 112.871 36.8253 112.718 36.6861C112.567 36.5469 112.336 36.4418 112.023 36.3707L110.915 36.1278C110.305 35.9886 109.853 35.767 109.56 35.4631C109.271 35.1591 109.126 34.7741 109.126 34.3082C109.126 33.9219 109.234 33.5838 109.45 33.294C109.665 33.0043 109.964 32.7784 110.344 32.6165C110.725 32.4517 111.161 32.3693 111.653 32.3693C112.36 32.3693 112.917 32.5227 113.323 32.8295C113.729 33.1335 113.998 33.5412 114.129 34.0526Z" fill="#0388BC"/>
<circle cx="175.5" cy="12" r="11.5" stroke="#98A2B3"/>
<path d="M175.408 16.1193C174.794 16.1193 174.249 16.0142 173.771 15.804C173.297 15.5937 172.922 15.3011 172.646 14.9261C172.371 14.5511 172.224 14.1179 172.207 13.6264H173.81C173.824 13.8622 173.902 14.0682 174.044 14.2443C174.186 14.4176 174.375 14.5526 174.611 14.6491C174.847 14.7457 175.111 14.794 175.403 14.794C175.716 14.794 175.993 14.7401 176.234 14.6321C176.476 14.5213 176.665 14.3679 176.801 14.1719C176.938 13.9759 177.004 13.75 177.001 13.4943C177.004 13.2301 176.936 12.9972 176.797 12.7955C176.658 12.5937 176.456 12.4361 176.192 12.3224C175.93 12.2088 175.615 12.152 175.246 12.152H174.474V10.9332H175.246C175.55 10.9332 175.815 10.8807 176.043 10.7756C176.273 10.6705 176.453 10.5227 176.584 10.3324C176.714 10.1392 176.778 9.91619 176.776 9.66335C176.778 9.41619 176.723 9.2017 176.609 9.01989C176.499 8.83523 176.341 8.69176 176.136 8.58949C175.935 8.48722 175.697 8.43608 175.425 8.43608C175.158 8.43608 174.911 8.48437 174.683 8.58097C174.456 8.67756 174.273 8.81534 174.134 8.99432C173.994 9.17045 173.92 9.38068 173.912 9.625H172.391C172.402 9.13636 172.543 8.70739 172.812 8.33807C173.085 7.96591 173.449 7.67614 173.903 7.46875C174.358 7.25852 174.868 7.15341 175.433 7.15341C176.016 7.15341 176.521 7.26278 176.95 7.48153C177.382 7.69744 177.716 7.98864 177.952 8.35511C178.188 8.72159 178.305 9.12642 178.305 9.5696C178.308 10.0611 178.163 10.473 177.871 10.8054C177.581 11.1378 177.2 11.3551 176.729 11.4574V11.5256C177.342 11.6108 177.813 11.8381 178.139 12.2074C178.469 12.5739 178.632 13.0298 178.629 13.5753C178.629 14.0639 178.49 14.5014 178.212 14.8878C177.936 15.2713 177.555 15.5724 177.07 15.7912C176.587 16.0099 176.033 16.1193 175.408 16.1193Z" fill="#98A2B3"/>
<path d="M145.057 39V30.2727H150.324V31.2102H146.114V34.1591H150.051V35.0966H146.114V38.0625H150.392V39H145.057ZM152.842 32.4545L154.411 35.1307L155.979 32.4545H157.138L155.024 35.7273L157.138 39H155.979L154.411 36.4602L152.842 39H151.683L153.763 35.7273L151.683 32.4545H152.842ZM158.573 41.4545V32.4545H159.544V33.4943H159.664C159.738 33.3807 159.84 33.2358 159.971 33.0597C160.104 32.8807 160.294 32.7216 160.542 32.5824C160.792 32.4403 161.13 32.3693 161.556 32.3693C162.107 32.3693 162.593 32.5071 163.013 32.7827C163.434 33.0582 163.762 33.4489 163.998 33.9545C164.233 34.4602 164.351 35.0568 164.351 35.7443C164.351 36.4375 164.233 37.0384 163.998 37.5469C163.762 38.0526 163.435 38.4446 163.017 38.723C162.6 38.9986 162.118 39.1364 161.573 39.1364C161.152 39.1364 160.816 39.0668 160.563 38.9276C160.31 38.7855 160.115 38.625 159.979 38.446C159.843 38.2642 159.738 38.1136 159.664 37.9943H159.578V41.4545H158.573ZM159.561 35.7273C159.561 36.2216 159.634 36.6577 159.779 37.0355C159.924 37.4105 160.135 37.7045 160.414 37.9176C160.692 38.1278 161.033 38.233 161.436 38.233C161.857 38.233 162.208 38.1222 162.489 37.9006C162.773 37.6761 162.986 37.375 163.128 36.9972C163.273 36.6165 163.346 36.1932 163.346 35.7273C163.346 35.267 163.275 34.8523 163.132 34.483C162.993 34.1108 162.782 33.8168 162.498 33.6009C162.216 33.3821 161.863 33.2727 161.436 33.2727C161.027 33.2727 160.684 33.3764 160.405 33.5838C160.127 33.7884 159.917 34.0753 159.775 34.4446C159.632 34.8111 159.561 35.2386 159.561 35.7273ZM168.63 39.1364C167.999 39.1364 167.455 38.9972 166.998 38.7188C166.543 38.4375 166.192 38.0455 165.945 37.5426C165.701 37.0369 165.578 36.4489 165.578 35.7784C165.578 35.108 165.701 34.517 165.945 34.0057C166.192 33.4915 166.536 33.0909 166.976 32.804C167.419 32.5142 167.936 32.3693 168.527 32.3693C168.868 32.3693 169.205 32.4261 169.537 32.5398C169.87 32.6534 170.172 32.8381 170.445 33.0938C170.718 33.3466 170.935 33.6818 171.097 34.0994C171.259 34.517 171.34 35.0312 171.34 35.642V36.0682H166.294V35.1989H170.317C170.317 34.8295 170.243 34.5 170.096 34.2102C169.951 33.9205 169.743 33.6918 169.473 33.5241C169.206 33.3565 168.891 33.2727 168.527 33.2727C168.127 33.2727 167.78 33.3722 167.488 33.571C167.198 33.767 166.975 34.0227 166.819 34.3381C166.662 34.6534 166.584 34.9915 166.584 35.3523V35.9318C166.584 36.4261 166.669 36.8452 166.84 37.1889C167.013 37.5298 167.253 37.7898 167.56 37.9688C167.867 38.1449 168.223 38.233 168.63 38.233C168.894 38.233 169.132 38.196 169.346 38.1222C169.561 38.0455 169.748 37.9318 169.904 37.7812C170.06 37.6278 170.181 37.4375 170.266 37.2102L171.238 37.483C171.135 37.8125 170.963 38.1023 170.722 38.3523C170.48 38.5994 170.182 38.7926 169.827 38.9318C169.472 39.0682 169.073 39.1364 168.63 39.1364ZM172.87 39V32.4545H173.841V33.4432H173.909C174.029 33.1193 174.245 32.8565 174.557 32.6548C174.87 32.4531 175.222 32.3523 175.614 32.3523C175.688 32.3523 175.78 32.3537 175.891 32.3565C176.002 32.3594 176.086 32.3636 176.142 32.3693V33.392C176.108 33.3835 176.03 33.3707 175.908 33.3537C175.789 33.3338 175.662 33.3239 175.529 33.3239C175.211 33.3239 174.926 33.3906 174.676 33.5241C174.429 33.6548 174.233 33.8366 174.088 34.0696C173.946 34.2997 173.875 34.5625 173.875 34.858V39H172.87ZM177.335 39V32.4545H178.34V39H177.335ZM177.846 31.3636C177.65 31.3636 177.481 31.2969 177.339 31.1634C177.2 31.0298 177.13 30.8693 177.13 30.6818C177.13 30.4943 177.2 30.3338 177.339 30.2003C177.481 30.0668 177.65 30 177.846 30C178.042 30 178.21 30.0668 178.349 30.2003C178.491 30.3338 178.562 30.4943 178.562 30.6818C178.562 30.8693 178.491 31.0298 178.349 31.1634C178.21 31.2969 178.042 31.3636 177.846 31.3636ZM182.926 39.1364C182.296 39.1364 181.752 38.9972 181.294 38.7188C180.84 38.4375 180.489 38.0455 180.242 37.5426C179.998 37.0369 179.875 36.4489 179.875 35.7784C179.875 35.108 179.998 34.517 180.242 34.0057C180.489 33.4915 180.833 33.0909 181.273 32.804C181.716 32.5142 182.233 32.3693 182.824 32.3693C183.165 32.3693 183.502 32.4261 183.834 32.5398C184.167 32.6534 184.469 32.8381 184.742 33.0938C185.015 33.3466 185.232 33.6818 185.394 34.0994C185.556 34.517 185.637 35.0312 185.637 35.642V36.0682H180.591V35.1989H184.614C184.614 34.8295 184.54 34.5 184.392 34.2102C184.248 33.9205 184.04 33.6918 183.77 33.5241C183.503 33.3565 183.188 33.2727 182.824 33.2727C182.424 33.2727 182.077 33.3722 181.784 33.571C181.495 33.767 181.272 34.0227 181.115 34.3381C180.959 34.6534 180.881 34.9915 180.881 35.3523V35.9318C180.881 36.4261 180.966 36.8452 181.137 37.1889C181.31 37.5298 181.55 37.7898 181.857 37.9688C182.164 38.1449 182.52 38.233 182.926 38.233C183.191 38.233 183.429 38.196 183.642 38.1222C183.858 38.0455 184.044 37.9318 184.201 37.7812C184.357 37.6278 184.478 37.4375 184.563 37.2102L185.534 37.483C185.432 37.8125 185.26 38.1023 185.019 38.3523C184.777 38.5994 184.479 38.7926 184.124 38.9318C183.769 39.0682 183.37 39.1364 182.926 39.1364ZM188.172 35.0625V39H187.167V32.4545H188.138V33.4773H188.223C188.377 33.1449 188.61 32.8778 188.922 32.6761C189.235 32.4716 189.638 32.3693 190.132 32.3693C190.576 32.3693 190.963 32.4602 191.296 32.642C191.628 32.821 191.887 33.0938 192.071 33.4602C192.256 33.8239 192.348 34.2841 192.348 34.8409V39H191.343V34.9091C191.343 34.3949 191.209 33.9943 190.942 33.7074C190.675 33.4176 190.309 33.2727 189.843 33.2727C189.522 33.2727 189.235 33.3423 188.982 33.4815C188.732 33.6207 188.534 33.8239 188.39 34.0909C188.245 34.358 188.172 34.6818 188.172 35.0625ZM196.845 39.1364C196.232 39.1364 195.703 38.9915 195.26 38.7017C194.817 38.4119 194.476 38.0128 194.237 37.5043C193.999 36.9957 193.879 36.4148 193.879 35.7614C193.879 35.0966 194.001 34.5099 194.246 34.0014C194.493 33.4901 194.837 33.0909 195.277 32.804C195.72 32.5142 196.237 32.3693 196.828 32.3693C197.288 32.3693 197.703 32.4545 198.072 32.625C198.442 32.7955 198.744 33.0341 198.98 33.3409C199.216 33.6477 199.362 34.0057 199.419 34.4148H198.413C198.337 34.1165 198.166 33.8523 197.902 33.6222C197.641 33.3892 197.288 33.2727 196.845 33.2727C196.453 33.2727 196.109 33.375 195.814 33.5795C195.521 33.7812 195.293 34.0668 195.128 34.4361C194.966 34.8026 194.885 35.233 194.885 35.7273C194.885 36.233 194.964 36.6733 195.124 37.0483C195.286 37.4233 195.513 37.7145 195.805 37.9219C196.101 38.1293 196.447 38.233 196.845 38.233C197.107 38.233 197.344 38.1875 197.557 38.0966C197.77 38.0057 197.95 37.875 198.098 37.7045C198.246 37.5341 198.351 37.3295 198.413 37.0909H199.419C199.362 37.4773 199.222 37.8253 198.997 38.1349C198.776 38.4418 198.482 38.6861 198.115 38.8679C197.751 39.0469 197.328 39.1364 196.845 39.1364ZM203.634 39.1364C203.003 39.1364 202.459 38.9972 202.001 38.7188C201.547 38.4375 201.196 38.0455 200.949 37.5426C200.705 37.0369 200.582 36.4489 200.582 35.7784C200.582 35.108 200.705 34.517 200.949 34.0057C201.196 33.4915 201.54 33.0909 201.98 32.804C202.423 32.5142 202.94 32.3693 203.531 32.3693C203.872 32.3693 204.209 32.4261 204.541 32.5398C204.874 32.6534 205.176 32.8381 205.449 33.0938C205.722 33.3466 205.939 33.6818 206.101 34.0994C206.263 34.517 206.344 35.0312 206.344 35.642V36.0682H201.298V35.1989H205.321C205.321 34.8295 205.247 34.5 205.099 34.2102C204.955 33.9205 204.747 33.6918 204.477 33.5241C204.21 33.3565 203.895 33.2727 203.531 33.2727C203.131 33.2727 202.784 33.3722 202.491 33.571C202.202 33.767 201.979 34.0227 201.822 34.3381C201.666 34.6534 201.588 34.9915 201.588 35.3523V35.9318C201.588 36.4261 201.673 36.8452 201.844 37.1889C202.017 37.5298 202.257 37.7898 202.564 37.9688C202.871 38.1449 203.227 38.233 203.634 38.233C203.898 38.233 204.136 38.196 204.349 38.1222C204.565 38.0455 204.751 37.9318 204.908 37.7812C205.064 37.6278 205.185 37.4375 205.27 37.2102L206.241 37.483C206.139 37.8125 205.967 38.1023 205.726 38.3523C205.484 38.5994 205.186 38.7926 204.831 38.9318C204.476 39.0682 204.077 39.1364 203.634 39.1364Z" fill="#98A2B3"/>
<circle cx="247.5" cy="12" r="11.5" stroke="#98A2B3"/>
<path d="M244.118 14.3807V13.1236L247.821 7.27273H248.869V9.0625H248.23L245.737 13.0128V13.081H250.906V14.3807H244.118ZM248.281 16V13.9972L248.298 13.4347V7.27273H249.79V16H248.281Z" fill="#98A2B3"/>
<path d="M224.057 39V30.2727H225.114V38.0625H229.17V39H224.057ZM233.33 39.1364C232.739 39.1364 232.22 38.9957 231.774 38.7145C231.331 38.4332 230.984 38.0398 230.734 37.5341C230.487 37.0284 230.364 36.4375 230.364 35.7614C230.364 35.0795 230.487 34.4844 230.734 33.9759C230.984 33.4673 231.331 33.0724 231.774 32.7912C232.22 32.5099 232.739 32.3693 233.33 32.3693C233.92 32.3693 234.438 32.5099 234.881 32.7912C235.327 33.0724 235.673 33.4673 235.92 33.9759C236.17 34.4844 236.295 35.0795 236.295 35.7614C236.295 36.4375 236.17 37.0284 235.92 37.5341C235.673 38.0398 235.327 38.4332 234.881 38.7145C234.438 38.9957 233.92 39.1364 233.33 39.1364ZM233.33 38.233C233.778 38.233 234.148 38.1179 234.438 37.8878C234.727 37.6577 234.942 37.3551 235.081 36.9801C235.22 36.6051 235.29 36.1989 235.29 35.7614C235.29 35.3239 235.22 34.9162 235.081 34.5384C234.942 34.1605 234.727 33.8551 234.438 33.6222C234.148 33.3892 233.778 33.2727 233.33 33.2727C232.881 33.2727 232.511 33.3892 232.222 33.6222C231.932 33.8551 231.717 34.1605 231.578 34.5384C231.439 34.9162 231.369 35.3239 231.369 35.7614C231.369 36.1989 231.439 36.6051 231.578 36.9801C231.717 37.3551 231.932 37.6577 232.222 37.8878C232.511 38.1179 232.881 38.233 233.33 38.233ZM240.49 39.1364C239.876 39.1364 239.348 38.9915 238.904 38.7017C238.461 38.4119 238.12 38.0128 237.882 37.5043C237.643 36.9957 237.524 36.4148 237.524 35.7614C237.524 35.0966 237.646 34.5099 237.89 34.0014C238.137 33.4901 238.481 33.0909 238.922 32.804C239.365 32.5142 239.882 32.3693 240.473 32.3693C240.933 32.3693 241.348 32.4545 241.717 32.625C242.086 32.7955 242.389 33.0341 242.625 33.3409C242.86 33.6477 243.007 34.0057 243.064 34.4148H242.058C241.981 34.1165 241.811 33.8523 241.547 33.6222C241.285 33.3892 240.933 33.2727 240.49 33.2727C240.098 33.2727 239.754 33.375 239.458 33.5795C239.166 33.7812 238.937 34.0668 238.772 34.4361C238.61 34.8026 238.529 35.233 238.529 35.7273C238.529 36.233 238.609 36.6733 238.768 37.0483C238.93 37.4233 239.157 37.7145 239.45 37.9219C239.745 38.1293 240.092 38.233 240.49 38.233C240.751 38.233 240.988 38.1875 241.201 38.0966C241.414 38.0057 241.595 37.875 241.743 37.7045C241.89 37.5341 241.995 37.3295 242.058 37.0909H243.064C243.007 37.4773 242.866 37.8253 242.642 38.1349C242.42 38.4418 242.126 38.6861 241.76 38.8679C241.396 39.0469 240.973 39.1364 240.49 39.1364ZM246.46 39.1534C246.045 39.1534 245.669 39.0753 245.331 38.919C244.993 38.7599 244.724 38.5312 244.525 38.233C244.326 37.9318 244.227 37.5682 244.227 37.142C244.227 36.767 244.301 36.4631 244.449 36.2301C244.596 35.9943 244.794 35.8097 245.041 35.6761C245.288 35.5426 245.561 35.4432 245.859 35.3778C246.16 35.3097 246.463 35.2557 246.767 35.2159C247.164 35.1648 247.487 35.1264 247.734 35.1009C247.984 35.0724 248.166 35.0256 248.279 34.9602C248.396 34.8949 248.454 34.7812 248.454 34.6193V34.5852C248.454 34.1648 248.339 33.8381 248.109 33.6051C247.882 33.3722 247.537 33.2557 247.074 33.2557C246.593 33.2557 246.217 33.3608 245.944 33.571C245.672 33.7812 245.48 34.0057 245.369 34.2443L244.414 33.9034C244.585 33.5057 244.812 33.196 245.096 32.9744C245.383 32.75 245.696 32.5937 246.034 32.5057C246.375 32.4148 246.71 32.3693 247.039 32.3693C247.25 32.3693 247.491 32.3949 247.764 32.446C248.039 32.4943 248.305 32.5952 248.561 32.7486C248.819 32.902 249.034 33.1335 249.204 33.4432C249.375 33.7528 249.46 34.1676 249.46 34.6875V39H248.454V38.1136H248.403C248.335 38.2557 248.221 38.4077 248.062 38.5696C247.903 38.7315 247.691 38.8693 247.427 38.983C247.163 39.0966 246.841 39.1534 246.46 39.1534ZM246.613 38.25C247.011 38.25 247.346 38.1719 247.619 38.0156C247.895 37.8594 248.102 37.6577 248.241 37.4105C248.383 37.1634 248.454 36.9034 248.454 36.6307V35.7102C248.412 35.7614 248.318 35.8082 248.173 35.8509C248.031 35.8906 247.866 35.9261 247.679 35.9574C247.494 35.9858 247.314 36.0114 247.137 36.0341C246.964 36.054 246.824 36.071 246.716 36.0852C246.454 36.1193 246.21 36.1747 245.983 36.2514C245.758 36.3253 245.576 36.4375 245.437 36.5881C245.301 36.7358 245.233 36.9375 245.233 37.1932C245.233 37.5426 245.362 37.8068 245.62 37.9858C245.882 38.1619 246.213 38.25 246.613 38.25ZM254.142 32.4545V33.3068H250.75V32.4545H254.142ZM251.739 30.8864H252.744V37.125C252.744 37.4091 252.786 37.6222 252.868 37.7642C252.953 37.9034 253.061 37.9972 253.192 38.0455C253.325 38.0909 253.466 38.1136 253.614 38.1136C253.724 38.1136 253.815 38.108 253.886 38.0966C253.957 38.0824 254.014 38.071 254.057 38.0625L254.261 38.9659C254.193 38.9915 254.098 39.017 253.976 39.0426C253.854 39.071 253.699 39.0852 253.511 39.0852C253.227 39.0852 252.949 39.0241 252.676 38.902C252.406 38.7798 252.182 38.5938 252.003 38.3438C251.827 38.0938 251.739 37.7784 251.739 37.3977V30.8864ZM255.655 39V32.4545H256.661V39H255.655ZM256.166 31.3636C255.97 31.3636 255.801 31.2969 255.659 31.1634C255.52 31.0298 255.45 30.8693 255.45 30.6818C255.45 30.4943 255.52 30.3338 255.659 30.2003C255.801 30.0668 255.97 30 256.166 30C256.362 30 256.53 30.0668 256.669 30.2003C256.811 30.3338 256.882 30.4943 256.882 30.6818C256.882 30.8693 256.811 31.0298 256.669 31.1634C256.53 31.2969 256.362 31.3636 256.166 31.3636ZM261.162 39.1364C260.571 39.1364 260.052 38.9957 259.606 38.7145C259.163 38.4332 258.816 38.0398 258.566 37.5341C258.319 37.0284 258.196 36.4375 258.196 35.7614C258.196 35.0795 258.319 34.4844 258.566 33.9759C258.816 33.4673 259.163 33.0724 259.606 32.7912C260.052 32.5099 260.571 32.3693 261.162 32.3693C261.752 32.3693 262.27 32.5099 262.713 32.7912C263.159 33.0724 263.505 33.4673 263.752 33.9759C264.002 34.4844 264.127 35.0795 264.127 35.7614C264.127 36.4375 264.002 37.0284 263.752 37.5341C263.505 38.0398 263.159 38.4332 262.713 38.7145C262.27 38.9957 261.752 39.1364 261.162 39.1364ZM261.162 38.233C261.61 38.233 261.98 38.1179 262.27 37.8878C262.559 37.6577 262.774 37.3551 262.913 36.9801C263.052 36.6051 263.122 36.1989 263.122 35.7614C263.122 35.3239 263.052 34.9162 262.913 34.5384C262.774 34.1605 262.559 33.8551 262.27 33.6222C261.98 33.3892 261.61 33.2727 261.162 33.2727C260.713 33.2727 260.343 33.3892 260.054 33.6222C259.764 33.8551 259.549 34.1605 259.41 34.5384C259.271 34.9162 259.201 35.3239 259.201 35.7614C259.201 36.1989 259.271 36.6051 259.41 36.9801C259.549 37.3551 259.764 37.6577 260.054 37.8878C260.343 38.1179 260.713 38.233 261.162 38.233ZM266.668 35.0625V39H265.663V32.4545H266.634V33.4773H266.719C266.873 33.1449 267.106 32.8778 267.418 32.6761C267.731 32.4716 268.134 32.3693 268.629 32.3693C269.072 32.3693 269.46 32.4602 269.792 32.642C270.124 32.821 270.383 33.0938 270.567 33.4602C270.752 33.8239 270.844 34.2841 270.844 34.8409V39H269.839V34.9091C269.839 34.3949 269.705 33.9943 269.438 33.7074C269.171 33.4176 268.805 33.2727 268.339 33.2727C268.018 33.2727 267.731 33.3423 267.478 33.4815C267.228 33.6207 267.031 33.8239 266.886 34.0909C266.741 34.358 266.668 34.6818 266.668 35.0625Z" fill="#98A2B3"/>
</svg>
