<svg width="70" height="50" viewBox="0 0 70 50" fill="none" xmlns="http://www.w3.org/2000/svg">
<g clip-path="url(#clip0_6896_23908)">
<path d="M46.1775 17.3966C46.2853 17.3153 46.4017 17.2747 46.5192 17.2775C46.6366 17.2803 46.7523 17.3264 46.8588 17.4129C46.9653 17.4993 47.0602 17.6241 47.1372 17.7791C47.2142 17.934 47.2716 18.1157 47.3056 18.3121C47.3162 18.3744 47.3243 18.4379 47.3298 18.5022L50.6585 21.3871L51.4288 20.4949L52.3873 22.4235L51.2111 24.0932C51.0696 24.2924 50.8952 24.4066 50.7137 24.4188C50.5321 24.4311 50.3532 24.3407 50.2034 24.1611L46.8262 20.0791C46.801 20.0977 46.7754 20.1141 46.7493 20.1281C46.6369 20.1875 46.5186 20.2048 46.4021 20.1787C46.2856 20.1526 46.1736 20.0838 46.0734 19.9768C45.9731 19.8698 45.887 19.7269 45.8206 19.5577C45.7541 19.3884 45.7089 19.1965 45.6879 18.9946C45.6817 18.936 45.6775 18.8767 45.6756 18.8172C45.6662 18.5192 45.7093 18.2232 45.799 17.9693C45.8888 17.7153 46.0208 17.5154 46.1775 17.3966Z" fill="#EDC9BE"/>
<path d="M4.90869 26.3548C4.90869 26.5831 4.96057 26.802 5.05292 26.9634C5.14527 27.1248 5.27052 27.2155 5.40112 27.2155H6.20482L6.34809 27.6693V47.8053C6.34809 48.0336 6.39997 48.2525 6.49231 48.4139C6.58466 48.5753 6.70991 48.666 6.84051 48.666C6.97111 48.666 7.09636 48.5753 7.18871 48.4139C7.28105 48.2525 7.33293 48.0336 7.33293 47.8053V27.2155H34.2952L34.3026 47.8053C34.3026 48.0336 34.3545 48.2525 34.4469 48.4139C34.5392 48.5753 34.6645 48.666 34.7951 48.666C34.9257 48.666 35.0509 48.5753 35.1433 48.4139C35.2356 48.2525 35.2875 48.0336 35.2875 47.8053V27.2155H36.1587C36.2893 27.2155 36.4145 27.1248 36.5069 26.9634C36.5992 26.802 36.6511 26.5831 36.6511 26.3548C36.6511 26.1265 36.5992 25.9076 36.5069 25.7462C36.4145 25.5848 36.2893 25.4941 36.1587 25.4941H5.40112C5.33645 25.4941 5.27242 25.5164 5.21267 25.5597C5.15293 25.6029 5.09865 25.6663 5.05292 25.7462C5.00719 25.8261 4.97092 25.921 4.94617 26.0254C4.92143 26.1299 4.90869 26.2418 4.90869 26.3548Z" fill="#E5E5E5"/>
<path d="M16.189 38.522V35.3441C16.189 35.2036 16.157 35.0689 16.1002 34.9696C16.0434 34.8703 15.9663 34.8145 15.8859 34.8145H8.992C8.91163 34.8145 8.83455 34.8703 8.77772 34.9696C8.72089 35.0689 8.68897 35.2036 8.68896 35.3441V38.522H16.189Z" fill="#E5E5E5"/>
<path d="M16.189 39.7148H8.68896V43.8196H16.189V39.7148Z" fill="#E5E5E5"/>
<path d="M8.68896 45.0117V48.1896C8.68897 48.33 8.72089 48.4648 8.77772 48.5641C8.83455 48.6634 8.91163 48.7192 8.992 48.7192H15.8859C15.9663 48.7192 16.0434 48.6634 16.1002 48.5641C16.157 48.4648 16.189 48.33 16.189 48.1896V45.0117H8.68896Z" fill="#E5E5E5"/>
<path d="M12.4773 37.1988C12.6028 37.1988 12.7045 37.0209 12.7045 36.8015C12.7045 36.5821 12.6028 36.4043 12.4773 36.4043C12.3518 36.4043 12.25 36.5821 12.25 36.8015C12.25 37.0209 12.3518 37.1988 12.4773 37.1988Z" fill="#FCFCFD"/>
<path d="M12.4773 42.4956C12.6028 42.4956 12.7045 42.3178 12.7045 42.0984C12.7045 41.879 12.6028 41.7012 12.4773 41.7012C12.3518 41.7012 12.25 41.879 12.25 42.0984C12.25 42.3178 12.3518 42.4956 12.4773 42.4956Z" fill="#FCFCFD"/>
<path d="M12.4651 47.6792C12.5906 47.6792 12.6923 47.5014 12.6923 47.282C12.6923 47.0626 12.5906 46.8848 12.4651 46.8848C12.3395 46.8848 12.2378 47.0626 12.2378 47.282C12.2378 47.5014 12.3395 47.6792 12.4651 47.6792Z" fill="#FCFCFD"/>
<path d="M7.27295 24.3729V25.4242C7.27527 25.4815 7.2904 25.5349 7.31508 25.5728C7.33975 25.6107 7.37198 25.6301 7.40479 25.6268H9.78508C9.80767 25.6268 9.82996 25.6178 9.85022 25.6003L10.451 25.0746C10.4708 25.06 10.4876 25.0354 10.4995 25.0041C10.5113 24.9728 10.5176 24.9361 10.5176 24.8985C10.5176 24.861 10.5113 24.8243 10.4995 24.793C10.4876 24.7617 10.4708 24.7371 10.451 24.7224L9.85022 24.1968C9.82996 24.1793 9.80767 24.1703 9.78508 24.1703H7.40479C7.37198 24.167 7.33975 24.1864 7.31508 24.2243C7.2904 24.2622 7.27527 24.3156 7.27295 24.3729Z" fill="#3F3D56"/>
<path d="M7.40479 24.1703H7.87901V25.6268H7.40479C7.37198 25.6301 7.33975 25.6107 7.31508 25.5728C7.2904 25.5349 7.27527 25.4815 7.27295 25.4242V24.3729C7.27527 24.3156 7.2904 24.2622 7.31508 24.2243C7.33975 24.1864 7.37198 24.167 7.40479 24.1703Z" fill="#0175A2"/>
<path d="M64.5034 37.1747C64.1997 37.3613 63.8736 37.408 63.5566 37.3104C63.2395 37.2128 62.9422 36.9741 62.6932 36.6173C62.0592 35.6872 61.8604 34.1548 61.6986 32.7359C61.5392 31.337 61.3797 29.938 61.2202 28.5391L62.2218 29.7445C62.9422 30.6114 63.6787 31.506 64.1774 32.7617C64.6762 34.0173 64.8939 35.7313 64.4931 37.09" fill="#E6E6E6"/>
<path d="M64.4176 42.2559C64.519 40.9653 64.6232 39.658 64.5521 38.3535C64.4889 37.195 64.2867 36.0634 63.875 35.1356C63.6565 34.6441 63.3906 34.2229 63.0892 33.8911C63.0107 33.8044 62.9383 34.0221 63.0166 34.1084C63.538 34.6843 63.9413 35.5348 64.1683 36.5372C64.419 37.6519 64.4593 38.867 64.4161 40.0511C64.3899 40.7672 64.3346 41.4785 64.2788 42.189C64.2744 42.2211 64.2771 42.255 64.2864 42.2837C64.2958 42.3125 64.311 42.3339 64.329 42.3438C64.3474 42.3525 64.3671 42.3481 64.3836 42.3316C64.4002 42.3152 64.4124 42.288 64.4176 42.2559Z" fill="#F2F2F2"/>
<path d="M63.4412 39.9727C63.311 40.3187 63.1319 40.6003 62.9213 40.7902C62.7107 40.9802 62.4757 41.0722 62.2389 41.0573C61.6302 41.0068 61.1228 40.2643 60.666 39.5594L59.3149 37.4745L60.2091 37.3997C60.8522 37.3459 61.5118 37.2957 62.1243 37.6423C62.7368 37.9889 63.3016 38.823 63.4136 39.9311" fill="#E6E6E6"/>
<path d="M64.704 42.998C64.2161 41.489 63.6501 39.8118 62.6388 39.2758C62.3576 39.1272 62.0628 39.074 61.7702 39.119C61.6779 39.1329 61.701 39.3814 61.793 39.3675C62.2835 39.2963 62.7731 39.5227 63.1793 40.0085C63.5702 40.4735 63.8745 41.12 64.1321 41.8056C64.2899 42.2256 64.4312 42.6633 64.5725 43.1005C64.6177 43.2402 64.7497 43.1394 64.704 42.998Z" fill="#F2F2F2"/>
<path d="M65.4858 44.5857C65.4694 44.2527 65.401 43.934 65.2881 43.6643C65.1752 43.3946 65.0221 43.1842 64.8455 43.056V42.1836H64.0084V43.0835C63.8405 43.218 63.696 43.4278 63.5896 43.6917C63.4832 43.9556 63.4188 44.2641 63.4029 44.5857L63.2061 48.5852H65.6827L65.4858 44.5857Z" fill="#F2F2F2"/>
<path d="M0 48.7262C0 48.691 0.00798152 48.6574 0.0221888 48.6325C0.0363961 48.6077 0.0556654 48.5938 0.0757576 48.5938L69.9518 48.6419C69.9936 48.6419 70 48.653 70 48.7262C70 48.7613 69.992 48.795 69.9778 48.8198C69.9636 48.8446 69.9443 48.8586 69.9242 48.8586H0.0757576C0.0556654 48.8586 0.0363961 48.8446 0.0221888 48.8198C0.00798152 48.795 0 48.7613 0 48.7262Z" fill="#CCCCCC"/>
<path d="M18.1275 25.3502L18.3762 25.1672L18.5468 22.9883H20.8186L21.0036 25.1583L21.226 25.3528C21.2367 25.3621 21.2452 25.3774 21.2503 25.3962C21.2553 25.4151 21.2566 25.4363 21.2538 25.4566C21.2511 25.4768 21.2445 25.4949 21.2352 25.5078C21.2259 25.5207 21.2143 25.5277 21.2024 25.5277H18.148C18.1358 25.5277 18.124 25.5203 18.1146 25.5068C18.1051 25.4933 18.0987 25.4745 18.0963 25.4536C18.0938 25.4327 18.0956 25.411 18.1013 25.3922C18.107 25.3733 18.1163 25.3585 18.1275 25.3502Z" fill="#E6E6E6"/>
<path d="M13.8696 22.8931V20.1426H25.4706V22.8931C25.4706 22.9954 25.4474 23.0936 25.406 23.166C25.3647 23.2385 25.3085 23.2793 25.25 23.2795H14.0902C14.0317 23.2793 13.9756 23.2385 13.9342 23.166C13.8929 23.0936 13.8696 22.9954 13.8696 22.8931Z" fill="#CCCCCC"/>
<path d="M13.8579 9.67287C13.858 9.54936 13.8861 9.43096 13.9361 9.34362C13.986 9.25629 14.0538 9.20717 14.1244 9.20703H25.2142C25.2849 9.20717 25.3526 9.25629 25.4026 9.34362C25.4525 9.43096 25.4806 9.54936 25.4807 9.67287V21.4417H13.8579V9.67287Z" fill="#3F3D56"/>
<path d="M14.3467 20.2277V10.4197C14.3467 10.3245 14.3684 10.2332 14.4069 10.1659C14.4455 10.0985 14.4977 10.0607 14.5522 10.0605H24.7866C24.8411 10.0607 24.8933 10.0985 24.9318 10.1659C24.9704 10.2332 24.992 10.3245 24.9921 10.4197V20.2277C24.992 20.3229 24.9704 20.4142 24.9318 20.4815C24.8933 20.5489 24.8411 20.5867 24.7866 20.5868H14.5522C14.4977 20.5867 14.4455 20.5489 14.4069 20.4815C14.3684 20.4142 14.3467 20.3229 14.3467 20.2277Z" fill="#FCFCFD"/>
<path d="M35.9165 0H46.1734V21.4055H35.9165V0Z" fill="#FCFCFD"/>
<path d="M35.9165 0H46.1734V21.4055H35.9165V0ZM45.9924 0.316261H36.0975V21.0892H45.9924V0.316261Z" fill="#E5E5E5"/>
<path d="M44.6324 10.3652H37.4575V10.8498H44.6324V10.3652Z" fill="#F1F1F1"/>
<path d="M43.8612 7.46917H43.9394V2.56641H41.1831V2.70319H43.8612V7.46917Z" fill="#CBCBCB"/>
<path d="M38.3486 7.91826H41.1049V7.78161H38.4268V3.01562H38.3486V7.91826Z" fill="#CBCBCB"/>
<path d="M44.6324 11.6289H37.4575V12.1135H44.6324V11.6289Z" fill="#F1F1F1"/>
<path d="M44.6324 12.8926H37.4575V13.3772H44.6324V12.8926Z" fill="#F1F1F1"/>
<path d="M44.6324 15.1172H37.4575V15.6018H44.6324V15.1172Z" fill="#F1F1F1"/>
<path d="M44.6324 16.3809H37.4575V16.8655H44.6324V16.3809Z" fill="#F1F1F1"/>
<path d="M44.6324 17.6445H37.4575V18.1291H44.6324V17.6445Z" fill="#F1F1F1"/>
<path d="M40.5004 3.89768L40.5727 3.74293L40.4637 3.5261L40.3666 3.63149C40.3104 3.55464 40.2461 3.49796 40.1774 3.46468L40.1648 3.24716L40 3.22852L39.9723 3.43545C39.8948 3.45001 39.8199 3.49369 39.7529 3.56349L39.671 3.44662L39.547 3.63709L39.6027 3.79404C39.5545 3.90121 39.52 4.02533 39.5018 4.15791L39.3808 4.17923L39.3701 4.46724L39.4919 4.51704C39.502 4.64133 39.5261 4.76087 39.5629 4.86869L39.496 5.01176L39.605 5.22861L39.6948 5.13117C39.7526 5.21071 39.8191 5.26885 39.8901 5.30203L39.9032 5.5279L40.068 5.54655L40.0973 5.3275C40.1719 5.31173 40.2438 5.269 40.3084 5.20204L40.397 5.32844L40.521 5.13797L40.4607 4.96822C40.5071 4.8648 40.5406 4.74567 40.5591 4.6184L40.6872 4.59583L40.6979 4.30781L40.5714 4.2561C40.5618 4.12948 40.5376 4.00756 40.5004 3.89768ZM40.3277 4.96109C40.2623 5.06156 40.1813 5.12586 40.0949 5.14585C40.0086 5.16585 39.9208 5.14064 39.8426 5.07341C39.7645 5.00619 39.6995 4.89997 39.6559 4.76818C39.6123 4.6364 39.592 4.48497 39.5976 4.33305C39.6032 4.18112 39.6345 4.03553 39.6875 3.91467C39.7405 3.79382 39.8127 3.70313 39.8952 3.65408C39.9777 3.60503 40.0666 3.59981 40.1507 3.6391C40.2349 3.67838 40.3105 3.7604 40.368 3.87478C40.4451 4.02816 40.4841 4.22878 40.4766 4.4325C40.469 4.63622 40.4155 4.82636 40.3277 4.96109Z" fill="#0175A2"/>
<path d="M41.4893 5.99103L41.5891 5.89353L41.5333 5.62188L41.4208 5.65756C41.3847 5.55002 41.3368 5.45601 41.2799 5.38093L41.3139 5.17056L41.1646 5.04743L41.0953 5.22212C41.0201 5.18586 40.9413 5.17842 40.8643 5.20031L40.8127 5.03906L40.6573 5.13658L40.6762 5.31834C40.6088 5.38705 40.5507 5.48039 40.5058 5.59198L40.3888 5.53415L40.3184 5.79518L40.4212 5.91969C40.4044 6.04176 40.4018 6.16843 40.4133 6.29233L40.321 6.38247L40.3768 6.65412L40.4808 6.62114C40.5179 6.73223 40.5675 6.82897 40.6266 6.90546L40.5913 7.12391L40.7406 7.24704L40.8139 7.06212C40.8866 7.09534 40.9625 7.10177 41.0367 7.08099L41.0925 7.2554L41.2479 7.15789L41.2275 6.96129C41.2923 6.89484 41.3485 6.80555 41.3925 6.6991L41.5163 6.76032L41.5868 6.49928L41.48 6.37C41.4977 6.24606 41.5009 6.11715 41.4893 5.99103ZM41.1053 6.86927C41.0233 6.92071 40.9344 6.9285 40.8499 6.89166C40.7654 6.85482 40.689 6.77501 40.6305 6.66231C40.5719 6.54961 40.5338 6.40909 40.5209 6.25852C40.508 6.10795 40.521 5.95409 40.5581 5.8164C40.5953 5.67871 40.655 5.56337 40.7297 5.48497C40.8043 5.40657 40.8906 5.36862 40.9776 5.37594C41.0646 5.38325 41.1484 5.43549 41.2184 5.52605C41.2885 5.61662 41.3415 5.74143 41.371 5.88472C41.4104 6.07687 41.4046 6.28854 41.3548 6.47318C41.3049 6.65782 41.2152 6.8003 41.1053 6.86927Z" fill="#0175A2"/>
<path d="M42.7106 4.74502L42.7793 4.58534L42.6655 4.37628L42.5708 4.48837C42.5129 4.41552 42.4474 4.36337 42.3779 4.33492L42.3604 4.11845L42.1953 4.11133L42.1724 4.32003C42.0952 4.34 42.0214 4.38887 41.956 4.46329L41.8716 4.35224L41.752 4.55123L41.8112 4.70415C41.7655 4.81461 41.7339 4.94104 41.7187 5.07479L41.5983 5.10454L41.5942 5.39307L41.7171 5.43432C41.73 5.5578 41.7568 5.67556 41.796 5.78073L41.7325 5.92836L41.8464 6.13741L41.9338 6.03378C41.9934 6.10923 42.0612 6.16268 42.1329 6.19087L42.1511 6.41564L42.3162 6.42276L42.3405 6.20184C42.4147 6.18087 42.4855 6.13316 42.5486 6.06174L42.64 6.18185L42.7596 5.98287L42.6954 5.81746C42.7394 5.71089 42.7701 5.58951 42.7858 5.46105L42.9132 5.42955L42.9173 5.14102L42.7897 5.09818C42.7773 4.97234 42.7503 4.85221 42.7106 4.74502ZM42.5624 5.81964C42.4993 5.9246 42.4198 5.99451 42.334 6.02051C42.2482 6.04652 42.1599 6.02746 42.0802 5.96575C42.0006 5.90404 41.9332 5.80244 41.8866 5.67381C41.8401 5.54518 41.8163 5.39529 41.8185 5.24309C41.8206 5.0909 41.8486 4.94323 41.8987 4.81878C41.9489 4.69432 42.019 4.59865 42.1003 4.54388C42.1816 4.48911 42.2703 4.47769 42.3553 4.51107C42.4403 4.54444 42.5177 4.62111 42.5778 4.73138C42.6583 4.87926 42.7019 5.07699 42.699 5.28107C42.6961 5.48516 42.647 5.67889 42.5624 5.81964Z" fill="#0175A2"/>
<path d="M21.0091 16.1787L21.303 16.1379L21.3394 15.3963L21.0539 15.2684C21.0355 14.9484 20.9811 14.638 20.8939 14.3549L21.1032 13.926L20.829 13.3565L20.5591 13.6357C20.4052 13.4092 20.2251 13.2436 20.0311 13.15L20.0095 12.6751L19.5852 12.6113L19.5176 13.0728C19.3173 13.1071 19.1237 13.2165 18.9499 13.3937L18.7113 13.0381L18.3854 13.5173L18.5497 14.0025C18.4354 14.2571 18.3511 14.5489 18.3019 14.861L18.0302 14.8987L17.9937 15.6403L18.2577 15.7586C18.2761 16.0886 18.3328 16.4086 18.4243 16.6991L18.2069 17.1446L18.4811 17.714L18.7668 17.4185C18.9167 17.6331 19.0905 17.7909 19.2772 17.8817L19.3006 18.3954L19.7248 18.4592L19.7981 17.96C19.9909 17.9262 20.1776 17.8227 20.3463 17.656L20.5988 18.0324L20.9247 17.5532L20.754 17.0494C20.8718 16.7922 20.9585 16.496 21.0091 16.1787ZM19.5683 17.5146C19.3445 17.4809 19.1314 17.332 18.9561 17.0867C18.7807 16.8414 18.6508 16.5108 18.583 16.1365C18.5151 15.7622 18.5123 15.3612 18.5748 14.9841C18.6374 14.6071 18.7625 14.2709 18.9343 14.0181C19.1062 13.7653 19.3171 13.6072 19.5403 13.5639C19.7636 13.5206 19.9892 13.594 20.1886 13.7748C20.388 13.9555 20.5522 14.2356 20.6606 14.5795C20.7689 14.9235 20.8164 15.3158 20.7972 15.707C20.7714 16.2315 20.6274 16.7166 20.3969 17.0556C20.1665 17.3946 19.8684 17.5597 19.5683 17.5146Z" fill="#0175A2"/>
<path d="M53.1104 35.1582H49.4733C49.4733 35.3409 45.7248 35.4892 45.7248 35.4892C45.6659 35.5667 45.6123 35.6555 45.5649 35.7541C45.4226 36.0509 45.3447 36.426 45.3452 36.8133V37.0782C45.3453 37.5171 45.4451 37.938 45.6227 38.2483C45.8003 38.5587 46.0411 38.7331 46.2922 38.7333H53.1104C53.3615 38.7329 53.6022 38.5584 53.7797 38.2481C53.9573 37.9378 54.0571 37.517 54.0573 37.0782V36.8133C54.057 36.3746 53.9571 35.9539 53.7796 35.6437C53.6021 35.3334 53.3614 35.1588 53.1104 35.1582Z" fill="#3F3D56"/>
<path d="M50.1391 38.668H49.1543V49.7905H50.1391V38.668Z" fill="#3F3D56"/>
<path d="M46.3511 49.7292C46.3511 49.9152 47.8435 49.8012 49.6844 49.8012C51.5254 49.8012 53.0177 49.9152 53.0177 49.7292C53.0177 49.5432 51.5254 48.0684 49.6844 48.0684C47.8435 48.0684 46.3511 49.5432 46.3511 49.7292Z" fill="#3F3D56"/>
<path d="M47.2402 48.4272L46.3115 48.4271L45.8696 44.2168L47.2404 44.2169L47.2402 48.4272Z" fill="#EDC9BE"/>
<path d="M47.4772 50.0002L44.4824 50V49.9338C44.4824 49.6662 44.5126 49.4013 44.5711 49.1542C44.6297 48.907 44.7156 48.6824 44.8238 48.4932C44.932 48.304 45.0605 48.1539 45.202 48.0516C45.3434 47.9492 45.4949 47.8965 45.648 47.8965H45.6481L47.4772 47.8966L47.4772 50.0002Z" fill="#2F2E41"/>
<path d="M45.851 45.8162L43.9994 38.5591C43.8448 37.9474 43.8277 37.2564 43.9515 36.6238C44.0753 35.9911 44.3309 35.4631 44.6675 35.145L48.6836 31.3809L50.5163 31.1084L52.2068 30.8398L52.219 30.8759C52.2346 30.922 52.5981 32.0193 52.3524 33.2225C52.166 34.1351 51.6812 34.848 50.9115 35.3413C49.115 36.4926 47.0396 37.4767 46.2308 37.8462C46.195 37.8622 46.1616 37.8912 46.1327 37.9314C46.1039 37.9716 46.0802 38.0219 46.0632 38.0792C46.0463 38.1359 46.0362 38.198 46.0336 38.2618C46.0311 38.3256 46.0361 38.3896 46.0484 38.4498L47.7686 45.2047C47.7865 45.2904 47.793 45.3821 47.7875 45.4729C47.782 45.5636 47.7646 45.6509 47.7367 45.728C47.7088 45.8052 47.6712 45.8701 47.6267 45.9178C47.5821 45.9655 47.532 45.9946 47.48 46.0031L46.1946 46.1666C46.1837 46.1684 46.1729 46.1693 46.162 46.1693C46.0962 46.1693 46.0318 46.1359 45.9766 46.0733C45.9214 46.0106 45.8778 45.9213 45.851 45.8162Z" fill="#2F2E41"/>
<path d="M47.8462 48.4272L46.9175 48.4271L46.4756 44.2168L47.8463 44.2169L47.8462 48.4272Z" fill="#EDC9BE"/>
<path d="M48.0831 50.0002L45.0884 50V49.9338C45.0884 49.6662 45.1185 49.4013 45.1771 49.1542C45.2357 48.907 45.3215 48.6824 45.4298 48.4932C45.538 48.304 45.6665 48.1539 45.8079 48.0516C45.9493 47.9492 46.1009 47.8965 46.254 47.8965H46.2541L48.0832 47.8966L48.0831 50.0002Z" fill="#2F2E41"/>
<path d="M46.5331 46.2137L44.6815 38.9566C44.5269 38.345 44.5098 37.654 44.6336 37.0213C44.7574 36.3886 45.0131 35.8606 45.3496 35.5425L49.3658 31.7784L51.1984 31.5059L52.5225 31.3052L52.5223 31.2734C52.5379 31.3195 52.9014 32.4168 52.6557 33.62C52.4693 34.5326 52.3634 35.2455 51.5937 35.7388C49.7971 36.8902 47.7218 37.8742 46.9129 38.2437C46.8771 38.2597 46.8437 38.2888 46.8149 38.3289C46.786 38.3691 46.7623 38.4195 46.7454 38.4768C46.7284 38.5334 46.7183 38.5956 46.7158 38.6593C46.7132 38.7231 46.7182 38.7871 46.7305 38.8474L48.4507 45.6022C48.4687 45.6879 48.4751 45.7796 48.4696 45.8704C48.4641 45.9611 48.4467 46.0484 48.4188 46.1255C48.3909 46.2027 48.3533 46.2676 48.3088 46.3153C48.2643 46.363 48.2141 46.3921 48.1621 46.4006L46.8768 46.5642C46.8659 46.566 46.855 46.5669 46.8442 46.5669C46.7784 46.5668 46.7139 46.5335 46.6587 46.4708C46.6035 46.4081 46.5599 46.3188 46.5331 46.2137Z" fill="#2F2E41"/>
<path d="M50.0225 31.437C49.9338 31.3272 48.6589 32.4963 48.4316 31.5694C49.4922 26.935 48.7614 24.9338 49.4111 22.2762C49.5255 21.8179 49.6979 21.4108 49.9152 21.0856C50.1326 20.7604 50.3893 20.5255 50.6661 20.3987L52.3517 20.25L52.3604 20.2574C52.7408 20.583 53.051 21.1142 53.245 21.7722C53.439 22.4302 53.5066 23.18 53.4376 23.9104C53.4316 26.8026 52.4415 29.0086 52.7877 31.1064C52.8023 31.1941 52.8065 31.286 52.8002 31.3766C52.7939 31.4673 52.7772 31.5547 52.7511 31.6338C52.7258 31.7102 52.6918 31.7768 52.6512 31.8294C52.6106 31.882 52.5642 31.9195 52.515 31.9396L50.2894 31.4207C50.2374 31.4423 50.1834 31.4443 50.1309 31.4265C50.0784 31.4088 50.0287 31.3717 49.9851 31.3177L50.0225 31.437Z" fill="#0175A2"/>
<path d="M51.7889 19.1488C52.8165 19.1488 53.6496 17.6928 53.6496 15.8967C53.6496 14.1006 52.8165 12.6445 51.7889 12.6445C50.7613 12.6445 49.9282 14.1006 49.9282 15.8967C49.9282 17.6928 50.7613 19.1488 51.7889 19.1488Z" fill="#EDC9BE"/>
<path d="M48.2745 26.9185L45.0416 22.4607C45.0159 22.4766 44.9897 22.4901 44.9631 22.5012C44.849 22.5479 44.7306 22.552 44.6155 22.5135C44.5004 22.4749 44.3913 22.3944 44.2951 22.2773C44.1984 22.16 44.117 22.0081 44.0566 21.8315C43.9961 21.6549 43.958 21.4577 43.9446 21.2533C43.9199 20.8839 43.9769 20.5119 44.1039 20.2136C44.231 19.9153 44.4186 19.7133 44.6282 19.6489C44.8378 19.5846 45.0535 19.6628 45.2312 19.8675C45.4088 20.0722 45.5349 20.388 45.5837 20.75C45.592 20.8133 45.5978 20.8776 45.601 20.9423L48.8193 24.1873L49.6202 23.3814L50.5074 25.4115L49.2639 26.9606C49.1183 27.1405 48.9435 27.2335 48.7652 27.2259C48.587 27.2183 48.4149 27.1105 48.2745 26.9185Z" fill="#EDC9BE"/>
<path d="M50.9017 26.0423L49.0571 23.8499L49.924 21.704C50.0391 21.419 50.2082 21.2144 50.4013 21.1262C50.5943 21.038 50.7991 21.0719 50.9792 21.222C51.1615 21.3738 51.3066 21.6346 51.3885 21.9571C51.4704 22.2796 51.4836 22.6427 51.4258 22.9808L50.9017 26.0423Z" fill="#0175A2"/>
<path d="M52.3815 18.8818C52.2826 18.9574 52.0802 17.5806 52.1709 17.3052C52.3057 16.8957 52.2978 16.8986 52.3873 16.6277C52.4768 16.3567 52.4969 15.9858 52.3809 15.7474C52.265 15.509 51.9967 15.5407 51.9438 15.8396C51.9778 15.2718 51.6565 14.8154 51.3382 14.6872C51.02 14.5589 50.6843 14.6386 50.3643 14.5244C49.9929 14.392 49.6064 13.8478 49.7546 13.134C49.78 13.0152 49.8181 12.9058 49.8668 12.8117C50.038 12.4753 50.2775 12.3316 50.5117 12.1927C50.9988 11.9037 51.4992 11.6111 52.0133 11.643C52.4369 11.6817 52.8449 11.9354 53.1873 12.3731C53.5296 12.8107 53.7916 13.4133 53.9411 14.1071C53.9765 14.2806 54.004 14.4589 54.0232 14.6401C54.1996 16.2984 53.6487 17.9342 52.7538 18.5657L52.3815 18.8818Z" fill="#2F2E41"/>
<path d="M25.9561 36.8016V37.0664C25.9563 37.5053 26.0561 37.9261 26.2337 38.2364C26.4112 38.5467 26.6519 38.7212 26.903 38.7216H33.7212C33.9723 38.7214 34.2131 38.547 34.3907 38.2366C34.5683 37.9262 34.6681 37.5054 34.6682 37.0664V36.8016C34.6687 36.4143 34.5908 36.0391 34.4485 35.7423C34.4011 35.6438 34.3474 35.5549 34.2886 35.4775C34.2886 35.4775 30.5401 35.3292 30.5401 35.1465H26.903C26.652 35.1471 26.4113 35.3217 26.2338 35.6319C26.0563 35.9422 25.9564 36.3628 25.9561 36.8016Z" fill="#3F3D56"/>
<path d="M30.8594 38.6562H29.8745V49.7787H30.8594V38.6562Z" fill="#3F3D56"/>
<path d="M30.3289 48.0566C28.488 48.0566 26.9956 49.5315 26.9956 49.7175C26.9956 49.9035 28.488 49.7895 30.3289 49.7895C32.1699 49.7895 33.6623 49.9035 33.6623 49.7175C33.6623 49.5315 32.1699 48.0566 30.3289 48.0566Z" fill="#3F3D56"/>
<path d="M33.6182 43.9845L34.9889 43.9844L34.547 48.1946L33.6183 48.1948L33.6182 43.9845Z" fill="#EDC9BE"/>
<path d="M33.3813 47.6642L35.2104 47.6641H35.2105C35.3636 47.6641 35.5152 47.7168 35.6566 47.8191C35.798 47.9215 35.9265 48.0716 36.0348 48.2608C36.143 48.45 36.2288 48.6745 36.2874 48.9217C36.346 49.1689 36.3761 49.4338 36.3761 49.7014V49.7676L33.3814 49.7678L33.3813 47.6642Z" fill="#2F2E41"/>
<path d="M34.6967 45.9369C34.6859 45.9369 34.675 45.936 34.6641 45.9342L33.3788 45.7706C33.3268 45.7622 33.2766 45.733 33.2321 45.6853C33.1876 45.6377 33.15 45.5727 33.1221 45.4956C33.0942 45.4185 33.0768 45.3312 33.0713 45.2404C33.0658 45.1497 33.0722 45.058 33.0902 44.9723L34.8104 38.2174C34.8227 38.1572 34.8277 38.0932 34.8251 38.0294C34.8226 37.9656 34.8125 37.9035 34.7955 37.8468C34.7786 37.7895 34.7549 37.7391 34.726 37.699C34.6972 37.6588 34.6637 37.6298 34.628 37.6138C33.8191 37.2443 31.7438 36.2602 29.9472 35.1089C29.1775 34.6156 28.6928 33.9027 28.5064 32.99C28.2607 31.7868 28.6242 30.6895 28.6398 30.6435L28.652 30.6074L30.3425 30.876L32.1751 31.1484L36.1913 34.9126C36.5278 35.2307 36.7834 35.7586 36.9072 36.3913C37.0311 37.024 37.014 37.715 36.8594 38.3267L35.0078 45.5838C34.981 45.6889 34.9374 45.7782 34.8822 45.8408C34.827 45.9035 34.7625 45.9369 34.6967 45.9369Z" fill="#2F2E41"/>
<path d="M33.1636 43.9845L34.5343 43.9844L34.0924 48.1946L33.1637 48.1948L33.1636 43.9845Z" fill="#EDC9BE"/>
<path d="M32.9268 47.6642L34.7558 47.6641H34.756C34.909 47.6641 35.0606 47.7168 35.202 47.8191C35.3434 47.9215 35.4719 48.0716 35.5802 48.2608C35.6884 48.45 35.7743 48.6745 35.8328 48.9217C35.8914 49.1689 35.9216 49.4338 35.9215 49.7014V49.7676L32.9268 49.7678L32.9268 47.6642Z" fill="#2F2E41"/>
<path d="M34.1659 46.3354C34.1551 46.3354 34.1443 46.3345 34.1334 46.3327L32.848 46.1691C32.796 46.1607 32.7459 46.1315 32.7013 46.0838C32.6568 46.0361 32.6192 45.9712 32.5913 45.894C32.5634 45.8169 32.546 45.7296 32.5405 45.6389C32.535 45.5482 32.5415 45.4564 32.5594 45.3707L34.2796 38.6159C34.2919 38.5556 34.2969 38.4916 34.2944 38.4278C34.2918 38.3641 34.2817 38.3019 34.2648 38.2453C34.2478 38.188 34.2241 38.1376 34.1953 38.0974C34.1664 38.0573 34.133 38.0282 34.0972 38.0123C33.2884 37.6427 31.213 36.6587 29.4165 35.5073C28.6468 35.014 28.162 34.3011 27.9756 33.3885C27.7299 32.1853 28.0934 31.088 28.109 31.0419L28.1212 31.0059L29.8117 31.2744L31.6444 31.5469L35.6605 35.311C35.9971 35.6291 36.2527 36.1571 36.3765 36.7898C36.5003 37.4225 36.4832 38.1135 36.3286 38.7251L34.477 45.9822C34.4502 46.0873 34.4066 46.1766 34.3514 46.2393C34.2962 46.302 34.2318 46.3353 34.1659 46.3354Z" fill="#2F2E41"/>
<path d="M27.6895 20.641C27.8149 20.3643 27.9926 20.1751 28.1908 20.1075C28.3889 20.0399 28.5944 20.0983 28.77 20.2723C28.9437 20.4443 29.0769 20.718 29.1463 21.0451C29.2156 21.3722 29.2166 21.7316 29.149 22.0598L28.6399 24.5314L26.5547 23.1465L27.6895 20.641Z" fill="#0175A2"/>
<path d="M31.8587 32.939C31.8151 32.993 31.7654 33.0301 31.7129 33.0478C31.6604 33.0656 31.6064 33.0636 31.5544 33.042L28.3439 31.7071C28.2947 31.687 28.2484 31.6495 28.2078 31.597C28.1672 31.5444 28.1332 31.4778 28.1079 31.4014C28.0818 31.3223 28.0651 31.2348 28.0588 31.1442C28.0525 31.0536 28.0567 30.9616 28.0712 30.8739C28.4174 28.7761 27.9635 26.1756 27.4213 23.6779C27.3524 22.9476 27.4199 22.1978 27.6139 21.5398C27.808 20.8818 28.1182 20.3506 28.4985 20.0249L28.5073 20.0176L30.1928 20.1663C30.4696 20.2931 30.7263 20.528 30.9437 20.8532C31.1611 21.1784 31.3335 21.5854 31.4479 22.0438C32.0976 24.7014 32.2836 28.1116 32.0165 32.4692C32.0108 32.5626 31.9938 32.6528 31.9666 32.7338C31.9393 32.8148 31.9026 32.8848 31.8587 32.939Z" fill="#0175A2"/>
<path d="M30.9064 16.1872C31.071 14.4143 30.3822 12.7438 29.3678 12.4561C28.3535 12.1684 27.3977 13.3724 27.2331 15.1453C27.0685 16.9182 27.7574 18.5887 28.7717 18.8764C29.7861 19.1641 30.7418 17.9601 30.9064 16.1872Z" fill="#EDC9BE"/>
<path d="M31.5951 26.7283L30.3516 25.1792L31.2388 23.1491L32.0396 23.955L35.2579 20.71C35.2612 20.6453 35.267 20.581 35.2753 20.5177C35.313 20.2373 35.3975 19.9827 35.518 19.7862C35.6385 19.5896 35.7896 19.46 35.9523 19.4136C36.1149 19.3671 36.2818 19.4061 36.4318 19.5255C36.5818 19.6448 36.7082 19.8393 36.795 20.0842C36.8818 20.3291 36.925 20.6134 36.9193 20.9013C36.9136 21.1892 36.8592 21.4677 36.763 21.7016C36.6668 21.9354 36.533 22.1141 36.3786 22.2151C36.2243 22.3161 36.0563 22.3348 35.8958 22.2689C35.8693 22.2578 35.8431 22.2443 35.8173 22.2284L32.5844 26.6862C32.444 26.8782 32.272 26.986 32.0937 26.9936C31.9155 27.0012 31.7406 26.9082 31.5951 26.7283Z" fill="#EDC9BE"/>
<path d="M29.433 22.7503C29.3751 22.4122 29.3883 22.0492 29.4702 21.7266C29.5521 21.4041 29.6973 21.1434 29.8795 20.9915C30.0597 20.8415 30.2644 20.8075 30.4575 20.8957C30.6506 20.9839 30.8196 21.1886 30.9347 21.4735L31.8016 23.6195L29.957 25.8118L29.433 22.7503Z" fill="#0175A2"/>
<path d="M29.7565 15.1945C29.7915 15.3026 29.806 15.4273 29.7979 15.5506C29.7898 15.674 29.7596 15.7897 29.7115 15.8812C29.4472 16.4037 29.3767 17.2125 29.472 17.9091C29.5863 18.7449 29.8898 19.4574 30.1896 20.1387C30.4893 20.82 30.7995 21.5198 30.9311 22.3479C31.2428 24.3083 30.4055 26.3989 29.3295 27.1756C28.2535 27.9522 27.0282 27.7063 25.8953 27.2383C25.0402 26.8851 24.1578 26.3655 23.573 25.2194C22.9882 24.0732 22.8331 22.1328 23.4545 21.0472C23.9417 20.1962 24.7002 20.1276 25.378 19.9144C26.0559 19.7011 26.8237 19.073 26.9145 17.8797C27.0047 16.694 26.3692 15.714 26.2494 14.5363C26.1006 13.0719 26.8294 11.6764 27.654 11.3091C28.4787 10.9418 29.3485 11.3498 30.1473 11.8627C30.7618 12.2571 31.4044 12.7718 31.6383 13.9408C31.7683 14.5908 31.6673 15.3316 31.3465 15.7316C30.8581 16.3408 30.2302 15.7528 29.7519 15.1807L29.7565 15.1945Z" fill="#2F2E41"/>
</g>
<defs>
<clipPath id="clip0_6896_23908">
<rect width="70" height="50" fill="white"/>
</clipPath>
</defs>
</svg>
