<svg width="70" height="50" viewBox="0 0 70 50" fill="none" xmlns="http://www.w3.org/2000/svg">
<g clip-path="url(#clip0_6896_23841)">
<path d="M50.8203 28.373V42.1852L53.866 45.9504L54.0978 46.2368H66.1155L66.3583 28.373H50.8203Z" fill="#E6E6E6"/>
<path opacity="0.1" d="M50.8203 28.373V42.1852L53.866 45.9504L54.0529 28.373H50.8203Z" fill="black"/>
<path d="M21.808 28.0039V41.8161L18.7623 45.5813L18.5305 45.8677H6.51284L6.27002 28.0039H21.808Z" fill="#E6E6E6"/>
<path opacity="0.1" d="M21.8078 28.0039V41.8161L18.7621 45.5813L18.5752 28.0039H21.8078Z" fill="black"/>
<path d="M69.9998 27.7293V28.558H4.69189V27.3609L10.7614 24.9668H64.6587L69.9998 27.7293Z" fill="#E6E6E6"/>
<path opacity="0.1" d="M69.9998 27.7278V28.5564H4.69189V27.3594L69.9998 27.7278Z" fill="black"/>
<path d="M14.039 31.8711H11.1255L9.91162 31.2266H15.3742L14.039 31.8711Z" fill="#3F3D56"/>
<path d="M14.039 34.543H11.1255L9.91162 33.8984H15.3742L14.039 34.543Z" fill="#3F3D56"/>
<path d="M14.039 38.3185H11.1255L9.91162 37.6738H15.3742L14.039 38.3185Z" fill="#3F3D56"/>
<path d="M14.039 42.0938H11.1255L9.91162 41.4492H15.3742L14.039 42.0938Z" fill="#3F3D56"/>
<path d="M58.5892 32.2403H61.5026L62.7165 31.5957H57.2539L58.5892 32.2403Z" fill="#3F3D56"/>
<path d="M58.5892 34.9102H61.5026L62.7165 34.2656H57.2539L58.5892 34.9102Z" fill="#3F3D56"/>
<path d="M58.5892 38.6856H61.5026L62.7165 38.041H57.2539L58.5892 38.6856Z" fill="#3F3D56"/>
<path d="M58.5892 42.461H61.5026L62.7165 41.8164H57.2539L58.5892 42.461Z" fill="#3F3D56"/>
<path d="M60.5732 8.99414H36.0467C35.9249 8.99413 35.8043 9.01232 35.6917 9.04768C35.5792 9.08303 35.4769 9.13486 35.3908 9.2002C35.3046 9.26553 35.2363 9.3431 35.1897 9.42848C35.1431 9.51385 35.1191 9.60535 35.1191 9.69775V22.2304C35.1191 22.3228 35.1431 22.4143 35.1897 22.4997C35.2363 22.585 35.3046 22.6626 35.3908 22.7279C35.4769 22.7933 35.5792 22.8451 35.6917 22.8805C35.8043 22.9158 35.9249 22.934 36.0467 22.934H45.3572L45.0084 24.6233C45.0084 24.6233 43.015 25.4266 44.4166 25.4503C45.8182 25.4739 52.4214 25.4503 52.4214 25.4503C52.4214 25.4503 53.6984 25.4503 51.6739 24.5997L51.3458 22.934H60.5732C60.6951 22.934 60.8157 22.9158 60.9282 22.8805C61.0408 22.8451 61.143 22.7933 61.2292 22.7279C61.3153 22.6626 61.3836 22.585 61.4302 22.4997C61.4768 22.4143 61.5008 22.3228 61.5008 22.2304V9.69775C61.5008 9.60535 61.4768 9.51385 61.4302 9.42848C61.3836 9.3431 61.3153 9.26554 61.2292 9.2002C61.143 9.13486 61.0408 9.08303 60.9282 9.04768C60.8157 9.01232 60.6951 8.99413 60.5732 8.99414Z" fill="#3F3D56"/>
<path d="M60.6131 9.73828H36.0068V20.1814H60.6131V9.73828Z" fill="#F2F2F2"/>
<path d="M48.31 9.52533C48.396 9.52533 48.4658 9.47244 48.4658 9.4072C48.4658 9.34195 48.396 9.28906 48.31 9.28906C48.224 9.28906 48.1543 9.34195 48.1543 9.4072C48.1543 9.47244 48.224 9.52533 48.31 9.52533Z" fill="#F2F2F2"/>
<path d="M48.3101 22.4252C48.6369 22.4252 48.9019 22.2242 48.9019 21.9763C48.9019 21.7283 48.6369 21.5273 48.3101 21.5273C47.9832 21.5273 47.7183 21.7283 47.7183 21.9763C47.7183 22.2242 47.9832 22.4252 48.3101 22.4252Z" fill="#F2F2F2"/>
<path d="M47.388 26.7256V26.9619H30.6309V26.7728L30.6539 26.7256L31.0669 25.875H47.0454L47.388 26.7256Z" fill="#3F3D56"/>
<path d="M53.8363 26.4932C53.8058 26.5922 53.6905 26.6967 53.4302 26.7954C52.4957 27.1498 50.5958 26.7009 50.5958 26.7009C50.5958 26.7009 49.1318 26.5119 49.1318 26.0157C49.1729 25.9944 49.2158 25.975 49.2602 25.9578C49.653 25.8002 50.9556 25.4111 53.2652 25.9743C53.4353 26.0148 53.5873 26.0904 53.7042 26.1925C53.756 26.2312 53.795 26.2786 53.8179 26.3308C53.8409 26.3831 53.8472 26.4388 53.8363 26.4932Z" fill="#3F3D56"/>
<path opacity="0.1" d="M53.8364 26.4932C52.6927 26.8257 51.6732 26.8505 50.627 26.2992C50.2314 26.0774 49.7523 25.9577 49.2603 25.9578C49.6531 25.8002 50.9557 25.4111 53.2653 25.9743C53.4354 26.0148 53.5874 26.0904 53.7043 26.1925C53.7561 26.2312 53.7951 26.2786 53.818 26.3308C53.841 26.3831 53.8473 26.4388 53.8364 26.4932Z" fill="black"/>
<path d="M52.4025 26.3003C52.6261 26.3003 52.8074 26.258 52.8074 26.2058C52.8074 26.1536 52.6261 26.1113 52.4025 26.1113C52.1788 26.1113 51.9976 26.1536 51.9976 26.2058C51.9976 26.258 52.1788 26.3003 52.4025 26.3003Z" fill="#F2F2F2"/>
<path opacity="0.1" d="M47.388 26.7246V26.9609H30.6309V26.7719L30.6539 26.7246H47.388Z" fill="black"/>
<path d="M9.31712 0.000189112C9.14706 -0.0104028 8.97676 0.0184545 8.82881 0.0829372C8.68353 0.158406 8.59196 0.290619 8.49849 0.413651C8.14114 0.889669 7.65735 1.3042 7.07777 1.63099C6.65563 1.86558 6.11893 2.15808 6.19115 2.5906C6.22926 2.73344 6.29882 2.87038 6.39692 2.99568C6.78636 3.59201 7.84907 4.05284 7.74454 4.7333C8.13146 4.24196 7.61393 3.999 8.00085 3.50766C8.18511 3.27367 8.5052 3.00954 8.78339 3.15648C8.87654 3.20568 8.9377 3.29393 9.03469 3.3371C9.26611 3.44012 9.51232 3.24318 9.71717 3.10368C10.4236 2.62266 11.4281 2.74868 12.3072 2.89855C12.7222 2.96931 13.178 3.06214 13.4233 3.36301C13.7458 3.75858 13.1168 4.18581 12.9579 4.63305C12.945 4.67116 12.9443 4.71108 12.9561 4.74941C12.9679 4.78774 12.9918 4.82333 13.0257 4.85313C13.0596 4.88294 13.1025 4.90608 13.1507 4.92057C13.199 4.93506 13.2511 4.94047 13.3027 4.93634C13.5665 4.9166 13.8789 4.90042 13.8945 4.81262C14.2264 4.82158 14.633 4.79308 14.7752 4.53096C14.8186 4.42725 14.8416 4.31924 14.8433 4.21042C14.8955 3.77013 15.1419 3.36844 15.3051 2.94938C15.4683 2.53032 15.5392 2.03921 15.2638 1.66767C15.1655 1.54405 15.044 1.43198 14.903 1.33501C13.3401 0.187693 11.2852 -0.00151393 9.31712 0.000189112Z" fill="#2F2E41"/>
<path d="M8.08448 5.59303C8.08448 5.59303 8.42439 7.74169 7.17806 7.91359C5.93173 8.08548 8.31108 11.0077 8.31108 11.0077L13.9762 11.5233L12.6166 8.08548C12.6166 8.08548 11.7102 7.82764 12.2767 6.10871C12.8432 4.38978 8.08448 5.59303 8.08448 5.59303Z" fill="#EDC9BE"/>
<path d="M4.62891 42.5059L5.08216 47.2329H7.46143L6.7817 42.5059H4.62891Z" fill="#EDC9BE"/>
<path d="M22.0776 33.5684L22.4175 37.5219L25.0236 36.6624L24.0038 33.3965L22.0776 33.5684Z" fill="#EDC9BE"/>
<path d="M2.9292 24.4583C2.9292 24.4583 3.0425 29.4432 3.72232 31.0762C4.40214 32.7092 4.28884 32.7951 4.17553 33.053C4.06223 33.3108 3.94893 33.1389 3.94893 33.5687C3.94893 33.9984 3.72232 40.7882 3.94893 41.3898C4.17553 41.9914 3.26911 43.0228 3.94893 43.1087C4.62874 43.1947 7.80122 43.1087 7.91453 42.593C8.02783 42.0773 7.0081 41.9055 7.46132 41.5617C7.91453 41.2179 8.59434 34.1703 8.59434 34.1703L10.1806 29.2713L13.1265 26.6929H19.3581L21.2843 32.3654C21.2843 32.3654 20.4911 33.9984 21.0576 33.9984C21.6242 33.9984 25.0232 34.5141 25.0232 32.6232C25.0232 30.7324 23.8902 25.1459 23.6636 24.974C23.437 24.8021 23.7769 24.2005 23.437 23.9427C23.0971 23.6848 19.1315 21.8799 17.6586 21.5362C16.1856 21.1924 14.1194 20.7832 14.1194 20.7832L2.9292 24.4583Z" fill="#2F2E41"/>
<path d="M25.0232 35.975C25.0232 35.975 23.3236 35.5453 22.5305 36.8345C21.7374 38.1237 22.0773 38.4675 22.0773 38.4675C22.0773 38.4675 24.6833 39.155 25.1365 38.8112C25.3336 38.6617 25.9598 38.6097 26.6043 38.5987C27.5859 38.582 27.847 37.5286 26.92 37.2833C26.8923 37.276 26.8643 37.2696 26.836 37.2642C25.9296 37.0923 25.0232 35.975 25.0232 35.975Z" fill="#2F2E41"/>
<path d="M10.6339 7.0103C12.5112 7.0103 14.033 5.85591 14.033 4.43191C14.033 3.0079 12.5112 1.85352 10.6339 1.85352C8.75668 1.85352 7.23486 3.0079 7.23486 4.43191C7.23486 5.85591 8.75668 7.0103 10.6339 7.0103Z" fill="#EDC9BE"/>
<path d="M6.21489 8.98778C6.21489 8.98778 11.7667 9.84724 13.1264 8.4721C14.486 7.09696 15.0525 12.3397 15.0525 12.3397L15.7323 17.8403L14.7126 20.8484C14.7126 20.8484 9.38737 24.1143 7.68783 24.3722C5.98829 24.63 3.38232 24.8019 3.38232 24.8019C3.38232 24.8019 4.17545 15.2619 4.17545 15.09C4.17545 14.9181 6.21489 8.98778 6.21489 8.98778Z" fill="#0175A2"/>
<path d="M7.90375 7.37579C7.90375 7.37579 6.66852 6.83903 6.32861 7.35471C5.9887 7.87039 2.81622 9.15958 2.47631 9.15958C2.1364 9.15958 3.15613 16.2931 2.70292 17.1526C2.24971 18.0121 0.0969536 24.2861 1.34328 24.8018C2.58962 25.3175 1.68319 24.2861 2.92952 25.5753C4.17585 26.8645 10.2942 26.8645 10.6341 26.3489C10.974 25.8332 7.91485 21.9656 8.48136 18.3558C9.04787 14.7461 9.9543 9.76121 9.16118 9.07364C8.36806 8.38606 7.90375 7.37579 7.90375 7.37579Z" fill="#2F2E41"/>
<path d="M11.9937 7.95691L12.1515 7.54492C12.1515 7.54492 16.8657 8.73043 17.0923 9.50394C17.3189 10.2775 17.2056 15.6921 16.4125 16.1218C15.6193 16.5515 14.4863 17.2391 15.2794 18.2705C16.0726 19.3018 16.979 20.4191 17.6588 20.5051C18.3386 20.591 19.5849 21.1927 19.245 21.7943C18.9051 22.3959 14.8262 21.2786 14.8262 21.2786C14.8262 21.2786 12.107 19.7316 12.2203 17.3251C12.3336 14.9186 11.9937 7.95691 11.9937 7.95691Z" fill="#2F2E41"/>
<path d="M15.959 18.0977L13.2398 21.9652C13.2398 21.9652 9.27416 25.0593 11.5402 25.4031C13.8063 25.7469 15.0526 22.5669 15.0526 22.5669L17.9985 19.3869L15.959 18.0977Z" fill="#EDC9BE"/>
<path d="M9.48265 0.675428C9.34564 0.667727 9.20841 0.687918 9.08513 0.733914C8.97367 0.795665 8.8818 0.875525 8.81625 0.96766C8.51404 1.31249 8.1201 1.60557 7.65972 1.82807C7.31608 1.99388 6.87918 2.20061 6.93798 2.50631C6.96989 2.60881 7.0267 2.7059 7.10548 2.79262C7.42359 3.21836 7.55023 3.71112 7.46624 4.19632L8.41114 3.15449C8.56114 2.9891 8.82171 2.80242 9.04817 2.90628C9.124 2.94105 9.17379 3.00343 9.25274 3.03394C9.44113 3.10675 9.64154 2.96756 9.80831 2.86896C10.3833 2.52898 11.2011 2.61804 11.9167 2.72397C12.2545 2.77398 12.6255 2.8396 12.8252 3.05225C13.1571 3.40563 12.8106 3.91625 13.0043 4.32449C13.0585 4.2957 13.1045 4.25894 13.1397 4.2164C13.1748 4.17385 13.1983 4.12639 13.2088 4.07682C13.479 4.08316 13.81 4.06301 13.9257 3.87775C13.9609 3.80514 13.9797 3.72854 13.9812 3.65119C14.0237 3.33999 14.2242 3.05609 14.3571 2.7599C14.49 2.46371 14.5477 2.1166 14.3235 1.85399C14.2415 1.76501 14.1425 1.68578 14.0298 1.61887C12.7575 0.807954 11.0847 0.674225 9.48265 0.675428Z" fill="#2F2E41"/>
<path d="M15.9592 9.16016L17.0148 9.37271C17.0148 9.37271 19.4715 14.145 18.905 17.411C18.3385 20.677 17.9986 19.9894 17.9986 19.9894C17.9986 19.9894 17.0922 18.4424 15.0527 18.7862L15.9592 9.16016Z" fill="#2F2E41"/>
<path d="M4.786 46.6086C4.51277 46.8902 4.56756 47.2928 4.32553 47.5904C4.11574 47.8484 3.72037 47.9837 3.45796 48.2123C3.37423 48.2882 3.29958 48.3697 3.23491 48.4557C2.99149 48.765 2.79363 49.1614 3.03337 49.4723C3.22622 49.7224 3.63159 49.8202 4.00336 49.8868C4.47326 49.971 4.96149 50.0384 5.43681 49.9741C5.91213 49.9097 6.37667 49.6889 6.54615 49.346C6.57946 49.2598 6.61905 49.175 6.66476 49.0921C6.92239 48.7074 7.73047 48.7032 7.99414 48.3208C8.17866 48.0532 8.00904 47.7298 7.83949 47.4566L7.32166 46.6221C7.14981 46.3451 6.45318 46.5044 6.09001 46.438C5.61635 46.3515 5.12674 46.2561 4.786 46.6086Z" fill="#2F2E41"/>
<path d="M1.00293 19.8165L5.76165 25.403C5.76165 25.403 8.70752 28.2392 9.61394 26.95C10.5204 25.6608 6.44146 23.5122 6.44146 23.5122L3.38229 19.2148L1.00293 19.8165Z" fill="#EDC9BE"/>
<path d="M3.38249 9.33205L2.47607 9.16016C2.47607 9.16016 0.663226 9.58989 0.210016 11.3948C-0.243194 13.1996 0.0967125 20.4191 0.663226 20.5051C1.22974 20.591 3.46123 19.248 3.81842 19.5328C4.17561 19.8175 3.04258 18.3564 3.38249 17.5829C3.72239 16.8094 3.38249 9.33205 3.38249 9.33205Z" fill="#2F2E41"/>
<path d="M45.9807 13.168H43.0522V13.7027H45.9807V13.168Z" fill="#0175A2"/>
<path d="M56.1217 13.168H55.0913V13.7027H56.1217V13.168Z" fill="#0175A2"/>
<path d="M58.1827 13.168H57.1523V13.7027H58.1827V13.168Z" fill="#0175A2"/>
<path d="M54.0069 13.168H47.0112V13.7027H54.0069V13.168Z" fill="#0175A2"/>
<path d="M42.2932 16.623H39.3647V17.1578H42.2932V16.623Z" fill="#0175A2"/>
<path d="M52.4342 16.623H51.4038V17.1578H52.4342V16.623Z" fill="#0175A2"/>
<path d="M54.4952 16.623H53.4648V17.1578H54.4952V16.623Z" fill="#0175A2"/>
<path d="M50.3194 16.623H43.3237V17.1578H50.3194V16.623Z" fill="#0175A2"/>
<path d="M54.3864 14.3613H51.458V14.8961H54.3864V14.3613Z" fill="#0175A2"/>
<path d="M58.3454 14.3613H55.417V14.8961H58.3454V14.3613Z" fill="#0175A2"/>
<path d="M40.3951 14.3613H39.3647V14.8961H40.3951V14.3613Z" fill="#0175A2"/>
<path d="M42.4557 14.3613H41.4253V14.8961H42.4557V14.3613Z" fill="#0175A2"/>
<path d="M50.482 14.3613H43.4863V14.8961H50.482V14.3613Z" fill="#0175A2"/>
<path d="M48.3127 15.5137H45.3843V16.0484H48.3127V15.5137Z" fill="#0175A2"/>
<path d="M44.3537 15.5137H41.4253V16.0484H44.3537V15.5137Z" fill="#0175A2"/>
<path d="M40.3951 15.5137H39.3647V16.0484H40.3951V15.5137Z" fill="#0175A2"/>
<path d="M58.3453 15.5137H57.3149V16.0484H58.3453V15.5137Z" fill="#0175A2"/>
<path d="M56.2848 15.5137H49.2891V16.0484H56.2848V15.5137Z" fill="#0175A2"/>
</g>
<defs>
<clipPath id="clip0_6896_23841">
<rect width="70" height="50" fill="white"/>
</clipPath>
</defs>
</svg>
