<svg width="70" height="50" viewBox="0 0 70 50" fill="none" xmlns="http://www.w3.org/2000/svg">
<g clip-path="url(#clip0_6896_23725)">
<path opacity="0.1" d="M17.8074 20.0352H10.3934C10.1308 20.0352 9.91797 20.254 9.91797 20.524V22.1463C9.91797 22.4163 10.1308 22.6352 10.3934 22.6352H17.8074C18.0699 22.6352 18.2828 22.4163 18.2828 22.1463V20.524C18.2828 20.254 18.0699 20.0352 17.8074 20.0352Z" fill="#0175A2"/>
<path opacity="0.1" d="M26.5608 22.6348H19.1468C18.8842 22.6348 18.6714 22.8536 18.6714 23.1236V24.746C18.6714 25.0159 18.8842 25.2348 19.1468 25.2348H26.5608C26.8233 25.2348 27.0362 25.0159 27.0362 24.746V23.1236C27.0362 22.8536 26.8233 22.6348 26.5608 22.6348Z" fill="#0175A2"/>
<path opacity="0.1" d="M35.3157 25.2344H27.9017C27.6391 25.2344 27.4263 25.4532 27.4263 25.7232V27.3456C27.4263 27.6155 27.6391 27.8344 27.9017 27.8344H35.3157C35.5782 27.8344 35.7911 27.6155 35.7911 27.3456V25.7232C35.7911 25.4532 35.5782 25.2344 35.3157 25.2344Z" fill="#0175A2"/>
<path opacity="0.1" d="M17.8074 16.1348H10.3934C10.1308 16.1348 9.91797 16.3536 9.91797 16.6236V18.2459C9.91797 18.5159 10.1308 18.7348 10.3934 18.7348H17.8074C18.0699 18.7348 18.2828 18.5159 18.2828 18.2459V16.6236C18.2828 16.3536 18.0699 16.1348 17.8074 16.1348Z" fill="#0175A2"/>
<path opacity="0.1" d="M26.5608 18.7344H19.1468C18.8842 18.7344 18.6714 18.9532 18.6714 19.2232V20.8456C18.6714 21.1155 18.8842 21.3344 19.1468 21.3344H26.5608C26.8233 21.3344 27.0362 21.1155 27.0362 20.8456V19.2232C27.0362 18.9532 26.8233 18.7344 26.5608 18.7344Z" fill="#0175A2"/>
<path opacity="0.1" d="M35.3157 21.334H27.9017C27.6391 21.334 27.4263 21.5528 27.4263 21.8228V23.4452C27.4263 23.7151 27.6391 23.934 27.9017 23.934H35.3157C35.5782 23.934 35.7911 23.7151 35.7911 23.4452V21.8228C35.7911 21.5528 35.5782 21.334 35.3157 21.334Z" fill="#0175A2"/>
<path opacity="0.1" d="M45.0417 20.0352H37.6278C37.3652 20.0352 37.1523 20.254 37.1523 20.524V22.1463C37.1523 22.4163 37.3652 22.6352 37.6278 22.6352H45.0417C45.3043 22.6352 45.5172 22.4163 45.5172 22.1463V20.524C45.5172 20.254 45.3043 20.0352 45.0417 20.0352Z" fill="#0175A2"/>
<path opacity="0.1" d="M53.7956 22.6348H46.3817C46.1191 22.6348 45.9062 22.8536 45.9062 23.1236V24.746C45.9062 25.0159 46.1191 25.2348 46.3817 25.2348H53.7956C54.0582 25.2348 54.2711 25.0159 54.2711 24.746V23.1236C54.2711 22.8536 54.0582 22.6348 53.7956 22.6348Z" fill="#0175A2"/>
<path opacity="0.1" d="M62.55 25.2344H55.1361C54.8735 25.2344 54.6606 25.4532 54.6606 25.7232V27.3456C54.6606 27.6155 54.8735 27.8344 55.1361 27.8344H62.55C62.8126 27.8344 63.0255 27.6155 63.0255 27.3456V25.7232C63.0255 25.4532 62.8126 25.2344 62.55 25.2344Z" fill="#0175A2"/>
<path opacity="0.1" d="M45.0417 16.1348H37.6278C37.3652 16.1348 37.1523 16.3536 37.1523 16.6236V18.2459C37.1523 18.5159 37.3652 18.7348 37.6278 18.7348H45.0417C45.3043 18.7348 45.5172 18.5159 45.5172 18.2459V16.6236C45.5172 16.3536 45.3043 16.1348 45.0417 16.1348Z" fill="#0175A2"/>
<path opacity="0.1" d="M53.7956 18.7344H46.3817C46.1191 18.7344 45.9062 18.9532 45.9062 19.2232V20.8456C45.9062 21.1155 46.1191 21.3344 46.3817 21.3344H53.7956C54.0582 21.3344 54.2711 21.1155 54.2711 20.8456V19.2232C54.2711 18.9532 54.0582 18.7344 53.7956 18.7344Z" fill="#0175A2"/>
<path opacity="0.1" d="M62.55 21.334H55.1361C54.8735 21.334 54.6606 21.5528 54.6606 21.8228V23.4452C54.6606 23.7151 54.8735 23.934 55.1361 23.934H62.55C62.8126 23.934 63.0255 23.7151 63.0255 23.4452V21.8228C63.0255 21.5528 62.8126 21.334 62.55 21.334Z" fill="#0175A2"/>
<path opacity="0.1" d="M17.8074 10.9336H10.3934C10.1308 10.9336 9.91797 11.1524 9.91797 11.4224V13.0448C9.91797 13.3147 10.1308 13.5336 10.3934 13.5336H17.8074C18.0699 13.5336 18.2828 13.3147 18.2828 13.0448V11.4224C18.2828 11.1524 18.0699 10.9336 17.8074 10.9336Z" fill="#0175A2"/>
<path opacity="0.1" d="M26.5608 13.5332H19.1468C18.8842 13.5332 18.6714 13.7521 18.6714 14.022V15.6444C18.6714 15.9144 18.8842 16.1332 19.1468 16.1332H26.5608C26.8233 16.1332 27.0362 15.9144 27.0362 15.6444V14.022C27.0362 13.7521 26.8233 13.5332 26.5608 13.5332Z" fill="#0175A2"/>
<path opacity="0.1" d="M35.3157 16.1348H27.9017C27.6391 16.1348 27.4263 16.3536 27.4263 16.6236V18.2459C27.4263 18.5159 27.6391 18.7348 27.9017 18.7348H35.3157C35.5782 18.7348 35.7911 18.5159 35.7911 18.2459V16.6236C35.7911 16.3536 35.5782 16.1348 35.3157 16.1348Z" fill="#0175A2"/>
<path opacity="0.1" d="M17.8074 7.0332H10.3934C10.1308 7.0332 9.91797 7.25205 9.91797 7.52202V9.14439C9.91797 9.41435 10.1308 9.6332 10.3934 9.6332H17.8074C18.0699 9.6332 18.2828 9.41435 18.2828 9.14439V7.52202C18.2828 7.25205 18.0699 7.0332 17.8074 7.0332Z" fill="#0175A2"/>
<path opacity="0.1" d="M26.5608 9.63281H19.1468C18.8842 9.63281 18.6714 9.85166 18.6714 10.1216V11.744C18.6714 12.014 18.8842 12.2328 19.1468 12.2328H26.5608C26.8233 12.2328 27.0362 12.014 27.0362 11.744V10.1216C27.0362 9.85166 26.8233 9.63281 26.5608 9.63281Z" fill="#0175A2"/>
<path opacity="0.1" d="M35.3157 12.2344H27.9017C27.6391 12.2344 27.4263 12.4532 27.4263 12.7232V14.3456C27.4263 14.6155 27.6391 14.8344 27.9017 14.8344H35.3157C35.5782 14.8344 35.7911 14.6155 35.7911 14.3456V12.7232C35.7911 12.4532 35.5782 12.2344 35.3157 12.2344Z" fill="#0175A2"/>
<path opacity="0.1" d="M45.0417 10.9336H37.6278C37.3652 10.9336 37.1523 11.1524 37.1523 11.4224V13.0448C37.1523 13.3147 37.3652 13.5336 37.6278 13.5336H45.0417C45.3043 13.5336 45.5172 13.3147 45.5172 13.0448V11.4224C45.5172 11.1524 45.3043 10.9336 45.0417 10.9336Z" fill="#0175A2"/>
<path opacity="0.1" d="M53.7956 13.5332H46.3817C46.1191 13.5332 45.9062 13.7521 45.9062 14.022V15.6444C45.9062 15.9144 46.1191 16.1332 46.3817 16.1332H53.7956C54.0582 16.1332 54.2711 15.9144 54.2711 15.6444V14.022C54.2711 13.7521 54.0582 13.5332 53.7956 13.5332Z" fill="#0175A2"/>
<path opacity="0.1" d="M62.55 16.1348H55.1361C54.8735 16.1348 54.6606 16.3536 54.6606 16.6236V18.2459C54.6606 18.5159 54.8735 18.7348 55.1361 18.7348H62.55C62.8126 18.7348 63.0255 18.5159 63.0255 18.2459V16.6236C63.0255 16.3536 62.8126 16.1348 62.55 16.1348Z" fill="#0175A2"/>
<path opacity="0.1" d="M45.0417 7.0332H37.6278C37.3652 7.0332 37.1523 7.25205 37.1523 7.52202V9.14439C37.1523 9.41435 37.3652 9.6332 37.6278 9.6332H45.0417C45.3043 9.6332 45.5172 9.41435 45.5172 9.14439V7.52202C45.5172 7.25205 45.3043 7.0332 45.0417 7.0332Z" fill="#0175A2"/>
<path opacity="0.1" d="M53.7956 9.63281H46.3817C46.1191 9.63281 45.9062 9.85166 45.9062 10.1216V11.744C45.9062 12.014 46.1191 12.2328 46.3817 12.2328H53.7956C54.0582 12.2328 54.2711 12.014 54.2711 11.744V10.1216C54.2711 9.85166 54.0582 9.63281 53.7956 9.63281Z" fill="#0175A2"/>
<path opacity="0.1" d="M62.55 12.2344H55.1361C54.8735 12.2344 54.6606 12.4532 54.6606 12.7232V14.3456C54.6606 14.6155 54.8735 14.8344 55.1361 14.8344H62.55C62.8126 14.8344 63.0255 14.6155 63.0255 14.3456V12.7232C63.0255 12.4532 62.8126 12.2344 62.55 12.2344Z" fill="#0175A2"/>
<path opacity="0.1" d="M35 50.0003C54.33 50.0003 70 47.0695 70 43.4543C70 39.839 54.33 36.9082 35 36.9082C15.67 36.9082 0 39.839 0 43.4543C0 47.0695 15.67 50.0003 35 50.0003Z" fill="#0175A2"/>
<path d="M15.3564 21.1188L12.4131 39.6715L25.722 38.2241L25.1462 36.6451L14.7486 37.5333L17.18 21.0859L15.3564 21.1188Z" fill="#3F3D56"/>
<path d="M11.9014 0.0657895L29.8173 0L35.0001 40.3289L17.0202 42.8289L11.9014 0.0657895Z" fill="#3F3D56"/>
<path d="M13.853 1.61133H28.3137L33.3686 39.1113L18.46 41.2166L13.853 1.61133Z" fill="#FCFCFD"/>
<path d="M27.4909 37.425C27.5817 37.604 27.6495 37.7974 27.7679 37.9586C28.1134 38.4336 28.7693 38.5079 29.2613 38.8178C29.2859 38.8306 29.3062 38.8508 29.3196 38.8757C29.3419 38.9303 29.292 38.9875 29.244 39.0217C28.871 39.2908 28.3815 39.2967 27.9253 39.2934C27.772 39.299 27.6186 39.284 27.4691 39.2487C27.2279 39.1829 27.0212 39.0099 26.7832 38.9395C26.6597 38.9078 26.5334 38.8895 26.4063 38.8849L25.9066 38.85C25.7735 38.848 25.6418 38.8229 25.5169 38.7757C25.4547 38.7512 25.3995 38.7109 25.3565 38.6585C25.3136 38.6062 25.2842 38.5435 25.2712 38.4763C25.2571 38.3671 25.3026 38.2612 25.3294 38.1546C25.3934 37.902 25.3736 37.5967 25.5649 37.4243C25.6437 37.3623 25.7341 37.3175 25.8304 37.2928C26.1782 37.1723 26.5332 37.0751 26.8932 37.002C27.1895 36.9421 27.3597 37.1658 27.4909 37.425Z" fill="#3F3D56"/>
<path d="M21.8383 38.8478C21.8511 38.9879 21.8549 39.1484 21.7564 39.2464C21.695 39.2988 21.6209 39.333 21.542 39.3451C21.0692 39.4583 20.5419 39.4662 20.1305 39.2017C20.0877 39.1766 20.0499 39.1433 20.0192 39.1037C19.9849 39.0497 19.9654 38.9872 19.9629 38.9228C19.9481 38.7366 20.0038 38.553 20.0544 38.3734C20.174 37.9473 20.2648 37.5131 20.3263 37.0741C20.3314 37.0379 21.5337 37.2714 21.6137 37.3938C21.7141 37.5451 21.7148 37.9083 21.7416 38.0885C21.7822 38.3403 21.8144 38.5934 21.8383 38.8478Z" fill="#3F3D56"/>
<path d="M26.3132 21.7279L26.6331 24.7864C26.6971 25.4114 26.7643 26.0397 26.7201 26.6667C26.669 27.3904 26.4719 28.114 26.5551 28.8311C26.5877 29.1101 26.6619 29.3838 26.6728 29.6647C26.6748 29.8515 26.6656 30.0383 26.6453 30.2239C26.5007 32.0798 26.9582 33.9213 27.2141 35.764C27.2553 35.9913 27.2643 36.2236 27.241 36.4535C27.2077 36.6871 27.1412 36.9937 27.3434 37.1042L25.4443 37.8121C25.2018 37.4996 25.3624 37.0134 25.3163 36.6167C25.2741 36.2594 25.0834 35.941 24.9817 35.5969C24.8895 35.2877 24.8703 34.9621 24.8403 34.641C24.6745 32.893 24.1659 31.1904 24.0468 29.4384C24.043 29.2692 24.0216 29.1009 23.9829 28.9364C23.9189 28.7186 23.7909 28.5285 23.6975 28.3239C23.5542 28.0167 23.4838 27.6798 23.4147 27.3469L23.0084 25.3897C22.5976 26.0186 22.6142 26.8371 22.5329 27.591C22.4191 28.6437 22.1644 29.6785 21.9571 30.718C21.9089 30.9416 21.8728 31.1679 21.8489 31.3956C21.7952 32.0055 21.9021 32.6213 21.8451 33.2305C21.7811 33.9364 21.4925 34.6252 21.5623 35.3311C21.6007 35.7219 21.7466 36.0917 21.8451 36.4706C21.9436 36.8496 21.9923 37.2654 21.8419 37.6265C21.3164 37.4282 20.7518 37.364 20.1968 37.4397C19.5871 36.7983 19.4789 35.9035 19.4373 35.0055C19.3957 34.1075 19.4962 33.2081 19.3874 32.3187C19.3554 32.0555 19.3055 31.7989 19.2972 31.5364C19.2703 30.695 19.6638 29.9075 19.8596 29.0897C20.0358 28.3535 20.0527 27.5866 19.9089 26.843C19.8129 26.3515 19.6478 25.8746 19.589 25.3765C19.509 24.6785 19.6446 23.9752 19.7809 23.2858C19.8724 22.8206 19.9633 22.3555 20.067 21.893C20.1783 21.3963 20.3107 20.889 20.6083 20.4825C21.0843 19.8318 21.9296 19.543 22.7198 19.6061C23.51 19.6693 24.2478 20.039 24.9004 20.4996C25.4148 20.853 25.8887 21.2651 26.3132 21.7279Z" fill="#192534"/>
<path d="M24.1904 10.0169C24.1545 10.0761 24.1296 10.1417 24.1168 10.2103C24.1008 10.3451 24.1808 10.4688 24.2448 10.5866C24.3268 10.7379 24.3898 10.8993 24.4323 11.0669C24.4627 11.1706 24.4721 11.2796 24.4598 11.3873C24.4442 11.4681 24.4161 11.5458 24.3766 11.6175C24.2531 11.8623 24.0701 12.0886 23.8212 12.1905C23.6284 12.2635 23.4182 12.2723 23.2204 12.2155C23.0238 12.1583 22.838 12.0676 22.6707 11.9471C22.5297 11.8552 22.4029 11.7421 22.2945 11.6116C22.191 11.4688 22.1038 11.3143 22.0347 11.1511C21.9016 10.8649 21.7666 10.559 21.7909 10.2451C21.7922 10.2167 21.7974 10.1886 21.8063 10.1616C21.8271 10.1129 21.8561 10.0683 21.892 10.03C22.165 9.6974 22.305 9.27061 22.2836 8.83594L23.2159 9.0537C23.4213 9.10173 23.6267 9.14975 23.8295 9.20962C23.9959 9.25896 24.2518 9.32738 24.36 9.48002C24.4681 9.63265 24.264 9.87738 24.1904 10.0169Z" fill="#EDC9BE"/>
<path d="M23.6914 9.85335C24.6272 9.85335 25.3857 9.07338 25.3857 8.11125C25.3857 7.14911 24.6272 6.36914 23.6914 6.36914C22.7556 6.36914 21.9971 7.14911 21.9971 8.11125C21.9971 9.07338 22.7556 9.85335 23.6914 9.85335Z" fill="#EDC9BE"/>
<path d="M23.4185 11.6264C23.4902 11.4652 23.645 11.3632 23.7864 11.2619C23.9279 11.1606 24.0712 11.031 24.0987 10.8553C24.1004 10.8156 24.11 10.7766 24.1268 10.7409C24.1812 10.6567 24.3105 10.6988 24.3879 10.7606C24.576 10.9113 24.704 11.1251 24.8288 11.3336C24.9902 11.5872 25.1283 11.8557 25.2415 12.1356C25.4213 12.6231 25.443 13.1553 25.4629 13.6757C25.4808 14.1494 25.4981 14.6303 25.3861 15.0895C25.3157 15.3803 25.1941 15.6626 25.1871 15.9619C25.166 17.0494 24.7987 18.0889 24.7731 19.1764C24.7712 19.4908 24.7866 19.8052 24.8192 20.1178L24.8793 20.8238C23.949 20.7689 23.0212 20.6849 22.096 20.5718C22.0691 20.2468 21.9789 19.9317 21.8963 19.6172C21.5583 18.3315 21.3417 17.0153 21.2494 15.6869C21.2002 14.9817 21.1496 14.279 21.0735 13.5764C21.005 12.9376 20.8706 12.2948 20.9513 11.6573C20.9934 11.3675 21.0821 11.087 21.2136 10.827C21.2552 10.7235 21.3266 10.6355 21.4183 10.5751C21.4642 10.5523 21.5128 10.5361 21.563 10.527C21.708 10.4968 21.8553 10.479 22.0032 10.4738C22.0393 10.4706 22.0757 10.4742 22.1107 10.4843C22.173 10.5162 22.2242 10.5673 22.2572 10.6303C22.5423 11.071 22.9457 11.4171 23.4185 11.6264Z" fill="#F2F2F2"/>
<path d="M22.6328 11.4861C22.7518 11.6611 23.0039 11.7025 23.114 11.8808C23.1511 11.9553 23.1792 12.0342 23.1978 12.1157C23.265 12.3361 23.4006 12.5275 23.4832 12.7426C23.6022 13.0518 23.6054 13.3939 23.6067 13.7262C23.6184 13.9908 23.5986 14.2559 23.5478 14.5157C23.5094 14.6782 23.4467 14.8328 23.4006 14.9933C23.3224 15.2663 23.2933 15.5517 23.3149 15.8354C23.3149 15.8967 23.3308 15.9569 23.361 16.0097C23.4044 16.0626 23.461 16.1022 23.5248 16.1242C23.7122 16.2091 23.9087 16.2959 24.1134 16.2762C24.1554 16.2748 24.1961 16.2609 24.2305 16.2361C24.2543 16.2138 24.2738 16.1873 24.2881 16.1578L24.4161 15.9354C24.5319 15.7321 24.6528 15.5045 24.608 15.2722C24.5755 15.1524 24.5266 15.0378 24.4628 14.9321C24.381 14.7605 24.3113 14.5831 24.2542 14.4012C24.0501 13.7979 23.8434 13.1861 23.7973 12.5492C23.7703 12.3068 23.7965 12.0613 23.8741 11.8308C23.9342 11.6889 24.0098 11.5545 24.0994 11.4301C24.0791 11.4022 24.051 11.3812 24.0189 11.3701C23.9868 11.3589 23.9522 11.3581 23.9196 11.3676C23.8552 11.3881 23.7929 11.4147 23.7334 11.4472C23.5452 11.5288 23.3367 11.4992 23.1466 11.4433C23.0724 11.4209 22.9547 11.3446 22.8779 11.3499C22.8516 11.3532 22.6373 11.4939 22.6328 11.4861Z" fill="#0175A2"/>
<path d="M24.1306 11.4786C24.0922 11.447 24.0327 11.4181 23.9988 11.4549C23.9874 11.4709 23.9791 11.489 23.9745 11.5082C23.9412 11.6003 23.8433 11.6457 23.7543 11.6812C23.6654 11.7168 23.5694 11.7365 23.5157 11.6687C23.4987 11.6424 23.4904 11.6111 23.4919 11.5795C23.4934 11.5479 23.5046 11.5177 23.524 11.4931C23.5634 11.4443 23.6108 11.4031 23.6641 11.3714C23.9584 11.1578 24.1589 10.8334 24.2221 10.4688C24.3046 10.5362 24.3593 10.6333 24.375 10.7405C24.3961 10.8451 24.3987 10.953 24.4198 11.0576C24.4511 11.2076 24.5209 11.3477 24.5369 11.4997C24.5452 11.5806 24.5369 11.6622 24.5369 11.7431C24.5398 11.8222 24.5487 11.901 24.5638 11.9786C24.414 11.8155 24.3085 11.624 24.1306 11.4786Z" fill="#F2F2F2"/>
<path d="M22.8358 11.0313C22.7718 10.9688 22.7078 10.9096 22.6439 10.8458C22.3631 10.564 22.1511 10.218 22.0251 9.83594C21.9432 9.90173 21.853 9.98857 21.8511 10.0991C21.8584 10.1773 21.8877 10.2516 21.9355 10.3129C22.1775 10.7047 22.3372 11.1441 22.4045 11.603C22.4391 11.5475 22.487 11.5021 22.5436 11.4711C22.6002 11.4401 22.6636 11.4246 22.7277 11.4261C22.8288 11.4261 23.2824 11.7024 23.3151 11.6326C23.363 11.5234 22.9126 11.1057 22.8358 11.0313Z" fill="#F2F2F2"/>
<path d="M24.2645 10.5095C24.8664 11.1255 25.6032 11.5842 26.4131 11.847C26.4937 11.865 26.5683 11.904 26.6301 11.9601C26.6762 12.0193 26.7072 12.0894 26.7203 12.1641C26.8764 12.7917 26.9289 13.4411 26.9807 14.0865C26.9943 14.1932 26.9921 14.3014 26.9743 14.4075C26.9365 14.5799 26.8175 14.7193 26.7004 14.849C26.3332 15.2536 25.9141 15.6766 25.852 16.2266C25.8473 16.3326 25.8351 16.4381 25.8155 16.5424C25.7835 16.6647 25.7125 16.7726 25.669 16.8917C25.4553 17.4779 25.9384 18.1878 25.644 18.7338C25.8034 19.0486 25.9127 19.3875 25.9678 19.7378C25.9777 19.8706 26.0072 20.001 26.0555 20.1246C26.1431 20.3128 26.3236 20.4325 26.4656 20.5851C26.8988 21.0417 26.9519 21.7404 26.9775 22.3779C26.9935 22.7371 26.9884 23.1496 26.7216 23.3851C26.5673 23.5226 26.3568 23.5674 26.1553 23.6016C25.8872 23.6476 25.5954 23.6805 25.358 23.5443C25.1878 23.447 25.072 23.2766 24.9613 23.1121C24.7514 22.7983 24.5409 22.4851 24.3419 22.1634C24.0271 21.6562 23.7302 21.0766 23.8211 20.4818C23.7955 21.0904 23.6707 21.7036 23.3802 22.2338C23.0897 22.7641 22.622 23.2068 22.0545 23.3818C21.4869 23.5568 20.8234 23.4332 20.4004 23.0068C20.2624 22.8607 20.1438 22.6963 20.0479 22.518C19.8071 22.0941 19.6314 21.6345 19.527 21.1555C19.4995 21.0312 19.4791 20.8924 19.5398 20.7812C19.5686 20.7286 19.6128 20.6871 19.6429 20.6351C19.7439 20.4582 19.6467 20.2351 19.5488 20.0549C19.3997 20.0693 19.2929 19.8891 19.3063 19.7351C19.3197 19.5812 19.4093 19.4476 19.4727 19.3075C19.6582 18.8943 19.6173 18.4134 19.5277 17.968C19.4381 17.5226 19.3044 17.0799 19.3146 16.6253C19.3255 16.1443 18.9889 15.7115 18.7323 15.3095C18.589 15.0832 18.422 14.8726 18.2972 14.6351C18.0371 14.1353 17.977 13.5509 18.1296 13.0062C18.2192 12.7265 18.3367 12.4571 18.4802 12.2022L18.6914 11.795C18.7307 11.6977 18.7917 11.6113 18.8695 11.5427C18.9473 11.4741 19.0398 11.4253 19.1393 11.4003L20.6001 10.8082C20.7869 10.7426 20.9642 10.6514 21.1273 10.5371C21.3058 10.399 21.4389 10.2082 21.6091 10.0608C21.6339 10.034 21.6637 10.0126 21.6966 9.99778C21.7296 9.98298 21.7651 9.9751 21.8011 9.97461C21.938 9.98711 21.9866 10.1647 22.0007 10.3036C22.0327 10.6141 22.2567 10.8772 22.3328 11.1792C22.7449 12.847 23.617 14.3851 23.8563 16.0878C24.125 15.4239 24.3938 14.7588 24.738 14.1338C24.7923 14.0441 24.838 13.9491 24.8743 13.8503C24.9156 13.7077 24.931 13.5585 24.9197 13.4101C24.9024 12.9818 24.7918 12.5634 24.6823 12.1496C24.5403 11.5865 24.4123 11.0674 24.2645 10.5095Z" fill="#3F3D56"/>
<path d="M27.0484 15.6045C27.0766 15.8848 27.1041 16.1657 27.1547 16.4427C27.2135 16.7631 27.3031 17.0762 27.392 17.3894C27.4355 17.5654 27.4977 17.736 27.5776 17.8979C27.6066 17.9449 27.6296 17.9956 27.6461 18.0486C27.6774 18.1802 27.6058 18.3117 27.575 18.4433C27.4829 18.8381 27.7593 19.2769 27.5853 19.6407C27.5328 19.7512 27.4413 19.8427 27.4068 19.9611C27.3664 20.0973 27.4068 20.2427 27.4279 20.3835C27.4823 20.7782 27.3511 21.1795 27.2218 21.5591L27.0017 22.1999C26.8008 21.8157 26.598 21.4275 26.3203 21.0979C26.2211 20.9795 26.113 20.8696 26.0215 20.7446C25.885 20.5482 25.7773 20.3323 25.7015 20.1038C25.5062 19.561 25.3946 18.9901 25.3707 18.4117C25.3549 18.2473 25.3734 18.0813 25.4251 17.9249C25.4675 17.8344 25.5149 17.7466 25.5672 17.6617C25.7387 17.344 25.7739 16.9677 25.7707 16.6045C25.7675 16.2413 25.7297 15.8769 25.7707 15.5157C25.8041 15.2141 25.8908 14.9214 26.0266 14.6519C26.1067 14.4774 26.2257 14.3248 26.374 14.2065C26.4847 14.1213 26.6197 14.0762 26.7579 14.0782C26.9672 14.0907 26.9192 14.2756 26.9371 14.4538L27.0484 15.6045Z" fill="#3F3D56"/>
<path d="M17.6367 14.7093C17.5062 15.1041 17.3885 15.5023 17.2835 15.9041C17.1812 16.2988 17.0897 16.6958 17.009 17.0949C16.9676 17.2704 16.9445 17.4499 16.9399 17.6304C16.9481 17.8406 16.9832 18.0487 17.0442 18.2495C17.4563 19.7765 18.2075 21.185 19.0534 22.5093C19.2951 22.1994 19.5822 21.93 19.9044 21.7107C19.9307 21.6946 19.9528 21.672 19.9684 21.6449C19.9765 21.6193 19.9788 21.5921 19.9753 21.5655C19.9718 21.5388 19.9624 21.5133 19.9479 21.4909C19.7143 20.9988 19.3445 20.5653 19.2281 20.0304C19.1794 19.808 19.1775 19.5765 19.1225 19.3554C19.0515 19.0692 18.8928 18.8074 18.8563 18.514C18.8173 18.1942 18.9203 17.8455 18.7744 17.562C19.0719 17.4429 19.2441 17.1278 19.3701 16.8258C19.5048 16.5169 19.6011 16.1917 19.6568 15.858C19.7444 15.2183 19.6226 14.5668 19.3106 14.0061C19.1582 13.7263 18.9626 13.4739 18.7315 13.2587C18.6554 13.1883 18.4756 12.9863 18.3649 12.9883C18.2171 12.9916 18.1697 13.2376 18.1275 13.3482C17.9567 13.7995 17.7877 14.2515 17.6367 14.7093Z" fill="#3F3D56"/>
<path d="M20.2873 22.0739C20.3065 22.0883 20.3283 22.1081 20.3232 22.1318C20.3181 22.1554 20.2995 22.1614 20.2829 22.1712C20.1964 22.2343 20.1318 22.3242 20.0986 22.4278C19.9923 22.6742 19.8995 22.9266 19.8209 23.1837C19.6777 22.9632 19.5093 22.7611 19.3192 22.5818C19.1734 22.4436 19.0102 22.3127 18.9321 22.1258C18.9321 22.1206 19.2674 21.866 19.2981 21.8383C19.3922 21.7522 19.5106 21.5133 19.6078 21.4607C19.7179 21.4015 19.8228 21.6337 19.9066 21.7272C20.0219 21.8555 20.1495 21.9717 20.2873 22.0739Z" fill="#EDC9BE"/>
<path d="M25.4904 7.83971C25.4859 7.75353 25.4751 7.65813 25.4111 7.60221C25.3549 7.56226 25.2873 7.54302 25.2191 7.54761C24.8461 7.53511 24.4603 7.59958 24.1083 7.47063C23.8767 7.38576 23.679 7.2226 23.4531 7.12129C23.2273 7.01997 22.938 6.993 22.7557 7.16339C22.6175 7.29497 22.5797 7.49695 22.5317 7.68313C22.4261 8.09406 22.238 8.47771 21.9795 8.80945C21.8061 8.75418 21.682 8.59497 21.602 8.42787C21.3301 7.85813 21.4638 7.17787 21.6571 6.57392C21.721 6.37129 21.7921 6.17063 21.8631 5.97063L22.0192 5.52853C22.2241 5.50783 22.4145 5.41043 22.5541 5.25484L22.6213 5.42261C22.7948 5.41619 22.9623 5.35535 23.1012 5.24826C23.1549 5.35221 23.2932 5.37984 23.4051 5.34629C23.5171 5.31274 23.6137 5.24826 23.7251 5.21471C24.0226 5.11603 24.34 5.268 24.6522 5.28511C24.7843 5.2818 24.9166 5.28575 25.0483 5.29695C25.4168 5.35813 25.6773 5.71471 25.7899 6.0805C25.8647 6.32392 25.9268 6.62326 26.1603 6.70945C26.1655 6.80155 26.0068 6.81932 25.9933 6.90682C25.9918 6.93599 25.9984 6.96501 26.0125 6.99037L26.2269 7.46339C26.1244 7.48984 26.0166 7.48435 25.9172 7.44761C25.8206 7.68116 25.5 8.018 25.4904 7.83971Z" fill="#192534"/>
<path d="M36.3527 8.86829C36.4613 9.22904 36.5468 9.59671 36.6087 9.96895C36.6547 10.2479 36.6816 10.5578 36.5261 10.7907C37.1186 9.87421 37.7374 8.93014 38.6377 8.33869C38.4543 8.13431 38.3149 7.89256 38.2283 7.62915C38.1418 7.36574 38.1101 7.08656 38.1354 6.80974C38.1405 6.75448 37.3963 7.04329 37.3394 7.07619C37.0783 7.22553 36.839 7.41106 36.5844 7.57092C36.4526 7.65316 35.9036 7.8479 35.8984 7.96566C35.8984 8.04132 36.1166 8.2729 36.1576 8.3525C36.2379 8.51789 36.3033 8.69056 36.3527 8.86829Z" fill="#EDC9BE"/>
<path d="M39.1057 43.4326C38.9594 43.3266 38.788 43.2633 38.6095 43.2494C38.4311 43.2355 38.2523 43.2715 38.0922 43.3536C37.8023 43.5076 37.6072 43.799 37.3435 43.9964C36.8905 44.3345 36.2923 44.3615 35.7618 44.5444C35.6211 44.5931 35.4713 44.6655 35.4118 44.8076C35.3919 44.8673 35.3839 44.9306 35.3884 44.9935C35.3929 45.0565 35.4098 45.1179 35.4381 45.174C35.5267 45.3772 35.6821 45.5419 35.877 45.6391C36.115 45.7562 36.3889 45.7615 36.6525 45.7648L38.9432 45.7924C39.647 45.801 40.3553 45.8095 41.0547 45.8997C41.2179 45.9207 41.3945 45.9437 41.5384 45.8615C41.7726 45.7299 41.7995 45.397 41.7816 45.1227C41.7344 44.4276 41.5833 43.7441 41.3337 43.0964C41.3062 43.0247 41.2697 42.9431 41.1923 42.9299C41.1373 42.9274 41.0833 42.9451 41.04 42.9799C40.3937 43.3747 39.5754 43.5977 38.8882 43.2819" fill="#FCFCFD"/>
<path d="M40.2524 28.4068C39.9965 29.9351 40.1635 31.5055 40.4514 33.0272C40.5044 33.3302 40.5743 33.6298 40.6606 33.9246C40.7637 34.2601 40.9025 34.5825 40.9991 34.92C41.2448 35.7752 41.2103 36.6897 41.1738 37.5825L41.0062 41.645C40.9921 41.9858 40.9793 42.3344 41.0791 42.6594C41.1194 42.791 41.1687 42.9555 41.0669 43.0443C41.0271 43.0737 40.9806 43.092 40.9319 43.0976C40.4741 43.1843 40.0012 43.1114 39.5882 42.8904L39.5428 38.7864C39.5287 37.5213 39.514 36.2509 39.3246 35.0015C39.1743 34.0081 38.9132 33.0279 38.8959 32.0226C38.878 30.97 39.1288 29.9311 39.3848 28.9108C39.4398 28.6923 39.6407 28.5325 39.8058 28.3844C39.8634 28.326 39.9335 28.2823 40.0105 28.2568C40.0873 28.2351 40.2051 28.3404 40.2524 28.4068Z" fill="#3F3D56"/>
<path opacity="0.1" d="M40.2524 28.4068C39.9965 29.9351 40.1635 31.5055 40.4514 33.0272C40.5044 33.3302 40.5743 33.6298 40.6606 33.9246C40.7637 34.2601 40.9025 34.5825 40.9991 34.92C41.2448 35.7752 41.2103 36.6897 41.1738 37.5825L41.0062 41.645C40.9921 41.9858 40.9793 42.3344 41.0791 42.6594C41.1194 42.791 41.1687 42.9555 41.0669 43.0443C41.0271 43.0737 40.9806 43.092 40.9319 43.0976C40.4741 43.1843 40.0012 43.1114 39.5882 42.8904L39.5428 38.7864C39.5287 37.5213 39.514 36.2509 39.3246 35.0015C39.1743 34.0081 38.9132 33.0279 38.8959 32.0226C38.878 30.97 39.1288 29.9311 39.3848 28.9108C39.4398 28.6923 39.6407 28.5325 39.8058 28.3844C39.8634 28.326 39.9335 28.2823 40.0105 28.2568C40.0873 28.2351 40.2051 28.3404 40.2524 28.4068Z" fill="black"/>
<path d="M35.4479 23.6306C35.3532 24.0312 35.5541 24.4464 35.5317 24.8582C35.5189 25.1075 35.4236 25.3562 35.4677 25.601C35.5119 25.8457 35.6821 26.0299 35.7729 26.2543C35.8392 26.4416 35.8742 26.6391 35.8766 26.8385C35.9028 27.3306 35.8817 27.8253 35.8638 28.3154C35.8337 29.1378 35.8113 29.9648 35.9169 30.7799C36.0088 31.4861 36.1955 32.1758 36.4717 32.8293C36.5553 33.007 36.6245 33.1917 36.6783 33.3812C36.7137 33.5579 36.7372 33.7368 36.7487 33.9168C36.8095 34.502 36.9623 35.0733 37.2011 35.6082C37.3643 35.9747 37.649 36.2661 37.7392 36.6549C37.8249 37.0273 37.7674 37.42 37.8294 37.797C37.8749 38.0766 37.9855 38.3411 38.047 38.6174C38.127 38.9747 38.125 39.345 38.1653 39.7095C38.2805 40.7622 38.7457 41.8148 38.468 42.8358C38.4123 43.0411 38.326 43.2497 38.365 43.4589C38.3842 43.5615 38.4328 43.6628 38.4111 43.7648C38.3931 43.8516 38.3279 43.9187 38.2946 44.001C38.2306 44.1549 38.2984 44.3378 38.4123 44.4569C38.5338 44.5679 38.6751 44.6537 38.8282 44.7095C39.2998 44.9168 39.788 45.1273 40.2999 45.1227C40.362 45.1261 40.4241 45.1144 40.481 45.0885C40.5731 45.0391 40.6185 44.9319 40.6576 44.8332L40.9199 44.1661C40.9519 44.0852 40.9839 43.9904 40.9398 43.9154C40.909 43.8743 40.8718 43.8387 40.8297 43.8102C40.6179 43.6266 40.6659 43.2839 40.7222 43.0082C40.866 42.3002 40.9457 41.58 40.9602 40.8569C40.9884 39.4148 40.7574 37.9812 40.527 36.5582C40.4471 36.0641 40.3664 35.5668 40.2071 35.0931C40.0478 34.6194 39.813 34.1635 39.8514 33.6714C39.8923 33.1398 39.7579 32.5825 39.8514 32.0582C39.9448 31.5339 40.0926 31.0207 40.1879 30.497C40.3114 29.8174 40.3421 29.1247 40.3799 28.4352C40.3959 28.1536 40.4164 27.8628 40.5443 27.6128C40.6192 27.4668 40.728 27.3418 40.8118 27.2003C41.0281 26.8325 41.0626 26.3766 41.2693 26.0029C41.3672 25.826 41.5022 25.67 41.5738 25.4806C41.6242 25.3311 41.6505 25.1742 41.6519 25.0161C41.6722 24.6191 41.6507 24.2209 41.5879 23.8286C40.4987 23.2587 39.2907 22.9706 38.0687 22.9891C37.601 22.997 37.1281 23.0457 36.6892 23.2122C36.2707 23.372 35.8894 23.5964 35.4479 23.6306Z" fill="#3F3D56"/>
<path d="M38.0711 44.473C37.883 44.7138 37.8958 45.0579 37.7755 45.3414C37.6296 45.6855 37.3046 45.9059 36.9962 46.1065L35.0766 47.3565C34.9717 47.4223 34.8591 47.5032 34.8207 47.6256C34.8024 47.7037 34.8058 47.7855 34.8303 47.8618C34.8761 48.0269 34.9615 48.1775 35.0787 48.2998C35.1958 48.4221 35.341 48.5122 35.5008 48.5618C35.6707 48.6034 35.8452 48.6218 36.0198 48.6164L36.8829 48.6282C37.1459 48.6388 37.4092 48.6283 37.6706 48.5967C37.9099 48.5611 38.1428 48.4907 38.3808 48.446C38.814 48.3651 39.2593 48.3723 39.6932 48.294C39.9588 48.2403 40.2212 48.1707 40.4789 48.0855C40.7924 47.9888 41.1117 47.8881 41.3805 47.6967C41.4544 47.6504 41.5145 47.5839 41.5539 47.5046C41.5993 47.396 41.5743 47.2717 41.5487 47.1565L41.1367 45.2947C41.1134 45.1396 41.0585 44.9914 40.9754 44.8598C40.8839 44.7348 40.7195 44.6519 40.5768 44.7052C40.5179 44.7328 40.4623 44.7672 40.4111 44.8079C40.1999 44.9506 39.9293 44.9743 39.6797 44.9296C39.5185 44.9 39.3054 44.8546 39.1755 44.7447C39.077 44.6611 39.0476 44.5315 38.9637 44.4368C38.905 44.3747 38.8342 44.3261 38.7559 44.294C38.6777 44.2619 38.5938 44.2471 38.5096 44.2505C38.4254 44.2539 38.3429 44.2755 38.2674 44.3138C38.1918 44.3521 38.125 44.4064 38.0711 44.473Z" fill="#FCFCFD"/>
<path d="M36.8269 8.61137C38.1037 8.61137 39.1387 7.54716 39.1387 6.2344C39.1387 4.92163 38.1037 3.85742 36.8269 3.85742C35.5502 3.85742 34.5151 4.92163 34.5151 6.2344C34.5151 7.54716 35.5502 8.61137 36.8269 8.61137Z" fill="#EDC9BE"/>
<path d="M35.0437 6.37494C35.2651 6.24731 35.2651 5.87954 35.4916 5.75718C35.7181 5.63481 35.9754 5.84731 36.1206 6.06178C36.3323 6.37588 36.4793 6.73119 36.5525 7.10586C36.573 7.21244 36.5922 7.32889 36.6702 7.40323C36.7483 7.47757 36.8507 7.48678 36.9505 7.49731C37.2427 7.52713 37.5353 7.55432 37.8284 7.57889C38.1547 7.60586 38.4989 7.62757 38.7952 7.48349C38.9121 7.42974 39.0125 7.34422 39.0857 7.23612C39.1443 7.13233 39.1862 7.01947 39.2098 6.90191C39.3627 6.30389 39.5169 5.69862 39.5297 5.0802C39.5349 4.82494 39.5131 4.56046 39.3935 4.33678C39.3237 4.2052 39.2213 4.09073 39.1925 3.94599C39.1637 3.80125 39.2565 3.61704 39.4024 3.63283C39.2705 3.63841 39.1392 3.61275 39.0185 3.55783C38.9027 3.49204 38.8169 3.3506 38.8579 3.22165C38.5328 3.26441 38.2961 2.93415 38.0427 2.72033C38.0015 2.67833 37.9459 2.6547 37.8879 2.65454C37.8434 2.66596 37.8004 2.68298 37.7599 2.7052C37.6319 2.75125 37.4982 2.66375 37.367 2.6256C37.0151 2.52428 36.5679 2.76902 36.3068 2.50586C36.3317 2.67362 36.1315 2.78612 35.9664 2.78283C35.8013 2.77954 35.6311 2.71704 35.475 2.77362C35.4976 2.81614 35.5108 2.86328 35.5136 2.91166C35.5165 2.96003 35.5089 3.00846 35.4914 3.05346C35.4739 3.09847 35.447 3.13895 35.4125 3.172C35.378 3.20506 35.3369 3.22987 35.292 3.24467L35.3694 3.41836C35.2896 3.43476 35.2159 3.47375 35.1566 3.53095C35.0972 3.58814 35.0546 3.66126 35.0335 3.74204C34.9484 4.08744 34.9695 4.57823 34.99 4.93349C35.0002 5.08941 35.148 6.31639 35.0437 6.37494Z" fill="#192534"/>
<path d="M37.0162 9.29918C35.8549 10.6419 35.5593 12.5321 35.3117 14.3117L34.9469 16.9393C34.8522 17.6209 34.755 18.3025 34.6724 18.986C34.6149 19.4538 34.5611 19.9288 34.6238 20.3959C34.6731 20.7643 34.7927 21.1196 34.8926 21.4742C35.1523 22.4043 35.2816 23.3677 35.2765 24.3354C35.3539 24.1012 35.622 24.0064 35.8575 23.9538C37.8332 23.513 39.8945 23.7394 41.7352 24.5992C42.0583 23.6683 41.9975 22.6498 42.0877 21.6656C42.2157 20.2623 42.6565 18.9025 42.7871 17.5018C42.8351 16.9801 42.8408 16.4558 42.8459 15.9314C42.8498 15.5465 42.8536 15.1577 42.7756 14.7808C42.6885 14.3637 42.5049 13.9748 42.3149 13.5965C41.7895 12.545 41.2059 11.5253 40.5668 10.5426C40.2451 10.0479 39.9097 9.563 39.5603 9.088C39.3833 8.84721 39.2026 8.60905 39.0183 8.37352C38.8398 8.14523 38.7624 7.94721 38.4789 8.08405C37.9434 8.34194 37.4059 8.84852 37.0162 9.29918Z" fill="#0175A2"/>
<path d="M37.6815 20.4741C37.3982 20.4846 37.1145 20.4754 36.8324 20.4465C36.6232 20.4254 36.4095 20.3938 36.2054 20.4465C36.1166 20.4694 36.0336 20.5113 35.9616 20.5695C35.9349 20.5939 35.9158 20.6258 35.9064 20.6612C35.8971 20.6967 35.8981 20.7341 35.9091 20.769C35.9202 20.8039 35.9409 20.8348 35.9688 20.8577C35.9966 20.8807 36.0304 20.8949 36.0659 20.8984L36.2847 20.9182C36.4236 20.9307 36.5682 20.9451 36.6763 21.0497C36.7207 21.0908 36.7489 21.1472 36.7557 21.2083C36.7691 21.3616 36.6398 21.4451 36.524 21.509C36.3594 21.5884 36.2071 21.6927 36.0723 21.8182C35.9667 21.9231 35.9003 22.0628 35.8848 22.2129C35.8843 22.2263 35.8873 22.2396 35.8933 22.2514C35.8994 22.2632 35.9084 22.2732 35.9195 22.2804C35.9305 22.2875 35.9431 22.2915 35.9561 22.292C35.9692 22.2926 35.9821 22.2895 35.9936 22.2833C36.2495 22.1517 36.4165 21.7616 36.6974 21.8267C36.4419 21.9099 36.2231 22.083 36.0793 22.3155C36.0439 22.3711 36.0277 22.4373 36.0334 22.5034C36.0392 22.5696 36.0665 22.6319 36.1109 22.6801C36.1553 22.7283 36.2143 22.7596 36.2783 22.7691C36.3422 22.7785 36.4074 22.7654 36.4632 22.732C36.5048 22.7069 36.545 22.6795 36.5835 22.6497C36.7739 22.4913 36.9443 22.3092 37.0909 22.1076C36.8862 22.5517 36.6789 23.0715 36.9143 23.5129C36.9261 23.5372 36.9444 23.5574 36.9671 23.5712C36.9898 23.585 37.016 23.5917 37.0423 23.5905C37.1165 23.5826 37.1383 23.5109 37.1504 23.4478C37.1888 23.2445 37.1984 23.03 37.2957 22.8491C37.5209 22.4293 38.0763 22.3886 38.4993 22.184C39.0067 21.9418 39.3541 21.4208 39.4942 20.8642C39.5433 20.7019 39.5518 20.5295 39.5192 20.3629C39.4251 19.9886 38.9759 19.9024 38.6874 20.0833C38.3335 20.3142 38.1281 20.4596 37.6815 20.4741Z" fill="#EDC9BE"/>
<path opacity="0.1" d="M37.2326 13.112C37.6805 13.8232 38.4579 14.2238 39.1247 14.7232C39.2873 14.8321 39.4292 14.9708 39.5431 15.1324C39.7114 15.3995 39.7351 15.739 39.7005 16.0535C39.657 16.4686 39.5271 16.8679 39.3985 17.264L39.1189 18.1225C38.9417 18.6673 38.7587 19.2232 38.4214 19.6811C38.3351 19.7975 38.2346 19.9219 38.2385 20.0679C38.2459 20.1523 38.2741 20.2333 38.3204 20.3035C38.4283 20.4845 38.5705 20.6414 38.7386 20.7648C38.9066 20.8882 39.0971 20.9757 39.2987 21.0219C39.4194 21.0535 39.5459 21.0535 39.6666 21.0219C39.8394 20.9692 39.9693 20.8245 40.0895 20.6877C40.6654 20.0344 41.2413 19.3719 41.6572 18.6054C42.0635 17.8574 42.3066 17.0265 42.5306 16.2035C42.6228 15.9005 42.6871 15.5892 42.7225 15.2738C42.7699 14.6817 42.6189 14.0896 42.3719 13.5548C42.1249 13.0199 41.7852 12.5357 41.4352 12.0653C41.1048 11.6033 40.7378 11.1702 40.3378 10.7706C39.6416 10.1015 38.79 9.70806 37.8584 10.0877C37.2006 10.3561 36.9543 10.916 36.8954 11.6331C36.8456 12.1508 36.9642 12.671 37.2326 13.112Z" fill="black"/>
<path d="M37.4653 12.9312C37.9132 13.6424 38.6912 14.0431 39.3573 14.5424C39.5194 14.6524 39.6606 14.792 39.7739 14.9543C39.9421 15.2214 39.9658 15.5602 39.9313 15.8753C39.8871 16.2904 39.7579 16.6898 39.6286 17.0858L39.349 17.9411C39.1718 18.4858 38.9888 19.0411 38.6516 19.4997C38.5658 19.6161 38.4654 19.7398 38.4692 19.8865C38.4762 19.9708 38.5045 20.0517 38.5511 20.1214C38.6589 20.3025 38.8009 20.4595 38.9689 20.583C39.1369 20.7066 39.3273 20.7941 39.5288 20.8404C39.6497 20.872 39.7764 20.872 39.8973 20.8404C40.0701 20.7885 40.1994 20.6431 40.3203 20.5069C40.8962 19.8529 41.472 19.1911 41.8879 18.4247C42.2942 17.6766 42.5374 16.8457 42.7613 16.022C42.8538 15.7193 42.9181 15.4083 42.9533 15.0931C43.0006 14.501 42.8496 13.9089 42.6033 13.3733C42.3569 12.8378 42.0165 12.3543 41.6665 11.8839C41.3351 11.4242 40.9672 10.9936 40.5666 10.5964C39.8711 9.92795 39.0195 9.53387 38.0878 9.91413C37.4294 10.1826 37.1837 10.7418 37.1242 11.4595C37.0773 11.9753 37.1971 12.4926 37.4653 12.9312Z" fill="#0175A2"/>
<path d="M51.6137 36.528C51.6142 36.6996 51.597 36.8707 51.5625 37.0386C51.5561 37.0702 51.5491 37.1044 51.542 37.1313C51.3603 37.8807 50.8478 38.4287 50.2361 38.4636C50.2156 38.4636 50.1951 38.4636 50.1721 38.4636C49.5252 38.4636 48.9781 37.8899 48.7977 37.0998C48.7926 37.0787 48.7881 37.0576 48.7836 37.034C48.7491 36.8661 48.732 36.695 48.7324 36.5234C48.7324 35.453 49.3768 34.5859 50.1721 34.5859C50.9674 34.5859 51.6137 35.4596 51.6137 36.528Z" fill="#3F3D56"/>
<path opacity="0.1" d="M51.6136 36.5287C51.6141 36.7002 51.5969 36.8713 51.5624 37.0392C51.556 37.0708 51.549 37.105 51.5419 37.1319C51.5202 37.1319 51.499 37.1319 51.4779 37.1319C51.3195 37.1232 51.162 37.1012 51.007 37.0662C50.8697 37.1098 50.7294 37.1428 50.5873 37.1648C50.4783 37.1817 50.3685 37.1923 50.2584 37.1964H50.147C50.0152 37.1964 49.8835 37.1874 49.7529 37.1694C49.5416 37.1404 49.3341 37.0875 49.1341 37.0116C49.0247 37.049 48.9131 37.0798 48.8001 37.1037C48.795 37.0826 48.7905 37.0616 48.7861 37.0379C48.7516 36.87 48.7344 36.6989 48.7349 36.5273C48.7349 35.4569 49.3792 34.5898 50.1745 34.5898C50.9699 34.5898 51.6136 35.4602 51.6136 36.5287Z" fill="black"/>
<path d="M54.685 32.9199C54.6856 32.4489 54.5782 31.9844 54.3714 31.564L52.6784 32.1055L54.1648 31.2068C53.9154 30.8366 53.5884 30.5287 53.2079 30.3057C52.8274 30.0828 52.4031 29.9505 51.9662 29.9186C51.8967 29.8102 51.8204 29.7064 51.7378 29.6081L49.3064 30.3864L51.3008 29.1805C50.9193 28.8794 50.4715 28.6797 49.997 28.599C49.5225 28.5182 49.036 28.559 48.5805 28.7176C48.125 28.8763 47.7145 29.1479 47.3855 29.5085C47.0564 29.8692 46.8188 30.3076 46.6938 30.7851L48.7766 33.2502L46.5172 31.5699C45.9449 31.9873 45.5375 32.6022 45.3692 33.3026C45.2008 34.003 45.2828 34.7422 45.6002 35.3856C45.9176 36.029 46.4492 36.5338 47.0983 36.808C47.7473 37.0821 48.4705 37.1074 49.1362 36.8792C49.7382 37.1067 50.3962 37.1254 51.0096 36.9324C51.4373 37.0292 51.8806 37.0262 52.3069 36.9236C52.7333 36.8209 53.1318 36.6214 53.4733 36.3395C53.8147 36.0576 54.0903 35.7006 54.2798 35.2947C54.4694 34.8889 54.568 34.4445 54.5685 33.9943C54.5685 33.9285 54.5685 33.8627 54.5621 33.7969C54.645 33.5125 54.6864 33.2169 54.685 32.9199Z" fill="#0175A2"/>
<path opacity="0.1" d="M54.6346 33.4782C53.7405 33.304 52.8236 33.2919 51.9255 33.4427C50.9087 33.6157 49.8696 33.996 48.8753 33.7184C48.2917 33.5552 47.7875 33.1776 47.2174 32.9677C46.6674 32.7704 46.0748 32.7339 45.5058 32.8624C45.289 33.3958 45.2261 33.982 45.3246 34.5512C45.4232 35.1203 45.679 35.6482 46.0615 36.0718C46.4441 36.4955 46.9371 36.7969 47.4818 36.9401C48.0265 37.0834 48.5998 37.0623 49.1331 36.8795C49.7352 37.1071 50.3932 37.1258 51.0066 36.9328C51.4343 37.0296 51.8776 37.0266 52.3039 36.9239C52.7303 36.8213 53.1288 36.6217 53.4702 36.3399C53.8117 36.058 54.0873 35.701 54.2768 35.2951C54.4664 34.8893 54.565 34.4449 54.5655 33.9947C54.5655 33.9289 54.5655 33.8631 54.5591 33.7973C54.59 33.6925 54.6152 33.5859 54.6346 33.4782Z" fill="black"/>
</g>
<defs>
<clipPath id="clip0_6896_23725">
<rect width="70" height="50" fill="white"/>
</clipPath>
</defs>
</svg>
