<svg width="70" height="50" viewBox="0 0 70 50" fill="none" xmlns="http://www.w3.org/2000/svg">
<g clip-path="url(#clip0_6896_23792)">
<path d="M49.1252 49.8307C49.0519 49.8874 48.9758 49.9435 48.8987 49.9995H40.1085C40.0362 49.9449 39.9649 49.8889 39.8936 49.8307C39.8907 49.8286 39.8878 49.8257 39.8849 49.8236C38.93 49.045 38.3287 47.9133 37.9538 46.7199C37.9297 46.6476 37.9086 46.5745 37.8874 46.5008C37.7891 46.1654 37.7091 45.8264 37.6436 45.4903C37.632 45.4322 37.6204 45.374 37.6108 45.3159C37.5221 44.833 37.4624 44.3579 37.4238 43.9119C37.419 43.8544 37.4142 43.7984 37.4094 43.7424C37.3388 42.8544 37.3381 41.9642 37.4075 41.0762C37.4075 41.0762 37.419 41.0762 37.4412 41.0769C37.5058 41.079 37.6609 41.084 37.8893 41.0939C38.5185 41.1223 39.7057 41.1932 41.102 41.3605C41.1781 41.3697 41.2552 41.3797 41.3323 41.3896C42.5133 41.5332 43.6783 41.7408 44.8177 42.0108C44.8891 42.0285 44.9594 42.0462 45.0307 42.0639L45.0317 42.0675L45.9057 45.2946L46.268 42.422C46.5561 42.5178 46.8366 42.6199 47.1054 42.7291C47.1806 42.7596 47.2538 42.7901 47.3261 42.8213C47.9407 43.0776 48.4986 43.4013 48.9806 43.7814C51.8474 46.1193 51.2336 48.209 49.1252 49.8307Z" fill="#F2F2F2"/>
<path d="M45.4517 45.7396L45.6041 45.8638C47.3656 47.3145 48.4168 48.6611 48.7407 49.8858C48.7458 49.9036 48.7494 49.9213 48.7545 49.9391L48.6418 49.9548L48.5332 49.9689C48.2027 48.6337 46.972 47.2534 45.4361 45.9878C45.3871 45.9466 45.3374 45.9048 45.286 45.8642C44.6294 45.3327 43.9235 44.8227 43.2096 44.3459C43.1548 44.3087 43.0984 44.2713 43.042 44.234C42.0954 43.6083 41.143 43.0422 40.2937 42.565C40.2339 42.531 40.1732 42.4976 40.1133 42.4649C38.6712 41.6615 37.5523 41.129 37.3029 41.0123C37.2728 40.9977 37.2558 40.99 37.252 40.9881L37.311 40.9187L37.3111 40.9176L37.3709 40.8477C37.3748 40.8496 37.432 40.8752 37.5354 40.9248C37.9236 41.109 38.9669 41.6158 40.2649 42.3363C40.3232 42.369 40.3839 42.4023 40.4437 42.4363C41.1335 42.823 41.888 43.2661 42.6499 43.7512C42.8415 43.8728 43.0284 43.9942 43.2105 44.1154C43.2677 44.1522 43.3241 44.1895 43.3789 44.2268C44.1507 44.7421 44.8416 45.2464 45.4517 45.7396Z" fill="#FCFCFD"/>
<path d="M41.1846 41.2227C41.1586 41.2687 41.1306 41.3148 41.1017 41.3602C40.8816 41.7107 40.6001 42.0385 40.2643 42.3352C40.2152 42.3778 40.1651 42.421 40.113 42.4636C39.9723 42.5777 39.8227 42.6881 39.664 42.7947C39.0147 43.2272 38.2453 43.5505 37.4091 43.7421C37.3821 43.7485 37.3561 43.7549 37.3291 43.7605C37.3339 43.8165 37.3387 43.8719 37.3435 43.9293C37.3706 43.9236 37.3966 43.9179 37.4235 43.9116C38.3108 43.7147 39.1274 43.3751 39.8143 42.9174C39.9823 42.8057 40.1421 42.6876 40.2932 42.5636C40.3452 42.5217 40.3954 42.4785 40.4436 42.4352C40.8026 42.1177 41.1015 41.7659 41.332 41.3893C41.359 41.3439 41.386 41.2985 41.412 41.2524C41.3349 41.2425 41.2588 41.2326 41.1846 41.2227Z" fill="#FCFCFD"/>
<path d="M44.8569 41.8867C44.8453 41.9286 44.8318 41.9704 44.8174 42.0122C44.5561 42.8094 43.9997 43.5376 43.2101 44.1161C43.1551 44.1565 43.0992 44.1963 43.0414 44.2345C43.025 44.2466 43.0067 44.2594 42.9894 44.2707C42.271 44.7479 41.408 45.0919 40.4723 45.274C39.5367 45.456 38.5554 45.4709 37.6104 45.3173C37.5882 45.3145 37.5651 45.3103 37.543 45.3067C37.5545 45.3649 37.5651 45.4237 37.5776 45.4819C37.5998 45.4854 37.621 45.4889 37.6432 45.4918C38.6122 45.6393 39.6148 45.6167 40.5698 45.4259C41.5248 45.2351 42.4052 44.8813 43.1397 44.3934C43.1628 44.3778 43.1869 44.3629 43.2091 44.3466C43.2669 44.3069 43.3228 44.2672 43.3787 44.2275C44.1868 43.6324 44.7583 42.8859 45.0313 42.069C45.0458 42.0264 45.0592 41.9839 45.0718 41.9413C45.0004 41.9229 44.9292 41.9044 44.8569 41.8867Z" fill="#FCFCFD"/>
<path d="M47.105 42.6094C47.106 42.6491 47.106 42.6895 47.105 42.7292C47.0889 43.8499 46.4983 44.9247 45.4514 45.7386C45.3974 45.7812 45.3415 45.8223 45.2857 45.8634C45.225 45.9067 45.1643 45.9499 45.1016 45.9911C44.1322 46.634 42.9077 47.0306 41.6087 47.1224C40.3096 47.2142 39.0049 46.9963 37.887 46.5009C37.8678 46.4936 37.8491 46.4855 37.8311 46.4768C37.8542 46.552 37.8773 46.6257 37.9024 46.6995C37.9197 46.7065 37.9361 46.7136 37.9534 46.72C39.1038 47.192 40.4259 47.3874 41.7347 47.2788C43.0435 47.1702 44.2733 46.7631 45.252 46.1144C45.3146 46.0726 45.3772 46.0308 45.436 45.9868C45.4938 45.9464 45.5487 45.9053 45.6037 45.8627C46.6654 45.0388 47.2782 43.9563 47.3257 42.8214C47.3276 42.7831 47.3286 42.7448 47.3286 42.7065C47.2553 42.6732 47.1802 42.6413 47.105 42.6094Z" fill="#FCFCFD"/>
<path d="M27.6242 11.7414H10.685C10.544 11.7413 10.4089 11.7 10.3092 11.6267C10.2095 11.5533 10.1535 11.4539 10.1533 11.3501V1.88543C10.1535 1.78169 10.2095 1.68224 10.3092 1.60888C10.4089 1.53553 10.544 1.49426 10.685 1.49414H31.477C31.618 1.49426 31.7531 1.53553 31.8528 1.60888C31.9525 1.68224 32.0085 1.78169 32.0087 1.88543V8.51498C32.0074 9.37038 31.545 10.1905 30.723 10.7953C29.9011 11.4002 28.7866 11.7404 27.6242 11.7414Z" fill="#FCFCFD"/>
<path d="M27.624 11.7771H10.6849C10.5311 11.777 10.3837 11.732 10.275 11.652C10.1663 11.572 10.1052 11.4636 10.105 11.3504V1.88572C10.1052 1.77259 10.1663 1.66413 10.275 1.58413C10.3837 1.50412 10.5311 1.45912 10.6849 1.45898H31.4768C31.6306 1.45911 31.778 1.50412 31.8867 1.58412C31.9954 1.66412 32.0565 1.77259 32.0567 1.88572V8.51528C32.0554 9.38007 31.5879 10.2092 30.7569 10.8207C29.9259 11.4322 28.7992 11.7762 27.624 11.7771ZM10.6849 1.6008C10.5822 1.6009 10.4838 1.63095 10.4112 1.68436C10.3386 1.73777 10.2978 1.81019 10.2977 1.88572V11.3504C10.2978 11.426 10.3386 11.4984 10.4112 11.5518C10.4838 11.6052 10.5822 11.6352 10.6849 11.6353H27.624C28.7481 11.6344 29.8259 11.3054 30.6207 10.7204C31.4156 10.1355 31.8627 9.34248 31.864 8.51528V1.88572C31.8639 1.81019 31.823 1.73777 31.7505 1.68436C31.6779 1.63095 31.5795 1.6009 31.4768 1.6008H10.6849Z" fill="#CCCCCC"/>
<path d="M27.3669 4.69125H14.795C14.6796 4.69125 14.5689 4.65751 14.4873 4.59746C14.4057 4.5374 14.3599 4.45595 14.3599 4.37102C14.3599 4.28608 14.4057 4.20463 14.4873 4.14458C14.5689 4.08452 14.6796 4.05078 14.795 4.05078H27.3669C27.4822 4.05091 27.5928 4.0847 27.6742 4.14474C27.7557 4.20479 27.8015 4.28617 27.8015 4.37102C27.8015 4.45587 27.7557 4.53725 27.6742 4.59729C27.5928 4.65733 27.4822 4.69112 27.3669 4.69125Z" fill="#CCCCCC"/>
<path d="M27.3669 6.89633H14.795C14.6796 6.89633 14.5689 6.86259 14.4873 6.80253C14.4057 6.74248 14.3599 6.66102 14.3599 6.57609C14.3599 6.49116 14.4057 6.40971 14.4873 6.34965C14.5689 6.2896 14.6796 6.25586 14.795 6.25586H27.3669C27.4823 6.25586 27.593 6.2896 27.6746 6.34965C27.7563 6.40971 27.8021 6.49116 27.8021 6.57609C27.8021 6.66102 27.7563 6.74248 27.6746 6.80253C27.593 6.86259 27.4823 6.89633 27.3669 6.89633Z" fill="#CCCCCC"/>
<path d="M27.3669 9.16586H14.795C14.6796 9.16586 14.5689 9.13212 14.4873 9.07206C14.4057 9.01201 14.3599 8.93056 14.3599 8.84562C14.3599 8.76069 14.4057 8.67924 14.4873 8.61918C14.5689 8.55913 14.6796 8.52539 14.795 8.52539H27.3669C27.4823 8.52539 27.593 8.55913 27.6746 8.61918C27.7563 8.67924 27.8021 8.76069 27.8021 8.84562C27.8021 8.93056 27.7563 9.01201 27.6746 9.07206C27.593 9.13212 27.4823 9.16586 27.3669 9.16586Z" fill="#CCCCCC"/>
<path d="M31.3209 3.82467C32.7562 3.82467 33.9197 2.96849 33.9197 1.91233C33.9197 0.856181 32.7562 0 31.3209 0C29.8857 0 28.7222 0.856181 28.7222 1.91233C28.7222 2.96849 29.8857 3.82467 31.3209 3.82467Z" fill="#0175A2"/>
<path d="M30.9663 2.90857C30.9214 2.90857 30.8772 2.90087 30.837 2.8861C30.7969 2.87133 30.762 2.84988 30.7351 2.82346L30.0261 2.12783C30.0033 2.10548 29.9867 2.08005 29.9773 2.05299C29.9679 2.02593 29.9658 1.99777 29.9712 1.97012C29.9765 1.94246 29.9893 1.91586 30.0086 1.89182C30.0279 1.86779 30.0535 1.84679 30.0839 1.83003C30.1143 1.81327 30.1488 1.80108 30.1856 1.79414C30.2224 1.78721 30.2606 1.78568 30.2982 1.78963C30.3358 1.79358 30.372 1.80294 30.4046 1.81717C30.4373 1.83141 30.4658 1.85023 30.4886 1.87258L30.9524 2.32765L32.1437 1.0127C32.1863 0.965753 32.2524 0.933165 32.3276 0.922101C32.4028 0.911036 32.4808 0.922401 32.5446 0.953697C32.6084 0.984992 32.6527 1.03365 32.6677 1.08898C32.6828 1.1443 32.6673 1.20175 32.6248 1.24869L31.2068 2.81383C31.1812 2.84214 31.1467 2.86551 31.1062 2.88198C31.0658 2.89845 31.0206 2.90755 30.9743 2.9085C30.9717 2.90853 30.969 2.90857 30.9663 2.90857Z" fill="#FCFCFD"/>
<path d="M21.372 19.9621H4.43284C3.2704 19.9612 2.15595 19.6209 1.33398 19.0161C0.51201 18.4112 0.0496513 17.5911 0.0483398 16.7357V10.1061C0.0485054 10.0024 0.104581 9.90294 0.204264 9.82958C0.303948 9.75623 0.439101 9.71497 0.580075 9.71484H21.372C21.513 9.71497 21.6481 9.75623 21.7478 9.82958C21.8475 9.90294 21.9036 10.0024 21.9037 10.1061V19.5708C21.9036 19.6746 21.8475 19.774 21.7478 19.8474C21.6481 19.9207 21.513 19.962 21.372 19.9621Z" fill="#FCFCFD"/>
<path d="M21.3718 19.9979H4.43268C3.25747 19.9969 2.13078 19.6529 1.29978 19.0414C0.468778 18.4299 0.00133618 17.6008 0 16.736V10.1064C0.000174196 9.99329 0.0613286 9.88482 0.170046 9.80482C0.278764 9.72482 0.426167 9.67982 0.579917 9.67969H21.3718C21.5256 9.67982 21.673 9.72482 21.7817 9.80482C21.8904 9.88482 21.9516 9.99329 21.9518 10.1064V19.5711C21.9516 19.6843 21.8904 19.7927 21.7817 19.8727C21.673 19.9527 21.5256 19.9977 21.3718 19.9979ZM0.579917 9.82151C0.477265 9.8216 0.378853 9.85165 0.306268 9.90506C0.233682 9.95847 0.192849 10.0309 0.192725 10.1064V16.736C0.193995 17.5632 0.641111 18.3563 1.43598 18.9412C2.23085 19.5261 3.30856 19.8551 4.43268 19.8561H21.3718C21.4745 19.856 21.5729 19.8259 21.6455 19.7725C21.7181 19.7191 21.7589 19.6467 21.759 19.5711V10.1064C21.7589 10.0309 21.7181 9.95847 21.6455 9.90506C21.5729 9.85165 21.4745 9.8216 21.3718 9.82151H0.579917Z" fill="#CCCCCC"/>
<path d="M17.2619 12.91H4.69006C4.57465 12.91 4.46396 12.8763 4.38234 12.8162C4.30073 12.7562 4.25488 12.6747 4.25488 12.5898C4.25488 12.5048 4.30073 12.4234 4.38234 12.3633C4.46396 12.3033 4.57465 12.2695 4.69006 12.2695H17.2619C17.3774 12.2695 17.4881 12.3033 17.5697 12.3633C17.6513 12.4234 17.6971 12.5048 17.6971 12.5898C17.6971 12.6747 17.6513 12.7562 17.5697 12.8162C17.4881 12.8763 17.3774 12.91 17.2619 12.91Z" fill="#CCCCCC"/>
<path d="M17.2619 15.117H4.69006C4.57465 15.117 4.46396 15.0833 4.38234 15.0232C4.30073 14.9632 4.25488 14.8817 4.25488 14.7968C4.25488 14.7119 4.30073 14.6304 4.38234 14.5704C4.46396 14.5103 4.57465 14.4766 4.69006 14.4766H17.2619C17.3774 14.4766 17.4881 14.5103 17.5697 14.5704C17.6513 14.6304 17.6971 14.7119 17.6971 14.7968C17.6971 14.8817 17.6513 14.9632 17.5697 15.0232C17.4881 15.0833 17.3774 15.117 17.2619 15.117Z" fill="#CCCCCC"/>
<path d="M17.2619 17.3866H4.69006C4.57465 17.3866 4.46396 17.3528 4.38234 17.2928C4.30073 17.2327 4.25488 17.1513 4.25488 17.0663C4.25488 16.9814 4.30073 16.8999 4.38234 16.8399C4.46396 16.7798 4.57465 16.7461 4.69006 16.7461H17.2619C17.3774 16.7461 17.4881 16.7798 17.5697 16.8399C17.6513 16.8999 17.6971 16.9814 17.6971 17.0663C17.6971 17.1513 17.6513 17.2327 17.5697 17.2928C17.4881 17.3528 17.3774 17.3866 17.2619 17.3866Z" fill="#CCCCCC"/>
<path d="M21.3956 12.1215C22.8309 12.1215 23.9944 11.2654 23.9944 10.2092C23.9944 9.15306 22.8309 8.29688 21.3956 8.29688C19.9604 8.29688 18.7969 9.15306 18.7969 10.2092C18.7969 11.2654 19.9604 12.1215 21.3956 12.1215Z" fill="#0175A2"/>
<path d="M21.041 11.2035C20.9961 11.2035 20.9519 11.1958 20.9117 11.181C20.8716 11.1663 20.8367 11.1448 20.8098 11.1184L20.1008 10.4228C20.078 10.4004 20.0614 10.375 20.052 10.3479C20.0426 10.3209 20.0405 10.2927 20.0459 10.265C20.0512 10.2374 20.064 10.2108 20.0833 10.1867C20.1026 10.1627 20.1282 10.1417 20.1586 10.125C20.189 10.1082 20.2235 10.096 20.2603 10.0891C20.2971 10.0821 20.3353 10.0806 20.3729 10.0846C20.4105 10.0885 20.4467 10.0979 20.4793 10.1121C20.512 10.1263 20.5405 10.1452 20.5633 10.1675L21.0271 10.6226L22.2185 9.30762C22.261 9.26067 22.3271 9.22809 22.4023 9.21702C22.4775 9.20596 22.5555 9.21732 22.6193 9.24862C22.6831 9.27991 22.7274 9.32858 22.7425 9.3839C22.7575 9.43922 22.742 9.49667 22.6995 9.54362L21.2815 11.1088C21.2559 11.1371 21.2214 11.1604 21.1809 11.1769C21.1405 11.1934 21.0953 11.2025 21.049 11.2034C21.0464 11.2035 21.0437 11.2035 21.041 11.2035Z" fill="#FCFCFD"/>
<path d="M42.4778 28.7846H18.7761C17.6137 28.7836 16.4992 28.4434 15.6772 27.8385C14.8553 27.2337 14.3929 26.4136 14.3916 25.5582V15.8071C14.3918 15.6734 14.4641 15.5452 14.5926 15.4506C14.7211 15.3561 14.8953 15.3029 15.077 15.3027H42.4778C42.6595 15.3029 42.8337 15.3561 42.9622 15.4506C43.0907 15.5452 43.163 15.6734 43.1632 15.8071V28.2802C43.163 28.4139 43.0907 28.5421 42.9622 28.6367C42.8337 28.7312 42.6595 28.7844 42.4778 28.7846Z" fill="#FCFCFD"/>
<path d="M42.4777 28.8184H18.7759C17.6007 28.8174 16.474 28.4734 15.643 27.8619C14.812 27.2504 14.3446 26.4213 14.3433 25.5565V15.8054C14.3435 15.6623 14.4208 15.5251 14.5584 15.4239C14.6959 15.3227 14.8824 15.2658 15.0769 15.2656H42.4777C42.6722 15.2658 42.8586 15.3227 42.9961 15.4239C43.1336 15.5251 43.211 15.6623 43.2112 15.8054V28.2785C43.211 28.4216 43.1337 28.5589 42.9961 28.6601C42.8586 28.7613 42.6722 28.8182 42.4777 28.8184ZM15.0769 15.4074C14.9335 15.4076 14.796 15.4495 14.6946 15.5242C14.5932 15.5988 14.5362 15.6999 14.536 15.8054V25.5565C14.5373 26.3837 14.9844 27.1768 15.7792 27.7617C16.5741 28.3466 17.6518 28.6756 18.7759 28.6766H42.4777C42.6211 28.6764 42.7585 28.6344 42.8599 28.5598C42.9613 28.4852 43.0183 28.384 43.0185 28.2785V15.8054C43.0183 15.6999 42.9613 15.5988 42.8599 15.5242C42.7585 15.4495 42.6211 15.4076 42.4777 15.4074H15.0769Z" fill="#CCCCCC"/>
<path d="M37.0611 19.5022H20.4932C20.4178 19.5023 20.3432 19.4915 20.2735 19.4703C20.2038 19.4491 20.1405 19.418 20.0872 19.3788C20.0339 19.3396 19.9915 19.2931 19.9627 19.2419C19.9338 19.1906 19.9189 19.1357 19.9189 19.0802C19.9189 19.0248 19.9338 18.9698 19.9627 18.9186C19.9915 18.8674 20.0339 18.8208 20.0872 18.7816C20.1405 18.7424 20.2038 18.7113 20.2735 18.6902C20.3432 18.669 20.4178 18.6581 20.4932 18.6582H37.0611C37.1365 18.6581 37.2112 18.669 37.2808 18.6902C37.3505 18.7113 37.4138 18.7424 37.4671 18.7816C37.5205 18.8208 37.5628 18.8674 37.5917 18.9186C37.6205 18.9698 37.6354 19.0248 37.6354 19.0802C37.6354 19.1357 37.6205 19.1906 37.5917 19.2419C37.5628 19.2931 37.5205 19.3396 37.4671 19.3788C37.4138 19.418 37.3505 19.4491 37.2808 19.4703C37.2112 19.4915 37.1365 19.5023 37.0611 19.5022Z" fill="#CCCCCC"/>
<path d="M37.0611 22.4105H20.4932C20.4178 22.4105 20.3432 22.3997 20.2735 22.3785C20.2038 22.3573 20.1405 22.3262 20.0872 22.287C20.0339 22.2478 19.9915 22.2013 19.9627 22.1501C19.9338 22.0988 19.9189 22.0439 19.9189 21.9884C19.9189 21.933 19.9338 21.878 19.9627 21.8268C19.9915 21.7756 20.0339 21.729 20.0872 21.6898C20.1405 21.6506 20.2038 21.6195 20.2735 21.5984C20.3432 21.5772 20.4178 21.5663 20.4932 21.5664H37.0611C37.2132 21.5664 37.3591 21.6109 37.4667 21.69C37.5742 21.7692 37.6347 21.8765 37.6347 21.9884C37.6347 22.1004 37.5742 22.2077 37.4667 22.2868C37.3591 22.366 37.2132 22.4105 37.0611 22.4105Z" fill="#CCCCCC"/>
<path d="M37.0614 25.4007H20.4934C20.3413 25.4007 20.1955 25.3562 20.0879 25.2771C19.9803 25.1979 19.9199 25.0906 19.9199 24.9787C19.9199 24.8667 19.9803 24.7594 20.0879 24.6802C20.1955 24.6011 20.3413 24.5566 20.4934 24.5566H37.0614C37.1367 24.5566 37.2114 24.5674 37.281 24.5886C37.3507 24.6098 37.414 24.6409 37.4674 24.6801C37.5207 24.7192 37.563 24.7658 37.5919 24.817C37.6207 24.8683 37.6356 24.9232 37.6356 24.9787C37.6356 25.0341 37.6207 25.0891 37.5919 25.1403C37.563 25.1915 37.5207 25.2381 37.4674 25.2773C37.414 25.3165 37.3507 25.3475 37.281 25.3687C37.2114 25.3899 37.1367 25.4008 37.0614 25.4007Z" fill="#CCCCCC"/>
<path d="M42.5636 18.4861C44.3805 18.4861 45.8533 17.4023 45.8533 16.0653C45.8533 14.7284 44.3805 13.6445 42.5636 13.6445C40.7468 13.6445 39.2739 14.7284 39.2739 16.0653C39.2739 17.4023 40.7468 18.4861 42.5636 18.4861Z" fill="#0175A2"/>
<path d="M42.1149 17.3243C42.0581 17.3243 42.0021 17.3145 41.9513 17.2958C41.9005 17.2771 41.8563 17.25 41.8222 17.2165L40.9247 16.3359C40.8959 16.3077 40.8749 16.2755 40.863 16.2412C40.8511 16.207 40.8484 16.1713 40.8552 16.1363C40.862 16.1013 40.8781 16.0676 40.9026 16.0372C40.9271 16.0068 40.9595 15.9802 40.9979 15.959C41.0364 15.9377 41.0801 15.9223 41.1267 15.9135C41.1732 15.9048 41.2217 15.9028 41.2693 15.9078C41.3168 15.9128 41.3626 15.9247 41.4039 15.9427C41.4453 15.9607 41.4814 15.9845 41.5102 16.0128L42.0974 16.5889L43.6055 14.9243C43.6593 14.865 43.743 14.8238 43.8381 14.8099C43.9332 14.7959 44.032 14.8103 44.1127 14.8499C44.1934 14.8895 44.2494 14.951 44.2685 15.021C44.2875 15.091 44.2681 15.1636 44.2144 15.2231L42.4195 17.2043C42.387 17.2402 42.3433 17.2697 42.2921 17.2906C42.2409 17.3114 42.1836 17.323 42.1251 17.3242C42.1217 17.3242 42.1183 17.3243 42.1149 17.3243Z" fill="#FCFCFD"/>
<path d="M51.0861 48.0665L49.7478 48.3959L47.3843 44.7537L49.3597 44.2676L51.0861 48.0665Z" fill="#EDC9BE"/>
<path d="M51.8613 48.9384L47.5457 49.7877L47.5274 49.7475C47.3774 49.4174 47.411 49.2767 47.6222 48.9651C47.7255 48.8117 47.8691 48.6749 48.0447 48.5626C48.2203 48.4502 48.4245 48.3647 48.6453 48.3108L48.6454 48.3108L49.2337 47.6767L50.9045 47.7548L51.2813 47.6621L51.8613 48.9384Z" fill="#2F2E41"/>
<path d="M54.3927 48.994H52.9815L52.3101 44.9883L54.393 44.9884L54.3927 48.994Z" fill="#EDC9BE"/>
<path d="M54.7527 49.7866L50.2021 49.7865V49.7441C50.2022 49.396 50.3864 49.2814 50.721 49.0352C50.8851 48.9138 51.0803 48.8176 51.2952 48.7521C51.5102 48.6865 51.7407 48.653 51.9734 48.6535H51.9735L52.8047 48.1895L54.3556 48.6536L54.7528 48.6536L54.7527 49.7866Z" fill="#2F2E41"/>
<path d="M43.6521 16.8989C43.6812 17.0077 43.7423 17.1105 43.8312 17.2C43.9201 17.2895 44.0346 17.3637 44.1666 17.4171C44.2986 17.4706 44.4449 17.5021 44.5953 17.5094C44.7457 17.5167 44.8964 17.4997 45.0368 17.4596L46.6661 18.7113L47.9413 18.1682L45.6067 16.4244C45.4994 16.2552 45.3114 16.1209 45.0785 16.0469C44.8456 15.9729 44.5839 15.9643 44.343 16.0228C44.1021 16.0813 43.8987 16.2028 43.7713 16.3642C43.644 16.5257 43.6016 16.7159 43.6521 16.8989Z" fill="#EDC9BE"/>
<path d="M54.1966 23.1925L54.931 22.6333L50.6836 19.7386L46.4086 16.9297L45.2246 18.1608L49.7044 21.2379L54.1966 23.1925Z" fill="#E4E4E4"/>
<path d="M51.5868 42.1899C51.5868 41.4871 51.6057 40.9859 51.6209 40.5831C51.6653 39.4043 51.6773 39.0875 51.0643 37.0575L50.9068 36.5362L49.9784 38.5858C49.6819 39.2396 49.5303 39.9243 49.5296 40.6135L50.9611 46.9338H48.0353L45.8925 40.101L45.8915 38.0109C45.7027 37.8671 45.5972 37.675 45.5972 37.4751C45.5972 37.2751 45.7027 37.083 45.8915 36.9393L46.6034 33.808L47.324 29.5879H55.2168C55.2168 29.5879 56.6097 31.7125 55.2255 33.82L55.2253 42.1925L54.5101 47.9816H52.3022L51.5868 42.1899Z" fill="#2F2E41"/>
<path d="M54.734 30.098L47.3513 29.6453L47.313 29.643L47.9022 21.8391C47.9368 21.3484 48.1708 20.8767 48.5738 20.485C48.9768 20.0933 49.5303 19.7996 50.1627 19.6419V19.0958C50.1629 18.9606 50.236 18.831 50.3659 18.7354C50.4958 18.6399 50.6719 18.5861 50.8555 18.5859H51.9342C52.063 18.5856 52.1893 18.6119 52.2988 18.6617C52.4084 18.7115 52.4967 18.7829 52.5539 18.8678L53.0814 19.6441L55.076 20.8182C56.0611 21.3982 55.2682 27.2126 55.2256 27.5194L55.708 29.2944C55.7345 29.392 55.7313 29.4928 55.6986 29.5894C55.6659 29.686 55.6045 29.7761 55.5188 29.8532C55.4332 29.9302 55.3254 29.9924 55.2032 30.0352C55.081 30.0779 54.9475 30.1002 54.8121 30.1005C54.7862 30.1004 54.7602 30.0996 54.734 30.098Z" fill="#E4E4E4"/>
<path d="M46.9157 32.1593C47.0324 32.0892 47.1268 32.0011 47.1923 31.9012C47.2577 31.8013 47.2926 31.6921 47.2944 31.5812C47.2963 31.4703 47.2651 31.3605 47.203 31.2594C47.141 31.1584 47.0495 31.0686 46.9352 30.9964L47.6677 29.3491L46.4159 28.7773L45.4259 31.1143C45.2737 31.2637 45.2013 31.449 45.2223 31.635C45.2434 31.8211 45.3564 31.995 45.5401 32.1238C45.7237 32.2526 45.9652 32.3273 46.2187 32.3339C46.4723 32.3404 46.7203 32.2783 46.9157 32.1593Z" fill="#EDC9BE"/>
<path d="M49.4902 20.9603L48.4739 20.7109L47.0059 25.5305L45.6538 30.3236L47.6874 30.5438L49.2643 25.4474L49.4902 20.9603Z" fill="#E4E4E4"/>
<path d="M50.6005 18.088C51.9396 18.088 53.0252 17.2892 53.0252 16.3038C53.0252 15.3184 51.9396 14.5195 50.6005 14.5195C49.2614 14.5195 48.1758 15.3184 48.1758 16.3038C48.1758 17.2892 49.2614 18.088 50.6005 18.088Z" fill="#EDC9BE"/>
<path d="M47.338 15.4287C47.3604 15.2596 47.4262 15.0951 47.5321 14.9442C47.6454 15.1255 47.999 15.157 48.241 15.0667C48.483 14.9765 48.6451 14.805 48.818 14.6512C49.2744 14.2453 49.9019 13.916 50.6132 13.8561C51.3244 13.7961 52.1084 14.0603 52.3771 14.5486C52.4977 14.4253 52.755 14.4116 52.937 14.4832C53.1128 14.5648 53.25 14.6844 53.3298 14.8256C53.5087 15.0959 53.6099 15.3905 53.6269 15.6908C53.6438 15.9912 53.5763 16.2909 53.4284 16.5712C53.1289 17.1289 52.3893 17.8803 51.6263 18.0907C51.163 18.2185 50.6951 18.055 50.2024 18.0907C50.2282 17.6951 50.3325 17.2069 50.3583 16.8112C50.3724 16.5945 50.3745 16.3521 50.1733 16.1935C50.1117 16.1504 50.0378 16.1178 49.9571 16.098C49.8764 16.0782 49.7908 16.0717 49.7063 16.079C49.6218 16.0863 49.5405 16.1071 49.4682 16.14C49.3958 16.173 49.3342 16.2172 49.2876 16.2696C49.2627 16.1466 49.2063 16.0281 49.1213 15.9206C49.0777 15.8673 49.0147 15.824 48.9394 15.7957C48.8642 15.7673 48.7796 15.755 48.6954 15.7601C48.4897 15.7849 48.3626 15.9403 48.1738 16.0054C48.0666 16.037 47.9488 16.0437 47.8362 16.0247C47.7236 16.0057 47.6216 15.9619 47.5438 15.899C47.4683 15.8349 47.4111 15.7601 47.3757 15.6793C47.3404 15.5985 47.3275 15.5132 47.338 15.4287Z" fill="#2F2E41"/>
<path opacity="0.1" d="M50.914 25.4258L48.0664 29.6167H50.2022L50.914 25.4258Z" fill="black"/>
<path d="M69.9998 49.9164C69.9999 49.9275 69.997 49.9385 69.9912 49.9487C69.9855 49.959 69.977 49.9683 69.9664 49.9762C69.9557 49.984 69.9431 49.9902 69.9291 49.9944C69.9152 49.9987 69.9002 50.0008 69.8852 50.0008H15.5087C15.4783 50.0008 15.4491 49.9919 15.4276 49.9761C15.4061 49.9603 15.394 49.9388 15.394 49.9164C15.394 49.894 15.4061 49.8726 15.4276 49.8567C15.4491 49.8409 15.4783 49.832 15.5087 49.832H69.8852C69.9002 49.832 69.9152 49.8342 69.9291 49.8384C69.9431 49.8426 69.9557 49.8488 69.9664 49.8567C69.977 49.8645 69.9855 49.8738 69.9912 49.8841C69.997 49.8943 69.9999 49.9053 69.9998 49.9164Z" fill="#CACACA"/>
</g>
<defs>
<clipPath id="clip0_6896_23792">
<rect width="70" height="50" fill="white"/>
</clipPath>
</defs>
</svg>
