<svg width="24" height="24" viewBox="0 0 24 24" fill="none" xmlns="http://www.w3.org/2000/svg">
<path d="M5.41992 15.2465C6.49393 14.504 9.20372 13.316 11.4509 14.504C12.2219 14.9715 14.1772 16.0055 15.8295 16.4015C17.0963 16.869 18.8697 17.8699 15.8295 18.1339C14.3699 18.1064 11.3187 17.8864 10.7899 17.2264" stroke="url(#paint0_linear_1369_13871)" stroke-linecap="round"/>
<rect width="3.26547" height="7.68516" rx="1.63274" transform="matrix(0.993796 -0.111221 0.111534 0.993761 1 14.3633)" fill="url(#paint1_linear_1369_13871)"/>
<path d="M18.391 16.4738C21.4202 14.4113 26.0247 11.8539 20.2085 18.1237C18.2808 19.8562 13.6984 22.9746 10.7903 21.5887C9.79895 21.0112 7.43614 19.9387 5.91602 20.2687" stroke="url(#paint2_linear_1369_13871)" stroke-linecap="round"/>
<path d="M17.539 12.4855C17.539 12.4855 21.2324 10.3972 21.2324 7.26471V3.61018L17.539 2.04395L13.8457 3.61018V7.26471C13.8457 10.3972 17.539 12.4855 17.539 12.4855Z" fill="url(#paint3_linear_1369_13871)"/>
<path d="M19.3867 5.69873L16.8475 8.30912L15.6934 7.12258" stroke="white" stroke-linecap="round" stroke-linejoin="round"/>
<defs>
<linearGradient id="paint0_linear_1369_13871" x1="5.41992" y1="14" x2="5.78299" y2="18.9875" gradientUnits="userSpaceOnUse">
<stop stop-color="#00A2E0"/>
<stop offset="1" stop-color="#30728C"/>
</linearGradient>
<linearGradient id="paint1_linear_1369_13871" x1="0" y1="0" x2="3.73276" y2="7.45106" gradientUnits="userSpaceOnUse">
<stop stop-color="#00A2E0"/>
<stop offset="1" stop-color="#30728C"/>
</linearGradient>
<linearGradient id="paint2_linear_1369_13871" x1="5.91602" y1="14.165" x2="6.81967" y2="23.5003" gradientUnits="userSpaceOnUse">
<stop stop-color="#00A2E0"/>
<stop offset="1" stop-color="#30728C"/>
</linearGradient>
<linearGradient id="paint3_linear_1369_13871" x1="13.8457" y1="2.04395" x2="17.34" y2="13.6567" gradientUnits="userSpaceOnUse">
<stop stop-color="#00A2E0"/>
<stop offset="1" stop-color="#30728C"/>
</linearGradient>
</defs>
</svg>
