<svg width="25" height="25" viewBox="0 0 25 25" fill="none" xmlns="http://www.w3.org/2000/svg">
<path d="M6.5 15.7465C7.574 15.004 10.2838 13.816 12.5309 15.004C13.302 15.4715 15.2573 16.5055 16.9096 16.9015C18.1763 17.369 19.9498 18.3699 16.9096 18.6339C15.45 18.6064 12.3988 18.3864 11.87 17.7264" stroke="#98A2B3" stroke-width="1.5" stroke-linecap="round"/>
<rect x="0.828997" y="0.661905" width="2.35007" height="6.18516" rx="1.17503" transform="matrix(0.993796 -0.111221 0.111534 0.993761 0.849287 15.0246)" stroke="#98A2B3" stroke-width="1.5"/>
<path d="M19.5 16C22.5292 13.9375 26.5247 12.3537 20.7085 18.6235C18.7808 20.356 14.1984 23.4744 11.2903 22.0885C10.299 21.511 7.93614 20.4385 6.41602 20.7685" stroke="#98A2B3" stroke-width="1.5" stroke-linecap="round"/>
<path d="M18.039 12.9855C18.039 12.9855 21.7324 10.8972 21.7324 7.76471V4.11018L18.039 2.54395L14.3457 4.11018V7.76471C14.3457 10.8972 18.039 12.9855 18.039 12.9855Z" stroke="#98A2B3" stroke-linecap="round" stroke-linejoin="round"/>
<path d="M19.8867 6.19873L17.3475 8.80912L16.1934 7.62258" stroke="#98A2B3" stroke-linecap="round" stroke-linejoin="round"/>
</svg>
