<svg width="21" height="20"  class="inline-block mb-1" viewBox="0 0 21 20" fill="none" xmlns="http://www.w3.org/2000/svg">
  <path fill-rule="evenodd" clip-rule="evenodd" d="M9.65161 0.751734C9.87665 0.526769 10.1818 0.400391 10.5 0.400391C10.8182 0.400391 11.1234 0.526769 11.3484 0.751734L19.7484 9.15173C19.9162 9.31956 20.0304 9.53335 20.0767 9.7661C20.123 9.99884 20.0992 10.2401 20.0084 10.4593C19.9176 10.6786 19.7639 10.866 19.5666 10.9978C19.3693 11.1297 19.1373 11.2001 18.9 11.2001H17.7V18.4001C17.7 18.7184 17.5736 19.0236 17.3485 19.2487C17.1235 19.4737 16.8183 19.6001 16.5 19.6001H14.1C13.7818 19.6001 13.4765 19.4737 13.2515 19.2487C13.0264 19.0236 12.9 18.7184 12.9 18.4001V14.8001C12.9 14.4819 12.7736 14.1766 12.5485 13.9516C12.3235 13.7266 12.0183 13.6001 11.7 13.6001H9.30001C8.98175 13.6001 8.67653 13.7266 8.45148 13.9516C8.22644 14.1766 8.10001 14.4819 8.10001 14.8001V18.4001C8.10001 18.7184 7.97358 19.0236 7.74854 19.2487C7.5235 19.4737 7.21827 19.6001 6.90001 19.6001H4.50001C4.18175 19.6001 3.87653 19.4737 3.65148 19.2487C3.42644 19.0236 3.30001 18.7184 3.30001 18.4001V11.2001H2.10001C1.86271 11.2001 1.63075 11.1297 1.43346 10.9978C1.23617 10.866 1.0824 10.6786 0.991599 10.4593C0.900795 10.2401 0.877032 9.99884 0.923313 9.7661C0.969594 9.53335 1.08384 9.31956 1.25161 9.15173L9.65161 0.751734Z" fill="url(#paint0_linear_845_217)"/>
      <defs>
          <linearGradient id="paint0_linear_845_217" x1="0.900269" y1="0.400391" x2="5.64239" y2="22.6776" gradientUnits="userSpaceOnUse">
              <stop stop-color="#00A2E0"/>
              <stop offset="1" stop-color="#30728C"/>
              </linearGradient>
              </defs>
              </svg>